<svg xmlns="http://www.w3.org/2000/svg" viewBox="0 0 395.57 203.77">
  <g id="Camada_2" data-name="Camada 2">
    <g id="Camada_1-2" data-name="Camada 1">
      <rect id="Retângulo_944" data-name="Retângulo 944" x="117.75" y="113.66" width="132.26" height="90.11" style="fill: #5f8ddf"/>
      <path id="Caminho_696" data-name="Caminho 696" d="M257.39,103.12H127.23a1.59,1.59,0,0,0-1.58,1.59v88a1.59,1.59,0,0,0,1.58,1.59H257.39A1.59,1.59,0,0,0,259,192.7h0v-88A1.59,1.59,0,0,0,257.39,103.12Zm.52,89.58a.52.52,0,0,1-.52.53H127.23a.52.52,0,0,1-.52-.52h0v-88a.52.52,0,0,1,.52-.53H257.39a.53.53,0,0,1,.53.53Z" style="fill: #1f2c40"/>
      <rect id="Retângulo_945" data-name="Retângulo 945" x="132.5" y="165.3" width="59.54" height="6.85" rx="1.56" style="fill: #1f2c40"/>
      <path id="Caminho_697" data-name="Caminho 697" d="M246.32,159.51h-19a1.58,1.58,0,0,0-1.58,1.58h0v14.75a1.58,1.58,0,0,0,1.58,1.58h19a1.58,1.58,0,0,0,1.58-1.58h0V161.09A1.58,1.58,0,0,0,246.32,159.51Zm.53,16.33a.53.53,0,0,1-.53.53h-19a.52.52,0,0,1-.52-.53V161.09a.52.52,0,0,1,.52-.53h19a.53.53,0,0,1,.53.53h0Z" style="fill: #1f2c40"/>
      <path id="Retângulo_946" data-name="Retângulo 946" d="M231.71,162.91H242a1.34,1.34,0,0,1,1.34,1.34h0a1.34,1.34,0,0,1-1.34,1.34H231.71a1.34,1.34,0,0,1-1.34-1.34h0A1.34,1.34,0,0,1,231.71,162.91Z" style="fill: #1f2c40"/>
      <path id="Retângulo_947" data-name="Retângulo 947" d="M231.71,167.13H242a1.34,1.34,0,0,1,1.34,1.34h0A1.34,1.34,0,0,1,242,169.8H231.71a1.34,1.34,0,0,1-1.34-1.33h0A1.34,1.34,0,0,1,231.71,167.13Z" style="fill: #1f2c40"/>
      <path id="Retângulo_948" data-name="Retângulo 948" d="M231.71,171.34H242a1.34,1.34,0,0,1,1.34,1.34h0A1.34,1.34,0,0,1,242,174H231.71a1.34,1.34,0,0,1-1.34-1.34h0A1.34,1.34,0,0,1,231.71,171.34Z" style="fill: #1f2c40"/>
      <rect id="Retângulo_949" data-name="Retângulo 949" x="134.08" y="109.45" width="27.4" height="11.59" rx="1.56" style="fill: #1f2c40"/>
      <path id="Caminho_698" data-name="Caminho 698" d="M149.89,115.24c0,2-.94,3.69-2.11,3.69s-2.11-1.65-2.11-3.69,2.11-3.68,2.11-3.68S149.89,113.21,149.89,115.24Z" style="fill: #abcf60"/>
      <path id="Caminho_699" data-name="Caminho 699" d="M347.09,62.27h-.77v86H259v.77h88.12Z" style="fill: #1f2c40"/>
      <path id="Caminho_700" data-name="Caminho 700" d="M117.75,149.09H29.63V62.27h.77v86h87.35Z" style="fill: #1f2c40"/>
      <path id="Caminho_701" data-name="Caminho 701" d="M395.33,14.55h-.5v-.86h.37a.25.25,0,0,0,.25-.25V9a.25.25,0,0,0-.25-.24h-.37V6.23A5.37,5.37,0,0,0,389.46.86h-.54V.25a.25.25,0,0,0-.25-.25h-4.44a.25.25,0,0,0-.25.25h0V.86h-80.2a5.38,5.38,0,0,0-5.37,5.37h0V120.52a5.38,5.38,0,0,0,5.37,5.37h85.68a5.37,5.37,0,0,0,5.37-5.37v-101h.49a.25.25,0,0,0,.25-.24V14.8A.25.25,0,0,0,395.33,14.55Z" style="fill: #1f2c40"/>
      <rect id="Retângulo_950" data-name="Retângulo 950" x="302.85" y="4.38" width="88.28" height="117.13" rx="1.49" style="fill: #ccddf4"/>
      <rect id="Retângulo_951" data-name="Retângulo 951" x="336.85" y="61.78" width="15.14" height="4.49" rx="1.56" style="fill: #1f2c40"/>
      <path id="Retângulo_952" data-name="Retângulo 952" d="M319.51,26.84h49.83a1,1,0,0,1,1,1h0a1,1,0,0,1-1,1H319.51a1,1,0,0,1-1-1h0A1,1,0,0,1,319.51,26.84Z" style="fill: #1f2c40"/>
      <path id="Retângulo_953" data-name="Retângulo 953" d="M319.51,32.93h49.83a1,1,0,0,1,1,1h0a1,1,0,0,1-1,1H319.51a1,1,0,0,1-1-1h0A1,1,0,0,1,319.51,32.93Z" style="fill: #1f2c40"/>
      <path id="Retângulo_954" data-name="Retângulo 954" d="M319.51,39h49.83a1,1,0,0,1,1,1h0a1,1,0,0,1-1,1H319.51a1,1,0,0,1-1-1h0A1,1,0,0,1,319.51,39Z" style="fill: #1f2c40"/>
      <path id="Retângulo_955" data-name="Retângulo 955" d="M319.51,45.11h49.83a1,1,0,0,1,1,1h0a1,1,0,0,1-1,1H319.51a1,1,0,0,1-1-1h0A1,1,0,0,1,319.51,45.11Z" style="fill: #1f2c40"/>
      <path id="Retângulo_956" data-name="Retângulo 956" d="M319.51,51.2h49.83a1,1,0,0,1,1,1h0a1,1,0,0,1-1,1H319.51a1,1,0,0,1-1-1h0A1,1,0,0,1,319.51,51.2Z" style="fill: #1f2c40"/>
      <circle id="Elipse_295" data-name="Elipse 295" cx="342.59" cy="100.81" r="16.08" style="fill: #5f8ddf"/>
      <path id="Caminho_702" data-name="Caminho 702" d="M347.33,113.21a20.16,20.16,0,1,1,20.16-20.16,20.16,20.16,0,0,1-20.16,20.16Zm0-39.58a19.43,19.43,0,1,0,19.43,19.42,19.42,19.42,0,0,0-19.43-19.42Z" style="fill: #1f2c40"/>
      <path id="Caminho_703" data-name="Caminho 703" d="M59.84,33.83h-.66V15.77A10.46,10.46,0,0,0,48.72,5.31H10.46A10.45,10.45,0,0,0,0,15.76H0v99.08a10.45,10.45,0,0,0,10.45,10.46H48.72a10.45,10.45,0,0,0,10.45-10.46h0V46.69h.66Z" style="fill: #1f2c40"/>
      <path id="Caminho_704" data-name="Caminho 704" d="M57,16.38v98.94a7.81,7.81,0,0,1-7.81,7.81H10.69a7.8,7.8,0,0,1-7.8-7.8V16.38a7.8,7.8,0,0,1,7.8-7.8h4.67a3.71,3.71,0,0,0,2,4.83,3.77,3.77,0,0,0,1.41.28H40.72a3.72,3.72,0,0,0,3.44-5.11h5A7.81,7.81,0,0,1,57,16.38Z" style="fill: #ccddf4"/>
      <path id="Retângulo_957" data-name="Retângulo 957" d="M26.3,66.87h7.24a1.52,1.52,0,0,1,1.53,1.52h0a1.52,1.52,0,0,1-1.53,1.53H26.3a1.52,1.52,0,0,1-1.53-1.53h0A1.52,1.52,0,0,1,26.3,66.87Z" style="fill: #1f2c40"/>
      <path id="Retângulo_958" data-name="Retângulo 958" d="M13,43.1h33.9a.66.66,0,0,1,.65.66h0a.65.65,0,0,1-.65.65H13a.65.65,0,0,1-.65-.65h0A.66.66,0,0,1,13,43.1Z" style="fill: #1f2c40"/>
      <path id="Retângulo_959" data-name="Retângulo 959" d="M13,47.25h33.9a.65.65,0,0,1,.65.65h0a.65.65,0,0,1-.65.65H13a.65.65,0,0,1-.65-.65h0A.65.65,0,0,1,13,47.25Z" style="fill: #1f2c40"/>
      <path id="Retângulo_960" data-name="Retângulo 960" d="M13,51.39h33.9a.65.65,0,0,1,.65.65h0a.66.66,0,0,1-.65.66H13a.66.66,0,0,1-.65-.66h0A.65.65,0,0,1,13,51.39Z" style="fill: #1f2c40"/>
      <path id="Retângulo_961" data-name="Retângulo 961" d="M13,55.53h33.9a.65.65,0,0,1,.65.65h0a.65.65,0,0,1-.65.66H13a.65.65,0,0,1-.65-.66h0A.65.65,0,0,1,13,55.53Z" style="fill: #1f2c40"/>
      <path id="Retângulo_962" data-name="Retângulo 962" d="M13,59.67h33.9a.66.66,0,0,1,.65.66h0a.65.65,0,0,1-.65.65H13a.65.65,0,0,1-.65-.65h0A.66.66,0,0,1,13,59.67Z" style="fill: #1f2c40"/>
      <circle id="Elipse_296" data-name="Elipse 296" cx="26.89" cy="98.64" r="11.09" style="fill: #5f8ddf"/>
      <path id="Caminho_705" data-name="Caminho 705" d="M30.16,107.2a13.9,13.9,0,1,1,13.9-13.9,13.9,13.9,0,0,1-13.9,13.9Zm0-27.3A13.4,13.4,0,1,0,43.55,93.3h0A13.39,13.39,0,0,0,30.16,79.9Z" style="fill: #1f2c40"/>
      <rect id="Retângulo_963" data-name="Retângulo 963" x="56.76" y="144.37" width="10.77" height="10.77" style="fill: #abcf60"/>
      <path id="Caminho_706" data-name="Caminho 706" d="M74.08,149H61V135.91H74.08Zm-12.52-.57h12V136.48h-12Z" style="fill: #1f2c40"/>
      <rect id="Retângulo_964" data-name="Retângulo 964" x="298.03" y="144.37" width="10.77" height="10.77" style="fill: #abcf60"/>
      <path id="Caminho_707" data-name="Caminho 707" d="M315.34,149H302.26V135.91h13.08Zm-12.51-.57h11.95V136.48H302.83Z" style="fill: #1f2c40"/>
    </g>
  </g>
</svg>
