<svg xmlns="http://www.w3.org/2000/svg" viewBox="0 0 288 253.27">
  <g id="Camada_2" data-name="Camada 2">
    <g id="Camada_1-2" data-name="Camada 1">
      <g id="iconfinder-connectedglobe-4417105_116615" data-name="iconfinder-connectedglobe-4417105 116615">
        <g id="Grupo_654" data-name="Grupo 654">
          <g id="Grupo_653" data-name="Grupo 653">
            <ellipse id="Elipse_1050" data-name="Elipse 1050" cx="152.02" cy="126.64" rx="106.18" ry="100.66" style="fill: #ccddf4"/>
            <path id="Caminho_4857" data-name="Caminho 4857" d="M210.25,42.45c-2.57.13-2.86,1.64-2.1,6.71-3.49-.79-6.89,2.24-10.44.27a2.57,2.57,0,0,0-.83,0c-3.43.58-3.53.48-2.79-3.12a16.64,16.64,0,0,0,.48-1.94,9.66,9.66,0,0,0-.13-2.46H194c-.59,2.43-2.62,4.52-1.79,7.49,0,.29-.66,1.15-1,1.14a5.7,5.7,0,0,0-5.49,3.66c-.21.19-.54.57-.74.57a4,4,0,0,0-3.72,3.12c-.11.38-.95.56-1.37.84-.73.27-1.27.74-1.89,1s-1.36.55-2,.82l-2,1a9.48,9.48,0,0,0,1.3,1.6,27.22,27.22,0,0,1,3.24,2c1.09,1.11,1.19,4.54,0,5.39-.74.47-2.07-.06-3-.29a48.09,48.09,0,0,0-4.93-.92,2.37,2.37,0,0,0-2.56,2.14,2.28,2.28,0,0,0,.28,1.22,3.75,3.75,0,0,1-.22,3.61c-1,1.74-.58,5.08.65,5.41a23.13,23.13,0,0,0,4.91,1.32,2.65,2.65,0,0,0,3.32-1.55.56.56,0,0,0,0-.12,17.09,17.09,0,0,1,7.39-7.91c.32-.18.74-.46.95-.56-.7-.9-1.08-1.69-1.59-2.29a4.14,4.14,0,0,1,2.68.37c1.53.63,3,1,4-1.06.34-1.07,1.27-1,2-.14a4.47,4.47,0,0,1,.87,1.69c.64,2.57,2.57,3.51,4.39,4.74a4.71,4.71,0,0,1,2.1,2.11,3.87,3.87,0,0,1-.19,2.64c-.33.48-1.36.45-2.19.72l-1.24,0c0,.09-.11.29-.12.38.6.51,1.3,1.41,2,1.23,1.86-.13,3.19-2.84,3.19-6a17.27,17.27,0,0,1,2,.64c.11-.09.22-.38.33-.47-1.31-1.12-2.72-2-3.92-3.25-1.71-1.42-3.64-2.36-3.66-5-.18-.79-.86-2,.49-2.24,1.14-.16,2.58,0,2.53,1.64,0,2.84,1.84,3.68,3.77,4.62a5,5,0,0,1,2.13,1.24,2.49,2.49,0,0,1,.76,1.88,3.73,3.73,0,0,0,.59,4,6.25,6.25,0,0,1,.88,1.6A9.32,9.32,0,0,1,208,84.2c.64-.57,1.26-.94,1.9-1.51a2.44,2.44,0,0,0,.54-.57c1-.85,1.08-1.53,0-2.35a15.29,15.29,0,0,1-1.69-1.91,4.64,4.64,0,0,1,4.67-.75,4.71,4.71,0,0,0,3.32-.39c.31-.18-.15-2-.11-3a5.5,5.5,0,0,1,.1-2.93,11.75,11.75,0,0,1,2.07-3.46c.75-.86,1.82-1.91,2.23-1.8a6.28,6.28,0,0,1,2.6,2.53c.61.41.88,1.49,1.5,1.51a6.56,6.56,0,0,0,2.5-.71c0-.29-.09-.39-.08-.59-1-.42-1.94-.74-3-1.16l0-.59c2.5-.61,5-1.32,7.5-2a10.42,10.42,0,0,1-1.74,2.69c-1.29,1.62-1.31,2.31.19,3.63a11.74,11.74,0,0,1,2.72,2.34,3.85,3.85,0,0,1,.42,2.85c-.12.59-1.38,1.14-2.1,1.12A9.34,9.34,0,0,1,228,75.9a6.33,6.33,0,0,0-6.81-.21c-1.88.73-3.56,1.47-5.34,2.3-.43.28-1.15.65-1.17,1a32.84,32.84,0,0,0,1.79,5.34,2.49,2.49,0,0,0,2.25.65c1.17-1.24,1.77-.63,2.68.18,1.09,1.3,2.12,1.43,3.29.29a2.54,2.54,0,0,1,.74-.56A14.33,14.33,0,0,0,227.12,88c1,1.2,1,1.89-.3,2.93a3.94,3.94,0,0,0-1.74,2.59c0,1.77-.58,1.85-1.71,1.71a16.07,16.07,0,0,0-4.73-.53,16.33,16.33,0,0,1-11-2.77c-.7-.51-1.93-.84-2.36-.36-.63.37-.67,1.63-.6,2.53.25,2-.29,2.53-2,1.7-2.23-1.24-4.46-2.68-6.58-4s-3.31-3-2.49-5.76c.36-1.75-.64-2.66-2.4-2.52a8.08,8.08,0,0,1-3.1,0,12,12,0,0,0-9.85,1.18c-1.79,1.12-3.78,1.85-6,.61-.21-.11-1.15.45-1.59.93a37.21,37.21,0,0,0-3.11,3.53,7.16,7.16,0,0,0-1.45,3.48c.13,2.36-.45,4-2.34,5.12a15.48,15.48,0,0,0-5.82,7.38c-.43.67-.67,1.44-1.1,2a4.42,4.42,0,0,0-.58,5,10.59,10.59,0,0,1-.12,6.94A5.6,5.6,0,0,0,156,124a26,26,0,0,1,3.35,7.93A2.28,2.28,0,0,0,160,133c1.7,1.71,3.29,3.52,5.1,5.14,1.4,1.32,3,2.15,4.82.93a15.19,15.19,0,0,1,6.25-1.68,3.7,3.7,0,0,0,2.5-.71c1.91-1.31,3.64-.77,5.25.55,1,.91,1.77,2.79,3.66,1.77.11-.09.51.11.71.41a5,5,0,0,1,1.15,5.91c-1.21,2.41-1.37,4.17.13,5.68a9.2,9.2,0,0,1,2.9,5.87,6.62,6.62,0,0,0,.86,2.38c1.82,4.07,2,8.09-.39,11.83a8.63,8.63,0,0,0-.4,8.91,28.28,28.28,0,0,1,2.47,9.66,20,20,0,0,0,1.82,7.5,12.56,12.56,0,0,1,1.8,8c-.27,2.15.33,2.76,2.3,2.52a69.7,69.7,0,0,0,7.88-.94,5,5,0,0,0,1.37-.74c4-3.12,7.24-6.74,7.53-12.32a2.51,2.51,0,0,1,2.14-2.48,3.94,3.94,0,0,0,1.6-1.61,5.27,5.27,0,0,0-.46-4.62,4.15,4.15,0,0,1,0-2.74,19.92,19.92,0,0,1,4.16-4.09c3.38-2.35,5.32-8,4.21-11.92a55.37,55.37,0,0,1-1.62-7.39c-1-4.05,1.16-6.53,4-8.8a22.85,22.85,0,0,0,5.76-5.5,119.92,119.92,0,0,0,7-11.45,17.43,17.43,0,0,0,.93-3.3,11.18,11.18,0,0,0-3.21.2c-2.07.23-4,1-6,1.19-.51.08-1.22-.52-1.61-1.12-1.08-1.9-2.15-3.89-3.32-5.87a7,7,0,0,0-1-1.7c-.67-1.58-1.44-3.27-2-5-1-3.26-2-6.43-3-9.69-.47-1.39-.74-2.77-1.21-4.15s-1.15-2.58-1.83-3.87c.73-.18,1.13,0,1.33.33,1.87,2.79,3.63,5.69,5.5,8.58.3.31.18.89.26,1.48a25.68,25.68,0,0,1,.74,2.66c2,4.08,4.49,7.87,4.64,12.77,0,1.28.77,1.89,2.23,1.25,1.16-.56,2.51-.81,3.66-1.37a31.24,31.24,0,0,0,5.47-2.78c1.68-1,3.38-2.44,5.17-3.47a10.56,10.56,0,0,0,4.86-6.51c.23-.78-.45-2.07-.83-3-.39-.7-1.31-1.12-1.91-1.72-1.19-1.21-2.32-1.54-3.81-.21-1.27,1-2.83,1.38-4.12-.41-.09-.3-.61-.32-.81-.52-.29-.5-.89-1.2-.77-1.59a3.77,3.77,0,0,0-1-4.24,6.05,6.05,0,0,1-1.38-1.8,3.49,3.49,0,0,1,.06-2c.33-.48,1.26-.45,2-.23,1.64.34,2.21,1.92,2.79,3.31,1.33,3.37,2.14,3.79,5.47,3.1a1.66,1.66,0,0,1,1.64.34,8.06,8.06,0,0,0,2.7,2.62C250.36,80.15,233.88,57.14,210.25,42.45Z" style="fill: #5f8ddf"/>
            <g id="Grupo_650" data-name="Grupo 650">
              <path id="Caminho_4858" data-name="Caminho 4858" d="M52.39,135.74c2.54.06,3.56.67,4.48,2.77a4.16,4.16,0,0,0,1.35,1.05c.33.22.93.2,1.2.5,1.16,1.28,2.86.79,4.21,1.2a11.67,11.67,0,0,0,.95-1.82c2.37,1.55,3.8,4.11,3.37,6a55.25,55.25,0,0,0-1.09,5.48,6.16,6.16,0,0,0,.78,2.09c.1.26.46.75.28,1a2.47,2.47,0,0,0,1.38,3.32,2.06,2.06,0,0,0,.35.12,15.6,15.6,0,0,1,6.84,5.79c1.45,1.79,3,3.27,5.7,3.4,2.91.15,4.24,1,5.28,3.21.72,1.57,1.28,3.12,2,4.77a43.88,43.88,0,0,0,3.17,6.77,22.14,22.14,0,0,1,2.17,5,41.27,41.27,0,0,0,3.35,7.69c.22.45,1.08.84,1.62,1.19a4.5,4.5,0,0,1,.61.84,29.4,29.4,0,0,0,1.51,2.86c.57,1.16,1.65,2.44-.61,3a3.08,3.08,0,0,1,3.11,2c0,.09.11.26.29.36,2,1,2,1.94.77,2.69,1.56,1.06,3.18,1.93,4.77,3a6.12,6.12,0,0,0,4.44,1.15c1.46-.08,2.85,0,2.65-1.52,0-.23.62-.45.88-.62s.7-.49,1.07-.77c-.89,0-1.39.28-2.08.3a3.58,3.58,0,0,1-1.72-.12,51.9,51.9,0,0,1-4.22-3.25.92.92,0,0,1,0-.84,16.8,16.8,0,0,1,.93-3.08c.38-1-.42-1.42-1.56-1.62s-2.18-.52-3.54-.89c.38-.27.48-.53.72-.6,1.83-1.5,1.9-2.55.4-4.75a1.09,1.09,0,0,1,.27-1.4c1.32-1,.61-1.86-.36-2.84-.29-.28-.49-.57-.85-1,2.11-.29,4.17-.38,4.08-2.48,0-1.64-.25-2.95-2.88-3.78,1.67-.36,3.06-.57,4.53-.94-1.11-1-1.27-1.85-.22-2.44a2.53,2.53,0,0,0,.61-1.14c.93-2,.23-3.91-.92-5.9a1.75,1.75,0,0,1,.46-2.52l.12-.07a40,40,0,0,0,3.26-2.64,3.21,3.21,0,0,0,.8-2.28c.24-.92,0-2,.26-2.83.39-1,.84-2.11-.11-3.1a4.56,4.56,0,0,1-.35-6.5,5.84,5.84,0,0,0,.69-1.5,2.35,2.35,0,0,0-1-3.27l-.07,0a15.09,15.09,0,0,0-8.93-2,10,10,0,0,1-5.08-.48c-1.34-.49-2.92-1.15-4.47-.05a5.68,5.68,0,0,0-2.64-5.27,3.42,3.42,0,0,0-2-.59c-3.47,1-6.51-.5-9.6-1.49-.27,0-.45-.32-.53-.57-.9-1.57-1.48-1.8-3.18-.72s-3.29.41-4.9.27c-.83-.14-1.58-.35-2.24-.51.2.71.32,1.43.53,2.14,0,.06,0,.13,0,.33-.35,0-.85.08-.89-.05-.31-1.06-.6-2.11-.89-3.17-2,1.79-4.15,3-4.24,5.66-2.36-1.47-2.38-1.55-4.78-.19-.8.55-1.43.23-2.12-.35-1.91-1.44-2.12-3.5-2.62-5.43-.44-2.09-.82-2.31-3-1.59-.33,0-.57.15-.73.17a15.53,15.53,0,0,0-1.8.11c0-.56-.09-1.11-.12-1.59.11-1.77.25-3.53.4-5.35-2.62.25-3.21.81-3.31,2.72,0,.48-.06,1.34-.38,1.45a10,10,0,0,1-3,1.05c0,.81.08,1.62.14,2.42a9.71,9.71,0,0,1,3.28,1.19A8.19,8.19,0,0,0,52.39,135.74Z" style="fill: #5f8ddf"/>
            </g>
            <g id="Grupo_651" data-name="Grupo 651" style="opacity: 0.300000011920929">
              <path id="Caminho_4859" data-name="Caminho 4859" d="M211.05,43c39.34,41.18,36,104.8-7.43,142.09-36.08,31-89.78,34.71-130.24,9.05,39.3,41.22,106.41,44.44,149.9,7.19s46.88-100.88,7.59-142.1A104.86,104.86,0,0,0,211.05,43Z" style="fill: #414f80"/>
            </g>
            <g id="Grupo_652" data-name="Grupo 652">
              <path id="Caminho_4860" data-name="Caminho 4860" d="M46.58,116.58c2-2.58,2.2-2.57,5.72-1.19a3.12,3.12,0,0,0,1.79,0c.9-.29,1.29,0,1.4.75.22.39.13.88.37,1.33a3.55,3.55,0,0,0,3.45,2.76c-.67-1.42-1.31-2.71-1.87-4.16a3.8,3.8,0,0,1-.41-1.66A6.92,6.92,0,0,1,60,109.27,3.37,3.37,0,0,0,61,104.73a11.07,11.07,0,0,0-.71-1.42c.48-.37,1-.61,1.36-1A49.84,49.84,0,0,0,66.41,98a10.3,10.3,0,0,1,4.42-3.19,6.54,6.54,0,0,0,.64,1.46A3.7,3.7,0,0,0,73,96.09c1.65-.83,3.14-1.64,4.71-2.52A1.14,1.14,0,0,0,78.28,92a1.17,1.17,0,0,0-.39-.44,4.68,4.68,0,0,0-.75.43c-2.06,1.42-3,1.29-4-.72-.08-.39-.34-.82-.26-1.16.41-1.77-.84-2.42-2.69-2.53-.08,0-.08-.13-.24-.45,1.59-.07,3-.2,4.53-.21s2.93,0,4.53,0a2.65,2.65,0,0,1,.23-1.33,8.13,8.13,0,0,0,4.59-1.69c.22-.21,2.19-4,1-3.86L92,79.17a3.28,3.28,0,0,0,2.21-.85,3,3,0,0,0,.49-1.57,59.36,59.36,0,0,1,1.21-9.29c.63-.95,1.24-1.92,1.8-2.92.74-1.17,1.32-1.66,2.78-1.42a4.81,4.81,0,0,0,3.65-1,19.42,19.42,0,0,1,4.61-2.28c2.22-.82,4.55-1.29,6.83-2,.62-.17,1.42-.46,1.46-.69.24-1.29,1.31-1.22,2.56-1.27.1-1.39.21-2.73.31-3.94.38-.23.82-.69,1.31-1,1.09-.79,2.49-1.45,2.37-2.66-.29-1.23,0-2.15,2.35-2.41-1.3-.79-2.3-1.41-3.36-2.1,3.66-1.82,7-3.56,10.25-5.21-1.46-.93-7.11-1-9.43,0-1.44.62-1.6.61-2.33,0,1.51-.85,2.91-1.59,4.43-2.43-2.49-1-4.85-2-7.2-2.94l-.33,0c-1.55-.08-3.06-.2-4.58-.31-2.36.87-5.32,2.14-8.42,3.53C72.38,51.66,50.31,81.66,46.44,115.92c0,.23,0,.45-.07.66Z" style="fill: #5f8ddf"/>
            </g>
          </g>
        </g>
        <g id="Grupo_655" data-name="Grupo 655">
          <path id="Caminho_4861" data-name="Caminho 4861" d="M251.12,90.81c.82,2,1.53,4.14,2.22,6.24,34.1,13.81,28.83,34.07-16,46.24-51.1,13.87-134.52,13.87-186,0s-51.71-37.84-.6-51.71c.65-.18,1.37-.32,2-.5.68-1.71,1.44-3.38,2.22-5-4.57,1-9,2-13.21,3.13-56,15.21-55.73,39.93.66,55.13s147.77,15.21,203.8,0C300.34,129.63,301.77,106.1,251.12,90.81Z" style="fill: #abcf60"/>
        </g>
        <g id="Grupo_656" data-name="Grupo 656">
          <path id="Caminho_4862" data-name="Caminho 4862" d="M236.44,187.38c-.38.5-.72,1-1.11,1.53,6.56,23.55-12.68,29.73-49.31,12.2-47.45-22.7-108.7-76.39-136.54-119.68S39.09,21.28,86.54,44c.93.44,1.88,1,2.83,1.44,1.38-1,2.8-1.87,4.23-2.76-4-2.23-8-4.36-11.9-6.21-52-24.89-69.51-6.55-39,40.91s97.61,106.27,149.64,131.16c46,22,64.89,10.13,47.58-25.7C238.81,184.37,237.64,185.88,236.44,187.38Z" style="fill: #abcf60"/>
        </g>
        <g id="Grupo_657" data-name="Grupo 657">
          <path id="Caminho_4863" data-name="Caminho 4863" d="M155.79,22.11c-1.22,1.22-2.42,2.57-3.62,3.87,3,0,5.9.18,8.8.42C194.45-3,222.17,13.06,221.06,63c-1.16,52.59-31.47,124.67-67.57,160.68-32.26,32.19-60.44,23.07-64.8-16.41q-3.6-2.55-7-5.35c.14,54.55,30.75,67.86,69.46,29.24C190.73,191.7,224,112.72,225.24,55.06S195.34-17.35,155.79,22.11Z" style="fill: #abcf60"/>
        </g>
        <g id="Grupo_658" data-name="Grupo 658">
          <path id="Caminho_4864" data-name="Caminho 4864" d="M238.4,68.38c1.28,1.71,2.51,3.45,3.68,5.24,32.13,1,34.68,20,1.33,46.06C204,150.48,130.52,180.81,79.58,187.29c-46.5,5.92-59.06-10.95-30.77-37.21-.45-1.81-.84-3.64-1.19-5.48-41.5,33.11-30.93,54.22,24.27,47.2,55.79-7.1,136.33-40.33,179.54-74.1C291.92,86.05,285.4,65,238.4,68.38Z" style="fill: #abcf60"/>
        </g>
        <g id="Grupo_659" data-name="Grupo 659">
          <ellipse id="Elipse_1051" data-name="Elipse 1051" cx="103.45" cy="185.77" rx="6.36" ry="6.03" style="fill: #ffc71d"/>
        </g>
        <g id="Grupo_660" data-name="Grupo 660">
          <ellipse id="Elipse_1052" data-name="Elipse 1052" cx="26.23" cy="137.92" rx="9.29" ry="8.81" style="fill: #ffc71d"/>
        </g>
        <g id="Grupo_661" data-name="Grupo 661">
          <ellipse id="Elipse_1053" data-name="Elipse 1053" cx="73.38" cy="35.86" rx="6.36" ry="6.03" style="fill: #ffc71d"/>
        </g>
        <g id="Grupo_662" data-name="Grupo 662">
          <ellipse id="Elipse_1054" data-name="Elipse 1054" cx="222.96" cy="61.61" rx="9.29" ry="8.81" style="fill: #ffc71d"/>
        </g>
        <g id="Grupo_663" data-name="Grupo 663">
          <ellipse id="Elipse_1055" data-name="Elipse 1055" cx="201.09" cy="150.87" rx="6.61" ry="6.27" style="fill: #ffc71d"/>
        </g>
        <g id="Grupo_664" data-name="Grupo 664">
          <ellipse id="Elipse_1056" data-name="Elipse 1056" cx="276.44" cy="126.64" rx="9.29" ry="8.81" style="fill: #ffc71d"/>
        </g>
        <g id="Grupo_665" data-name="Grupo 665">
          <ellipse id="Elipse_1057" data-name="Elipse 1057" cx="136.97" cy="240.13" rx="9.29" ry="8.81" style="fill: #ffc71d"/>
        </g>
      </g>
    </g>
  </g>
</svg>
