<svg xmlns="http://www.w3.org/2000/svg" viewBox="0 0 80 58.13">
  <g id="Camada_2" data-name="Camada 2">
    <g id="Camada_1-2" data-name="Camada 1">
      <g id="Grupo_512" data-name="Grupo 512">
        <path id="Retângulo_2398" data-name="Retângulo 2398" d="M.47,0,33,4.58A47.41,47.41,0,0,1,73.4,58.13h0L40.82,53.55A47.41,47.41,0,0,1,.47,0Z" style="fill: #abcf60"/>
        <g id="undraw_business_shop_qw5t" data-name="undraw business shop qw5t">
          <ellipse id="Elipse_1002" data-name="Elipse 1002" cx="30" cy="53.93" rx="28.98" ry="2.66" style="fill: #273854"/>
          <path id="Caminho_4492" data-name="Caminho 4492" d="M53.54,16.81s.21,2.88.21,3-1.49,7.46-1.49,7.46-2.13,4.05,0,3.94,1.49-3.83,1.49-3.83L56,21.18l-1-4.37Z" style="fill: #8d6169"/>
          <rect id="Retângulo_2038" data-name="Retângulo 2038" x="12.19" y="24.17" width="42.33" height="29.74" style="fill: #efefef"/>
          <rect id="Retângulo_2039" data-name="Retângulo 2039" x="15.75" y="35.52" width="10.63" height="18.56" style="fill: #273854"/>
          <rect id="Retângulo_2040" data-name="Retângulo 2040" x="17.72" y="36.63" width="2.86" height="2.67" style="fill: #efefef"/>
          <rect id="Retângulo_2041" data-name="Retângulo 2041" x="21.55" y="36.63" width="2.86" height="2.67" style="fill: #efefef"/>
          <rect id="Retângulo_2042" data-name="Retângulo 2042" x="17.72" y="40.27" width="2.86" height="2.77" style="fill: #efefef"/>
          <rect id="Retângulo_2043" data-name="Retângulo 2043" x="21.55" y="40.27" width="2.86" height="2.77" style="fill: #efefef"/>
          <circle id="Elipse_1004" data-name="Elipse 1004" cx="25.03" cy="46.05" r="0.68" style="fill: #5f8ddf"/>
          <rect id="Retângulo_2044" data-name="Retângulo 2044" x="29.94" y="33.76" width="21.01" height="17.63" style="fill: #273854"/>
          <path id="Caminho_4501" data-name="Caminho 4501" d="M58.94,29.77H7.76l3.41-7.13.77-1.6,1-2.09.76-1.6.89-1.85H54.91l.52,1.85.46,1.6L56.47,21l.46,1.6Z" style="fill: #273854"/>
          <rect id="Retângulo_2045" data-name="Retângulo 2045" x="30.68" y="41.07" width="0.74" height="4.55" style="fill: #5f8ddf"/>
          <rect id="Retângulo_2046" data-name="Retângulo 2046" x="30.68" y="41.75" width="0.74" height="0.55" style="fill: #efefef"/>
          <rect id="Retângulo_2047" data-name="Retângulo 2047" x="30.68" y="44.39" width="0.74" height="0.55" style="fill: #efefef"/>
          <rect id="Retângulo_2048" data-name="Retângulo 2048" x="31.79" y="41.07" width="1.78" height="4.55" style="fill: #5f8ddf"/>
          <rect id="Retângulo_2049" data-name="Retângulo 2049" x="31.79" y="41.75" width="1.78" height="0.55" style="fill: #efefef"/>
          <rect id="Retângulo_2050" data-name="Retângulo 2050" x="31.79" y="44.39" width="1.78" height="0.55" style="fill: #efefef"/>
          <rect id="Retângulo_2051" data-name="Retângulo 2051" x="34" y="41.07" width="0.74" height="4.55" style="fill: #5f8ddf"/>
          <rect id="Retângulo_2052" data-name="Retângulo 2052" x="34" y="41.75" width="0.74" height="0.55" style="fill: #efefef"/>
          <rect id="Retângulo_2053" data-name="Retângulo 2053" x="34" y="44.39" width="0.74" height="0.55" style="fill: #efefef"/>
          <rect id="Retângulo_2054" data-name="Retângulo 2054" x="35.1" y="41.07" width="0.74" height="4.55" style="fill: #5f8ddf"/>
          <rect id="Retângulo_2055" data-name="Retângulo 2055" x="35.1" y="41.75" width="0.74" height="0.55" style="fill: #efefef"/>
          <rect id="Retângulo_2056" data-name="Retângulo 2056" x="35.1" y="44.39" width="0.74" height="0.55" style="fill: #efefef"/>
          <rect id="Retângulo_2057" data-name="Retângulo 2057" x="36.64" y="41.07" width="0.74" height="4.55" transform="translate(-12.91 15.84) rotate(-20.65)" style="fill: #5f8ddf"/>
          <rect id="Retângulo_2058" data-name="Retângulo 2058" x="36.17" y="41.83" width="0.74" height="0.55" transform="translate(-12.5 15.6) rotate(-20.65)" style="fill: #efefef"/>
          <rect id="Retângulo_2059" data-name="Retângulo 2059" x="37.11" y="44.3" width="0.74" height="0.55" transform="translate(-13.32 16.08) rotate(-20.65)" style="fill: #efefef"/>
          <rect id="Retângulo_2060" data-name="Retângulo 2060" x="48.5" y="41.07" width="1.78" height="4.55" style="fill: #5f8ddf"/>
          <rect id="Retângulo_2061" data-name="Retângulo 2061" x="48.5" y="41.75" width="1.78" height="0.55" style="fill: #efefef"/>
          <rect id="Retângulo_2062" data-name="Retângulo 2062" x="48.5" y="44.39" width="1.78" height="0.55" style="fill: #efefef"/>
          <rect id="Retângulo_2063" data-name="Retângulo 2063" x="47.33" y="41.07" width="0.74" height="4.55" style="fill: #5f8ddf"/>
          <rect id="Retângulo_2064" data-name="Retângulo 2064" x="47.33" y="41.75" width="0.74" height="0.55" style="fill: #efefef"/>
          <rect id="Retângulo_2065" data-name="Retângulo 2065" x="47.33" y="44.39" width="0.74" height="0.55" style="fill: #efefef"/>
          <rect id="Retângulo_2066" data-name="Retângulo 2066" x="46.22" y="41.07" width="0.74" height="4.55" style="fill: #5f8ddf"/>
          <rect id="Retângulo_2067" data-name="Retângulo 2067" x="46.22" y="41.75" width="0.74" height="0.55" style="fill: #efefef"/>
          <rect id="Retângulo_2068" data-name="Retângulo 2068" x="46.22" y="44.39" width="0.74" height="0.55" style="fill: #efefef"/>
          <rect id="Retângulo_2069" data-name="Retângulo 2069" x="42.78" y="42.98" width="4.55" height="0.74" transform="translate(-11.39 70.22) rotate(-69.35)" style="fill: #5f8ddf"/>
          <rect id="Retângulo_2070" data-name="Retângulo 2070" x="45.25" y="41.74" width="0.55" height="0.74" transform="translate(-9.94 69.85) rotate(-69.35)" style="fill: #efefef"/>
          <rect id="Retângulo_2071" data-name="Retângulo 2071" x="44.31" y="44.21" width="0.55" height="0.74" transform="translate(-12.85 70.58) rotate(-69.35)" style="fill: #efefef"/>
          <rect id="Retângulo_2072" data-name="Retângulo 2072" x="29.94" y="45.62" width="21.01" height="0.43" style="fill: #efefef"/>
          <rect id="Retângulo_2073" data-name="Retângulo 2073" x="39.1" y="41.07" width="3.87" height="4.55" style="fill: #5f8ddf"/>
          <rect id="Retângulo_2074" data-name="Retângulo 2074" x="40.05" y="42.05" width="1.97" height="0.86" style="fill: #efefef"/>
          <rect id="Retângulo_2075" data-name="Retângulo 2075" x="40.26" y="33.76" width="0.37" height="3.93" style="fill: #efefef"/>
          <circle id="Elipse_1005" data-name="Elipse 1005" cx="40.45" cy="37.69" r="0.61" style="fill: #efefef"/>
          <path id="Caminho_4502" data-name="Caminho 4502" d="M55.88,19H12.94l.76-1.6H55.43Z" style="fill: #5f8ddf"/>
          <path id="Caminho_4503" data-name="Caminho 4503" d="M56.93,22.64H11.17l.77-1.6H56.48Z" style="fill: #5f8ddf"/>
          <circle id="Elipse_1006" data-name="Elipse 1006" cx="8.4" cy="32.66" r="8.2" style="fill: #5f8ddf"/>
          <circle id="Elipse_1007" data-name="Elipse 1007" cx="8.4" cy="32.66" r="7.05" style="fill: #18212e;opacity: 0.099999994039536;isolation: isolate"/>
          <path id="Caminho_4506" data-name="Caminho 4506" d="M8.06,36.82v-1a2.41,2.41,0,0,1-1.37-.45l.22-.68a2.21,2.21,0,0,0,1.29.44,1,1,0,0,0,1.06-.91v-.09c0-.56-.35-.9-1-1.21-.91-.41-1.47-.87-1.47-1.76a1.59,1.59,0,0,1,1.35-1.63v-1h.55v1a2.16,2.16,0,0,1,1.16.35l-.22.67a2.05,2.05,0,0,0-1.13-.34.85.85,0,0,0-.94.77.34.34,0,0,0,0,.1c0,.53.34.79,1.11,1.16A2,2,0,0,1,10,34a1.71,1.71,0,0,1-1.41,1.73v1Z" style="fill: #ecf2f9"/>
        </g>
        <g id="Grupo_510" data-name="Grupo 510">
          <path id="Caminho_4511" data-name="Caminho 4511" d="M64.38,50.82A2.21,2.21,0,1,0,66.59,53h0A2.21,2.21,0,0,0,64.38,50.82ZM57.93,33.51v2.2h2.2l4,8-1.66,2.7a2.07,2.07,0,0,0-.28,1,2.12,2.12,0,0,0,2.38,2.21h12.9V47.6H64.82a.27.27,0,0,1-.28-.25v0a1.31,1.31,0,0,1,.12-.27l1.1-1.74H74a2.16,2.16,0,0,0,1.93-1.16l4-6.84a1.29,1.29,0,0,0,.11-.55,1.07,1.07,0,0,0-1.07-1H62.56l-1.05-2.2ZM75.24,50.82A2.21,2.21,0,1,0,77.45,53a2.21,2.21,0,0,0-2.21-2.21Z" style="fill: #5f8ddf"/>
          <path id="Caminho_4512" data-name="Caminho 4512" d="M63.18,37.16l2.62,6.5s8,.27,8.87,0,3.44-6.5,3.44-6.5Z" style="fill: #ecf2f9;opacity: 0.799999952316284;isolation: isolate"/>
        </g>
      </g>
    </g>
  </g>
</svg>
