<svg xmlns="http://www.w3.org/2000/svg" viewBox="0 0 80 72.95">
  <g id="Camada_2" data-name="Camada 2">
    <g id="Camada_1-2" data-name="Camada 1">
      <g id="Grupo_506" data-name="Grupo 506">
        <path id="Retângulo_2037" data-name="Retângulo 2037" d="M40,0,80,40h0A56.57,56.57,0,0,1,0,40H0L40,0Z" style="fill: #abcf60"/>
        <path id="Caminho_4480" data-name="Caminho 4480" d="M41.58,24.32H41.4V24h.14a.09.09,0,0,0,.09-.09V22.21a.09.09,0,0,0-.09-.09H41.4v-1a2,2,0,0,0-2-2h-.21v-.24a.09.09,0,0,0-.09-.09H37.37a.09.09,0,0,0-.09.09v.24H6.81a2,2,0,0,0-2,2V64.57a2,2,0,0,0,2,2H39.36a2,2,0,0,0,2-2V26.19h.18a.09.09,0,0,0,.1-.09V24.41a.09.09,0,0,0-.1-.09Z" style="fill: #273854"/>
        <rect id="Retângulo_2007" data-name="Retângulo 2007" x="6.45" y="20.45" width="33.54" height="44.5" style="fill: #ecf2f9"/>
        <path id="Caminho_4481" data-name="Caminho 4481" d="M57.12,44.18h-.2V38.5a3.29,3.29,0,0,0-3.29-3.29h-12A3.29,3.29,0,0,0,38.3,38.5V69.66A3.29,3.29,0,0,0,41.59,73h12a3.29,3.29,0,0,0,3.29-3.29V48.22h.2Z" style="fill: #273854"/>
        <path id="Caminho_4482" data-name="Caminho 4482" d="M56.22,38.69V69.81a2.46,2.46,0,0,1-2.46,2.46H41.67a2.46,2.46,0,0,1-2.46-2.46V38.69a2.46,2.46,0,0,1,2.46-2.46h1.46a1.17,1.17,0,0,0,.64,1.52,1.13,1.13,0,0,0,.45.09h6.89a1.17,1.17,0,0,0,1.17-1.17,1.12,1.12,0,0,0-.09-.44h1.57a2.46,2.46,0,0,1,2.46,2.46Z" style="fill: #ecf2f9"/>
        <rect id="Retângulo_2008" data-name="Retângulo 2008" x="44.22" y="40.37" width="10.22" height="0.38" style="fill: #c8c8c8"/>
        <rect id="Retângulo_2009" data-name="Retângulo 2009" x="44.22" y="41.57" width="10.22" height="0.38" style="fill: #c8c8c8"/>
        <rect id="Retângulo_2010" data-name="Retângulo 2010" x="44.22" y="42.78" width="10.22" height="0.38" style="fill: #c8c8c8"/>
        <rect id="Retângulo_2011" data-name="Retângulo 2011" x="40.98" y="40.61" width="2.32" height="2.32" style="fill: #c8c8c8"/>
        <rect id="Retângulo_2012" data-name="Retângulo 2012" x="44.22" y="67.38" width="10.22" height="0.38" style="fill: #c8c8c8"/>
        <rect id="Retângulo_2013" data-name="Retângulo 2013" x="44.22" y="68.58" width="10.22" height="0.38" style="fill: #c8c8c8"/>
        <rect id="Retângulo_2014" data-name="Retângulo 2014" x="44.22" y="69.79" width="10.22" height="0.38" style="fill: #c8c8c8"/>
        <rect id="Retângulo_2015" data-name="Retângulo 2015" x="40.98" y="67.61" width="2.32" height="2.32" style="fill: #c8c8c8"/>
        <rect id="Retângulo_2016" data-name="Retângulo 2016" x="14.09" y="22.66" width="19.66" height="0.73" style="fill: #c8c8c8"/>
        <rect id="Retângulo_2017" data-name="Retângulo 2017" x="14.09" y="24.97" width="19.66" height="0.73" style="fill: #c8c8c8"/>
        <rect id="Retângulo_2018" data-name="Retângulo 2018" x="16.51" y="27.28" width="19.66" height="0.73" style="fill: #c8c8c8"/>
        <rect id="Retângulo_2019" data-name="Retângulo 2019" x="10.27" y="23.11" width="4.46" height="4.46" style="fill: #c8c8c8"/>
        <rect id="Retângulo_2020" data-name="Retângulo 2020" x="16.44" y="57.32" width="19.66" height="0.73" style="fill: #c8c8c8"/>
        <rect id="Retângulo_2021" data-name="Retângulo 2021" x="16.44" y="59.64" width="19.66" height="0.73" style="fill: #c8c8c8"/>
        <rect id="Retângulo_2022" data-name="Retângulo 2022" x="16.44" y="61.95" width="19.66" height="0.73" style="fill: #c8c8c8"/>
        <rect id="Retângulo_2023" data-name="Retângulo 2023" x="10.33" y="57.72" width="4.23" height="4.23" style="fill: #c8c8c8"/>
        <circle id="Elipse_996" data-name="Elipse 996" cx="15.2" cy="43.02" r="3.32" style="fill: #5f8ddf"/>
        <circle id="Elipse_997" data-name="Elipse 997" cx="24.06" cy="43.02" r="2.71" style="fill: #5f8ddf"/>
        <circle id="Elipse_998" data-name="Elipse 998" cx="32.92" cy="43.02" r="1.65" style="fill: #5f8ddf"/>
        <circle id="Elipse_999" data-name="Elipse 999" cx="43.48" cy="54.02" r="1.75" style="fill: #5f8ddf"/>
        <circle id="Elipse_1000" data-name="Elipse 1000" cx="48.13" cy="54.02" r="1.39" style="fill: #5f8ddf"/>
        <circle id="Elipse_1001" data-name="Elipse 1001" cx="52.79" cy="54.02" r="0.91" style="fill: #5f8ddf"/>
        <path id="Caminho_4483" data-name="Caminho 4483" d="M70.27,3.07V26.23a1,1,0,0,1-1,1h-9.4a1,1,0,0,1-1-1h0V3.07a1,1,0,0,1,1-1h1.41v.18a.85.85,0,0,0,.85.86h4.78a.85.85,0,0,0,.86-.86V2h1.5a1,1,0,0,1,1,1Z" style="fill: #90b5ea"/>
        <rect id="Retângulo_2024" data-name="Retângulo 2024" x="56.78" y="5.9" width="10.66" height="5.19" style="fill: #273854"/>
        <path id="Caminho_4484" data-name="Caminho 4484" d="M61.08,9.47a3.31,3.31,0,0,0,1.23,1.67,2.86,2.86,0,0,0-1-3.74A3.34,3.34,0,0,0,61.08,9.47Z" style="fill: #5f8ddf"/>
        <path id="Caminho_4485" data-name="Caminho 4485" d="M61.49,9.25a3.25,3.25,0,0,1,.85,1.89,2.86,2.86,0,0,1-2.77-2.7A3.34,3.34,0,0,1,61.49,9.25Z" style="fill: #466aa2"/>
        <path id="Caminho_4486" data-name="Caminho 4486" d="M63.61,9.47a3.31,3.31,0,0,1-1.23,1.67,2.86,2.86,0,0,1,1-3.74A3.34,3.34,0,0,1,63.61,9.47Z" style="fill: #5f8ddf"/>
        <path id="Caminho_4487" data-name="Caminho 4487" d="M63.2,9.25a3.33,3.33,0,0,0-.86,1.89,2.86,2.86,0,0,0,2.78-2.7A3.34,3.34,0,0,0,63.2,9.25Z" style="fill: #466aa2"/>
        <rect id="Retângulo_2025" data-name="Retângulo 2025" x="57.74" y="14" width="8.75" height="0.48" style="fill: #ededed"/>
        <rect id="Retângulo_2026" data-name="Retângulo 2026" x="57.74" y="14.78" width="8.75" height="0.48" style="fill: #ededed"/>
        <rect id="Retângulo_2027" data-name="Retângulo 2027" x="57.74" y="15.55" width="8.75" height="0.48" style="fill: #ededed"/>
        <rect id="Retângulo_2028" data-name="Retângulo 2028" x="57.74" y="16.32" width="8.75" height="0.48" style="fill: #ededed"/>
        <rect id="Retângulo_2029" data-name="Retângulo 2029" x="60.92" y="19.55" width="2.39" height="2.39" transform="translate(9.23 59.37) rotate(-54.61)" style="fill: #ededed"/>
        <path id="Caminho_4488" data-name="Caminho 4488" d="M62.38,22.91a.54.54,0,0,1-.55-.55.55.55,0,0,1,.55-.55.55.55,0,0,1,.55.55h0A.55.55,0,0,1,62.38,22.91Zm0-1a.46.46,0,0,0-.46.46.45.45,0,0,0,.46.46.46.46,0,0,0,.46-.46h0A.47.47,0,0,0,62.38,21.9Z" style="fill: #413f56"/>
        <path id="Caminho_4489" data-name="Caminho 4489" d="M55.66,8V31.15a1,1,0,0,1-1,1h-9.4a1,1,0,0,1-1-1h0V8a1,1,0,0,1,1-1h1.4v.18a.86.86,0,0,0,.86.85h4.78a.85.85,0,0,0,.86-.85h0V7h1.5a1,1,0,0,1,1,1Z" style="fill: #f4f8ec"/>
        <path id="Caminho_4490" data-name="Caminho 4490" d="M52.05,19.6H42.86V11.38h9.19ZM43,19.51h9v-8H43Z" style="fill: #413f56"/>
        <rect id="Retângulo_2030" data-name="Retângulo 2030" x="47.41" y="9.39" width="0.09" height="12.2" transform="translate(4.28 40.55) rotate(-48.21)" style="fill: #273854"/>
        <rect id="Retângulo_2031" data-name="Retângulo 2031" x="41.36" y="15.44" width="12.2" height="0.09" transform="translate(1.75 35.57) rotate(-41.79)" style="fill: #273854"/>
        <rect id="Retângulo_2032" data-name="Retângulo 2032" x="42.91" y="21.99" width="9.1" height="0.09" style="fill: #273854"/>
        <rect id="Retângulo_2033" data-name="Retângulo 2033" x="42.91" y="22.82" width="9.1" height="0.09" style="fill: #273854"/>
        <rect id="Retângulo_2034" data-name="Retângulo 2034" x="42.91" y="23.64" width="9.1" height="0.09" style="fill: #273854"/>
        <rect id="Retângulo_2035" data-name="Retângulo 2035" x="42.91" y="24.47" width="4.55" height="0.09" style="fill: #273854"/>
        <rect id="Retângulo_2036" data-name="Retângulo 2036" x="42.91" y="25.3" width="4.55" height="0.09" style="fill: #273854"/>
      </g>
    </g>
  </g>
</svg>
