<svg xmlns="http://www.w3.org/2000/svg" xmlns:xlink="http://www.w3.org/1999/xlink" viewBox="0 0 276.38 208.65">
  <defs>
    <linearGradient id="Gradiente_sem_nome_4" data-name="Gradiente sem nome 4" x1="4136.93" y1="-50.13" x2="4136.93" y2="-49.6" gradientTransform="matrix(437.23, 0, 0, -247.68, -1808669.79, -12249.4)" gradientUnits="userSpaceOnUse">
      <stop offset="0" stop-color="#7f7f7f" stop-opacity="0.25"/>
      <stop offset="0.54" stop-color="#7f7f7f" stop-opacity="0.12"/>
      <stop offset="1" stop-color="#7f7f7f" stop-opacity="0.1"/>
    </linearGradient>
    <linearGradient id="Gradiente_sem_nome_4-2" x1="4097.32" y1="-51.03" x2="4097.32" y2="-50.5" gradientTransform="matrix(88.54, 0, 0, -178.31, -362541.26, -8896.1)" xlink:href="#Gradiente_sem_nome_4"/>
    <linearGradient id="Gradiente_sem_nome_4-3" x1="4099.96" y1="-51.1" x2="4099.96" y2="-50.57" gradientTransform="matrix(89.68, 0, 0, -174.89, -367626.43, -8728.15)" xlink:href="#Gradiente_sem_nome_4"/>
    <linearGradient id="Gradiente_sem_nome_4-4" x1="4007.1" y1="-59.49" x2="4007.1" y2="-58.84" gradientTransform="matrix(31.19, 0, 0, -66.24, -124768.64, -3883.48)" xlink:href="#Gradiente_sem_nome_4"/>
  </defs>
  <g id="Camada_2" data-name="Camada 2">
    <g id="Camada_1-2" data-name="Camada 1">
      <g id="Grupo_520" data-name="Grupo 520">
        <g id="Grupo_519" data-name="Grupo 519">
          <path id="Caminho_1808" data-name="Caminho 1808" d="M143.12,36.83c-17.26,3.19-34.55,1.47-51.19-.9s-33.25-5.42-50.55-4.82c-11.12.38-23.49,2.8-31.19,10.23C2.79,48.49,1.73,58.26,1.8,67.09c.05,6.65.62,13.54,4.68,18.88,2.82,3.71,7.14,6.4,10.4,9.83,11.36,11.94,8.14,30.43.94,46.09C14.44,149.24,10.3,156.45,8,164s-2.49,15.64,1.78,21.88,12.35,9.74,20.79,11.65c17.14,3.88,36.16,1.88,54.56-.9,40.73-6.19,81-16.2,121.15-26.19,14.86-3.7,29.79-7.42,44.09-12.86,7.94-3,16-6.81,21.1-12.81,6.45-7.62,6.51-18.13.14-24.51-10.7-10.71-34.63-8.7-42.95-20.89-4.57-6.69-2.71-15.7.79-23.61C237,58.77,251.66,42.1,249.55,25,248.09,13.33,237.85,3.52,224.24.8,210-2,191.74,2.71,183.67,14.36,175.36,26.39,158.36,34,143.12,36.83Z" style="fill: #f4f8ec"/>
          <ellipse id="Elipse_323" data-name="Elipse 323" cx="247.51" cy="201.67" rx="24.2" ry="5.98" style="fill: #abcf60;opacity: 0.099999994039536;isolation: isolate"/>
          <ellipse id="Elipse_324" data-name="Elipse 324" cx="33.86" cy="202.67" rx="24.2" ry="5.98" style="fill: #abcf60;opacity: 0.099999994039536;isolation: isolate"/>
          <path id="Caminho_744" data-name="Caminho 744" d="M128,39l.07.12c-6.55,8.18-7,20.88-7,21l-1.38-1.6C119.69,58.43,121.38,47.26,128,39Z" style="fill: #454253"/>
          <path id="Caminho_746" data-name="Caminho 746" d="M156.83,55.75s-3.89-2.62-3.43-5.68" style="fill: none;stroke: #454253;stroke-miterlimit: 10"/>
          <path id="Caminho_747" data-name="Caminho 747" d="M150.87,59.14s-5.57-2-6.13-9.94" style="fill: none;stroke: #454253;stroke-miterlimit: 10"/>
          <path id="Caminho_748" data-name="Caminho 748" d="M141.89,61.19a12.44,12.44,0,0,1-3.55-12.12" style="fill: none;stroke: #454253;stroke-miterlimit: 10"/>
          <path id="Caminho_749" data-name="Caminho 749" d="M131.1,59s-3.54-7.42-.39-12.25" style="fill: none;stroke: #454253;stroke-miterlimit: 10"/>
          <path id="Caminho_750" data-name="Caminho 750" d="M158,47s-4,1.28-3.16,3.39" style="fill: none;stroke: #454253;stroke-miterlimit: 10"/>
          <path id="Caminho_751" data-name="Caminho 751" d="M153.18,39.69s-5.39,1.71-5.51,9.32" style="fill: none;stroke: #454253;stroke-miterlimit: 10"/>
          <path id="Caminho_752" data-name="Caminho 752" d="M145.68,37.93s-4.89,6-4.53,11.54" style="fill: none;stroke: #454253;stroke-miterlimit: 10"/>
          <path id="Caminho_753" data-name="Caminho 753" d="M137.1,40.3s-4.87,4.65-4.25,7.24" style="fill: none;stroke: #454253;stroke-miterlimit: 10"/>
          <path id="Caminho_754" data-name="Caminho 754" d="M134.16,38.66s-4.56.82-5.2-.68" style="fill: none;stroke: #454253;stroke-miterlimit: 10"/>
          <path id="Caminho_763" data-name="Caminho 763" d="M108.82,44.56s7.38.63,10.79-3.18" style="fill: none;stroke: #454253;stroke-miterlimit: 10"/>
          <rect id="Retângulo_973" data-name="Retângulo 973" x="18.44" y="36.31" width="229.76" height="130.15" rx="6.56" style="fill: url(#Gradiente_sem_nome_4)"/>
          <rect id="Retângulo_974" data-name="Retângulo 974" x="18.81" y="38.14" width="229.06" height="127.89" rx="6.56" style="fill: #fff"/>
          <rect id="Retângulo_975" data-name="Retângulo 975" x="18.81" y="38.14" width="229.06" height="127.89" rx="6.56" style="fill: #fff"/>
          <rect id="Retângulo_976" data-name="Retângulo 976" x="18.81" y="38.14" width="229.06" height="127.89" rx="6.56" style="fill: #5a5871;opacity: 0.03999999910593;isolation: isolate"/>
          <path id="Caminho_769" data-name="Caminho 769" d="M246.71,36.67H20a1.16,1.16,0,0,0-1.16,1.17h0v4.91H247.86v-4.9a1.17,1.17,0,0,0-1.15-1.18Z" style="fill: #37517c"/>
          <g id="buttons">
            <circle id="Elipse_325" data-name="Elipse 325" cx="23.38" cy="39.71" r="1.57" style="fill: #fff"/>
            <circle id="Elipse_326" data-name="Elipse 326" cx="27.62" cy="39.71" r="1.57" style="fill: #fff"/>
            <circle id="Elipse_327" data-name="Elipse 327" cx="31.85" cy="39.71" r="1.57" style="fill: #fff"/>
          </g>
          <rect id="Retângulo_977" data-name="Retângulo 977" x="34.14" y="71.07" width="191" height="94.96" rx="5.35" style="fill: #fff"/>
          <rect id="Retângulo_978" data-name="Retângulo 978" x="26.04" y="49.21" width="54.94" height="5.77" rx="2.03" style="fill: #273854;opacity: 0.199999988079071;isolation: isolate"/>
          <rect id="Retângulo_979" data-name="Retângulo 979" x="129.64" y="82.09" width="54.94" height="5.77" rx="2.03" style="fill: #5f8ddf;opacity: 0.199999988079071;isolation: isolate"/>
          <rect id="Retângulo_980" data-name="Retângulo 980" x="129.64" y="98.23" width="85.79" height="5.77" rx="2.03" style="fill: #5f8ddf;opacity: 0.199999988079071;isolation: isolate"/>
          <rect id="Retângulo_981" data-name="Retângulo 981" x="129.64" y="107.66" width="85.79" height="5.77" rx="2.03" style="fill: #5f8ddf;opacity: 0.199999988079071;isolation: isolate"/>
          <rect id="Retângulo_982" data-name="Retângulo 982" x="129.64" y="117.09" width="85.79" height="5.77" rx="2.03" style="fill: #5f8ddf;opacity: 0.199999988079071;isolation: isolate"/>
          <rect id="Retângulo_983" data-name="Retângulo 983" x="129.64" y="126.52" width="85.79" height="5.77" rx="2.03" style="fill: #5f8ddf;opacity: 0.199999988079071;isolation: isolate"/>
          <rect id="Retângulo_984" data-name="Retângulo 984" x="44.5" y="136.92" width="170.93" height="5.77" rx="2.03" style="fill: #5f8ddf;opacity: 0.199999988079071;isolation: isolate"/>
          <rect id="Retângulo_985" data-name="Retângulo 985" x="44.5" y="146.35" width="170.93" height="5.77" rx="2.03" style="fill: #5f8ddf;opacity: 0.199999988079071;isolation: isolate"/>
          <rect id="Retângulo_986" data-name="Retângulo 986" x="44.5" y="155.78" width="170.93" height="5.77" rx="2.03" style="fill: #5f8ddf;opacity: 0.199999988079071;isolation: isolate"/>
          <rect id="Retângulo_987" data-name="Retângulo 987" x="44.5" y="78.89" width="73.02" height="53.56" rx="4.47" style="fill: #5f8ddf;opacity: 0.199999988079071;isolation: isolate"/>
          <path id="Caminho_782" data-name="Caminho 782" d="M272,138.46c.09-.24-.59-1.62-.59-1.69s-.71-.84-.71-1.26-.93-1.36-.93-1.36a2.31,2.31,0,0,1-1.38-1.64c-.14-1.13-1.5-1.15-1.5-1.15h0v-.26a3.69,3.69,0,0,0-.17-1.32,1.3,1.3,0,0,0-.77-.65,2.94,2.94,0,0,0-.41-1.15,1.29,1.29,0,0,1-.32-1.21c.14-.43-.18-1.51-.84-1.67s-1.41-.41-1.41-.41l-.18,0-.09,0a3.93,3.93,0,0,1-.48.06.6.6,0,0,1-.39-.12,8,8,0,0,0-2.42-.73,5.21,5.21,0,0,1-1.31-.45l-1-.74a6.09,6.09,0,0,1-.85-1.18v0h0a3.19,3.19,0,0,1-.21-.59h0a5.28,5.28,0,0,0,.84-1.16.91.91,0,0,0,.07-.14.39.39,0,0,0,.15,0l.06,0a1,1,0,0,0,.48-.58h0s0-.1.05-.15v0l0-.1v-.22a.59.59,0,0,1,0-.13h0a4,4,0,0,1,.07-.48h0a8.56,8.56,0,0,1,.76-1.69h0a2.56,2.56,0,0,0,.11-.24c0-.08.06-.19.09-.28l0-.08c0-.07,0-.14.05-.21s0-.06,0-.09a2.36,2.36,0,0,0,0-.28,3.54,3.54,0,0,0-.24-1.58c-.17-.43-.43-.81-.6-1.23-.26-.64-.33-1.37-.65-2a2.34,2.34,0,0,0-2.82-1.15c-.49.18-.93.54-1.43.7a4.86,4.86,0,0,1-2.08,0,2.6,2.6,0,0,0-2,.34c-.65.53-.82,1.51-1.43,2.08-.24.24-.56.39-.83.62a1.31,1.31,0,0,0-.42.57l0,0s0,0,0,.06a.15.15,0,0,0,0,.07,0,0,0,0,0,0,0,.24.24,0,0,0,0,.12h0a.49.49,0,0,0,0,.12v0l0,.09s0,0,0,0l0,.1,0,.06a.08.08,0,0,0,0,0,2.57,2.57,0,0,1,.21.52.59.59,0,0,1,0,.35,1.12,1.12,0,0,1-.24.33,4.67,4.67,0,0,0-1,1.64,1.8,1.8,0,0,0-.08.21h0l.2,0h.12a1.78,1.78,0,0,0,.46,0l.12,0a2.45,2.45,0,0,0,.45-.17v.22a5.36,5.36,0,0,0,3,4.79.77.77,0,0,0,0,.15v.12l-.06,0s-.41-.21-.8.38a2.56,2.56,0,0,1-1.11.86s-4.13.65-4.29,1.19l-1.94.11s-.68.09-.75,1.51-.43,1.56-.43,1.56a5.4,5.4,0,0,0-.72,2.12A1.16,1.16,0,0,1,239,131l-.08,1.29a.88.88,0,0,0-1,.76,3.06,3.06,0,0,1-.57,1.29s-1.25,1-1.31,1.92l-.78.48s-1.79-.41-2.2-1.13l-.13-.12h0a5.9,5.9,0,0,0-.75-.66.5.5,0,0,1,0,.36l-.13-.15-.36-.39s-2.9-2.72-4.59-2.94h0s-.14-.48-.43-.2a2.38,2.38,0,0,0-.14,3.35l.13.12,2.71,2.54.07.05.59.75a5.4,5.4,0,0,0-.25.67v0l0,.13s0,0,0,.05a.56.56,0,0,0,0,.12l0,.07v0c-.07.23-.11.4-.13.5l-.15,0,.15.06V140l.14.06c.79.35,4.76,2.09,5,2.36a2.92,2.92,0,0,0,3.09.42,3.21,3.21,0,0,0,1.65-1.82,19.4,19.4,0,0,0,1.37-2.1c0-.27,1.06-.59,1.06-.59a13.74,13.74,0,0,1-.43,4.13,53.09,53.09,0,0,0-1.5,6,.67.67,0,0,1,.2,0l-.06.28a.49.49,0,0,1,.24,0c-.07.55-.48,3.14-.48,3.14a7.1,7.1,0,0,1-.36,1.58,11.15,11.15,0,0,0-.25,2.52l-.36,1.54.14.26h0a4,4,0,0,0,1,1.36,2.88,2.88,0,0,1-.18.7,2.35,2.35,0,0,0-.19,1.08,15.2,15.2,0,0,0-.34,2.23,8.38,8.38,0,0,1-.24,1.72l-.41,3.92a36.78,36.78,0,0,0-.13,4.33,8.84,8.84,0,0,1-.09,2.18s.27,2.68.2,3a5.42,5.42,0,0,0-.2,2.26,12.65,12.65,0,0,1,.09,2.61s.13,2.53.29,3.34a5.74,5.74,0,0,1,0,1.85,17.27,17.27,0,0,1-.23,1.74,1.87,1.87,0,0,0,.54,2.36c1.2,1.17.46,1,.46,1s-1-.48-.84.5.26.68.27.66l-.23.74.16,0-.13.16a4.16,4.16,0,0,1-.46.48,1,1,0,0,0-.29.65,17.42,17.42,0,0,1-3.25,2.75,10,10,0,0,0-1.85,1.24c-.28.31-.24.56.35.75a8.89,8.89,0,0,0,4.93.09,5.75,5.75,0,0,0,2.41-1.56,3.42,3.42,0,0,1,1.94-.31c1,.18,2.86-1.06,2.86-1.06l0-.32-.09-.92a.72.72,0,0,1-.16-.56,3.22,3.22,0,0,0-.08-.82c0-.09,0-.18-.05-.26l.17,0s-.23-1.15.18-1.38.3-3.18.3-3.18a3.75,3.75,0,0,0-.8-.79c-.27-.11,0-1.51,0-1.69s.41-3.68.41-3.68a4.6,4.6,0,0,1,0-1.57,7.79,7.79,0,0,0-.23-2.31.4.4,0,0,1,.12-.49,10.67,10.67,0,0,0,.15-2.68s0-1.21,0-1.54a5.68,5.68,0,0,1,.52-1.85c.26-.38.09-1.57.09-1.57h0l0-.09a.27.27,0,0,1,0-.13l0-.12a18.52,18.52,0,0,1,.44-2c.3-1,.64-2.61.64-2.61l2.11-5.51,0-.07a8.8,8.8,0,0,1,1,3.48,21.53,21.53,0,0,1,.18,2.54c0,.55.16,3.09.16,3.09s.3,3.66.3,3.81a21.91,21.91,0,0,0,.59,3.41,3,3,0,0,1-.37,1.87,30.06,30.06,0,0,0,.05,3.45l-.41,3.16a12.73,12.73,0,0,0-.11,3.43c.22.81.13.92.13.92s.82.84.34.9a1.25,1.25,0,0,0-.95,1.49c0,.06,0,.11,0,.16a24.17,24.17,0,0,0,1,2.42l.38-.08v.26l0,1.35a8.33,8.33,0,0,1,.06,1.58c-.06.21-.15,1.22-.2,1.75,0,.19,0,.32,0,.32s0,1.19,2.52.83,3-1.35,3-1.35l0-.12c0-.23.12-.71.19-1a7.06,7.06,0,0,0-.73-2,3.92,3.92,0,0,0-.36-1.35,1.21,1.21,0,0,1-.18-.49l-.06-.27a.47.47,0,0,1,.17,0s-.13-.79.39-1a.74.74,0,0,0,.32-1,6.85,6.85,0,0,1,.2-1.49.73.73,0,0,1,.18-.73,9.07,9.07,0,0,0,.57-2.52l0-8.53a7.92,7.92,0,0,0,0-2.12c-.18-.61-.36-1.78-.11-2.1s0-1.78,0-1.78a18.2,18.2,0,0,1,.34-3.87c.34-.77.23-5.61.23-5.61l.09-3.18s.74-.7.56-4.35a5.56,5.56,0,0,1,1.82,0c.24.2,1.86,1.24,2.82.58a13.57,13.57,0,0,0,1.13-.87l-.4-6.77.4.62c0-.94,2.68-4,2.68-4a42.16,42.16,0,0,1,3.05-3.61,11.53,11.53,0,0,0,1.61-2.42,11.53,11.53,0,0,1,.54-1.12C272.73,139.79,271.92,138.71,272,138.46Zm-5.86,2.37a4.36,4.36,0,0,0-2.14,2,1.36,1.36,0,0,1-.3.6c0-.13,0-.27,0-.41a42.66,42.66,0,0,1-.25-4.66,13.87,13.87,0,0,0,.09-2.23h0l0,0a11.53,11.53,0,0,0,1.88,3.09s.24.72.55.74.17,1,.17,1Z" style="fill: url(#Gradiente_sem_nome_4-2)"/>
          <path id="Caminho_783" data-name="Caminho 783" d="M229.74,140.31s.83-4.35,3.49-4.35l2,4-1.3.89A12.19,12.19,0,0,1,229.74,140.31Z" style="fill: #64617b"/>
          <path id="Caminho_784" data-name="Caminho 784" d="M235.18,140l-1.3.9a15.56,15.56,0,0,1-3.41-.29,3.12,3.12,0,0,1-.73-.24v-.07h0a9.89,9.89,0,0,1,.5-1.6c.09-.2.18-.4.28-.6a4,4,0,0,1,1.69-1.85,2.31,2.31,0,0,1,.89-.24h.12l0,.09.66,1.35Z" style="opacity: 0.099999994039536;isolation: isolate"/>
          <path id="Caminho_785" data-name="Caminho 785" d="M257.29,158a14.35,14.35,0,0,1,3-.06c.25.2,1.84,1.23,2.78.57s.31-2.9.31-3-.09-3.3-.09-3.3L261.65,150l-2.1-4-4.3-.42.11,6.29,0,3.22Z" style="fill: #64617b"/>
          <path id="Caminho_787" data-name="Caminho 787" d="M232.67,135.84s-.23,2.73-1.93,2.77c0,0-.49-.29-1.14-.77-1.49-1.12-3.86-3.27-3.21-5.27.94-2.87,5.51,2.42,5.51,2.42l.35.39Z" style="fill: #e8baba"/>
          <path id="Caminho_788" data-name="Caminho 788" d="M232.67,135.84s-.23,2.73-1.94,2.77c0,0-.48-.29-1.13-.77l-.14-.19a2.18,2.18,0,0,0,.93.24,1.26,1.26,0,0,0,1.21-.76,11.64,11.64,0,0,0,.48-1.09,3.9,3.9,0,0,0,.18-.67Z" style="opacity: 0.099999994039536;isolation: isolate"/>
          <path id="Caminho_789" data-name="Caminho 789" d="M231.93,140.78l-.38-.48-1.29-1.66-.66-.85a2.18,2.18,0,0,0,.93.24,1.23,1.23,0,0,0,1.21-.76,9.72,9.72,0,0,0,.48-1.09c.21-.6.21-.91.13-1a6.59,6.59,0,0,1,.74.66h0l.12.12,0,.09.67,1.31v0C234,137.8,234.2,140.41,231.93,140.78Z" style="fill: #e6ebf9"/>
          <path id="Caminho_790" data-name="Caminho 790" d="M245.34,198.38s-1.88,1.24-2.82,1.05a3.41,3.41,0,0,0-1.91.32,5.52,5.52,0,0,1-2.37,1.54,8.52,8.52,0,0,1-4.85-.09c-.58-.19-.62-.43-.35-.74a10.76,10.76,0,0,1,1.82-1.23,17,17,0,0,0,3.2-2.73,1,1,0,0,1,.29-.65,2.56,2.56,0,0,0,.45-.48c.25-.28.47-.58.47-.58l5.54.21s.09.4.17.81a3.1,3.1,0,0,1,.08.81.72.72,0,0,0,.15.55l.1.92Z" style="fill: #1f2c40"/>
          <path id="Caminho_791" data-name="Caminho 791" d="M256.9,199.94c-.07.26-.15.74-.18,1a.59.59,0,0,1,0,.13s-.45,1-2.93,1.34-2.49-.83-2.49-.83l0-.32a15.43,15.43,0,0,1,.2-1.74,8.26,8.26,0,0,0-.07-1.57l0-1.33,0-.93,4.11-.42a6.89,6.89,0,0,0,.14.91,1.08,1.08,0,0,0,.18.49,4.36,4.36,0,0,1,.36,1.34A6.7,6.7,0,0,1,256.9,199.94Z" style="fill: #1f2c40"/>
          <path id="Caminho_792" data-name="Caminho 792" d="M244.81,195s.1.4.17.81c-.6.11-3.21.56-3.87.24a10.29,10.29,0,0,0-2.33-.56l0-.09c.24-.28.47-.58.47-.58Z" style="opacity: 0.099999994039536;isolation: isolate"/>
          <path id="Caminho_793" data-name="Caminho 793" d="M255.65,196.15a15.83,15.83,0,0,0-4.23.44l0-.93,4.11-.42c0,.3.08.61.14.91Z" style="opacity: 0.099999994039536;isolation: isolate"/>
          <path id="Caminho_794" data-name="Caminho 794" d="M258,162.22l-.09,3.15s.11,4.81-.22,5.56a17.65,17.65,0,0,0-.34,3.82s.23,1.45,0,1.77-.07,1.48.11,2.08a7.85,7.85,0,0,1,0,2.11l0,8.46a8.89,8.89,0,0,1-.56,2.5.73.73,0,0,0-.18.73,7.32,7.32,0,0,0-.2,1.48.74.74,0,0,1-.31,1c-.52.25-.39,1-.39,1-1.23-.29-4.72.48-4.72.48a23.52,23.52,0,0,1-1-2.39,1.23,1.23,0,0,1,.74-1.59l.15,0c.47-.06-.33-.89-.33-.89s.09-.11-.14-.92a13.38,13.38,0,0,1,.11-3.4L251,184a29.74,29.74,0,0,1-.05-3.43,3,3,0,0,0,.36-1.86,21.52,21.52,0,0,1-.58-3.38c0-.16-.29-3.78-.29-3.78a28.59,28.59,0,0,1-.2-3.07,19.45,19.45,0,0,0-.19-2.53,8.53,8.53,0,0,0-1-3.45l0,.07-2.08,5.5s-.33,1.66-.62,2.6a15.86,15.86,0,0,0-.44,1.93l0,.12,0,.13v.09h0a3.53,3.53,0,0,1-.1,1.56,5.86,5.86,0,0,0-.51,1.84c0,.32,0,1.52,0,1.52a10.5,10.5,0,0,1-.15,2.66.43.43,0,0,0-.12.49,7.61,7.61,0,0,1,.23,2.28,4.6,4.6,0,0,0-.05,1.57s-.36,3.46-.4,3.64-.29,1.57,0,1.68a3.65,3.65,0,0,1,.78.79s.11,2.93-.29,3.15-.18,1.36-.18,1.36-3.24.63-4,.27a11,11,0,0,0-2.33-.56l.22-.72s-.16.27-.26-.65.82-.48.82-.48.74.17-.45-1a1.88,1.88,0,0,1-.53-2.35,14.19,14.19,0,0,0,.22-1.72,6,6,0,0,0,.05-1.84c-.16-.8-.29-3.31-.29-3.31a11.81,11.81,0,0,0-.1-2.59,5.48,5.48,0,0,1,.21-2.24c.06-.31-.21-3-.21-3a8.32,8.32,0,0,0,.1-2.17,36.27,36.27,0,0,1,.13-4.3l.4-3.89a8.2,8.2,0,0,0,.24-1.7,15.14,15.14,0,0,1,.34-2.21,2.49,2.49,0,0,1,.18-1.08,7.93,7.93,0,0,0,.31-1.93l2.15-4.92,1-4.36,14.22-.13s.05.38.13,1.06.21,1.69.35,3,.26,2.47.39,4C258.88,161.37,258,162.22,258,162.22Z" style="fill: #1f2c40"/>
          <path id="Caminho_795" data-name="Caminho 795" d="M256.66,123l-3.31,3.55s-4.25-1.7-3.81-2.29a3.19,3.19,0,0,0,.05-1.72c-.16-1.24-.48-2.66-.48-2.66s7.43-1.21,6.8,0a2,2,0,0,0,0,1.48A5.53,5.53,0,0,0,256.66,123Z" style="fill: #e8baba"/>
          <path id="Caminho_796" data-name="Caminho 796" d="M255.9,119.94c-.23.46-.34.51-.19,1-1,1-2.21,2.18-3.75,2.18a5.29,5.29,0,0,1-2.37-.56c-.16-1.24-.48-2.66-.48-2.66S256.53,118.69,255.9,119.94Z" style="opacity: 0.099999994039536;isolation: isolate"/>
          <path id="Caminho_797" data-name="Caminho 797" d="M257.29,117.66a5.33,5.33,0,0,1-10.66,0h0v-.08a5.33,5.33,0,0,1,10.66.08Z" style="fill: #e8baba"/>
          <path id="Caminho_798" data-name="Caminho 798" d="M258.06,152.8l-5.68.07h0l-.87,0h0c-3.11,0-6.18-.56-7.41-.45-2.62.24.94-2.42.94-2.42a21.77,21.77,0,0,0,6,.61l.76,0a33.1,33.1,0,0,0,6-.73C257.8,150.55,257.92,151.55,258.06,152.8Z" style="opacity: 0.099999994039536;isolation: isolate"/>
          <path id="Caminho_799" data-name="Caminho 799" d="M258.06,152.67l-5.68.07h-.93c-3.11.05-6.18-.56-7.41-.44-2.62.24.94-2.42.94-2.42a21.38,21.38,0,0,0,6,.6l.76,0a33.1,33.1,0,0,0,6-.73C257.8,150.41,257.92,151.42,258.06,152.67Z" style="fill: #5f5d7c"/>
          <path id="Caminho_800" data-name="Caminho 800" d="M250.53,124.51l-4.11,1.94L243.24,151s1.88-.85,2.95-.32,4.39.05,4.39.05a9.74,9.74,0,0,1,2.77.14c.36.27,4.57-1.12,4.57-1.12s.76-1.7.18-2,.18-2.91.18-2.91l-.36-17.72-.72-2.28-1.94-1.17-2,1.57-.94.13Z" style="opacity: 0.099999994039536;isolation: isolate"/>
          <path id="Caminho_801" data-name="Caminho 801" d="M250.53,124.24l-4.11,1.94-3.19,24.57s1.88-.85,3-.31,4.38,0,4.38,0a10.21,10.21,0,0,1,2.78.14c.36.27,4.56-1.12,4.56-1.12s.77-1.69.18-2,.18-2.9.18-2.9l-.36-17.73-.72-2.28-1.94-1.17-2,1.57-.94.14Z" style="fill: #e6ebf9"/>
          <path id="Caminho_802" data-name="Caminho 802" d="M250.46,125.39s1.19,1.4,1.17,1.69-.07,1-.07,1l-.9,1.81s-.48,2.26-.48,2.74-.78,4.54-.78,4.54l-1,6.27-1.19,8.22,1.21,2.09,1.43-1.21,1.91-14.64.4-2.89s.42-5.19.42-5.72a15.74,15.74,0,0,0-.24-2,2.32,2.32,0,0,1,1.5-1.66c1.21-.31-.09-.06-.09-.06l-.69-.56-.61.24S250.82,124.76,250.46,125.39Z" style="opacity: 0.099999994039536;isolation: isolate"/>
          <path id="Caminho_803" data-name="Caminho 803" d="M250.33,125.25s1.18,1.41,1.16,1.69l-.07,1-.89,1.81s-.48,2.26-.48,2.73-.79,4.54-.79,4.54l-.94,6.27-1.18,8.22,1.21,2.08,1.43-1.21,1.9-14.64.4-2.88s.43-5.2.43-5.73-.13-1.3-.24-2a2.31,2.31,0,0,1,1.5-1.66c1.21-.31-.09-.06-.09-.06l-.7-.56-.6.24S250.69,124.62,250.33,125.25Z" style="fill: #5f8ddf"/>
          <path id="Caminho_804" data-name="Caminho 804" d="M249.54,122.9s-.17.13-.22,1a18.19,18.19,0,0,1-.67,2.9s2.33-1.61,3.49-1.43Z" style="opacity: 0.099999994039536;isolation: isolate"/>
          <path id="Caminho_805" data-name="Caminho 805" d="M249.54,122.63s-.17.14-.22,1a17.94,17.94,0,0,1-.67,2.9s2.33-1.61,3.49-1.43Z" style="fill: #e6ebf9"/>
          <path id="Caminho_806" data-name="Caminho 806" d="M255.9,122.18l-3.67,3.23a36.3,36.3,0,0,1,3.49,2.28c.41.45.81-4.39.81-4.39Z" style="opacity: 0.099999994039536;isolation: isolate"/>
          <path id="Caminho_807" data-name="Caminho 807" d="M256,121.92l-3.67,3.22a37.55,37.55,0,0,1,3.5,2.28c.4.45.8-4.39.8-4.39Z" style="fill: #e6ebf9"/>
          <path id="Caminho_808" data-name="Caminho 808" d="M249.68,122.9s-.4-.2-.79.38a2.41,2.41,0,0,1-1.09.85s-4.07.65-4.23,1.19l-1.91.11s-.67.09-.72,1.5-.43,1.54-.43,1.54a5.5,5.5,0,0,0-.72,2.1,1.18,1.18,0,0,1-.61,1.08l2.8,7.27a13.78,13.78,0,0,1-.42,4.1,50.85,50.85,0,0,0-1.48,5.95s.4-.09.38.18-.49,3.2-.49,3.2a6.49,6.49,0,0,1-.35,1.57,10.89,10.89,0,0,0-.24,2.5L239,158s.85,1.9,2.14,1.63,3.65-5.35,3.65-5.35l1.5-5.48,1.16-5.42.34-3.67.54-8.12.78-5.37S250,123.28,249.68,122.9Z" style="opacity: 0.099999994039536;isolation: isolate"/>
          <path id="Caminho_809" data-name="Caminho 809" d="M249.54,122.63s-.4-.2-.78.38a2.49,2.49,0,0,1-1.1.85s-4.07.65-4.23,1.19l-1.9.11s-.67.09-.74,1.5-.42,1.54-.42,1.54a5.47,5.47,0,0,0-.73,2.11,1.16,1.16,0,0,1-.6,1.07l2.8,7.28a13.78,13.78,0,0,1-.42,4.1,50.85,50.85,0,0,0-1.48,6s.4-.08.38.18-.48,3.2-.48,3.2a6.07,6.07,0,0,1-.36,1.57,11.57,11.57,0,0,0-.24,2.51l-.36,1.52s.85,1.9,2.15,1.63,3.65-5.35,3.65-5.35l1.5-5.48,1.16-5.42.32-3.68.54-8.13.78-5.37S249.86,123,249.54,122.63Z" style="fill: #37517c"/>
          <path id="Caminho_810" data-name="Caminho 810" d="M235.18,140l-1.3.9a15.61,15.61,0,0,1-3.41-.29l-.72-.32-.15-.06.15,0a3,3,0,0,0,1.79.07c1.84-.62,1.64-3.65,1.57-4.34a.59.59,0,0,0,0-.13h0v0l.09.11.08.09h0l.67,1.29v.06Z" style="opacity: 0.099999994039536;isolation: isolate"/>
          <path id="Caminho_811" data-name="Caminho 811" d="M239.67,131.2l-.62.18-.09,1.28a.85.85,0,0,0-.94.76,3.2,3.2,0,0,1-.56,1.28s-1.23,1-1.3,1.9l-.76.47s-1.77-.41-2.18-1.12c0,0,.81,5.77-3.49,4.35,0,0,4.81,2.1,5,2.4a2.8,2.8,0,0,0,3,.42,3.21,3.21,0,0,0,1.64-1.81,19.88,19.88,0,0,0,1.34-2.08c0-.27,1.05-.59,1.05-.59l1.93-4.65Z" style="fill: #64617b"/>
          <path id="Caminho_812" data-name="Caminho 812" d="M255.39,124.87l.64-3a3.54,3.54,0,0,0,.59,1.18l1,.73a5.54,5.54,0,0,0,1.3.44,7.88,7.88,0,0,1,2.37.73c.23.24,1.12.07,1.12.07s.74.24,1.39.4,1,1.23.83,1.66a1.31,1.31,0,0,0,.31,1.21,2.84,2.84,0,0,1,.41,1.14,1.31,1.31,0,0,1,.76.65,4.53,4.53,0,0,1,.15,1.56l-3.33,4.7a13.75,13.75,0,0,1-.09,2.22c-.13.4.47,7.25.47,7.25l.69,11.77a10.48,10.48,0,0,1-1.12.87c-.2.09-.4-4.16-.4-4.31s-5.17-7.74-5.17-7.74a7,7,0,0,1-.69-1.37c0-.24-.65-2.5-.65-2.5l-1-4.36Z" style="opacity: 0.099999994039536;isolation: isolate"/>
          <path id="Caminho_813" data-name="Caminho 813" d="M266.5,131.44v.26l-3.34,4.69h0a13.75,13.75,0,0,1-.09,2.22c-.07.24.1,2.64.25,4.62.11,1.42.21,2.63.21,2.63l.3,5,.4,6.77a13.42,13.42,0,0,1-1.12.87c-.2.09-.4-4.16-.4-4.32s-5.18-7.73-5.18-7.73a7,7,0,0,1-.69-1.37c0-.25-.65-2.51-.65-2.51l-1-4.35.45-13.34.38-3a6.09,6.09,0,0,0,.85,1.18l1,.74a6.07,6.07,0,0,0,1.3.45,7.87,7.87,0,0,1,2.37.72c.23.24,1.12.07,1.12.07s.74.24,1.39.4a1.55,1.55,0,0,1,.83,1.66,1.3,1.3,0,0,0,.31,1.21,3,3,0,0,1,.41,1.14,1.32,1.32,0,0,1,.76.65,3.57,3.57,0,0,1,.15,1.3Z" style="fill: #37517c"/>
          <path id="Caminho_814" data-name="Caminho 814" d="M239.14,191.07c.11,0,4.81.18,4.72.94S239.14,191.07,239.14,191.07Z" style="opacity: 0.099999994039536;isolation: isolate"/>
          <path id="Caminho_815" data-name="Caminho 815" d="M240.19,192.34s3.15.51,2.33,1S240.19,192.34,240.19,192.34Z" style="opacity: 0.099999994039536;isolation: isolate"/>
          <path id="Caminho_816" data-name="Caminho 816" d="M251.92,190.58s5.23.45,4.45,1a6.82,6.82,0,0,1-2.73.69C253.55,192.32,251.92,190.58,251.92,190.58Z" style="opacity: 0.099999994039536;isolation: isolate"/>
          <path id="Caminho_817" data-name="Caminho 817" d="M251.29,192.89s2.9.48,3,1.05S251.29,192.89,251.29,192.89Z" style="opacity: 0.099999994039536;isolation: isolate"/>
          <path id="Caminho_818" data-name="Caminho 818" d="M252.9,179.41s2.66.63,2.82,1.05Z" style="opacity: 0.099999994039536;isolation: isolate"/>
          <path id="Caminho_819" data-name="Caminho 819" d="M242.64,181.34s-1.39.4,0,1.2S242.64,181.34,242.64,181.34Z" style="opacity: 0.099999994039536;isolation: isolate"/>
          <path id="Caminho_820" data-name="Caminho 820" d="M248.78,159.83c.16,0,2.6-.81,3.45-.45a5.62,5.62,0,0,0,1.9.36Z" style="opacity: 0.099999994039536;isolation: isolate"/>
          <path id="Caminho_821" data-name="Caminho 821" d="M249.1,162.38l0,.22L247,168.07s-.34,1.65-.63,2.59a18.16,18.16,0,0,0-.44,1.94l1.85-11.46Z" style="opacity: 0.099999994039536;isolation: isolate"/>
          <path id="Caminho_822" data-name="Caminho 822" d="M252.35,152.73l-.87,0h0l-.51-2.26.76,0Z" style="fill: #413f56"/>
          <path id="Caminho_823" data-name="Caminho 823" d="M262.91,150l-.56.46L260.49,152s-5,2.69-6.42.14c-1.23-2.25,4.48-3.85,5.86-4.2l.29-.07Z" style="fill: #e8baba"/>
          <path id="Caminho_824" data-name="Caminho 824" d="M241.4,128s1,.45,1.21,1.08S241.4,128,241.4,128Z" style="opacity: 0.099999994039536;isolation: isolate"/>
          <path id="Caminho_825" data-name="Caminho 825" d="M238.35,134.72s-1.43,1.74-.85,2.41S238.35,134.72,238.35,134.72Z" style="opacity: 0.099999994039536;isolation: isolate"/>
          <path id="Caminho_826" data-name="Caminho 826" d="M264,129s-1.34.14-1.39,1.3Z" style="opacity: 0.099999994039536;isolation: isolate"/>
          <path id="Caminho_827" data-name="Caminho 827" d="M251.51,147.34c.14-.14,3.23-4.7,3.94-4.3Z" style="opacity: 0.099999994039536;isolation: isolate"/>
          <path id="Caminho_828" data-name="Caminho 828" d="M257.29,117.66a5.41,5.41,0,0,1-.63,2.52h0c-.34-.08-.52-.47-.77-.71a1,1,0,0,0-1.21-.17,1.24,1.24,0,0,0-.6,1.14c-.16-.72-.11-1.47-.28-2.19s-.67-1.45-1.35-1.45c-.3,0-.64.11-.86-.12a2.1,2.1,0,0,1-.24-.5c-.48-.8-2-.4-2.59,0a17.15,17.15,0,0,1-2.07,1.41,5.33,5.33,0,1,1,10.65,0v.07Z" style="opacity: 0.099999994039536;isolation: isolate"/>
          <path id="Caminho_829" data-name="Caminho 829" d="M251.3,116a4,4,0,0,0,.24.51c.21.22.56.1.86.11.68,0,1.19.74,1.35,1.45s.11,1.48.29,2.2a1.21,1.21,0,0,1,.59-1.15,1,1,0,0,1,1.21.17c.25.24.43.64.77.71s.66-.26.78-.61a8.45,8.45,0,0,0,.19-1.12,14.45,14.45,0,0,1,.87-1.93,3.48,3.48,0,0,0,0-2.5c-.17-.42-.42-.8-.58-1.21-.26-.64-.33-1.36-.64-2a2.33,2.33,0,0,0-2.79-1.15c-.48.19-.91.54-1.4.7a4.58,4.58,0,0,1-2,0,2.56,2.56,0,0,0-2,.35c-.63.52-.8,1.49-1.4,2.06-.24.24-.56.39-.82.61a1.18,1.18,0,0,0-.47.91c0,.47.49.89.33,1.32a1.08,1.08,0,0,1-.24.32,4.68,4.68,0,0,0-1.08,1.85c1.2.37,2.49-1,3.43-1.57C249.32,115.64,250.81,115.24,251.3,116Z" style="fill: #735c5c"/>
          <path id="Caminho_830" data-name="Caminho 830" d="M262.91,150l-.56.46a15.73,15.73,0,0,0-2.51-2.45l.09-.09.29-.06Z" style="opacity: 0.099999994039536;isolation: isolate"/>
          <path id="Caminho_831" data-name="Caminho 831" d="M263.44,149.18s-.2.49-.4.92-.44.83-.45.51c0-.63-2.62-2.73-2.62-2.73l.36-.35.4-.39Z" style="fill: #e6ebf9"/>
          <path id="Caminho_832" data-name="Caminho 832" d="M263.53,145.87l.3,5c-.7-1.08-2.61-3.85-3.83-3.76l3-3.43a2.87,2.87,0,0,0,.34-.44C263.43,144.66,263.53,145.87,263.53,145.87Z" style="opacity: 0.099999994039536;isolation: isolate"/>
          <path id="Caminho_833" data-name="Caminho 833" d="M263.44,149.18s-.2.49-.4.92c-.79-1.07-1.86-2.33-2.71-2.57l.4-.39Z" style="opacity: 0.099999994039536;isolation: isolate"/>
          <path id="Caminho_834" data-name="Caminho 834" d="M265.68,131.07l.81.63s1.34,0,1.47,1.14a2.36,2.36,0,0,0,1.37,1.63s.92.92.92,1.34.69,1.19.69,1.26.67,1.43.58,1.68.73,1.32.47,1.72a10.51,10.51,0,0,0-.54,1.12,11.51,11.51,0,0,1-1.58,2.39,42.41,42.41,0,0,0-3,3.58s-2.64,3.05-2.64,4c0,0-2.58-4.3-4.1-4.19l3-3.42a2.43,2.43,0,0,0,.54-.9c0-.33,1.43-1.88,2.1-1.94,0,0,.11-.92-.18-.94s-.54-.73-.54-.73-2-2.33-2-3.81S265.68,131.07,265.68,131.07Z" style="fill: #37517c"/>
          <path id="Caminho_835" data-name="Caminho 835" d="M266.87,133.19s-1.89,1.39-1.48,1.84S266.87,133.19,266.87,133.19Z" style="opacity: 0.099999994039536;isolation: isolate"/>
          <path id="Caminho_836" data-name="Caminho 836" d="M267,138.92s3.49-1.12,3.85,0Z" style="opacity: 0.099999994039536;isolation: isolate"/>
          <path id="Caminho_837" data-name="Caminho 837" d="M245.34,198.38s-1.88,1.24-2.82,1.05a3.41,3.41,0,0,0-1.91.32,5.52,5.52,0,0,1-2.37,1.54,8.61,8.61,0,0,1-4.85-.08c-.58-.2-.62-.44-.35-.74,1.32.26,4.25.78,5.05.4a21,21,0,0,0,2.5-1.57s1.94-.27,2.2-.27a23.14,23.14,0,0,0,2.51-1Z" style="opacity: 0.099999994039536;isolation: isolate"/>
          <path id="Caminho_838" data-name="Caminho 838" d="M256.72,200.91a.49.49,0,0,1,0,.12s-.45,1-2.94,1.34-2.48-.82-2.48-.82l0-.32C252.1,201.53,253.82,201.86,256.72,200.91Z" style="opacity: 0.099999994039536;isolation: isolate"/>
          <path id="Caminho_839" data-name="Caminho 839" d="M242.33,132.93s0,5.1-.44,5.6S242.33,132.93,242.33,132.93Z" style="opacity: 0.099999994039536;isolation: isolate"/>
          <path id="Caminho_840" data-name="Caminho 840" d="M262.5,134.57l.65,1.83S263.41,134.61,262.5,134.57Z" style="opacity: 0.099999994039536;isolation: isolate"/>
          <g id="Grupo_190" data-name="Grupo 190" style="opacity: 0.099999994039536">
            <path id="Caminho_841" data-name="Caminho 841" d="M246.68,115c.16-.42-.27-.83-.32-1.28a.78.78,0,0,0-.08.4,8.65,8.65,0,0,0,.35,1Z"/>
            <path id="Caminho_842" data-name="Caminho 842" d="M254.1,119.83c-.15-.71-.11-1.45-.27-2.16s-.67-1.45-1.36-1.45c-.29,0-.64.1-.85-.11s-.15-.35-.24-.51c-.48-.79-2-.39-2.59,0-.92.6-2.18,1.88-3.35,1.59a2.86,2.86,0,0,0-.15.41c1.2.37,2.49-.94,3.43-1.57.61-.41,2.1-.81,2.59,0a4,4,0,0,0,.24.51c.22.22.56.11.86.11.68,0,1.19.74,1.35,1.45s.11,1.48.29,2.2a1.07,1.07,0,0,1,0-.47Z"/>
            <path id="Caminho_843" data-name="Caminho 843" d="M257.47,119c-.12.35-.44.68-.79.61s-.51-.47-.77-.71a1,1,0,0,0-1.21-.17,1.22,1.22,0,0,0-.59,1.08,1.18,1.18,0,0,1,.52-.64,1.06,1.06,0,0,1,1.21.16c.26.25.44.64.77.71s.67-.25.79-.6a3.55,3.55,0,0,0,.12-.65,1.6,1.6,0,0,1,0,.21Z"/>
            <path id="Caminho_844" data-name="Caminho 844" d="M258.52,115.94a16.67,16.67,0,0,0-.86,1.93c0,.14,0,.29-.06.43a15,15,0,0,1,.86-1.93,3.29,3.29,0,0,0,.2-.93,2.85,2.85,0,0,1-.14.5Z"/>
          </g>
          <circle id="Elipse_329" data-name="Elipse 329" cx="226.18" cy="132.09" r="0.06" style="fill: #e3e4e8"/>
          <rect id="Retângulo_988" data-name="Retângulo 988" x="205.29" y="133.34" width="43.8" height="50.34" rx="3.47" style="fill: #fff"/>
          <rect id="Retângulo_989" data-name="Retângulo 989" x="205.29" y="133.34" width="43.8" height="50.34" rx="3.47" style="fill: #5a5871;opacity: 0.099999994039536;isolation: isolate"/>
          <rect id="Retângulo_990" data-name="Retângulo 990" x="207.53" y="135.9" width="39.34" height="45.21" rx="3.47" style="fill: #fff"/>
          <rect id="Retângulo_991" data-name="Retângulo 991" x="213.25" y="144.97" width="26.99" height="9.31" rx="3.17" style="fill: #5f8ddf"/>
          <rect id="Retângulo_992" data-name="Retângulo 992" x="214.24" y="157.69" width="25.01" height="1.9" style="fill: #5f8ddf"/>
          <rect id="Retângulo_993" data-name="Retângulo 993" x="209.99" y="161.7" width="34.41" height="1.9" style="fill: #5f8ddf"/>
          <rect id="Retângulo_994" data-name="Retângulo 994" x="209.99" y="165.92" width="34.41" height="1.9" style="fill: #5f8ddf"/>
          <rect id="Retângulo_995" data-name="Retângulo 995" x="209.99" y="170.14" width="34.41" height="1.9" style="fill: #5f8ddf"/>
          <rect id="Retângulo_996" data-name="Retângulo 996" y="116.7" width="103.14" height="50.34" rx="3.47" style="fill: #fff"/>
          <rect id="Retângulo_997" data-name="Retângulo 997" y="116.7" width="103.14" height="50.34" rx="3.47" style="fill: #5a5871;opacity: 0.099999994039536;isolation: isolate"/>
          <rect id="Retângulo_998" data-name="Retângulo 998" x="5.26" y="119.26" width="92.62" height="45.21" rx="3.47" style="fill: #fff"/>
          <rect id="Retângulo_999" data-name="Retângulo 999" x="18.74" y="128.33" width="63.54" height="9.31" rx="3.17" style="fill: #5f8ddf"/>
          <rect id="Retângulo_1000" data-name="Retângulo 1000" x="21.07" y="141.05" width="58.88" height="1.9" style="fill: #5f8ddf"/>
          <rect id="Retângulo_1001" data-name="Retângulo 1001" x="11.06" y="145.06" width="81.02" height="1.9" style="fill: #5f8ddf"/>
          <rect id="Retângulo_1002" data-name="Retângulo 1002" x="11.06" y="149.28" width="81.02" height="1.9" style="fill: #5f8ddf"/>
          <rect id="Retângulo_1003" data-name="Retângulo 1003" x="11.06" y="153.5" width="81.02" height="1.9" style="fill: #5f8ddf"/>
          <path id="Caminho_845" data-name="Caminho 845" d="M25.21,203.26c.29-1,.48-2,.48-2a4.13,4.13,0,0,1,.54-2V199h0l.08-2.13a7.52,7.52,0,0,0-.48-1.13c-.36-.69.12-3.13.12-3.13s1.55-3.4,1.29-5.61,3.29-9.63,3.29-9.63a9.3,9.3,0,0,0-.22-2.17,1.7,1.7,0,0,1,0-.45v0a16.48,16.48,0,0,1,1.35-4.11l.05-5.18a15.24,15.24,0,0,1,.72-7.12c.48-1.41.78-2.54,1-3.42l.06-.28c-2.43-.47-4.3-.86-4.3-.86s1.66-5.89,2.66-6.89,1.9-4.25,1.9-4.25.66-4.18-.1-5.44a8.19,8.19,0,0,1-.79-3.39s-1.8-1.41-2-2a10,10,0,0,1-.51-2.66c0-.7.28-1.33.22-1.7s.61-1.76.33-2.45a1.8,1.8,0,0,1-.1-.65v0h0a9.22,9.22,0,0,1,.23-1.73,5,5,0,0,1,1.86-.91l0-.16.12-.41.18-.1v-.15l0-.61L33,118.84c-.48-2.38,2.69-2.61,2.69-2.61a1.63,1.63,0,0,1,.92-.75c.64-.2,0,3.55-.34,3.78a13.08,13.08,0,0,0-1.31,1.9h0l-.06.09.14.16-.15.82,0,.12a3.24,3.24,0,0,1,.47.88,1.84,1.84,0,0,0-.51,1.32,4.14,4.14,0,0,1-.24,1.63s.46-.46.86-.34,1.52.5,1.52.5.84.18.75.37.54,1,.54,1l2.35-2.06c0-.06.05-.13.08-.19a5.19,5.19,0,0,0,.24-.94,4.89,4.89,0,0,1-.73-.26,1.59,1.59,0,0,1-.61-.42,2.57,2.57,0,0,1-.33-1A13.62,13.62,0,0,0,38.5,121a6.1,6.1,0,0,1-.32-3.38,2.27,2.27,0,0,1,.38-1c.4-.5,1.07-.68,1.58-1.06s.84-1,1.42-1.29a2.8,2.8,0,0,1,1.74-.08,9.24,9.24,0,0,1,3.15,1.29,1.63,1.63,0,0,0,1.06.39,1.42,1.42,0,0,0,.8-.54v0l0,0a4,4,0,0,1,.28,1.71,1.27,1.27,0,0,1,0,.28v.17h0a.5.5,0,0,0,0,.12.79.79,0,0,0,.2.31,2.33,2.33,0,0,1,.17.26.16.16,0,0,0,0-.09,1.33,1.33,0,0,1,.22.72.74.74,0,0,1-.2.51,1.78,1.78,0,0,1-.38.28A4.35,4.35,0,0,1,46.36,124l-.09.19a5.35,5.35,0,0,0-.5,2.46.37.37,0,0,0,0,.18c0,.06.05.06.08.1h0s3.74.18,4.66-.59,2.15,2,2.15,2,1.33.31,1.61.06,1.85,0,1.85,0a3.39,3.39,0,0,1,2.37-.77,6.78,6.78,0,0,1,1.76-.89h0a1.9,1.9,0,0,1,.85-.08,16.46,16.46,0,0,0,2.47-2.25c.57-.8,3.24-3.73,3.24-3.75v-.14l.05-.44a1.6,1.6,0,0,0,.23,0l.06-.15a7.73,7.73,0,0,1,.59-1.23s0-.56-.14-.71a9.33,9.33,0,0,1,.15-2.17s1.82-3.82,3.19-.87c0,0,2.74,2,.3,4.08,0,0-1,.42-1.11.78s-.44.88-.67,1.3l-.11.19,0,0,0,.36,0,.14c.43.27.73.53.65.73a3.92,3.92,0,0,0-.31,1s-3.42,3.94-3.91,5.68c0,0-9,4.87-11.84,5.13l.39,2.62c0,.71.06,1.42,0,2.13-.06.55.23,3.09.23,3.09s.35,3.74.75,4.28.25,2.76.25,2.76a19,19,0,0,0,.45,3.19,8,8,0,0,1,0,3.16s1.33,3.4-2.08,1c0,0-1.71-.17-3.68-.32v.2c0,.26,0,.53,0,.82,0,1.92-.14,4.56-.3,6.55-.29,3.53-1.64,10.48-1.64,10.48l-.13,3.51a4.26,4.26,0,0,1,.06,1,6.55,6.55,0,0,1-1.08,3.48l-.36,2.33a9.17,9.17,0,0,0-.74,2.44,1.79,1.79,0,0,0,0,.23,1.43,1.43,0,0,1,0,.36,20.88,20.88,0,0,1-.74,3.58s-.14,2.56-.53,2.7.38,1.49.59,1.89a.25.25,0,0,0,0-.07l0,.07a1.85,1.85,0,0,1,.09.66.93.93,0,0,1-.46.88c-.75.42-1.15.78-.54.95a5.06,5.06,0,0,1,.67.17l0-.09a.41.41,0,0,1,.24.46,2,2,0,0,1-.26.86,9.73,9.73,0,0,1-1.11,1.86l-.3,0a1.37,1.37,0,0,0,.16.32,1.24,1.24,0,0,0,.42.4,1.37,1.37,0,0,0,.52.2,1.5,1.5,0,0,1,1.07.57,1.14,1.14,0,0,1-.21,1.76l-2.78.84s-4.75.43-4.46-.62.48-2,.48-2a4.2,4.2,0,0,1,.46-1.87,2.11,2.11,0,0,1,.18-.27l-.17,0s-.28-2.36-.73-2.81c-.1-.11-.12-.19-.1-.25s.08-.19.24-.24a.36.36,0,0,0,0,.09,3.44,3.44,0,0,1,.46,0s.2-1.22-.29-1.69a.54.54,0,0,1-.08-.37,2.15,2.15,0,0,1,.07-.5l0,0a18.22,18.22,0,0,1,1.21-2.84,3.5,3.5,0,0,0-.21-1.57c-.29-.46.27-6.06.27-6.06a18.61,18.61,0,0,1,.38-4,4.45,4.45,0,0,0-.31-2.77.25.25,0,0,1,0-.08v0s0-.17.06-.42v0c.11-.72.3-2,.44-2.61.18-.84.15-4.94.15-4.94l-.63-1.77-1.35,3-1.45,4a3.41,3.41,0,0,0-.72,1.69v.4a2.38,2.38,0,0,1-.46,1.41,6.43,6.43,0,0,1-1,2.35,2.14,2.14,0,0,0-.59,1.39,23.36,23.36,0,0,1-1.09,3.2,4.72,4.72,0,0,0-.34,1.86h0v.1s-.13,1-.16,1.81v.27a3,3,0,0,0,0,.67v-.1a7.14,7.14,0,0,1,.14,1.72,4.44,4.44,0,0,1-.85,2.82c-1.08,1.15-1.73,1-1.73,1s.45,1.51,1,1.83l.06,0a.19.19,0,0,1,0-.08.71.71,0,0,1,.16.56,4,4,0,0,1-.85,2.17,1.2,1.2,0,0,1-.53.29l.1.06a1,1,0,0,0,.21.11,1,1,0,0,0,.31.09,1.47,1.47,0,0,1,1.06.57,1.13,1.13,0,0,1-.2,1.76l-2.78.84S24.92,204.31,25.21,203.26Z" style="fill: url(#Gradiente_sem_nome_4-3)"/>
          <path id="Caminho_846" data-name="Caminho 846" d="M43.19,205.71l2.69-.84a1.16,1.16,0,0,0,.2-1.76,1.42,1.42,0,0,0-1-.57,1.33,1.33,0,0,1-.51-.2,1.27,1.27,0,0,1-.4-.4,2,2,0,0,1-.26-1s-2.89-1-3.72-.14a2.23,2.23,0,0,0-.37.5,4.32,4.32,0,0,0-.44,1.87s-.19.92-.47,2S43.19,205.71,43.19,205.71Z" style="fill: #302d3f"/>
          <path id="Caminho_847" data-name="Caminho 847" d="M30.22,203.9l2.7-.84a1.16,1.16,0,0,0,.2-1.76,1.44,1.44,0,0,0-1-.57,1.71,1.71,0,0,1-.3-.09l-.2-.11a1.72,1.72,0,0,1-.67-1.45s-2.88-1-3.72-.15a2.06,2.06,0,0,0-.29.37,4.15,4.15,0,0,0-.52,2s-.19.92-.47,2S30.22,203.9,30.22,203.9Z" style="fill: #302d3f"/>
          <path id="Caminho_848" data-name="Caminho 848" d="M40.16,200.75a2.29,2.29,0,0,0-.37.51h0l4.35.68a2,2,0,0,1-.26-1S41,199.93,40.16,200.75Z" style="opacity: 0.099999994039536;isolation: isolate"/>
          <path id="Caminho_849" data-name="Caminho 849" d="M26.9,199.31l0,.82c.64,1.15,3.94,1,4.91.51l-.2-.11a1.71,1.71,0,0,1-.67-1.45s-2.88-1-3.72-.14A2.06,2.06,0,0,0,26.9,199.31Z" style="opacity: 0.099999994039536;isolation: isolate"/>
          <path id="Caminho_850" data-name="Caminho 850" d="M26.51,195.76A7.12,7.12,0,0,1,27,196.9l-.12,2.93c.7,1.26,4.58,1,5.13.35s1.17-2.38.58-2.69-1-1.83-1-1.83.63.17,1.68-1,.85-3.8.69-4.44a12.57,12.57,0,0,1,.11-2.75,5.61,5.61,0,0,1,.33-2,24,24,0,0,0,1.06-3.2A2.17,2.17,0,0,1,36,181,6.43,6.43,0,0,0,37,178.6,2.46,2.46,0,0,0,37.4,177a3.28,3.28,0,0,1,.71-1.92l1.41-4,1.31-3,.6,1.78s0,4.09-.15,4.94S40.8,178,40.8,178a4.64,4.64,0,0,1,.3,2.77,19.33,19.33,0,0,0-.38,4s-.55,5.6-.27,6.06a3.64,3.64,0,0,1,.2,1.57s-1.64,3.21-1.18,3.68.27,1.69.27,1.69-1,0-.61.42a8.75,8.75,0,0,1,.66,2.8l4.47.7a9.59,9.59,0,0,0,1.08-1.86c.65-1.35-.06-1.23-.66-1.4s-.2-.53.53-1,.35-1.44.35-1.44-1-1.86-.63-2,.51-2.69.51-2.69a16.92,16.92,0,0,0,.71-3.85,7.41,7.41,0,0,1,.7-2.77l.35-2.33a6.4,6.4,0,0,0,1-4.39l.14-3.61s1.31-6.93,1.61-10.47c.18-2.26.27-5.35.31-7.28,0-1.08,0-1.79,0-1.79l-16-2.3a13.58,13.58,0,0,1-.39,2.38,34,34,0,0,1-1,3.42,15.65,15.65,0,0,0-.73,7.12l-.05,5.17s-1.55,3.41-1.29,4.61a9.86,9.86,0,0,1,.21,2.17s-3.45,7.42-3.19,9.62-1.27,5.61-1.27,5.61S26.17,195.08,26.51,195.76Z" style="fill: #273854"/>
          <path id="Caminho_851" data-name="Caminho 851" d="M36.44,176.74l-4.86-.84S34.24,178.84,36.44,176.74Z" style="opacity: 0.049999997019768;isolation: isolate"/>
          <path id="Caminho_852" data-name="Caminho 852" d="M32.47,171.16s-.24,1.72.8,2.41C33.26,173.57,31.39,173.2,32.47,171.16Z" style="opacity: 0.099999994039536;isolation: isolate"/>
          <path id="Caminho_853" data-name="Caminho 853" d="M33,165.66s4,3.52,5.46,3.31S33,165.66,33,165.66Z" style="opacity: 0.099999994039536;isolation: isolate"/>
          <path id="Caminho_854" data-name="Caminho 854" d="M42.45,178.56s3.08.82,3.12,2.07S42.45,178.56,42.45,178.56Z" style="opacity: 0.099999994039536;isolation: isolate"/>
          <path id="Caminho_855" data-name="Caminho 855" d="M41.17,194s4.35,1,3.09,1.5a22.68,22.68,0,0,1-3.33.88S39.51,196.43,41.17,194Z" style="opacity: 0.049999997019768;isolation: isolate"/>
          <g id="Grupo_191" data-name="Grupo 191" style="opacity: 0.049999997019768">
            <path id="Caminho_856" data-name="Caminho 856" d="M45.11,196.45a.86.86,0,0,0,.42-.62l0,.08s.38,1-.35,1.45l-.24.14c-.13,0-.27-.05-.4-.09C44,197.23,44.38,196.87,45.11,196.45Z"/>
            <path id="Caminho_857" data-name="Caminho 857" d="M39.46,195.94c-.11-.12-.09-.41,0-.77a2.05,2.05,0,0,1,.21,1.09.75.75,0,0,0-.21-.32Z"/>
            <path id="Caminho_858" data-name="Caminho 858" d="M40.85,177.46a4.71,4.71,0,0,1,.24,1.38,5.5,5.5,0,0,0-.3-1S40.82,177.73,40.85,177.46Z"/>
            <path id="Caminho_859" data-name="Caminho 859" d="M30.88,175.13a1.88,1.88,0,0,1,0-.41c0,.28.07.54.09.77C30.93,175.37,30.91,175.25,30.88,175.13Z"/>
            <path id="Caminho_860" data-name="Caminho 860" d="M40.45,190.69a2.58,2.58,0,0,1-.08-.83,2.66,2.66,0,0,1,.17,1,.85.85,0,0,0-.09-.22Z"/>
            <path id="Caminho_861" data-name="Caminho 861" d="M39.26,197.66a14.78,14.78,0,0,1,.42,2.3l4.48.7a9.59,9.59,0,0,0,1.08-1.86c.06-.12.1-.23.14-.33.26.14.36.43,0,1.23a9.52,9.52,0,0,1-1.08,1.85l-4.48-.69s-.24-2.35-.68-2.81C38.91,197.82,39.06,197.71,39.26,197.66Z"/>
            <path id="Caminho_862" data-name="Caminho 862" d="M45.46,191.21s-.14,2.57-.52,2.7h0c-.17-.43-.28-.84-.11-.9.38-.13.51-2.7.51-2.7a16.17,16.17,0,0,0,.71-3.84,7.56,7.56,0,0,1,.7-2.77l.35-2.33a6.43,6.43,0,0,0,1-4.39l.14-3.61s1.31-7,1.59-10.47c.19-2.26.28-5.35.32-7.28,0-.35,0-.65,0-.92l.13,0s0,.73,0,1.8c0,1.93-.13,5-.31,7.27-.29,3.53-1.59,10.48-1.59,10.48l-.15,3.61a6.48,6.48,0,0,1-1,4.39l-.35,2.33a7.51,7.51,0,0,0-.71,2.77A16.26,16.26,0,0,1,45.46,191.21Z"/>
            <path id="Caminho_863" data-name="Caminho 863" d="M31.89,199.18a4.16,4.16,0,0,0,.78-1.74c.45.44-.14,2-.66,2.64s-4.43.91-5.13-.35l0-.7C27.88,200.06,31.38,199.8,31.89,199.18Z"/>
            <path id="Caminho_864" data-name="Caminho 864" d="M26.4,194.76a6.65,6.65,0,0,1,.49,1.13l0,.52c-.11-.26-.22-.51-.35-.76a2.21,2.21,0,0,1-.12-.92Z"/>
            <path id="Caminho_865" data-name="Caminho 865" d="M31.81,195.56a6.9,6.9,0,0,1-.33-.9s.62.17,1.67-1a5.27,5.27,0,0,0,.81-3.54c.16.64.36,3.29-.69,4.44A2.67,2.67,0,0,1,31.81,195.56Z"/>
            <path id="Caminho_866" data-name="Caminho 866" d="M34.06,187.39c-.09.73-.14,1.46-.16,2.2a2.14,2.14,0,0,0-.06-.35,13.25,13.25,0,0,1,.11-2.75,5.61,5.61,0,0,1,.33-2,24,24,0,0,0,1.06-3.2,2.13,2.13,0,0,1,.58-1.39,6.55,6.55,0,0,0,.94-2.35,2.4,2.4,0,0,0,.43-1.58A3.29,3.29,0,0,1,38,174.1l1.42-4,1.3-3,.61,1.77v.57l-.49-1.45-1.3,3-1.42,4a3.23,3.23,0,0,0-.71,1.91,2.4,2.4,0,0,1-.43,1.58,6.43,6.43,0,0,1-.95,2.35,2.17,2.17,0,0,0-.57,1.39,25.47,25.47,0,0,1-1.05,3.2A5.56,5.56,0,0,0,34.06,187.39Z"/>
          </g>
          <path id="Caminho_867" data-name="Caminho 867" d="M33.57,118.86l.23,1.37,0,.6,0,.45,1.54.22.19-.32h0a14,14,0,0,1,1.28-1.9c.29-.23.95-4,.33-3.78a1.66,1.66,0,0,0-.9.75S33.11,116.48,33.57,118.86Z" style="fill: #efc9cf"/>
          <path id="Caminho_868" data-name="Caminho 868" d="M33.73,121.28l1.54.22.19-.31h0a1.36,1.36,0,0,0-1.69-.35Z" style="opacity: 0.099999994039536;isolation: isolate"/>
          <path id="Caminho_869" data-name="Caminho 869" d="M33.31,122l2,.56,0-.31.15-.81a1.41,1.41,0,0,0-2-.36h0l-.12.41Z" style="fill: #dbe2ee"/>
          <path id="Caminho_870" data-name="Caminho 870" d="M66.56,120.29l2.14,1.26.21-.41c.23-.43.56-1.07.66-1.3s1.07-.78,1.07-.78C73,117,70.36,115,70.36,115c-1.33-3-3.09.87-3.09.87a10,10,0,0,0-.15,2.18c.15.13.13.7.13.7a8.66,8.66,0,0,0-.58,1.23C66.6,120.16,66.56,120.29,66.56,120.29Z" style="fill: #efc9cf"/>
          <path id="Caminho_871" data-name="Caminho 871" d="M66.56,120.29l2.14,1.26.21-.41c-.3-.27-1.35-1.21-1.71-1.17a2.26,2.26,0,0,1-.52,0C66.6,120.16,66.56,120.29,66.56,120.29Z" style="opacity: 0.099999994039536;isolation: isolate"/>
          <path id="Caminho_872" data-name="Caminho 872" d="M66.31,120.94l2.42,1.3.07-.53,0-.36s-1.38-1.27-1.8-1.24a2.29,2.29,0,0,1-.64,0l0,.44Z" style="fill: #dbe2ee"/>
          <path id="Caminho_873" data-name="Caminho 873" d="M39.17,128.11s10.66,1.62,8.68.89a2.69,2.69,0,0,1-2-2.4,5.63,5.63,0,0,1,.48-2.46,11.64,11.64,0,0,1,1-1.9s-8-4.81-6.52-.66a6.57,6.57,0,0,1,.39,2,5.59,5.59,0,0,1-.29,1.95A5.89,5.89,0,0,1,39.17,128.11Z" style="fill: #efc9cf"/>
          <path id="Caminho_874" data-name="Caminho 874" d="M40.88,121.59a6.5,6.5,0,0,1,.39,2,3.73,3.73,0,0,0,2.67.71,4.76,4.76,0,0,0,2.42-.11,11.15,11.15,0,0,1,1-1.89S39.4,117.43,40.88,121.59Z" style="opacity: 0.099999994039536;isolation: isolate"/>
          <circle id="Elipse_330" data-name="Elipse 330" cx="44.25" cy="120.11" r="4.43" style="fill: #efc9cf"/>
          <path id="Caminho_875" data-name="Caminho 875" d="M39.17,128.11s10.66,1.62,8.68.89a2.69,2.69,0,0,1-2-2.4,5.78,5.78,0,0,0-2.25-1.3,3.18,3.18,0,0,0-1.93-.11,3,3,0,0,0-.72.3A5.91,5.91,0,0,1,39.17,128.11Z" style="opacity: 0.099999994039536;isolation: isolate"/>
          <path id="Caminho_876" data-name="Caminho 876" d="M33.31,122l2,.56,0-.31a1.81,1.81,0,0,0-1.93-.75Z" style="opacity: 0.099999994039536;isolation: isolate"/>
          <path id="Caminho_877" data-name="Caminho 877" d="M66.31,120.94l2.42,1.3.07-.53a20.29,20.29,0,0,0-2.44-1.18Z" style="opacity: 0.099999994039536;isolation: isolate"/>
          <path id="Caminho_878" data-name="Caminho 878" d="M33.9,154.91c4.11.81,10,1.89,10.93,1.64a28.48,28.48,0,0,1,5.42.07c0-1.08,0-1.79,0-1.79l-16-2.3A13.74,13.74,0,0,1,33.9,154.91Z" style="opacity: 0.099999994039536;isolation: isolate"/>
          <path id="Caminho_879" data-name="Caminho 879" d="M29.81,153.78s13.55,2.86,15,2.47,9,.39,9,.39c3.29,2.39,2-1,2-1a8.45,8.45,0,0,0,0-3.17,18.87,18.87,0,0,1-.44-3.18s.16-2.23-.23-2.76-.72-4.28-.72-4.28-.28-2.54-.22-3.09,0-2.13,0-2.13l-.38-2.62c2.8-.26,11.48-5.14,11.48-5.14.48-1.73,3.79-5.7,3.79-5.7a4.28,4.28,0,0,1,.3-1c.24-.58-3-1.9-3-1.9s-2.62,3-3.15,3.75a17,17,0,0,1-2.4,2.25,1.75,1.75,0,0,0-.82.08h0a6.51,6.51,0,0,0-1.69.89,3.22,3.22,0,0,0-2.3.77s-1.52-.28-1.79,0-1.56-.06-1.56-.06-1.21-2.8-2.08-2-4.51.59-4.51.59a5.42,5.42,0,0,0-2.35-1.43,3.26,3.26,0,0,0-1.93-.11,2.49,2.49,0,0,0-.78.35l-2.28,2.06s-.61-.84-.52-1-.73-.36-.73-.36l-1.47-.51c-.41-.12-.8.3-.83.34a4.48,4.48,0,0,0,.24-1.63,1.88,1.88,0,0,1,.49-1.32c-1.17-3.25-4.21-.68-4.21-.68a5.94,5.94,0,0,0-.13,2.41c.27.69-.38,2.07-.32,2.45s-.19,1-.21,1.7a10.4,10.4,0,0,0,.48,2.66c.19.6,1.94,2,1.94,2a8.48,8.48,0,0,0,.76,3.39c.73,1.26.09,5.44.09,5.44s-.87,3.24-1.84,4.25S29.81,153.78,29.81,153.78Z" style="fill: #37517c"/>
          <path id="Caminho_880" data-name="Caminho 880" d="M50.64,130.08s.46-1.21.83-1.31a8.7,8.7,0,0,0,1.1-.44l-.22-.47s-1.42.33-1.65.73A3.22,3.22,0,0,0,50.64,130.08Z" style="opacity: 0.099999994039536;isolation: isolate"/>
          <path id="Caminho_881" data-name="Caminho 881" d="M58.22,127.65c.06.38,3.35.84,3.35.84L60,126.75h0A6.45,6.45,0,0,0,58.22,127.65Z" style="opacity: 0.099999994039536;isolation: isolate"/>
          <circle id="Elipse_331" data-name="Elipse 331" cx="67.99" cy="122.92" r="0.3" style="fill: #585982"/>
          <circle id="Elipse_332" data-name="Elipse 332" cx="67.58" cy="123.5" r="0.3" style="fill: #585982"/>
          <circle id="Elipse_333" data-name="Elipse 333" cx="67.19" cy="124.03" r="0.3" style="fill: #585982"/>
          <circle id="Elipse_334" data-name="Elipse 334" cx="66.78" cy="124.61" r="0.3" style="fill: #585982"/>
          <circle id="Elipse_335" data-name="Elipse 335" cx="31.73" cy="123.23" r="0.24" style="fill: #585982"/>
          <circle id="Elipse_336" data-name="Elipse 336" cx="31.67" cy="123.78" r="0.24" style="fill: #585982"/>
          <circle id="Elipse_337" data-name="Elipse 337" cx="31.62" cy="124.32" r="0.24" style="fill: #585982"/>
          <path id="Caminho_882" data-name="Caminho 882" d="M50.23,140.15s-8.75,10.22-15,3.86C35.21,144,45.44,145.8,50.23,140.15Z" style="opacity: 0.099999994039536;isolation: isolate"/>
          <path id="Caminho_883" data-name="Caminho 883" d="M54.84,145.84s-5-.05-5.61,1.37l0,1.5a1,1,0,0,0,.93,0c.52-.25,3.61-1.67,4.65-.89Z" style="opacity: 0.099999994039536;isolation: isolate"/>
          <path id="Caminho_885" data-name="Caminho 885" d="M52.52,134.85a16.8,16.8,0,0,1-2.07,3.26,13.32,13.32,0,0,1-3.17,2.82S52.41,135.52,52.52,134.85Z" style="opacity: 0.099999994039536;isolation: isolate"/>
          <path id="Caminho_886" data-name="Caminho 886" d="M54.38,129.08s-1,3.58-3.18,4.73Z" style="opacity: 0.099999994039536;isolation: isolate"/>
          <path id="Caminho_887" data-name="Caminho 887" d="M55.65,129.49c0-.06.63,2.89-2.95,4.37C52.7,133.86,54.22,133.41,55.65,129.49Z" style="opacity: 0.099999994039536;isolation: isolate"/>
          <path id="Caminho_888" data-name="Caminho 888" d="M33.85,126.23a24.54,24.54,0,0,0-2.29,1.59S32.79,126.11,33.85,126.23Z" style="opacity: 0.099999994039536;isolation: isolate"/>
          <path id="Caminho_889" data-name="Caminho 889" d="M45.29,124.17a.69.69,0,0,1-.79.66,8.76,8.76,0,0,1-4-.53,1.59,1.59,0,0,1-.6-.42,2.54,2.54,0,0,1-.31-1,13.51,13.51,0,0,0-.75-1.91,6.29,6.29,0,0,1-.3-3.38,2.25,2.25,0,0,1,.37-1c.38-.49,1-.68,1.53-1.07s.81-1,1.38-1.28a2.58,2.58,0,0,1,1.67-.08,8.77,8.77,0,0,1,3.07,1.29,1.55,1.55,0,0,0,1,.39,1.43,1.43,0,0,0,.79-.55,4,4,0,0,1,.25,1.93,1.41,1.41,0,0,0,0,.29,1.07,1.07,0,0,0,.2.32,1.13,1.13,0,0,1,.16,1.39c-.15.16-.38.24-.52.42s-.2.75-.21,1.15a.6.6,0,0,1-.11.39.58.58,0,0,1-.55.11,1.43,1.43,0,0,0-.58-.08,1,1,0,0,0-.52.37A6.83,6.83,0,0,0,45.29,124.17Z" style="fill: #302d3f"/>
          <g id="Grupo_192" data-name="Grupo 192" style="opacity: 0.099999994039536">
            <path id="Caminho_890" data-name="Caminho 890" d="M39.79,123.53a1.58,1.58,0,0,0,.59.43,9.06,9.06,0,0,0,4,.53,1.06,1.06,0,0,0,.43-.08.92.92,0,0,0,.36-.58,7,7,0,0,1,1.23-2.58,1,1,0,0,1,.52-.37,1.63,1.63,0,0,1,.58.08.58.58,0,0,0,.55-.11.6.6,0,0,0,.11-.39,1.72,1.72,0,0,1,.21-1.15c.14-.16.36-.24.52-.41A.89.89,0,0,0,49,118a1,1,0,0,1,0,1.19c-.15.16-.37.24-.52.42s-.19.75-.2,1.15a.47.47,0,0,1-.67.5,1.39,1.39,0,0,0-.57-.08,1,1,0,0,0-.53.37,6.85,6.85,0,0,0-1.22,2.57.7.7,0,0,1-.73.67H44.5a8.82,8.82,0,0,1-4-.53,1.46,1.46,0,0,1-.59-.42,1.27,1.27,0,0,1-.18-.37Z"/>
            <path id="Caminho_891" data-name="Caminho 891" d="M48.64,117.41a.55.55,0,0,1-.12-.24.71.71,0,0,1,0-.29,4.17,4.17,0,0,0-.15-1.61l0,0a4,4,0,0,1,.25,1.93,1.85,1.85,0,0,0,0,.23Z"/>
          </g>
        </g>
        <g id="undraw_wallet_aym5" data-name="undraw wallet aym5">
          <rect id="Retângulo_1224" data-name="Retângulo 1224" x="154.92" y="68.7" width="93.01" height="0.68" style="fill: #5f8ddf"/>
          <path id="Caminho_1189" data-name="Caminho 1189" d="M228.61,56.7c0,.52-3.05,2-6.67,2s-6.44-1.52-6.44-2,2.93-.36,6.56-.36S228.61,56.17,228.61,56.7Z" style="fill: #18212e"/>
          <path id="Caminho_1191" data-name="Caminho 1191" d="M192.15,47.1a4,4,0,0,0,1.76-.06c.09,0,.19-.09.18-.17a.19.19,0,0,0,0-.09,5.48,5.48,0,0,1-.53-1l0,0h0c-.26.06-.49.23-.74.31a1.42,1.42,0,0,1-.41,0c-.12,0-.27-.11-.38-.1C192,46.35,192.11,46.7,192.15,47.1Z" style="fill: #6963f8"/>
          <path id="Caminho_1192" data-name="Caminho 1192" d="M203.26,46.12a3,3,0,0,0,1-.95.16.16,0,0,0,0-.09.3.3,0,0,0,0-.08,3.3,3.3,0,0,0-.82-.89,2.35,2.35,0,0,0-.46.43c-.1.1-.37.26-.37.42s.1.19.15.27l.18.29A2.85,2.85,0,0,1,203.26,46.12Z" style="fill: #6963f8"/>
          <path id="Caminho_1193" data-name="Caminho 1193" d="M194.46,48.29a.42.42,0,0,1-.08.26.29.29,0,0,1-.14.08c-.83.3-1.78-.07-2.6.22-.16.06-.32.15-.49.2a2.69,2.69,0,0,1-.62.11c-.29,0-.58.05-.88.06a2.35,2.35,0,0,1-.65-.06.82.82,0,0,1-.51-.4.41.41,0,0,1,0-.29.22.22,0,0,1,.05-.08.62.62,0,0,1,.2-.16l.3-.2a2,2,0,0,1,.46-.24c.12,0,.24-.06.37-.09a2.52,2.52,0,0,0,1.05-.78l.41-.44a.41.41,0,0,1,.14-.12.37.37,0,0,1,.18,0,2.26,2.26,0,0,1,1.12.37,1.07,1.07,0,0,0,.27.16,1,1,0,0,0,.78-.09c.1-.06.08-.09.12-.19s.16-.17.25-.07a.24.24,0,0,1,.06.11,3.1,3.1,0,0,1,.05.91.59.59,0,0,0,0,.14,1,1,0,0,0,.08.14l0,0a1,1,0,0,1,.06.43Z" style="fill: #514f7c"/>
          <path id="Caminho_1194" data-name="Caminho 1194" d="M194.46,48.29a.42.42,0,0,1-.08.26.29.29,0,0,1-.14.08c-.83.3-1.78-.07-2.6.22-.16.06-.32.15-.49.2a2.69,2.69,0,0,1-.62.11c-.29,0-.58.05-.88.06a2.35,2.35,0,0,1-.65-.06.82.82,0,0,1-.51-.4.41.41,0,0,1,0-.29.22.22,0,0,1,.05-.08c0,.1.08.23.11.28a.6.6,0,0,0,.39.27.82.82,0,0,0,.35,0,17.29,17.29,0,0,0,2.25-.47,6.61,6.61,0,0,1,.74-.28,7.2,7.2,0,0,1,.8-.07c.42,0,.83-.16,1.24-.22a1,1,0,0,1,.06.43Z" style="fill: #474553"/>
          <path id="Caminho_1195" data-name="Caminho 1195" d="M205.14,46.07a1.46,1.46,0,0,1-.45.8,6,6,0,0,0-.63.7,5.59,5.59,0,0,1-.59,1,2.11,2.11,0,0,1-.35.26,3.82,3.82,0,0,1-.46.21,3.73,3.73,0,0,1-1.29.07A1.42,1.42,0,0,1,201,49l-.17-.11a1,1,0,0,1-.27-.26.27.27,0,0,1,0-.2.39.39,0,0,1,.12-.19l.31-.28a2.3,2.3,0,0,0,.41-.35,1.46,1.46,0,0,0,.16-.36,3.11,3.11,0,0,0,.11-.68,1.73,1.73,0,0,1,0-.45c.06-.23.24-.44.22-.68a.14.14,0,0,1,0-.11.16.16,0,0,1,.08,0,1.51,1.51,0,0,1,.42-.1.48.48,0,0,1,.39.16c.06.07.1.17.19.2a.33.33,0,0,0,.14,0,1.16,1.16,0,0,0,.62-.19.77.77,0,0,0,.25-.57c0-.08,0-.16.09-.18s.17.09.22.16a2,2,0,0,1,.41.75l.08,0a.38.38,0,0,1,.29.15.56.56,0,0,1,.07.38Z" style="fill: #514f7c"/>
          <path id="Caminho_1196" data-name="Caminho 1196" d="M205.14,46.07a1.46,1.46,0,0,1-.45.8,6,6,0,0,0-.63.7,5.59,5.59,0,0,1-.59,1,2.11,2.11,0,0,1-.35.26,3.82,3.82,0,0,1-.46.21,3.73,3.73,0,0,1-1.29.07A1.42,1.42,0,0,1,201,49l-.17-.11a1,1,0,0,1-.27-.26.54.54,0,0,1,.27-.07c.19,0,.33.19.51.25s.53-.11.79-.17a4.71,4.71,0,0,0,.52-.09,1.28,1.28,0,0,0,.39-.24,1.77,1.77,0,0,0,.42-.4,2.16,2.16,0,0,0,.24-.48,6.61,6.61,0,0,1,.5-1,.57.57,0,0,1,.1-.13.6.6,0,0,1,.13-.09,1.1,1.1,0,0,0,.31-.58,1.46,1.46,0,0,1,.07-.19.36.36,0,0,1,.29.15A.52.52,0,0,1,205.14,46.07Z" style="fill: #474553"/>
          <path id="Caminho_1197" data-name="Caminho 1197" d="M186.56,18.44a1.86,1.86,0,0,1,.53.62,12.08,12.08,0,0,1,.8,2.4c.23-.23,1.15-.27,1.39-.51s.63-.59.71-.7.67-.36.73-.48c.25-.43-1.71-2.07-1.46-2.5a.14.14,0,0,0,0-.06.33.33,0,0,0,0-.06,3,3,0,0,0-.57-.38.92.92,0,0,1-.43-.52,2.1,2.1,0,0,0-.5.34l-1.06.94c-.13.13-.4.3-.46.48S186.43,18.33,186.56,18.44Z" style="fill: #8e6169"/>
          <path id="Caminho_1198" data-name="Caminho 1198" d="M189.73,17.74a5.5,5.5,0,0,0-.84.69,1.69,1.69,0,0,0-.53.85c0,.13,0,.27,0,.4-.09.58-.59,1-.81,1.55a2.35,2.35,0,0,0-.14.52,4.9,4.9,0,0,0-.1,1c0,.33.31.55.43.86a5.1,5.1,0,0,1,.21.94,10.73,10.73,0,0,0,.54,1.75c.43,1.21,1.85,4.54,2.28,5.75,1.34-.33,4.91-1.11,6.09-1.81.39-.24-2.74-2.9-2.32-3.08a.16.16,0,0,0,.13-.18s0,0,0,0c-.42-1.85-1.74-3.37-2.34-5.17a15.83,15.83,0,0,0-.87-1.75c-.26-.54-.39-1.14-.7-1.65a1.23,1.23,0,0,0-.23-.28,1.2,1.2,0,0,0-.24-.15C190.06,17.88,189.9,17.83,189.73,17.74Z" style="fill: #2f4468"/>
          <circle id="Elipse_386" data-name="Elipse 386" cx="186.63" cy="16.13" r="2.1" style="fill: #8e6169"/>
          <path id="Caminho_1199" data-name="Caminho 1199" d="M188.77,17.12a.7.7,0,0,1,.78-.12.4.4,0,0,1,.24.38l1,0a2,2,0,0,1,.49,0,.75.75,0,0,1,.41.26.07.07,0,0,0,.05,0h.05a.83.83,0,0,1,.51-.09,2.73,2.73,0,0,1,1.53.67.41.41,0,0,1,.17.22c0,.11,0,.26.09.35a12.45,12.45,0,0,0,.56,2.83,1.29,1.29,0,0,0,.31.45,1.85,1.85,0,0,1,.34.5c.19.5-.07,1.08.11,1.57a3.41,3.41,0,0,0,.36.57,1.48,1.48,0,0,1,.3.72c0,.12,0,.24,0,.36a2,2,0,0,0,.09.47c.07.28.15.57.24.85a2,2,0,0,0,.72,1.21,6,6,0,0,1-3,0,1.62,1.62,0,0,1-.37-.19,2.15,2.15,0,0,1-.66-1.06,4.88,4.88,0,0,1-.36-1.36,1.76,1.76,0,0,0-.07-.45,1.21,1.21,0,0,0-.59-.55,3.14,3.14,0,0,1-.71-.55,1.15,1.15,0,0,1-.28-.83c0-.15.07-.29.08-.43a.34.34,0,0,0-.2-.36c-.73-.22-1.07-1.08-1.24-1.82a6.41,6.41,0,0,1-.09-1.16v-.75a1,1,0,0,1-.32-.72,1.93,1.93,0,0,0,0-.24.53.53,0,0,0-.17-.25A2.35,2.35,0,0,1,188.77,17.12Z" style="fill: #1f2c40"/>
          <path id="Caminho_1200" data-name="Caminho 1200" d="M186.53,19.51a5.61,5.61,0,0,1,0,.71c0,.09-.06.17-.08.26a1.44,1.44,0,0,0,.1,1,5.11,5.11,0,0,0,.5.88,1.08,1.08,0,0,1,.16.3,1.35,1.35,0,0,1,.06.34,11.1,11.1,0,0,0,.25,1.4,35.22,35.22,0,0,0,1.49,4.1.35.35,0,0,0,.2.14.33.33,0,0,0,.17,0l.53-.2a.33.33,0,0,0,.13-.07.29.29,0,0,0,.07-.2,34.6,34.6,0,0,0-1.23-4.26,32.46,32.46,0,0,1-1.3-3.7,2.65,2.65,0,0,0-.38-1.19c-.11-.11-.07-.06-.2,0l-.18.1A.6.6,0,0,0,186.53,19.51Z" style="fill: #1f2c40"/>
          <path id="Caminho_1202" data-name="Caminho 1202" d="M188.15,21.85c.14.76.29,1.51.43,2.26l2.08-.54a1.47,1.47,0,0,0-.17-.62c-.19-.48-.2-1-.35-1.5s-.32-.71-.43-1.08-.09-.45-.15-.67a4.86,4.86,0,0,0-.25-.63,4.23,4.23,0,0,0-.45-.84,1.31,1.31,0,0,0-.7.45.9.9,0,0,0-.13.45c0,.46.13.93.07,1.4A4.17,4.17,0,0,0,188.15,21.85Z" style="fill: #5f8ddf"/>
          <path id="Caminho_1203" data-name="Caminho 1203" d="M190.7,31.89a2.47,2.47,0,0,1-.19,1.34,10,10,0,0,0-.42,2,1.72,1.72,0,0,1-.11.51c-.06.15-.18.28-.25.42a2,2,0,0,0-.16,1.24,7.55,7.55,0,0,0,.13.83,2.07,2.07,0,0,1,.05,1c.17,0,.28.18.27.34a.94.94,0,0,0,0,.5c.21.08.21.36.2.57a4.72,4.72,0,0,0,.15,1.12c.3,1.48.63,3,1,4.44a3.46,3.46,0,0,0,2.33.15.5.5,0,0,0,.3-.3.45.45,0,0,0,0-.23l-.34-1.23a2.33,2.33,0,0,1-.12-.91c0-.23.13-.47,0-.68s-.1-.12-.14-.18a1.46,1.46,0,0,1-.07-.93.75.75,0,0,0,0-.21.67.67,0,0,0-.1-.23,3.57,3.57,0,0,1-.39-1.76.45.45,0,0,0,0-.23l-.06-.09a.32.32,0,0,1,0-.17,1.72,1.72,0,0,1-.27-.27.37.37,0,0,0,.12-.52.2.2,0,0,0-.06-.07.21.21,0,0,0,.16-.24.24.24,0,0,0-.06-.11s-.1,0-.13-.09,0-.15,0-.22l.2-.38c.16-.27.19-.62.36-.88a6.56,6.56,0,0,0,.54-1.25l.6-1.64.4.34a1.33,1.33,0,0,1,.33.38,1.74,1.74,0,0,1,.11.45c.14.89.7,1.67.91,2.55a1.67,1.67,0,0,0,.19.57.91.91,0,0,1,.11.16.84.84,0,0,1,0,.27,1.25,1.25,0,0,0,.53.9c.2.14.45.23.55.45l.09.19c.1.11.31.13.35.27s0,.18,0,.25a.23.23,0,0,0,.1.07l.58.29c.64.32,1,1.06,1.45,1.6a3.48,3.48,0,0,1,.43.58c.21.37.3.83.65,1.06a.92.92,0,0,1,.25.19c.11.14.07.34.08.52s.15.4.32.34a1.27,1.27,0,0,0,0,.67,3.37,3.37,0,0,0,2-.83.79.79,0,0,0,.34-.55.2.2,0,0,0,0-.11.26.26,0,0,0-.13-.1c-.54-.29-.7-1-1-1.52a13.83,13.83,0,0,0-.89-1.36c-.64-1-1.08-2.14-2-2.78a1.45,1.45,0,0,1-.57-.5,2.88,2.88,0,0,1-.11-.42.37.37,0,0,0-.31-.26,1.75,1.75,0,0,0,.07-.64.65.65,0,0,0,0-.28,1.47,1.47,0,0,0-.14-.28,2.61,2.61,0,0,1-.37-1.41,2.21,2.21,0,0,0,0-.77,3.73,3.73,0,0,0-.16-.35,2.54,2.54,0,0,1-.11-.67l-.05-.85a4,4,0,0,0-.11-.84c-.18-.66-.35-3.43-1-3.74s-1.65,1.82-2.33,1.86a2.93,2.93,0,0,0-.89.17,4.25,4.25,0,0,0-1.21.8l-1.25,1.05A5.42,5.42,0,0,1,190.7,31.89Z" style="fill: #474553"/>
          <path id="Caminho_1204" data-name="Caminho 1204" d="M184.67,13.81a1.59,1.59,0,0,1,1.22-.6,2.84,2.84,0,0,1,1.34.34,1.52,1.52,0,0,0,.4.16c.22,0,.46,0,.66.09a.8.8,0,0,1,.3.8,1.4,1.4,0,0,0,.08.88c.05.08.11.16.15.24a.75.75,0,0,1,0,.49,2,2,0,0,1-.25-.33.31.31,0,0,0-.37-.09c-.12.07-.11.21-.12.34s0,.28-.16.32a.25.25,0,0,1-.26-.11c-.21-.24-.12-.64-.33-.89s-.3-.21-.41-.36-.1-.27-.17-.39-.24-.22-.36-.13a.34.34,0,0,0-.09.12.55.55,0,0,1-.65.2,1.39,1.39,0,0,0-.28-.12A.34.34,0,0,0,185,15a.78.78,0,0,0-.09.37.78.78,0,0,1-.07.5.47.47,0,0,1-.14.14.46.46,0,0,1-.49.05.37.37,0,0,1-.11-.34,2.26,2.26,0,0,1,.11-.37c.07-.27,0-.58.06-.84A2.76,2.76,0,0,1,184.67,13.81Z" style="fill: #474553"/>
          <path id="Caminho_1205" data-name="Caminho 1205" d="M185.79,20.06a.31.31,0,0,0,0,.19.32.32,0,0,0,.1.1,2.07,2.07,0,0,0,1,.32.23.23,0,0,1,.14,0,.25.25,0,0,1,.06.27.59.59,0,0,0-.07.29c0,.19.25.27.43.3a1,1,0,0,0,.75-.15,1.17,1.17,0,0,0,.31-.46c.51-1.17.69-2.47,1.2-3.63a.75.75,0,0,0,.08-.24.25.25,0,0,0-.1-.23c-.09-.06-.24,0-.31-.12s0-.11,0-.16-.22-.08-.33-.15-.14-.13-.23-.15a.29.29,0,0,0-.24.11,3,3,0,0,0-.63,1.05,12.76,12.76,0,0,1-.9,1.67,1,1,0,0,0-.28-.55c-.16,0-.36.25-.45.35A2.24,2.24,0,0,0,185.79,20.06Z" style="fill: #5f8ddf"/>
          <path id="Caminho_1206" data-name="Caminho 1206" d="M189,16.52a.42.42,0,0,0-.33.16.9.9,0,0,0-.13.45,4,4,0,0,1-.53,1.4" style="opacity: 0.099999994039536;isolation: isolate"/>
          <path id="Caminho_1207" data-name="Caminho 1207" d="M189.46,16.87a.51.51,0,0,0-.43.26,1.67,1.67,0,0,0-.11.44,2.29,2.29,0,0,1-.43.92" style="opacity: 0.099999994039536;isolation: isolate"/>
          <path id="Caminho_1208" data-name="Caminho 1208" d="M210.52,34.2V33.1A3.06,3.06,0,0,0,207.46,30H164a3.06,3.06,0,0,0-3.06,3.05v2Z" style="fill: #18212e"/>
          <path id="Caminho_1209" data-name="Caminho 1209" d="M176.09,28.75S176,36.45,177.34,39s1.95,13.55,1.95,13.55,14.3,1.48,24.27-1.77,31.18-4.58,31.18-4.58l-3.58-24.1S213.5,21,203.46,25.74,176.09,28.75,176.09,28.75Z" style="fill: #9fcc75"/>
          <path id="Caminho_1210" data-name="Caminho 1210" d="M176.09,28.75S176,36.45,177.34,39s1.95,13.55,1.95,13.55,14.3,1.48,24.27-1.77,31.18-4.58,31.18-4.58l-3.58-24.1S213.5,21,203.46,25.74,176.09,28.75,176.09,28.75Z" style="opacity: 0.099999994039536;isolation: isolate"/>
          <path id="Caminho_1211" data-name="Caminho 1211" d="M179.26,31.56s-.45,6.35.67,8.38S181.11,51,181.11,51s12.88.6,22-2.52,28.41-5.14,28.41-5.14l-2.19-19.7s-15.92-.17-25.22,4.22S179.26,31.56,179.26,31.56Z" style="fill: #9fcc75"/>
          <ellipse id="Elipse_387" data-name="Elipse 387" cx="203.11" cy="37.79" rx="3.34" ry="7.17" transform="translate(-3.11 25.39) rotate(-7.1)" style="opacity: 0.099999994039536;isolation: isolate"/>
          <path id="Caminho_1212" data-name="Caminho 1212" d="M221.48,10.35s-17.15,4.34-25.24,12S171.11,33.6,171.11,33.6,173.36,41,175.43,43s6,12.3,6,12.3,14.07-3,22.55-9.14,28.28-13.93,28.28-13.93Z" style="opacity: 0.199999988079071;isolation: isolate"/>
          <path id="Caminho_1213" data-name="Caminho 1213" d="M170.86,32.49s2.24,7.36,4.31,9.36,6,12.29,6,12.29,14.07-3,22.56-9.13S232,31.08,232,31.08L221.22,9.24s-17.15,4.35-25.24,12S170.86,32.49,170.86,32.49Z" style="fill: #9fcc75"/>
          <path id="Caminho_1214" data-name="Caminho 1214" d="M170.86,32.49s2.24,7.36,4.31,9.36,6,12.29,6,12.29,14.07-3,22.56-9.13S232,31.08,232,31.08L221.22,9.24s-17.15,4.35-25.24,12S170.86,32.49,170.86,32.49Z" style="opacity: 0.099999994039536;isolation: isolate"/>
          <path id="Caminho_1215" data-name="Caminho 1215" d="M174.73,34.2s1.52,6.18,3.21,7.76,4.52,10.19,4.52,10.19,12.44-3.38,20.2-9.16,25.46-13.6,25.46-13.6L220,11.31S204.78,16,197.29,23.06,174.73,34.2,174.73,34.2Z" style="fill: #9fcc75"/>
          <ellipse id="Elipse_388" data-name="Elipse 388" cx="199.35" cy="32.8" rx="3.34" ry="7.17" transform="translate(4.79 87.22) rotate(-24.97)" style="opacity: 0.099999994039536;isolation: isolate"/>
          <path id="Caminho_1216" data-name="Caminho 1216" d="M211.69,35.28V65.85a2.64,2.64,0,0,1-2.64,2.64H163.59A2.64,2.64,0,0,1,161,65.85V32.19a4.64,4.64,0,0,0,2.64.45h45.46A2.64,2.64,0,0,1,211.69,35.28Z" style="opacity: 0.099999994039536;isolation: isolate"/>
          <path id="Caminho_1217" data-name="Caminho 1217" d="M211.69,35.66V66.24a2.64,2.64,0,0,1-2.64,2.64H163.59A2.64,2.64,0,0,1,161,66.24V32.58a4.73,4.73,0,0,0,2.64.45h45.46A2.63,2.63,0,0,1,211.69,35.66Z" style="fill: #1f2c40"/>
          <path id="Caminho_1218" data-name="Caminho 1218" d="M211.57,47v9.77h-9.49a4.89,4.89,0,0,1,0-9.77h9.49Z" style="opacity: 0.099999994039536;isolation: isolate"/>
          <path id="Caminho_1219" data-name="Caminho 1219" d="M211.69,46.71v9.78h-9.48a4.89,4.89,0,0,1,0-9.78h9.48Z" style="fill: #273854"/>
          <circle id="Elipse_389" data-name="Elipse 389" cx="202.67" cy="51.86" r="1.91" style="opacity: 0.099999994039536;isolation: isolate"/>
          <circle id="Elipse_390" data-name="Elipse 390" cx="202.8" cy="51.6" r="1.91" style="fill: #5f8ddf"/>
          <path id="Caminho_1220" data-name="Caminho 1220" d="M228.15,46.62c.08.82-.54,1.61-.36,2.41,0,.17.11.33.14.5a1.92,1.92,0,0,1-.48,1.32l-2.32,3.41a1.86,1.86,0,0,1-.33.41,3.53,3.53,0,0,1-1.69.47,3,3,0,0,0-1.14.5.08.08,0,0,0,0,.1,1,1,0,0,0,.85.4c.06.08,0,.19-.09.25s-.3.11-.32.33a.32.32,0,0,0,0,.21.67.67,0,0,0,.4.28,2.44,2.44,0,0,0,2.28-.77c.6-.59,1-1.33,1.62-1.93.33-.33.7-.62,1-.94a12,12,0,0,0,1.7-2.19,2.6,2.6,0,0,0,.36-.75c.07-.27,0-.55.11-.81a3.12,3.12,0,0,1,.55-.91,3,3,0,0,0,.64-2A1.89,1.89,0,0,0,230,45.32a1.08,1.08,0,0,0-.64,0,1.54,1.54,0,0,0-.66.53l-.44.51a1.16,1.16,0,0,0-.26.39.42.42,0,0,0,.09.43" style="fill: #e8baba"/>
          <path id="Caminho_1221" data-name="Caminho 1221" d="M228.15,46.62c.08.82-.54,1.61-.36,2.41,0,.17.11.33.14.5a1.92,1.92,0,0,1-.48,1.32l-2.32,3.41a1.86,1.86,0,0,1-.33.41,3.53,3.53,0,0,1-1.69.47,3,3,0,0,0-1.14.5.08.08,0,0,0,0,.1,1,1,0,0,0,.85.4c.06.08,0,.19-.09.25s-.3.11-.32.33a.32.32,0,0,0,0,.21.67.67,0,0,0,.4.28,2.44,2.44,0,0,0,2.28-.77c.6-.59,1-1.33,1.62-1.93.33-.33.7-.62,1-.94a12,12,0,0,0,1.7-2.19,2.6,2.6,0,0,0,.36-.75c.07-.27,0-.55.11-.81a3.12,3.12,0,0,1,.55-.91,3,3,0,0,0,.64-2A1.89,1.89,0,0,0,230,45.32a1.08,1.08,0,0,0-.64,0,1.54,1.54,0,0,0-.66.53l-.44.51a1.16,1.16,0,0,0-.26.39.42.42,0,0,0,.09.43" style="opacity: 0.049999997019768;isolation: isolate"/>
          <path id="Caminho_1222" data-name="Caminho 1222" d="M229.91,67.63a2.66,2.66,0,0,1-1.73.26c-.09,0-.21,0-.26,0s0,.27.12.35a2.6,2.6,0,0,0,1.19.49,7.45,7.45,0,0,0,1.16.08,19.73,19.73,0,0,0,3.17-.12.41.41,0,0,0,.18,0,.39.39,0,0,0,.13-.2.77.77,0,0,0-.28-.75,2.13,2.13,0,0,0-.74-.4l-.92-.36a2.56,2.56,0,0,0-.8-.29C230.69,66.72,230.28,67.42,229.91,67.63Z" style="fill: #18212e"/>
          <path id="Caminho_1224" data-name="Caminho 1224" d="M230.56,55.4a2.43,2.43,0,0,0-.69,1.73,3.77,3.77,0,0,0,.38,1,6.24,6.24,0,0,1,.39,1.34c.14.67.29,1.34.37,2a34.38,34.38,0,0,1-.41,3.75.79.79,0,0,1-.16.52c-.05.06-.12.1-.14.17a.24.24,0,0,0,0,.2,2.11,2.11,0,0,0,1.15,1,9,9,0,0,0,2.22.59.39.39,0,0,0,.21,0,.4.4,0,0,0,.16-.18c.39-.74,0-3.36,0-4.2s.17-1.38.14-2.07-.18-1.1-.23-1.66a10,10,0,0,1,.25-2.72c.13-.69.26-1.38.42-2.06a3.88,3.88,0,0,1,.44-1.19,9.75,9.75,0,0,1,.64-.8,3.61,3.61,0,0,0,.7-2.64,7.31,7.31,0,0,0-1.44.39,4.52,4.52,0,0,0-1.29.83,11.06,11.06,0,0,0-.81,1c-.38.46-.75.93-1.12,1.39S231,54.86,230.56,55.4Z" style="fill: #24334d"/>
          <circle id="Elipse_391" data-name="Elipse 391" cx="226.29" cy="42.01" r="2.15" style="fill: #e8baba"/>
          <path id="Caminho_1226" data-name="Caminho 1226" d="M228.22,41.92A2.76,2.76,0,0,0,230,43.16l-.16.59a5.66,5.66,0,0,1-1.38,2.79,1.29,1.29,0,0,0-.22-1,3.29,3.29,0,0,0-.73-.76l-1.24-1.08a.39.39,0,0,1-.08-.1.26.26,0,0,1,0-.24,2.94,2.94,0,0,1,1-1.13,3.35,3.35,0,0,0,.49-.57C227.91,41.3,228.06,41.66,228.22,41.92Z" style="fill: #e8baba"/>
          <path id="Caminho_1227" data-name="Caminho 1227" d="M223.45,39.85l0-.41c.33.09.66-.2.87-.5s.42-.65.75-.77a1.53,1.53,0,0,1,1.21.29,3.79,3.79,0,0,0,1.39.45.59.59,0,0,1,.23,0,.81.81,0,0,1,.41.68,2.4,2.4,0,0,0,.15.84c.09.2.25.34.35.53.27.51,0,1.2.29,1.7l-.69-.63c-.07-.06-.15-.12-.22-.07s-.06.12-.09.19a.36.36,0,0,1-.47.18h0a1.53,1.53,0,0,1-.44-.4,2.61,2.61,0,0,0-1.09-.83,1.39,1.39,0,0,0-1.16.07c-.32.18-.55.61-.95.62s-.76-1-1-1.38a.48.48,0,0,0,.14-.61S223.45,39.78,223.45,39.85Z" style="fill: #474553"/>
          <path id="Caminho_1228" data-name="Caminho 1228" d="M196.85,27.27a5.67,5.67,0,0,0-.48.5,1,1,0,0,0-.21.65.33.33,0,0,0,.06.19.16.16,0,0,0,.17.05.18.18,0,0,0,.09-.08l.3-.32s.09-.08.14-.06,0,0,.06,0a.5.5,0,0,1,.13.19.49.49,0,0,1-.14.38,1,1,0,0,0-.23.34.11.11,0,0,0,0,.11.11.11,0,0,0,.07.06,1,1,0,0,0,.83.05c.18-.07.34-.19.52-.26a.92.92,0,0,0,.23-.09.44.44,0,0,0,.2-.3,1.15,1.15,0,0,0,0-.37,4.57,4.57,0,0,0-.31-1.41l-.05-.07a.1.1,0,0,0-.09,0,1.89,1.89,0,0,0-.82-.06.61.61,0,0,0-.19.17C197.11,27,196.85,27.21,196.85,27.27Z" style="fill: #8e6169"/>
          <path id="Caminho_1229" data-name="Caminho 1229" d="M196.78,27.07c0-.21-.27-.74.16-.77,0-.23-.33-.38-.27-.62,0-.08.09-.15.1-.23,0-.24-.4-.37-.33-.59s.12-.14.14-.23-.32-.3-.32-.51,0-.14,0-.21-.07-.15-.12-.23,0-.5-.26-.61c.13,0,.18-.18.12-.3s-.16-.23-.17-.37a.33.33,0,0,0,0-.14c0-.13-.24-.14-.28-.27a.66.66,0,0,1,0-.14.3.3,0,0,0-.22-.2.67.67,0,0,1-.28-.1c-.07,0-.13-.12-.2-.09s0,.05-.06.07-.23,0-.33,0a1.36,1.36,0,0,1-.51-.91c-.06-.35-.06-.72-.14-1.07a1.81,1.81,0,0,0-.09-.31,1.87,1.87,0,0,1-.15-.32c0-.21.4-.07.56,0a3.4,3.4,0,0,1,.46.09,4,4,0,0,1,.47.21,6.59,6.59,0,0,1,1.93.79,1.48,1.48,0,0,0,.53.43l.3.08c.24.11.28.44.41.67a1.28,1.28,0,0,1,.11.2.69.69,0,0,1,0,.25l0,.61a24.33,24.33,0,0,1-.05,3.08,2.45,2.45,0,0,0,0,1,2.67,2.67,0,0,0,.09.26,1.82,1.82,0,0,1,0,.32l0,.4a.29.29,0,0,1,0,.09.2.2,0,0,1-.11,0c-.56-.05-1.11-.37-1.64-.18" style="fill: #1f2c40"/>
          <ellipse id="Elipse_392" data-name="Elipse 392" cx="222.06" cy="56.7" rx="6.55" ry="0.95" style="fill: #1f2c40"/>
          <path id="Caminho_1230" data-name="Caminho 1230" d="M227.69,56.74c-.11-.49-.18-.93-.18-.93a1.94,1.94,0,0,0-.22-.94v-.13h0v-1a3.65,3.65,0,0,1,.25-.53,3.93,3.93,0,0,0,0-1.45,6.41,6.41,0,0,1-.5-2.63c.16-1-1.36-4.55-1.36-4.55a4.92,4.92,0,0,1,.14-1,.5.5,0,0,0,0-.21v0a7.68,7.68,0,0,0-.55-1.94l.07-2.41a7.17,7.17,0,0,0-.21-3.32c-.2-.67-.32-1.2-.4-1.61l0-.13,2-.32a14.38,14.38,0,0,0-1.11-3.26,6.63,6.63,0,0,1-.81-2,6.07,6.07,0,0,1,.15-2.53,3.87,3.87,0,0,0,.43-1.56s.86-.62,1-.9a4.79,4.79,0,0,0,.29-1.23,7.87,7.87,0,0,1-.07-.8c0-.18-.25-.83-.11-1.14a.8.8,0,0,0,.06-.3h0a4.47,4.47,0,0,0-.08-.82,2.51,2.51,0,0,0-.85-.46l0-.07-.05-.2-.08-.05v-.35l.14-.63c.26-1.1-1.21-1.27-1.21-1.27a.81.81,0,0,0-.41-.36c-.3-.1-.05,1.65.09,1.77a7.8,7.8,0,0,1,.58.91h0l0,0-.06.07,0,.39v.05a1.34,1.34,0,0,0-.23.4.88.88,0,0,1,.21.62,2,2,0,0,0,.09.77s-.21-.23-.39-.18l-.72.21s-.4.07-.36.16-.26.47-.26.47l-1.06-1,0-.09a1.64,1.64,0,0,1-.09-.44,2.24,2.24,0,0,0,.34-.11.79.79,0,0,0,.29-.18,1.12,1.12,0,0,0,.17-.46,6.92,6.92,0,0,1,.39-.88,2.73,2.73,0,0,0,.2-1.57.94.94,0,0,0-.16-.46c-.17-.24-.49-.33-.71-.52s-.38-.48-.64-.62a1.26,1.26,0,0,0-.81-.07,4.22,4.22,0,0,0-1.5.54.82.82,0,0,1-.5.17.66.66,0,0,1-.36-.27h0v0a2,2,0,0,0-.17.8.49.49,0,0,0,0,.12v.08h0a.13.13,0,0,1,0,.06.33.33,0,0,1-.1.14l-.09.12,0-.05a.6.6,0,0,0-.11.34.31.31,0,0,0,.08.24l.17.14a2,2,0,0,0,0,.35,2,2,0,0,0,1,1.75l0,.09a2.49,2.49,0,0,1,.19,1.15.22.22,0,0,1,0,.08s0,0,0,0h0s-1.75,0-2.15-.35-1,.91-1,.91-.63.12-.75,0-.86,0-.86,0a1.62,1.62,0,0,0-1.1-.4,3.4,3.4,0,0,0-.79-.44h0a1.07,1.07,0,0,0-.4-.05,8.16,8.16,0,0,1-1.11-1.09c-.25-.38-1.44-1.79-1.45-1.8v-.27h-.11a.19.19,0,0,0,0-.07,4.41,4.41,0,0,0-.26-.59s0-.26.08-.32a4.36,4.36,0,0,0,0-1s-.78-1.81-1.47-.46c0,0-1.31.88-.21,1.9,0,0,.44.21.5.38s.19.41.29.62l.05.09h0l0,.17v.06c-.21.12-.35.24-.32.32a2.06,2.06,0,0,1,.13.47,12.69,12.69,0,0,1,1.72,2.72s4.08,2.43,5.42,2.6l-.24,1.21c0,.33-.05.66-.05,1a14.16,14.16,0,0,1-.16,1.44,9.49,9.49,0,0,1-.43,2,3.32,3.32,0,0,0-.16,1.29,9.27,9.27,0,0,1-.27,1.47,3.83,3.83,0,0,0-.05,1.47s-.68,1.56.95.51l1.72-.09v.09c0,.12,0,.25,0,.39,0,.89,0,2.12,0,3,.07,1.65.57,4.9.57,4.9v1.64a2.5,2.5,0,0,0,0,.47,3,3,0,0,0,.44,1.64l.13,1.09a4.64,4.64,0,0,1,.3,1.15s0,.07,0,.11a.88.88,0,0,0,0,.16,10.64,10.64,0,0,0,.28,1.69s0,1.19.2,1.26-.2.69-.31.87c0,0,0,0,0,0l0,0a.81.81,0,0,0,0,.31.42.42,0,0,0,.19.42c.34.21.52.38.24.45a3,3,0,0,0-.32.06l0,0a.19.19,0,0,0-.11.21.91.91,0,0,0,.1.4,4.28,4.28,0,0,0,.49.89H219a.39.39,0,0,1-.08.14.49.49,0,0,1-.2.18.53.53,0,0,1-.24.08.72.72,0,0,0-.51.25.54.54,0,0,0,0,.75l.09.07,1.28.45s2.2.28,2.09-.21-.19-.93-.19-.93a1.93,1.93,0,0,0-.18-.88s-.05-.08-.07-.13h.07a3.9,3.9,0,0,1,.38-1.3c.05,0,.06-.09.05-.12s0-.09-.11-.11v0l-.22,0s-.07-.57.16-.78a.22.22,0,0,0,.05-.17,1,1,0,0,0,0-.24v0a9.63,9.63,0,0,0-.52-1.35,1.62,1.62,0,0,1,.13-.72,17.83,17.83,0,0,0,0-2.83,8.18,8.18,0,0,0-.11-1.85,2.13,2.13,0,0,1,.2-1.29v0l0-.2h0c0-.33-.11-.94-.16-1.22s0-2.3,0-2.3l.32-.82.58,1.4.61,1.88a1.5,1.5,0,0,1,.3.79v.19a1.1,1.1,0,0,0,.18.66,3,3,0,0,0,.41,1.12,1,1,0,0,1,.26.65,11.34,11.34,0,0,0,.44,1.51,2.14,2.14,0,0,1,.12.87h0v0a7.53,7.53,0,0,1,0,.85v.13h0a1.73,1.73,0,0,1,0,.32h0a.13.13,0,0,1,0-.06,3.57,3.57,0,0,0-.09.8,2.1,2.1,0,0,0,.34,1.33c.48.55.79.48.79.48s-.23.69-.52.83l0,0a.08.08,0,0,0,0,0,.36.36,0,0,0-.09.26,1.91,1.91,0,0,0,.36,1,.49.49,0,0,0,.24.14l0,0-.09,0-.15,0a.67.67,0,0,0-.51.24.53.53,0,0,0,0,.75.22.22,0,0,0,.09.07l1.28.45S227.81,57.24,227.69,56.74Z" style="fill: url(#Gradiente_sem_nome_4-4)"/>
          <path id="Caminho_1231" data-name="Caminho 1231" d="M219.28,57.56,218,57.12a.54.54,0,0,1-.12-.75l.06-.07a.67.67,0,0,1,.49-.25.5.5,0,0,0,.24-.09.52.52,0,0,0,.19-.17.93.93,0,0,0,.15-.48s1.36-.4,1.73,0a.78.78,0,0,1,.16.24,1.91,1.91,0,0,1,.18.88s.07.43.18.92S219.28,57.56,219.28,57.56Z" style="fill: #273854"/>
          <path id="Caminho_1232" data-name="Caminho 1232" d="M225.35,57l-1.24-.44a.54.54,0,0,1-.13-.75l.07-.08a.63.63,0,0,1,.49-.24l.14,0,.09,0a.76.76,0,0,0,.34-.66s1.36-.39,1.73,0l.14.18a2,2,0,0,1,.2.94s.07.44.18.93S225.35,57,225.35,57Z" style="fill: #273854"/>
          <path id="Caminho_1233" data-name="Caminho 1233" d="M220.78,55.31a1,1,0,0,1,.17.24h0l-2,.24a.92.92,0,0,0,.14-.48S220.41,54.91,220.78,55.31Z" style="opacity: 0.099999994039536;isolation: isolate"/>
          <path id="Caminho_1234" data-name="Caminho 1234" d="M227,54.87v.38c-.32.53-1.85.41-2.3.15l.1,0a.77.77,0,0,0,.33-.66s1.36-.39,1.74,0Z" style="opacity: 0.099999994039536;isolation: isolate"/>
          <path id="Caminho_1235" data-name="Caminho 1235" d="M227.22,53.23a2.45,2.45,0,0,0-.24.52v1.37c-.35.57-2.15.38-2.39.07s-.5-1.13-.23-1.27.5-.83.5-.83-.29.07-.76-.48a2.84,2.84,0,0,1-.24-2.08,7,7,0,0,0,0-1.29,2.78,2.78,0,0,0-.12-.91,11.3,11.3,0,0,1-.43-1.51,1.08,1.08,0,0,0-.25-.66,3.08,3.08,0,0,1-.4-1.11,1.13,1.13,0,0,1-.17-.74,1.51,1.51,0,0,0-.29-.9l-.59-1.88-.56-1.4-.31.81s-.09,1.91,0,2.31.18,1.45.18,1.45a2.2,2.2,0,0,0-.19,1.29,8.8,8.8,0,0,1,.1,1.85,19.1,19.1,0,0,1,0,2.83,1.52,1.52,0,0,0-.12.73s.7,1.52.48,1.73-.16.78-.16.78.49,0,.28.21a4.19,4.19,0,0,0-.36,1.3l-2.1.24a5,5,0,0,1-.47-.88c-.27-.65.06-.58.33-.65s.11-.24-.22-.45-.14-.67-.14-.67.5-.85.33-.92-.19-1.26-.19-1.26a7.92,7.92,0,0,1-.27-1.81,3.48,3.48,0,0,0-.27-1.3l-.12-1.09a3,3,0,0,1-.39-2.06V42.89s-.48-3.26-.55-4.91c0-1,0-2.49,0-3.39,0-.5,0-.83,0-.83l7.49-.78a6,6,0,0,0,.13,1.11c.08.41.2.94.38,1.61A7.17,7.17,0,0,1,225.1,39L225,41.43a6.28,6.28,0,0,1,.53,2.17,4.23,4.23,0,0,0-.14,1s1.47,3.52,1.31,4.55a6.61,6.61,0,0,0,.49,2.63A3.93,3.93,0,0,1,227.22,53.23Z" style="fill: #18212e"/>
          <path id="Caminho_1236" data-name="Caminho 1236" d="M222.94,44.2l2.28-.3S223.93,45.21,222.94,44.2Z" style="opacity: 0.049999997019768;isolation: isolate"/>
          <path id="Caminho_1237" data-name="Caminho 1237" d="M224.89,41.67s.08.81-.41,1.11C224.47,42.78,225.36,42.64,224.89,41.67Z" style="opacity: 0.099999994039536;isolation: isolate"/>
          <path id="Caminho_1238" data-name="Caminho 1238" d="M224.75,39.1s-1.91,1.57-2.6,1.44S224.75,39.1,224.75,39.1Z" style="opacity: 0.099999994039536;isolation: isolate"/>
          <path id="Caminho_1239" data-name="Caminho 1239" d="M220.11,44.93s-1.44.33-1.49.91S220.11,44.93,220.11,44.93Z" style="opacity: 0.099999994039536;isolation: isolate"/>
          <path id="Caminho_1240" data-name="Caminho 1240" d="M220.43,52.16s-2,.38-1.46.64a9.31,9.31,0,0,0,1.53.47S221.16,53.31,220.43,52.16Z" style="opacity: 0.049999997019768;isolation: isolate"/>
          <g id="Grupo_197" data-name="Grupo 197" style="opacity: 0.049999997019768">
            <path id="Caminho_1241" data-name="Caminho 1241" d="M218.56,53.22a.4.4,0,0,1-.19-.3l0,0s-.19.46.14.67l.1.07.19,0C219.06,53.6,218.89,53.42,218.56,53.22Z"/>
            <path id="Caminho_1242" data-name="Caminho 1242" d="M221.19,53.08c.06-.06.05-.19,0-.36a1.11,1.11,0,0,0-.12.5A.45.45,0,0,1,221.19,53.08Z"/>
            <path id="Caminho_1243" data-name="Caminho 1243" d="M220.87,44.46a2.21,2.21,0,0,0-.13.63,2.54,2.54,0,0,1,.15-.44Z"/>
            <path id="Caminho_1244" data-name="Caminho 1244" d="M225.56,43.55a1.37,1.37,0,0,0,0-.19,2.86,2.86,0,0,0-.06.35C225.53,43.66,225.55,43.61,225.56,43.55Z"/>
            <path id="Caminho_1245" data-name="Caminho 1245" d="M220.83,50.62a1.31,1.31,0,0,0,0-.39,1.19,1.19,0,0,0-.1.49A.31.31,0,0,1,220.83,50.62Z"/>
            <path id="Caminho_1246" data-name="Caminho 1246" d="M221.25,53.88A6.61,6.61,0,0,0,221,55l-2.09.24a4.21,4.21,0,0,1-.47-.89l-.06-.15c-.13.06-.18.19,0,.57a4.46,4.46,0,0,0,.47.89l2.09-.25a4.21,4.21,0,0,1,.37-1.3C221.41,54,221.35,53.91,221.25,53.88Z"/>
            <path id="Caminho_1247" data-name="Caminho 1247" d="M218.49,50.77s0,1.2.19,1.27h0c.09-.2.14-.39.06-.42s-.19-1.26-.19-1.26a7.91,7.91,0,0,1-.26-1.81,3.49,3.49,0,0,0-.28-1.3l-.12-1.09a3,3,0,0,1-.38-2.06V42.42s-.48-3.26-.55-4.91c-.05-1,0-2.49,0-3.39,0-.16,0-.3,0-.42h-.06s0,.34,0,.84c0,.9,0,2.34,0,3.39.07,1.65.55,4.9.55,4.9v1.69a3,3,0,0,0,.38,2.06l.12,1.09a3.41,3.41,0,0,1,.28,1.3A7.84,7.84,0,0,0,218.49,50.77Z"/>
            <path id="Caminho_1248" data-name="Caminho 1248" d="M224.66,54.72a2,2,0,0,1-.34-.82c-.21.19,0,.94.27,1.24s2,.5,2.39-.07v-.33A2.49,2.49,0,0,1,224.66,54.72Z"/>
            <path id="Caminho_1249" data-name="Caminho 1249" d="M227.29,52.76a2.79,2.79,0,0,0-.24.53v.24a3.59,3.59,0,0,1,.17-.34.94.94,0,0,0,.08-.43Z"/>
            <path id="Caminho_1250" data-name="Caminho 1250" d="M224.76,53a2.37,2.37,0,0,0,.17-.41s-.29.07-.76-.49a2.42,2.42,0,0,1-.31-1.66,2.84,2.84,0,0,0,.24,2.08A1.23,1.23,0,0,0,224.76,53Z"/>
            <path id="Caminho_1251" data-name="Caminho 1251" d="M223.86,49.19a8.92,8.92,0,0,1,0,1,.94.94,0,0,1,0-.16,6.84,6.84,0,0,0,0-1.28,2.88,2.88,0,0,0-.12-.92,11.3,11.3,0,0,1-.43-1.51,1.07,1.07,0,0,0-.24-.66,2.75,2.75,0,0,1-.4-1.11,1.08,1.08,0,0,1-.18-.74,1.51,1.51,0,0,0-.29-.9l-.59-1.88-.56-1.4-.31.82s0,.1,0,.26l.25-.66.56,1.4.59,1.87a1.53,1.53,0,0,1,.29.9,1.1,1.1,0,0,0,.18.75,2.8,2.8,0,0,0,.4,1.11,1,1,0,0,1,.24.66,11.16,11.16,0,0,0,.43,1.5A2.41,2.41,0,0,1,223.86,49.19Z"/>
          </g>
          <path id="Caminho_1252" data-name="Caminho 1252" d="M225.31,17.31l-.13.64v.48l-.73.08-.08-.15h0a6.54,6.54,0,0,0-.56-.91c-.13-.11-.37-1.87-.09-1.76a.73.73,0,0,1,.41.36S225.57,16.21,225.31,17.31Z" style="fill: #efc9cf"/>
          <path id="Caminho_1253" data-name="Caminho 1253" d="M225.2,18.43l-.73.08-.08-.15h0a.64.64,0,0,1,.8-.13Z" style="opacity: 0.099999994039536;isolation: isolate"/>
          <path id="Caminho_1254" data-name="Caminho 1254" d="M225.38,18.78l-.95.22,0-.14-.06-.39a.67.67,0,0,1,.92-.13h0l0,.19Z" style="fill: #6963f8"/>
          <path id="Caminho_1255" data-name="Caminho 1255" d="M209.93,17.38l-1,.55-.09-.19c-.1-.21-.24-.51-.28-.63s-.49-.38-.49-.38c-1.06-1,.21-1.89.21-1.89.67-1.35,1.41.46,1.41.46a4.26,4.26,0,0,1,0,1c-.07.07-.07.33-.07.33a3.23,3.23,0,0,1,.24.58A.87.87,0,0,1,209.93,17.38Z" style="fill: #efc9cf"/>
          <path id="Caminho_1256" data-name="Caminho 1256" d="M209.93,17.38l-1,.55-.09-.19c.14-.12.65-.54.82-.52h.24A1.1,1.1,0,0,1,209.93,17.38Z" style="opacity: 0.099999994039536;isolation: isolate"/>
          <path id="Caminho_1257" data-name="Caminho 1257" d="M210,17.69l-1.15.56,0-.24v-.17s.66-.57.85-.55a.76.76,0,0,0,.3,0l0,.21Z" style="fill: #6963f8"/>
          <path id="Caminho_1258" data-name="Caminho 1258" d="M222.54,21.51s-5,.57-4,.27a1.26,1.26,0,0,0,1-1.09,2.54,2.54,0,0,0-.19-1.15,4.68,4.68,0,0,0-.44-.9s3.81-2.09,3.05-.19a3.12,3.12,0,0,0-.22.9,2.61,2.61,0,0,0,.1.92A2.68,2.68,0,0,0,222.54,21.51Z" style="fill: #efc9cf"/>
          <path id="Caminho_1259" data-name="Caminho 1259" d="M221.86,18.45a3.11,3.11,0,0,0-.21.9,1.76,1.76,0,0,1-1.26.28,2.17,2.17,0,0,1-1.13-.09,5.36,5.36,0,0,0-.44-.9S222.63,16.54,221.86,18.45Z" style="opacity: 0.099999994039536;isolation: isolate"/>
          <circle id="Elipse_393" data-name="Elipse 393" cx="220.32" cy="17.7" r="2.06" style="fill: #efc9cf"/>
          <path id="Caminho_1260" data-name="Caminho 1260" d="M222.54,21.52s-5,.56-4,.26a1.26,1.26,0,0,0,1-1.08,2.73,2.73,0,0,1,1.06-.57,1.57,1.57,0,0,1,.91,0,1.37,1.37,0,0,1,.32.16A2.78,2.78,0,0,0,222.54,21.52Z" style="opacity: 0.099999994039536;isolation: isolate"/>
          <path id="Caminho_1261" data-name="Caminho 1261" d="M225.38,18.78l-.95.22,0-.14a.83.83,0,0,1,.91-.32Z" style="opacity: 0.099999994039536;isolation: isolate"/>
          <path id="Caminho_1262" data-name="Caminho 1262" d="M210,17.69l-1.15.56,0-.24A8.39,8.39,0,0,1,210,17.5Z" style="opacity: 0.099999994039536;isolation: isolate"/>
          <path id="Caminho_1263" data-name="Caminho 1263" d="M224.51,34.08a30.93,30.93,0,0,1-5.11.57,12.58,12.58,0,0,0-2.53-.07c0-.5,0-.83,0-.83l7.49-.78A7,7,0,0,0,224.51,34.08Z" style="opacity: 0.099999994039536;isolation: isolate"/>
          <path id="Caminho_1264" data-name="Caminho 1264" d="M226.44,33.63s-6.36,1.09-7,.89a27.29,27.29,0,0,0-4.19,0c-1.58,1.06-.92-.5-.92-.5a3.83,3.83,0,0,1,.05-1.47,9.39,9.39,0,0,0,.27-1.48,3.46,3.46,0,0,1,.15-1.28,9.47,9.47,0,0,0,.42-2s.17-1.18.15-1.44.06-1,.06-1l.22-1.21c-1.3-.18-5.25-2.6-5.25-2.6a12.37,12.37,0,0,0-1.66-2.72,2.49,2.49,0,0,0-.12-.47c-.11-.28,1.45-.83,1.45-.83s1.16,1.41,1.4,1.8a8,8,0,0,0,1.08,1.09.82.82,0,0,1,.38.05h0a2.8,2.8,0,0,1,.77.44,1.48,1.48,0,0,1,1.06.4s.71-.11.83,0,.73,0,.73,0,.61-1.28,1-.91,2.09.36,2.09.36a2.4,2.4,0,0,1,1.11-.62,1.57,1.57,0,0,1,.91,0,1.16,1.16,0,0,1,.35.18l1,1s.29-.39.26-.47.35-.16.35-.16l.69-.21c.19-.05.37.16.38.18a2.5,2.5,0,0,1-.09-.77.94.94,0,0,0-.2-.62c.6-1.49,2-.24,2-.24a2.86,2.86,0,0,1,0,1.13c-.14.31.14,1,.1,1.14s.07.47.07.8a5.2,5.2,0,0,1-.27,1.23c-.1.28-.94.9-.94.9a3.9,3.9,0,0,1-.42,1.56,6.35,6.35,0,0,0-.13,2.53,6.51,6.51,0,0,0,.78,2A14.9,14.9,0,0,1,226.44,33.63Z" style="fill: #273854"/>
          <path id="Caminho_1265" data-name="Caminho 1265" d="M217.17,22.23s-.19-.58-.37-.63a3.16,3.16,0,0,1-.5-.22l.11-.21s.66.17.76.37A1.61,1.61,0,0,1,217.17,22.23Z" style="opacity: 0.099999994039536;isolation: isolate"/>
          <path id="Caminho_1266" data-name="Caminho 1266" d="M213.69,21c0,.18-1.58.33-1.58.33l.78-.79h0a3,3,0,0,1,.78.45Z" style="opacity: 0.099999994039536;isolation: isolate"/>
          <circle id="Elipse_394" data-name="Elipse 394" cx="209.22" cy="18.58" r="0.14" style="fill: #585982"/>
          <circle id="Elipse_395" data-name="Elipse 395" cx="209.4" cy="18.86" r="0.14" style="fill: #585982"/>
          <circle id="Elipse_396" data-name="Elipse 396" cx="209.57" cy="19.12" r="0.14" style="fill: #585982"/>
          <circle id="Elipse_397" data-name="Elipse 397" cx="209.76" cy="19.39" r="0.14" style="fill: #585982"/>
          <circle id="Elipse_398" data-name="Elipse 398" cx="226.09" cy="19.38" r="0.11" style="fill: #585982"/>
          <circle id="Elipse_399" data-name="Elipse 399" cx="226.11" cy="19.63" r="0.11" style="fill: #585982"/>
          <circle id="Elipse_400" data-name="Elipse 400" cx="226.12" cy="19.89" r="0.11" style="fill: #585982"/>
          <path id="Caminho_1267" data-name="Caminho 1267" d="M217.18,26.92s3.89,4.91,6.92,2.06C224.1,29,219.31,29.63,217.18,26.92Z" style="opacity: 0.099999994039536;isolation: isolate"/>
          <path id="Caminho_1268" data-name="Caminho 1268" d="M214.93,29.49s2.34.06,2.59.73v.7a.43.43,0,0,1-.44,0c-.24-.13-1.65-.84-2.15-.5Z" style="opacity: 0.099999994039536;isolation: isolate"/>
          <path id="Caminho_1269" data-name="Caminho 1269" d="M215,29.49s2.23.06,2.47.7v.66a.4.4,0,0,1-.42,0c-.23-.12-1.58-.8-2.05-.47Z" style="opacity: 0.099999994039536;isolation: isolate"/>
          <path id="Caminho_1270" data-name="Caminho 1270" d="M216.21,24.41a7.4,7.4,0,0,0,.91,1.56,6.11,6.11,0,0,0,1.41,1.37A27.78,27.78,0,0,1,216.21,24.41Z" style="opacity: 0.099999994039536;isolation: isolate"/>
          <path id="Caminho_1271" data-name="Caminho 1271" d="M215.44,21.69a4.06,4.06,0,0,0,1.4,2.26Z" style="opacity: 0.099999994039536;isolation: isolate"/>
          <path id="Caminho_1272" data-name="Caminho 1272" d="M214.85,21.86A1.86,1.86,0,0,0,216.14,24S215.45,23.71,214.85,21.86Z" style="opacity: 0.099999994039536;isolation: isolate"/>
          <path id="Caminho_1273" data-name="Caminho 1273" d="M225.05,20.74a11.28,11.28,0,0,1,1,.78S225.55,20.7,225.05,20.74Z" style="opacity: 0.099999994039536;isolation: isolate"/>
          <path id="Caminho_1274" data-name="Caminho 1274" d="M219.77,19.57a.32.32,0,0,0,.33.32h0a4,4,0,0,0,1.86-.17.7.7,0,0,0,.28-.19,1.12,1.12,0,0,0,.17-.46,5.59,5.59,0,0,1,.38-.87,2.94,2.94,0,0,0,.2-1.58,1,1,0,0,0-.15-.45c-.17-.24-.47-.34-.69-.53s-.37-.48-.63-.62a1.2,1.2,0,0,0-.77-.07,4.11,4.11,0,0,0-1.45.55.72.72,0,0,1-.49.16.59.59,0,0,1-.35-.27,1.74,1.74,0,0,0-.15.9.57.57,0,0,1,0,.13.38.38,0,0,1-.09.15.5.5,0,0,0-.1.64c.06.08.17.13.23.21s.08.35.08.54a.3.3,0,0,0,0,.18.3.3,0,0,0,.26.06.61.61,0,0,1,.27,0,.52.52,0,0,1,.23.18A3.41,3.41,0,0,1,219.77,19.57Z" style="fill: #302d3f"/>
          <g id="Grupo_198" data-name="Grupo 198" style="opacity: 0.099999994039536">
            <path id="Caminho_1275" data-name="Caminho 1275" d="M222.34,19.37a.7.7,0,0,1-.29.19,4.17,4.17,0,0,1-1.86.18.33.33,0,0,1-.35-.3v0a3.47,3.47,0,0,0-.52-1.22.55.55,0,0,0-.24-.18.63.63,0,0,0-.27,0,.3.3,0,0,1-.26-.06.3.3,0,0,1,0-.18c0-.19,0-.4-.08-.54s-.16-.13-.23-.21a.4.4,0,0,1,0-.41.47.47,0,0,0,0,.55c.06.08.17.12.23.21s.08.35.08.53a.31.31,0,0,0,0,.19.3.3,0,0,0,.26.06.63.63,0,0,1,.27,0,.48.48,0,0,1,.24.18,3.39,3.39,0,0,1,.52,1.22.43.43,0,0,0,.15.28.45.45,0,0,0,.2,0A4.06,4.06,0,0,0,222,19.7a.7.7,0,0,0,.28-.19.56.56,0,0,0,.09-.17A0,0,0,0,1,222.34,19.37Z"/>
            <path id="Caminho_1276" data-name="Caminho 1276" d="M218.33,16.37a.24.24,0,0,0,.06-.11.29.29,0,0,0,0-.13,2.09,2.09,0,0,1,.1-.75h0a2,2,0,0,0-.15.9v.1Z"/>
          </g>
          <path id="Caminho_1277" data-name="Caminho 1277" d="M219.4,20.82s2.57.34,2.81,0" style="opacity: 0.099999994039536;isolation: isolate"/>
          <path id="Caminho_1278" data-name="Caminho 1278" d="M224.41,19.76s1.43,0,1.74.53" style="opacity: 0.099999994039536;isolation: isolate"/>
          <path id="Caminho_1279" data-name="Caminho 1279" d="M232.42,67.62a2.28,2.28,0,0,1-1.55.58c-.14,0-.35,0-.35.17a.31.31,0,0,0,0,.12,1.45,1.45,0,0,0,.79.63,3.17,3.17,0,0,0,1,.06l.94-.05.53,0,.56-.09a7,7,0,0,1,1.37-.07.41.41,0,0,0,.34-.09c.07-.08,0-.25,0-.39s0-.56-.05-.83a1.48,1.48,0,0,0-1-1,2,2,0,0,0-1.58-.08A11.07,11.07,0,0,0,232.42,67.62Z" style="fill: #1f2c40"/>
          <path id="Caminho_1280" data-name="Caminho 1280" d="M233.35,51.47c.09.4.47.7.48,1.1a1.71,1.71,0,0,1-.39.88,5.45,5.45,0,0,0-.39.89,14.41,14.41,0,0,1-1.17,2.32,1.81,1.81,0,0,0-.41,1.14,1.59,1.59,0,0,0,.2.55l.66,1.32a3.54,3.54,0,0,1,.34.83,6.48,6.48,0,0,1,.1.77,6.26,6.26,0,0,1,.26,2.41c0,.06-.09.15-.14.1a2.55,2.55,0,0,1,.38,1.29,1.75,1.75,0,0,0,0,.72,1,1,0,0,1,.11.29c0,.07,0,.13,0,.2a.44.44,0,0,0,.33.4c.18.06.37,0,.55.11a3.4,3.4,0,0,1,.89.6,1.86,1.86,0,0,0,1,.34.4.4,0,0,0,.15,0,.27.27,0,0,0,.08-.19,1,1,0,0,0-.36-.88.32.32,0,0,1-.14-.14.42.42,0,0,1,0-.16,12.23,12.23,0,0,0,0-2.18,2.66,2.66,0,0,1,0-.69,3.79,3.79,0,0,0,.05-.58,2.72,2.72,0,0,0-.18-.55,4.49,4.49,0,0,1-.09-1,8.18,8.18,0,0,0-.29-1.77,1.31,1.31,0,0,0-.27-.64c-.14-.15-.36-.28-.31-.48a.59.59,0,0,1,.13-.19.78.78,0,0,0,.15-.57.26.26,0,0,0,.3-.14,4.68,4.68,0,0,0,2.34-2.66.87.87,0,0,1,.1-.24,1.11,1.11,0,0,1,.43-.28,3.25,3.25,0,0,0,1.13-1.14,2,2,0,0,0,.49-1.44l0-1a.68.68,0,0,0,0-.2.66.66,0,0,0-.12-.17,2,2,0,0,0-1.1-.59c-.28,0-.57,0-.86-.07a10.27,10.27,0,0,0-1.66-.17A2.64,2.64,0,0,0,234,51C233.82,51.23,233.66,51.46,233.35,51.47Z" style="fill: #273854"/>
          <path id="Caminho_1281" data-name="Caminho 1281" d="M228.5,44.7a1.08,1.08,0,0,1-.07.47.33.33,0,0,1-.39.2c.05-.1-.07-.22-.19-.2a.32.32,0,0,0-.24.21.72.72,0,0,0-.07.48,2.06,2.06,0,0,1,.12.6c0,.17-.15.34-.08.5a.58.58,0,0,0,.16.19.56.56,0,0,1-.06.75l1.68,0a1.19,1.19,0,0,0,.2.82,5.19,5.19,0,0,0,3.84,2.5.32.32,0,0,0-.12.45l0,.06a.47.47,0,0,0,.53,0,4,4,0,0,0,.46-.35,1.45,1.45,0,0,1,.95-.25c.21,0,.41.09.62.1.62,0,1.16-.42,1.75-.6a4,4,0,0,0,1.3-.41.5.5,0,0,0,.24-.49.92.92,0,0,0-.18-.3,4.93,4.93,0,0,1-.48-.91A5.36,5.36,0,0,0,237.29,47a9.7,9.7,0,0,0-1.2-.91,2.14,2.14,0,0,0-.32-.2c-.16-.05-.3-.11-.45-.17a2.52,2.52,0,0,1-.46-.52,6.36,6.36,0,0,0-1.25-.87,2.91,2.91,0,0,0-.85-.58c-.16-.05-.32-.05-.48-.1-.37-.11-.63-.43-1-.56a3.72,3.72,0,0,0-.88-.11,2.11,2.11,0,0,1-.93-.35,1.27,1.27,0,0,0-.29-.18c-.45-.13-.49.7-.53,1A8.1,8.1,0,0,0,228.5,44.7Z" style="fill: #5f8ddf"/>
          <path id="Caminho_1282" data-name="Caminho 1282" d="M228.94,47.51c.07.81-.54,1.6-.37,2.4a4.84,4.84,0,0,1,.14.51,2,2,0,0,1-.48,1.32l-2.32,3.41a2.12,2.12,0,0,1-.33.41c-.44.39-1.11.35-1.69.47a2.84,2.84,0,0,0-1.14.5.08.08,0,0,0,0,.1,1,1,0,0,0,.84.4c.06.08,0,.19-.08.25s-.3.11-.32.32a.34.34,0,0,0,0,.22.67.67,0,0,0,.41.28,2.41,2.41,0,0,0,2.27-.78c.6-.58,1-1.33,1.62-1.92.33-.33.7-.62,1-.94a12,12,0,0,0,1.7-2.19,2.62,2.62,0,0,0,.37-.75c.06-.27,0-.55.1-.81a2.83,2.83,0,0,1,.56-.91,3,3,0,0,0,.63-2,1.87,1.87,0,0,0-1.15-1.63,1.08,1.08,0,0,0-.64,0,1.51,1.51,0,0,0-.65.52l-.45.51a1.33,1.33,0,0,0-.24.39.42.42,0,0,0,.08.44" style="fill: #e8baba"/>
          <path id="Caminho_1283" data-name="Caminho 1283" d="M230.11,44.15a1.24,1.24,0,0,0-.85.27,1.11,1.11,0,0,0-.22.34,3.35,3.35,0,0,0-.43,1.34,6.15,6.15,0,0,0,.16,1.13,4.32,4.32,0,0,1-.1,1,7.5,7.5,0,0,0,1.22-.47,4.08,4.08,0,0,1,.72-.37,2.17,2.17,0,0,1,1.32.25c0-.24-.17-.66-.15-.91a1.59,1.59,0,0,1,.06-.3,1.75,1.75,0,0,1,.18-.29,1.19,1.19,0,0,0-.1-1.4,1.94,1.94,0,0,0-1.25-.53,6.33,6.33,0,0,0-.87,0" style="fill: #5f8ddf"/>
        </g>
      </g>
    </g>
  </g>
</svg>
