<svg xmlns="http://www.w3.org/2000/svg" viewBox="0 0 80.2 86.05">
  <g id="Camada_2" data-name="Camada 2">
    <g id="Camada_1-2" data-name="Camada 1">
      <g id="Grupo_371" data-name="Grupo 371">
        <g id="undraw_landing_page_q6hh" data-name="undraw landing page q6hh">
          <rect id="Retângulo_1325" data-name="Retângulo 1325" y="30.37" width="76.33" height="51.55" style="fill: #1f2c40"/>
          <circle id="Elipse_573" data-name="Elipse 573" cx="2.35" cy="32.25" r="0.94" style="fill: #5f8ddf"/>
          <circle id="Elipse_574" data-name="Elipse 574" cx="5.18" cy="32.3" r="0.94" style="fill: #5f8ddf"/>
          <circle id="Elipse_575" data-name="Elipse 575" cx="8" cy="32.35" r="0.94" style="fill: #5f8ddf"/>
          <rect id="Retângulo_1326" data-name="Retângulo 1326" x="4.76" y="37.63" width="64.41" height="12.55" style="fill: #5f8ddf;opacity: 0.300000011920929;isolation: isolate"/>
          <rect id="Retângulo_1327" data-name="Retângulo 1327" x="4.76" y="58.13" width="15.37" height="20.18" style="fill: #5f8ddf;opacity: 0.300000011920929;isolation: isolate"/>
          <rect id="Retângulo_1328" data-name="Retângulo 1328" x="53.8" y="58.13" width="15.37" height="20.18" style="fill: #5f8ddf;opacity: 0.300000011920929;isolation: isolate"/>
          <rect id="Retângulo_1329" data-name="Retângulo 1329" x="29.28" y="58.13" width="15.37" height="20.18" style="fill: #5f8ddf;opacity: 0.300000011920929;isolation: isolate"/>
          <rect id="Retângulo_1330" data-name="Retângulo 1330" x="13.33" y="37.63" width="64.41" height="12.55" style="fill: #5f8ddf"/>
          <rect id="Retângulo_1331" data-name="Retângulo 1331" x="56.73" y="62.94" width="15.37" height="20.18" style="fill: #5f8ddf"/>
          <rect id="Retângulo_1332" data-name="Retângulo 1332" x="58.97" y="65.6" width="10.87" height="1.25" style="fill: #abcf60"/>
          <rect id="Retângulo_1333" data-name="Retângulo 1333" x="58.97" y="68.32" width="10.87" height="1.25" style="fill: #abcf60"/>
          <rect id="Retângulo_1334" data-name="Retângulo 1334" x="58.97" y="71.04" width="10.87" height="1.25" style="fill: #abcf60"/>
          <rect id="Retângulo_1335" data-name="Retângulo 1335" x="58.97" y="73.76" width="10.87" height="1.25" style="fill: #abcf60"/>
          <rect id="Retângulo_1336" data-name="Retângulo 1336" x="58.97" y="76.48" width="10.87" height="1.25" style="fill: #abcf60"/>
          <rect id="Retângulo_1337" data-name="Retângulo 1337" x="58.97" y="79.2" width="10.87" height="1.25" style="fill: #abcf60"/>
          <rect id="Retângulo_1338" data-name="Retângulo 1338" x="8.52" y="60.85" width="15.37" height="20.18" style="fill: #5f8ddf"/>
          <rect id="Retângulo_1339" data-name="Retângulo 1339" x="10.77" y="67.59" width="10.87" height="1.25" style="fill: #abcf60"/>
          <rect id="Retângulo_1340" data-name="Retângulo 1340" x="10.77" y="70.31" width="10.87" height="1.25" style="fill: #abcf60"/>
          <rect id="Retângulo_1341" data-name="Retângulo 1341" x="10.77" y="73.03" width="10.87" height="1.25" style="fill: #abcf60"/>
          <path id="Caminho_1711" data-name="Caminho 1711" d="M48.66,45a2.82,2.82,0,0,1-3.12,3.17h-.36c-1.55-.11-2.77-1-2.77-3.16s2.89-5.11,3.11-5.32h0S48.66,42.64,48.66,45Z" style="fill: #abcf60"/>
          <path id="Caminho_1712" data-name="Caminho 1712" d="M45.42,47.8l1.14-1.59L45.42,48v.18h-.24l.13-2.35v0h0v-.22l-1.15-1.77,1.15,1.6v0l.09-1.78-1-1.83,1,1.52.1-3.68h0l0,2.9,1-1.15-1,1.4,0,1.59.91-1.53-.91,1.76,0,.89,1.33-2.12-1.33,2.43Z" style="fill: #5f8ddf"/>
          <rect id="Retângulo_1342" data-name="Retângulo 1342" x="25.88" y="65.87" width="15.37" height="20.18" style="fill: #5f8ddf"/>
          <rect id="Retângulo_1343" data-name="Retângulo 1343" x="30.11" y="69.06" width="6.9" height="6.9" style="fill: #abcf60"/>
          <rect id="Retângulo_1344" data-name="Retângulo 1344" x="27.5" y="77.42" width="12.13" height="0.84" style="fill: #abcf60"/>
          <rect id="Retângulo_1345" data-name="Retângulo 1345" x="27.5" y="79.72" width="12.13" height="0.84" style="fill: #abcf60"/>
          <rect id="Retângulo_1346" data-name="Retângulo 1346" x="27.5" y="82.02" width="12.13" height="0.84" style="fill: #abcf60"/>
        </g>
        <g id="undraw_responsiveness_irhh" data-name="undraw responsiveness irhh">
          <rect id="Retângulo_1373" data-name="Retângulo 1373" x="43.39" y="2.65" width="25.94" height="32.29" transform="translate(22.14 67.35) rotate(-73.27)" style="fill: #abcf60"/>
          <rect id="Retângulo_1374" data-name="Retângulo 1374" x="25.43" y="7.49" width="28.03" height="19.62" style="fill: #5f8ddf"/>
          <rect id="Retângulo_1375" data-name="Retângulo 1375" x="25.43" y="7.49" width="23.46" height="15.12" style="fill: #273854"/>
          <line id="Linha_122" data-name="Linha 122" x1="48.92" y1="22.63" x2="51.52" y2="25.23" style="fill: none;stroke: #413f56;stroke-miterlimit: 10;stroke-width: 0.5px"/>
          <path id="Caminho_1772" data-name="Caminho 1772" d="M50.89,25.3v-.12l.59,0,0-.6h.12l0,.73Z" style="fill: #413f56"/>
          <rect id="Retângulo_1376" data-name="Retângulo 1376" x="65" y="12.11" width="15" height="13.36" style="fill: #273854"/>
          <rect id="Retângulo_1377" data-name="Retângulo 1377" x="65" y="12.11" width="8.71" height="5.99" style="fill: #5f8ddf"/>
          <line id="Linha_123" data-name="Linha 123" x1="54.98" y1="18.76" x2="62.88" y2="18.76" style="fill: none;stroke: #413f56;stroke-miterlimit: 10;stroke-width: 0.5px"/>
          <path id="Caminho_1773" data-name="Caminho 1773" d="M55.38,19.26l.08-.09L55,18.76l.44-.41-.08-.09-.53.5Z" style="fill: #413f56"/>
          <path id="Caminho_1774" data-name="Caminho 1774" d="M62.48,19.26l-.09-.09.44-.41-.44-.41.09-.09.53.5Z" style="fill: #413f56"/>
          <circle id="Elipse_584" data-name="Elipse 584" cx="58.93" cy="18.76" r="0.66" style="fill: #413f56"/>
          <circle id="Elipse_585" data-name="Elipse 585" cx="60.65" cy="18.76" r="0.36" style="fill: #5f8ddf"/>
          <circle id="Elipse_586" data-name="Elipse 586" cx="57.14" cy="18.76" r="0.36" style="fill: #5f8ddf"/>
          <line id="Linha_124" data-name="Linha 124" x1="80" y1="25.47" x2="74.7" y2="18.86" style="fill: none;stroke: #5f8ddf;stroke-miterlimit: 10;stroke-width: 0.5px"/>
          <path id="Caminho_1775" data-name="Caminho 1775" d="M75.34,18.87l0,.12-.59-.09,0,.6h-.13l.06-.73Z" style="fill: #5f8ddf"/>
          <circle id="Elipse_587" data-name="Elipse 587" cx="56.33" cy="1.23" r="1.23" style="fill: #273854"/>
          <circle id="Elipse_588" data-name="Elipse 588" cx="52.48" cy="1.23" r="0.89" style="fill: none;stroke: #413f56;stroke-miterlimit: 10;stroke-width: 0.5px"/>
          <circle id="Elipse_592" data-name="Elipse 592" cx="60.17" cy="1.23" r="0.89" style="fill: none;stroke: #413f56;stroke-miterlimit: 10;stroke-width: 0.5px"/>
        </g>
      </g>
    </g>
  </g>
</svg>
