<svg xmlns="http://www.w3.org/2000/svg" viewBox="0 0 80 82.03">
  <g id="Camada_2" data-name="Camada 2">
    <g id="Camada_1-2" data-name="Camada 1">
      <g>
        <circle id="Elipse_995" data-name="Elipse 995" cx="39.84" cy="39.55" r="34.68" style="fill: #abcf60"/>
        <g id="Grupo_350" data-name="Grupo 350">
          <g id="undraw_server_cluster_jwwq" data-name="undraw server cluster jwwq">
            <rect id="Retângulo_1961" data-name="Retângulo 1961" x="26.99" y="39.11" width="25.51" height="34.28" style="fill: #1f2c40"/>
            <rect id="Retângulo_1962" data-name="Retângulo 1962" x="22.61" y="38.07" width="34.28" height="13.61" style="fill: #2f4468"/>
            <rect id="Retângulo_1963" data-name="Retângulo 1963" x="22.61" y="53.24" width="34.28" height="13.61" style="fill: #2f4468"/>
            <rect id="Retângulo_1964" data-name="Retângulo 1964" x="22.61" y="68.42" width="34.28" height="13.61" style="fill: #2f4468"/>
            <rect id="Retângulo_1965" data-name="Retângulo 1965" x="22.61" y="43.84" width="34.28" height="2.09" style="fill: #5f8ddf"/>
            <rect id="Retângulo_1966" data-name="Retângulo 1966" x="22.61" y="59.01" width="34.28" height="2.09" style="fill: #5f8ddf"/>
            <rect id="Retângulo_1967" data-name="Retângulo 1967" x="22.61" y="74.19" width="34.28" height="2.09" style="fill: #5f8ddf"/>
            <circle id="Elipse_981" data-name="Elipse 981" cx="50.21" cy="40.03" r="0.79" style="fill: #5f8ddf"/>
            <circle id="Elipse_982" data-name="Elipse 982" cx="52.96" cy="40.03" r="0.79" style="fill: #5f8ddf"/>
            <circle id="Elipse_983" data-name="Elipse 983" cx="55.71" cy="40.03" r="0.79" style="fill: #5f8ddf"/>
            <circle id="Elipse_984" data-name="Elipse 984" cx="50.21" cy="54.95" r="0.79" style="fill: #5f8ddf"/>
            <circle id="Elipse_985" data-name="Elipse 985" cx="52.96" cy="54.95" r="0.79" style="fill: #5f8ddf"/>
            <circle id="Elipse_986" data-name="Elipse 986" cx="55.71" cy="54.95" r="0.79" style="fill: #5f8ddf"/>
            <circle id="Elipse_987" data-name="Elipse 987" cx="50.21" cy="69.86" r="0.79" style="fill: #5f8ddf"/>
            <circle id="Elipse_988" data-name="Elipse 988" cx="52.96" cy="69.86" r="0.79" style="fill: #5f8ddf"/>
            <circle id="Elipse_989" data-name="Elipse 989" cx="55.71" cy="69.86" r="0.79" style="fill: #5f8ddf"/>
            <path id="Caminho_4478" data-name="Caminho 4478" d="M13.3,24.62V49a1.92,1.92,0,0,1-1.92,1.92H1.92A1.92,1.92,0,0,1,0,49V24.62A1.92,1.92,0,0,1,1.92,22.7H3.07a.92.92,0,0,0,.5,1.19,1,1,0,0,0,.34.07h5.4a.92.92,0,0,0,.91-.92,1,1,0,0,0-.07-.34h1.23A1.92,1.92,0,0,1,13.3,24.62Z" style="fill: #466aa2"/>
            <path id="Caminho_4479" data-name="Caminho 4479" d="M.63,27.35h12V44.1H.63Z" style="fill: #ecf4dd"/>
            <rect id="Retângulo_1970" data-name="Retângulo 1970" x="4.05" y="38.87" width="4.8" height="0.27" style="fill: #bdd3f0"/>
            <rect id="Retângulo_1971" data-name="Retângulo 1971" x="4.05" y="39.88" width="7.43" height="0.27" style="fill: #5f8ddf"/>
            <rect id="Retângulo_1972" data-name="Retângulo 1972" x="4.05" y="40.83" width="5.83" height="0.27" style="fill: #bdd3f0"/>
            <rect id="Retângulo_1973" data-name="Retângulo 1973" x="4.05" y="41.78" width="3.43" height="0.27" style="fill: #bdd3f0"/>
            <rect id="Retângulo_1974" data-name="Retângulo 1974" x="4.05" y="42.72" width="5.15" height="0.27" style="fill: #bdd3f0"/>
            <rect id="Retângulo_1975" data-name="Retângulo 1975" x="1.87" y="38.79" width="0.55" height="0.55" style="fill: #bdd3f0"/>
            <rect id="Retângulo_1976" data-name="Retângulo 1976" x="1.87" y="39.74" width="0.55" height="0.55" style="fill: #5f8ddf"/>
            <rect id="Retângulo_1977" data-name="Retângulo 1977" x="1.87" y="40.69" width="0.55" height="0.55" style="fill: #bdd3f0"/>
            <rect id="Retângulo_1978" data-name="Retângulo 1978" x="1.87" y="41.64" width="0.55" height="0.55" style="fill: #bdd3f0"/>
            <rect id="Retângulo_1979" data-name="Retângulo 1979" x="1.87" y="42.59" width="0.55" height="0.55" style="fill: #bdd3f0"/>
            <rect id="Retângulo_1980" data-name="Retângulo 1980" x="4.25" y="29.44" width="4.84" height="4.84" style="fill: #bdd3f0"/>
            <g id="Grupo_352" data-name="Grupo 352">
              <rect id="Retângulo_1981" data-name="Retângulo 1981" x="25.28" y="0.02" width="32.17" height="20.6" style="fill: #f4f8ec"/>
              <rect id="Retângulo_1982" data-name="Retângulo 1982" x="27.71" y="5.78" width="26.67" height="10.08" style="fill: #e5f0cd"/>
              <rect id="Retângulo_1983" data-name="Retângulo 1983" x="32.57" y="7.53" width="6.4" height="0.37" style="fill: #ccddf4"/>
              <rect id="Retângulo_1984" data-name="Retângulo 1984" x="32.56" y="8.87" width="9.91" height="0.37" style="fill: #5f8ddf"/>
              <rect id="Retângulo_1985" data-name="Retângulo 1985" x="32.56" y="10.14" width="7.77" height="0.37" style="fill: #ccddf4"/>
              <rect id="Retângulo_1986" data-name="Retângulo 1986" x="32.56" y="11.4" width="4.57" height="0.37" style="fill: #ccddf4"/>
              <rect id="Retângulo_1987" data-name="Retângulo 1987" x="32.56" y="12.67" width="6.86" height="0.37" style="fill: #ccddf4"/>
              <rect id="Retângulo_1988" data-name="Retângulo 1988" x="29.66" y="7.42" width="0.73" height="0.73" style="fill: #ccddf4"/>
              <rect id="Retângulo_1989" data-name="Retângulo 1989" x="29.66" y="8.69" width="0.73" height="0.73" style="fill: #5f8ddf"/>
              <rect id="Retângulo_1990" data-name="Retângulo 1990" x="29.66" y="9.95" width="0.73" height="0.73" style="fill: #ccddf4"/>
              <rect id="Retângulo_1991" data-name="Retângulo 1991" x="29.66" y="11.22" width="0.73" height="0.73" style="fill: #ccddf4"/>
              <rect id="Retângulo_1992" data-name="Retângulo 1992" x="29.66" y="12.49" width="0.73" height="0.73" style="fill: #ccddf4"/>
              <rect id="Retângulo_1993" data-name="Retângulo 1993" x="46.52" y="7.05" width="6.55" height="6.55" style="fill: #ccddf4"/>
              <rect id="Retângulo_1994" data-name="Retângulo 1994" x="25.27" width="32.17" height="1.37" style="fill: #5f8ddf"/>
              <circle id="Elipse_990" data-name="Elipse 990" cx="26.28" cy="0.7" r="0.27" style="fill: #fff"/>
              <circle id="Elipse_991" data-name="Elipse 991" cx="27.24" cy="0.7" r="0.27" style="fill: #fff"/>
              <circle id="Elipse_992" data-name="Elipse 992" cx="28.21" cy="0.7" r="0.27" style="fill: #fff"/>
            </g>
            <rect id="Retângulo_1995" data-name="Retângulo 1995" x="69.53" y="27.73" width="7.85" height="4.06" style="fill: #37517c"/>
            <rect id="Retângulo_1996" data-name="Retângulo 1996" x="69.53" y="42.25" width="7.85" height="4.06" style="fill: #37517c"/>
            <circle id="Elipse_993" data-name="Elipse 993" cx="73.46" cy="37.02" r="6.54" style="fill: #d6e7b0"/>
            <circle id="Elipse_994" data-name="Elipse 994" cx="73.46" cy="37.02" r="5.1" style="fill: #ecf4dd"/>
            <rect id="Retângulo_1997" data-name="Retângulo 1997" x="71.79" y="35.62" width="3.96" height="0.23" style="fill: #dedede"/>
            <rect id="Retângulo_1998" data-name="Retângulo 1998" x="71.78" y="36.45" width="6.12" height="0.23" style="fill: #5f8ddf"/>
            <rect id="Retângulo_1999" data-name="Retângulo 1999" x="71.78" y="37.23" width="4.81" height="0.23" style="fill: #dedede"/>
            <rect id="Retângulo_2000" data-name="Retângulo 2000" x="71.78" y="38.02" width="2.83" height="0.23" style="fill: #dedede"/>
            <rect id="Retângulo_2001" data-name="Retângulo 2001" x="71.78" y="38.8" width="4.24" height="0.23" style="fill: #dedede"/>
            <rect id="Retângulo_2002" data-name="Retângulo 2002" x="69.99" y="35.56" width="0.45" height="0.45" style="fill: #dedede"/>
            <rect id="Retângulo_2003" data-name="Retângulo 2003" x="69.99" y="36.34" width="0.45" height="0.45" style="fill: #5f8ddf"/>
            <rect id="Retângulo_2004" data-name="Retângulo 2004" x="69.99" y="37.12" width="0.45" height="0.45" style="fill: #dedede"/>
            <rect id="Retângulo_2005" data-name="Retângulo 2005" x="69.99" y="37.9" width="0.45" height="0.45" style="fill: #dedede"/>
            <rect id="Retângulo_2006" data-name="Retângulo 2006" x="69.99" y="38.69" width="0.45" height="0.45" style="fill: #dedede"/>
          </g>
          <g id="undraw_hacker_mindset_gjwq" data-name="undraw hacker mindset gjwq">
            <rect id="Retângulo_1699" data-name="Retângulo 1699" x="58.93" y="63.37" width="21.07" height="10.72" style="fill: #18212e"/>
            <rect id="Retângulo_1700" data-name="Retângulo 1700" x="62.76" y="66.98" width="2.13" height="0.18" style="fill: #5f8ddf"/>
            <rect id="Retângulo_1701" data-name="Retângulo 1701" x="65.6" y="66.98" width="2.13" height="0.18" style="fill: #5f8ddf"/>
            <rect id="Retângulo_1702" data-name="Retângulo 1702" x="69.73" y="68.62" width="2.13" height="0.18" style="fill: #5f8ddf"/>
            <rect id="Retângulo_1703" data-name="Retângulo 1703" x="72.62" y="68.62" width="2.13" height="0.18" style="fill: #5f8ddf"/>
            <rect id="Retângulo_1704" data-name="Retângulo 1704" x="68.49" y="66.98" width="6.27" height="0.18" style="fill: #5f8ddf"/>
            <rect id="Retângulo_1705" data-name="Retângulo 1705" x="62.76" y="68.62" width="6.27" height="0.18" style="fill: #5f8ddf"/>
            <rect id="Retângulo_1706" data-name="Retângulo 1706" x="62.76" y="70.27" width="6.27" height="0.18" style="fill: #5f8ddf"/>
            <rect id="Retângulo_1707" data-name="Retângulo 1707" x="70.4" y="70.27" width="4.36" height="0.18" style="fill: #5f8ddf"/>
            <path id="Caminho_3762" data-name="Caminho 3762" d="M62.16,67.73,61.41,67l.75-.75.15.15-.6.6.6.6Z" style="fill: #5f8ddf"/>
            <path id="Caminho_3763" data-name="Caminho 3763" d="M76.78,71.2l-.15-.15.6-.61-.6-.6.15-.15.75.75Z" style="fill: #5f8ddf"/>
            <rect id="Retângulo_1708" data-name="Retângulo 1708" x="75.1" y="70.32" width="1.53" height="0.21" transform="translate(-13.53 122.6) rotate(-73.14)" style="fill: #5f8ddf"/>
          </g>
          <g id="undraw_hacker_mindset_gjwq-2" data-name="undraw hacker mindset gjwq-2">
            <rect id="Retângulo_1699-2" data-name="Retângulo 1699-2" x="0.1" y="63.37" width="21.07" height="10.72" style="fill: #18212e"/>
            <rect id="Retângulo_1700-2" data-name="Retângulo 1700-2" x="3.92" y="66.98" width="2.13" height="0.18" style="fill: #5f8ddf"/>
            <rect id="Retângulo_1701-2" data-name="Retângulo 1701-2" x="6.77" y="66.98" width="2.13" height="0.18" style="fill: #5f8ddf"/>
            <rect id="Retângulo_1702-2" data-name="Retângulo 1702-2" x="10.9" y="68.62" width="2.13" height="0.18" style="fill: #5f8ddf"/>
            <rect id="Retângulo_1703-2" data-name="Retângulo 1703-2" x="13.79" y="68.62" width="2.13" height="0.18" style="fill: #5f8ddf"/>
            <rect id="Retângulo_1704-2" data-name="Retângulo 1704-2" x="9.66" y="66.98" width="6.27" height="0.18" style="fill: #5f8ddf"/>
            <rect id="Retângulo_1705-2" data-name="Retângulo 1705-2" x="3.92" y="68.62" width="6.27" height="0.18" style="fill: #5f8ddf"/>
            <rect id="Retângulo_1706-2" data-name="Retângulo 1706-2" x="3.92" y="70.27" width="6.27" height="0.18" style="fill: #5f8ddf"/>
            <rect id="Retângulo_1707-2" data-name="Retângulo 1707-2" x="11.57" y="70.27" width="4.36" height="0.18" style="fill: #5f8ddf"/>
            <path id="Caminho_3762-2" data-name="Caminho 3762-2" d="M3.32,67.73,2.57,67l.75-.75.15.15-.6.6.6.6Z" style="fill: #5f8ddf"/>
            <path id="Caminho_3763-2" data-name="Caminho 3763-2" d="M17.94,71.2l-.15-.15.6-.61-.6-.6.15-.15.75.75Z" style="fill: #5f8ddf"/>
            <rect id="Retângulo_1708-2" data-name="Retângulo 1708-2" x="16.27" y="70.32" width="1.53" height="0.21" transform="matrix(0.29, -0.96, 0.96, 0.29, -55.3, 66.3)" style="fill: #5f8ddf"/>
          </g>
        </g>
      </g>
    </g>
  </g>
</svg>
