<svg xmlns="http://www.w3.org/2000/svg" xmlns:xlink="http://www.w3.org/1999/xlink" viewBox="0 0 289.16 282.77">
  <defs>
    <linearGradient id="Gradiente_sem_nome_74" data-name="Gradiente sem nome 74" x1="1759.21" y1="-556.56" x2="1759.21" y2="-556.11" gradientTransform="matrix(169.8, 0, 0, -225.1, -298513.62, -123881.29)" gradientUnits="userSpaceOnUse">
      <stop offset="0.21" stop-color="#fff" stop-opacity="0"/>
      <stop offset="1" stop-color="#fff" stop-opacity="0.2"/>
    </linearGradient>
    <linearGradient id="Gradiente_sem_nome_2" data-name="Gradiente sem nome 2" x1="1754.13" y1="-561.44" x2="1754.13" y2="-561.76" gradientTransform="matrix(114.29, 0, 0, -85.7, -200268.59, -47870.45)" gradientUnits="userSpaceOnUse">
      <stop offset="0" stop-color="#e6e6ee" stop-opacity="0.8"/>
      <stop offset="1" stop-color="#e6e6ee" stop-opacity="0"/>
    </linearGradient>
  </defs>
  <g id="Camada_2" data-name="Camada 2">
    <g id="Camada_1-2" data-name="Camada 1">
      <g id="Слой_1" data-name="Слой 1">
        <g id="Laptop">
          <path id="Caminho_2633" data-name="Caminho 2633" d="M277.74,215,126.53,127.68c-2.12-1.21-3.84-4.51-3.84-7.33V3.36c0-2.82,1.72-4.13,3.84-2.9L277.74,87.78c2.12,1.21,3.84,4.51,3.84,7.33v117C281.6,214.92,279.89,216.22,277.74,215Z" style="fill: #adb0bf"/>
          <path id="Caminho_2634" data-name="Caminho 2634" d="M278.54,216.21l1.68-1-.73-5Z" style="fill: #adb0bf"/>
          <path id="Caminho_2635" data-name="Caminho 2635" d="M122.42,1.17l1.65-1,2.37,1.36s-2.53.38-2.59.36S122.42,1.17,122.42,1.17Z" style="fill: #adb0bf"/>
          <path id="Caminho_2636" data-name="Caminho 2636" d="M276.38,215.83,125.15,128.49c-2.12-1.21-3.84-4.51-3.84-7.34V4.19c0-2.83,1.72-4.13,3.84-2.9L276.38,88.6c2.13,1.21,3.84,4.51,3.84,7.34v117C280.22,215.72,278.5,217,276.38,215.83Z" style="fill: #e1e3ee"/>
          <path id="Caminho_2637" data-name="Caminho 2637" d="M276.11,216,124.88,128.64c-2.12-1.21-3.85-4.51-3.85-7.34V4.31c0-2.82,1.73-4.12,3.85-2.9L276.11,88.73c2.12,1.21,3.84,4.51,3.84,7.34v117C280,215.88,278.23,217.18,276.11,216Z" style="fill: #d2d4e1"/>
          <path id="Caminho_2638" data-name="Caminho 2638" d="M277.87,208.84,123,119.4,123,4.8c0-1.18.82-1.65,1.81-1.07L276.08,91.05a4.06,4.06,0,0,1,1.82,3.18Z" style="fill: #fff"/>
          <path id="Caminho_2639" data-name="Caminho 2639" d="M277.82,208.84,123,119.41,123,4.8c0-1.18.83-1.65,1.82-1.07L276,91.05a4.06,4.06,0,0,1,1.82,3.18Z" style="opacity: 0.5;isolation: isolate;fill: url(#Gradiente_sem_nome_74)"/>
          <path id="Caminho_2641" data-name="Caminho 2641" d="M165.35,282,14.1,194.66c-2.12-1.21-1.85-3.36.61-4.77L116,131.4c2.42-1.42,6.16-1.58,8.28-.35l151.23,87.31c2.12,1.21,1.86,3.37-.6,4.78l-101.3,58.47C171.18,283,167.47,283.17,165.35,282Z" style="fill: #adb0bf"/>
          <path id="Caminho_2642" data-name="Caminho 2642" d="M12.68,192.66v-2.85l3.21,1.34Z" style="fill: #adb0bf"/>
          <path id="Caminho_2643" data-name="Caminho 2643" d="M277,220.47v-2.79l-2.37.82,1.57,2.31Z" style="fill: #adb0bf"/>
          <path id="Caminho_2644" data-name="Caminho 2644" d="M165.35,279.55,14.1,192.24c-2.12-1.21-1.85-3.36.61-4.77L116,129c2.42-1.41,6.16-1.57,8.28-.34L275.53,216c2.12,1.21,1.86,3.36-.6,4.77L173.63,279.2C171.18,280.62,167.47,280.77,165.35,279.55Z" style="fill: #e1e3ee"/>
          <path id="Caminho_2645" data-name="Caminho 2645" d="M165.35,279.18,14.1,191.86c-2.12-1.21-1.85-3.37.61-4.77L116,128.59c2.42-1.42,6.16-1.57,8.28-.34l151.23,87.31c2.12,1.21,1.86,3.37-.6,4.78l-101.3,58.49C171.18,280.25,167.47,280.4,165.35,279.18Z" style="fill: #d2d4e1"/>
          <path id="Caminho_2646" data-name="Caminho 2646" d="M113.22,148.32l-7-4.06c-.61-.34-.5-.92.15-1.3l6.73-3.88a2.47,2.47,0,0,1,2.23-.09l7,4.06c.57.34.5.92-.16,1.3l-6.72,3.88A2.49,2.49,0,0,1,113.22,148.32Z" style="fill: #303341"/>
          <path id="Caminho_2647" data-name="Caminho 2647" d="M123.19,154.08l-7-4.07c-.57-.33-.5-.91.17-1.3l6.71-3.87a2.48,2.48,0,0,1,2.25-.09l7,4.06c.6.33.5.91-.16,1.29L125.43,154A2.46,2.46,0,0,1,123.19,154.08Z" style="fill: #303341"/>
          <path id="Caminho_2648" data-name="Caminho 2648" d="M133.27,159.9l-7-4.07c-.61-.33-.5-.91.16-1.29l6.72-3.88a2.49,2.49,0,0,1,2.24-.1l7,4.07c.61.33.5.91-.16,1.3l-6.72,3.87A2.49,2.49,0,0,1,133.27,159.9Z" style="fill: #303341"/>
          <path id="Caminho_2649" data-name="Caminho 2649" d="M143.12,165.58l-7-4.06c-.58-.33-.5-.91.16-1.29l6.72-3.88a2.49,2.49,0,0,1,2.24-.1l7.05,4.07c.57.33.5.91-.17,1.29l-6.71,3.88A2.48,2.48,0,0,1,143.12,165.58Z" style="fill: #303341"/>
          <path id="Caminho_2650" data-name="Caminho 2650" d="M153.09,171.34l-7-4.06c-.6-.34-.5-.92.16-1.3l6.72-3.88a2.51,2.51,0,0,1,2.25-.09l7,4.06c.58.34.51.91-.16,1.3l-6.72,3.88A2.49,2.49,0,0,1,153.09,171.34Z" style="fill: #303341"/>
          <path id="Caminho_2651" data-name="Caminho 2651" d="M163.06,177.13l-7-4.07c-.57-.33-.51-.91.16-1.29l6.72-3.88a2.46,2.46,0,0,1,2.24-.09l7,4.06c.58.33.51.91-.16,1.29L165.3,177A2.52,2.52,0,0,1,163.06,177.13Z" style="fill: #303341"/>
          <path id="Caminho_2652" data-name="Caminho 2652" d="M173,182.85l-7-4.06c-.58-.33-.51-.91.16-1.29l6.72-3.89a2.52,2.52,0,0,1,2.24-.09l7,4.07c.57.33.5.91-.16,1.29l-6.72,3.88A2.46,2.46,0,0,1,173,182.85Z" style="fill: #303341"/>
          <path id="Caminho_2653" data-name="Caminho 2653" d="M183,188.62l-7-4.07c-.58-.34-.51-.91.15-1.3l6.73-3.87a2.44,2.44,0,0,1,2.23-.1l7.05,4.07c.6.33.5.91-.16,1.29l-6.73,3.87A2.49,2.49,0,0,1,183,188.62Z" style="fill: #303341"/>
          <path id="Caminho_2654" data-name="Caminho 2654" d="M193,194.36l-7.05-4.06c-.57-.34-.5-.92.16-1.3l6.72-3.87a2.48,2.48,0,0,1,2.25-.1l7,4.07c.58.33.51.91-.15,1.29l-6.72,3.88A2.49,2.49,0,0,1,193,194.36Z" style="fill: #303341"/>
          <path id="Caminho_2655" data-name="Caminho 2655" d="M202.93,200.1l-7-4.06c-.57-.33-.5-.91.16-1.29l6.71-3.87a2.46,2.46,0,0,1,2.24-.09l7,4.06c.58.33.5.91-.16,1.29l-6.7,3.89A2.48,2.48,0,0,1,202.93,200.1Z" style="fill: #303341"/>
          <path id="Caminho_2656" data-name="Caminho 2656" d="M212.9,205.87l-7-4.06c-.58-.33-.5-.91.16-1.29l6.72-3.89a2.52,2.52,0,0,1,2.24-.09l7.05,4.07c.57.33.5.91-.17,1.29l-6.72,3.88A2.49,2.49,0,0,1,212.9,205.87Z" style="fill: #303341"/>
          <path id="Caminho_2657" data-name="Caminho 2657" d="M222.87,211.63l-7-4.06c-.58-.34-.5-.92.16-1.3l6.72-3.88a2.51,2.51,0,0,1,2.25-.09l7,4.06c.6.34.5.91-.17,1.3l-6.7,3.88A2.5,2.5,0,0,1,222.87,211.63Z" style="fill: #303341"/>
          <path id="Caminho_2658" data-name="Caminho 2658" d="M232.84,217.39l-7-4.07c-.61-.34-.51-.91.16-1.3l6.71-3.87a2.51,2.51,0,0,1,2.25-.1l7,4.07c.57.33.5.91-.16,1.29l-6.72,3.88A2.49,2.49,0,0,1,232.84,217.39Z" style="fill: #303341"/>
          <path id="Caminho_2659" data-name="Caminho 2659" d="M247.61,225.91l-11.85-6.85c-.57-.33-.5-.91.17-1.29l6.74-3.88a2.49,2.49,0,0,1,2.24-.09l11.82,6.85c.57.34.5.92-.16,1.3l-6.72,3.88A2.49,2.49,0,0,1,247.61,225.91Z" style="fill: #303341"/>
          <path id="Caminho_2660" data-name="Caminho 2660" d="M118.34,162.43l-7-4.05c-.6-.33-.5-.91.16-1.29l6.72-3.88a2.46,2.46,0,0,1,2.24-.09l7,4c.58.33.51.91-.15,1.3l-6.73,3.88A2.49,2.49,0,0,1,118.34,162.43Z" style="fill: #303341"/>
          <path id="Caminho_2661" data-name="Caminho 2661" d="M128.33,168.2l-7-4.06c-.58-.33-.5-.91.15-1.29l6.73-3.86a2.46,2.46,0,0,1,2.24-.09l7.05,4c.57.33.5.91-.17,1.29l-6.72,3.88A2.46,2.46,0,0,1,128.33,168.2Z" style="fill: #303341"/>
          <path id="Caminho_2662" data-name="Caminho 2662" d="M138.32,174l-7-4.06c-.6-.33-.5-.91.16-1.29l6.72-3.89a2.54,2.54,0,0,1,2.25-.09l7,4.07c.58.33.51.91-.15,1.29l-6.73,3.88A2.44,2.44,0,0,1,138.32,174Z" style="fill: #303341"/>
          <path id="Caminho_2663" data-name="Caminho 2663" d="M148.3,179.73l-7.05-4.07c-.57-.32-.5-.9.17-1.29l6.72-3.89a2.49,2.49,0,0,1,2.24-.1l7,4.09c.58.33.5.9-.16,1.29l-6.72,3.88A2.47,2.47,0,0,1,148.3,179.73Z" style="fill: #303341"/>
          <path id="Caminho_2664" data-name="Caminho 2664" d="M158.2,185.45l-7-4.09c-.57-.33-.5-.91.16-1.29l6.72-3.88a2.46,2.46,0,0,1,2.24-.1l7.05,4.07c.6.33.5.91-.17,1.3l-6.73,3.9A2.5,2.5,0,0,1,158.2,185.45Z" style="fill: #303341"/>
          <path id="Caminho_2665" data-name="Caminho 2665" d="M168.19,191.22l-7-4.07c-.58-.33-.5-.91.16-1.29L168,182a2.49,2.49,0,0,1,2.24-.1l7,4.07c.58.33.5.91-.16,1.29l-6.72,3.88A2.49,2.49,0,0,1,168.19,191.22Z" style="fill: #303341"/>
          <path id="Caminho_2666" data-name="Caminho 2666" d="M178.18,197l-7-4.07c-.58-.33-.51-.91.16-1.29l6.72-3.88a2.46,2.46,0,0,1,2.24-.09l7,4.07c.58.32.51.9-.16,1.29l-6.72,3.88A2.52,2.52,0,0,1,178.18,197Z" style="fill: #303341"/>
          <path id="Caminho_2667" data-name="Caminho 2667" d="M188.16,202.75l-7-4.07c-.57-.33-.5-.91.16-1.29l6.72-3.88a2.46,2.46,0,0,1,2.24-.09l7,4.06c.58.33.5.91-.16,1.29l-6.72,3.88A2.49,2.49,0,0,1,188.16,202.75Z" style="fill: #303341"/>
          <path id="Caminho_2668" data-name="Caminho 2668" d="M198.15,208.51l-7.05-4.06c-.6-.34-.5-.92.17-1.3l6.71-3.88a2.51,2.51,0,0,1,2.25-.09l7,4.06c.58.34.51.91-.15,1.3l-6.72,3.88A2.49,2.49,0,0,1,198.15,208.51Z" style="fill: #303341"/>
          <path id="Caminho_2669" data-name="Caminho 2669" d="M208.13,214.28l-7-4.07c-.57-.33-.5-.91.16-1.29L208,205a2.52,2.52,0,0,1,2.24-.1l7.06,4.07c.58.33.5.91-.16,1.3l-6.72,3.87A2.47,2.47,0,0,1,208.13,214.28Z" style="fill: #303341"/>
          <path id="Caminho_2670" data-name="Caminho 2670" d="M218.12,220.06l-7-4.07c-.58-.33-.51-.91.16-1.29l6.72-3.88a2.49,2.49,0,0,1,2.24-.09l7,4.06c.57.33.5.91-.16,1.29L220.36,220A2.52,2.52,0,0,1,218.12,220.06Z" style="fill: #303341"/>
          <path id="Caminho_2671" data-name="Caminho 2671" d="M228.1,225.81l-7-4.07c-.57-.33-.5-.91.16-1.3l6.72-3.87a2.49,2.49,0,0,1,2.24-.1l7,4.07c.58.33.51.91-.16,1.3l-6.72,3.87A2.46,2.46,0,0,1,228.1,225.81Z" style="fill: #303341"/>
          <path id="Caminho_2672" data-name="Caminho 2672" d="M108.36,156.67l-11.84-6.84c-.58-.33-.51-.91.15-1.29l6.73-3.88a2.44,2.44,0,0,1,2.23-.1l11.87,6.84c.58.34.5.92-.16,1.3l-6.74,3.87A2.49,2.49,0,0,1,108.36,156.67Z" style="fill: #303341"/>
          <path id="Caminho_2673" data-name="Caminho 2673" d="M247.13,226.28l-7-4.06a2.29,2.29,0,0,0-2.1,0l-7.09,4.1c-.61.33-.61.87,0,1.21l.56.32a.58.58,0,0,1,.36.75.56.56,0,0,1-.36.36l-7.54,4.33c-.6.34-.6.88,0,1.21l4.48,2.59a2.33,2.33,0,0,0,2.09,0l7-4.05,1.45-.84,1-.61,1.06-.6,6-3.49C247.7,227.15,247.7,226.61,247.13,226.28Z" style="fill: #303341"/>
          <path id="Caminho_2674" data-name="Caminho 2674" d="M74.61,170.66l-7-4.07c-.6-.33-.5-.91.16-1.29l6.72-3.89a2.46,2.46,0,0,1,2.24-.09l7,4.06c.58.33.5.91-.16,1.29l-6.72,3.88A2.49,2.49,0,0,1,74.61,170.66Z" style="fill: #303341"/>
          <path id="Caminho_2675" data-name="Caminho 2675" d="M84.55,176.4l-7-4.07c-.6-.33-.5-.91.16-1.29l6.72-3.88a2.46,2.46,0,0,1,2.24-.09l7,4.06c.58.33.5.91-.16,1.29l-6.72,3.89A2.52,2.52,0,0,1,84.55,176.4Z" style="fill: #303341"/>
          <path id="Caminho_2676" data-name="Caminho 2676" d="M94.49,182.13l-7-4.06c-.6-.33-.51-.91.16-1.29l6.72-3.89a2.52,2.52,0,0,1,2.24-.09l7,4.07c.58.33.51.91-.16,1.29L96.71,182A2.48,2.48,0,0,1,94.49,182.13Z" style="fill: #303341"/>
          <path id="Caminho_2677" data-name="Caminho 2677" d="M179.14,231l-7-4.07c-.61-.33-.5-.91.16-1.29l6.72-3.88a2.49,2.49,0,0,1,2.24-.1l7,4.07c.6.34.5.91-.16,1.3l-6.71,3.9A2.46,2.46,0,0,1,179.14,231Z" style="fill: #303341"/>
          <path id="Caminho_2678" data-name="Caminho 2678" d="M189.08,236.75l-7-4.07c-.61-.33-.5-.91.16-1.29l6.72-3.88a2.46,2.46,0,0,1,2.24-.09l7,4.06c.6.33.5.91-.16,1.29l-6.72,3.89A2.52,2.52,0,0,1,189.08,236.75Z" style="fill: #303341"/>
          <path id="Caminho_2679" data-name="Caminho 2679" d="M199,242.49l-7-4.07c-.58-.33-.5-.91.16-1.29l6.72-3.88a2.46,2.46,0,0,1,2.24-.09l7,4.06c.61.33.5.91-.16,1.29l-6.72,3.88a2.49,2.49,0,0,1-2.24.1Z" style="fill: #303341"/>
          <path id="Caminho_2680" data-name="Caminho 2680" d="M209,248.22l-7-4.06c-.57-.33-.5-.91.16-1.29l6.73-3.89a2.5,2.5,0,0,1,2.23-.09l7.05,4.07c.6.33.5.91-.16,1.29l-6.7,3.88A2.49,2.49,0,0,1,209,248.22Z" style="fill: #303341"/>
          <path id="Caminho_2681" data-name="Caminho 2681" d="M107,189.35l-9.6-5.54c-.58-.33-.51-.91.16-1.3l6.72-3.88a2.52,2.52,0,0,1,2.24-.09l9.6,5.55c.61.33.51.9-.16,1.29l-6.72,3.88a2.46,2.46,0,0,1-2.24.09Z" style="fill: #303341"/>
          <path id="Caminho_2682" data-name="Caminho 2682" d="M169.2,225.27l-9.6-5.54c-.6-.34-.5-.92.16-1.3l6.72-3.88a2.49,2.49,0,0,1,2.24-.09l9.6,5.54c.58.34.5.91-.15,1.3l-6.73,3.87A2.46,2.46,0,0,1,169.2,225.27Z" style="fill: #303341"/>
          <path id="Caminho_2683" data-name="Caminho 2683" d="M156.7,218.05l-46.81-27c-.57-.33-.5-.91.16-1.29l6.72-3.88a2.49,2.49,0,0,1,2.24-.09l46.81,27c.58.34.5.92-.16,1.3L158.94,218A2.49,2.49,0,0,1,156.7,218.05Z" style="fill: #303341"/>
          <path id="Caminho_2684" data-name="Caminho 2684" d="M111.39,169.58l-7-4.06c-.57-.33-.5-.91.17-1.3l6.71-3.88a2.49,2.49,0,0,1,2.24-.09l7.06,4.06c.6.34.5.92-.17,1.3l-6.71,3.88A2.5,2.5,0,0,1,111.39,169.58Z" style="fill: #303341"/>
          <path id="Caminho_2685" data-name="Caminho 2685" d="M121.35,175.31l-7-4.07c-.58-.33-.5-.9.15-1.29l6.73-3.88a2.49,2.49,0,0,1,2.24-.09l7,4.07c.6.33.5.9-.16,1.29l-6.72,3.88a2.48,2.48,0,0,1-2.25.09Z" style="fill: #303341"/>
          <path id="Caminho_2686" data-name="Caminho 2686" d="M131.31,181.07l-7-4.06c-.6-.33-.5-.91.17-1.29l6.72-3.89a2.52,2.52,0,0,1,2.24-.09l7,4.07c.6.33.51.91-.16,1.29L133.55,181A2.46,2.46,0,0,1,131.31,181.07Z" style="fill: #303341"/>
          <path id="Caminho_2687" data-name="Caminho 2687" d="M141.27,186.8l-7.05-4.06c-.6-.33-.5-.91.17-1.3l6.7-3.85a2.46,2.46,0,0,1,2.24-.09l7,4.06c.6.33.5.91-.16,1.29l-6.7,3.88A2.46,2.46,0,0,1,141.27,186.8Z" style="fill: #303341"/>
          <path id="Caminho_2688" data-name="Caminho 2688" d="M151.22,192.58l-7-4.07c-.6-.33-.5-.91.16-1.29l6.72-3.88a2.46,2.46,0,0,1,2.24-.09l7,4.06c.61.33.5.91-.16,1.29l-6.72,3.89A2.52,2.52,0,0,1,151.22,192.58Z" style="fill: #303341"/>
          <path id="Caminho_2689" data-name="Caminho 2689" d="M161.18,198.33l-7-4.07c-.61-.34-.51-.91.16-1.3l6.74-3.87a2.46,2.46,0,0,1,2.24-.1l7.05,4.07c.57.33.5.91-.17,1.29l-6.71,3.88A2.49,2.49,0,0,1,161.18,198.33Z" style="fill: #303341"/>
          <path id="Caminho_2690" data-name="Caminho 2690" d="M171.14,204.07l-7-4.06c-.57-.34-.5-.92.16-1.3l6.72-3.88a2.51,2.51,0,0,1,2.25-.09l7,4.06c.61.34.51.92-.15,1.3L173.37,204a2.47,2.47,0,0,1-2.23.09Z" style="fill: #303341"/>
          <path id="Caminho_2691" data-name="Caminho 2691" d="M181.1,209.82l-7-4.06c-.57-.33-.5-.91.16-1.3l6.72-3.88a2.51,2.51,0,0,1,2.25-.09l7,4.06c.58.34.51.92-.16,1.3l-6.72,3.88a2.47,2.47,0,0,1-2.23.09Z" style="fill: #303341"/>
          <path id="Caminho_2692" data-name="Caminho 2692" d="M191.05,215.57l-7-4.06c-.58-.33-.5-.91.15-1.3l6.73-3.88a2.47,2.47,0,0,1,2.23-.09l7.05,4.06c.57.34.5.92-.16,1.3l-6.72,3.88A2.48,2.48,0,0,1,191.05,215.57Z" style="fill: #303341"/>
          <path id="Caminho_2693" data-name="Caminho 2693" d="M201,221.32l-7-4.07c-.57-.33-.5-.91.17-1.29l6.71-3.88a2.48,2.48,0,0,1,2.25-.09l7,4.07c.58.32.5.9-.16,1.29l-6.72,3.87A2.46,2.46,0,0,1,201,221.32Z" style="fill: #303341"/>
          <path id="Caminho_2694" data-name="Caminho 2694" d="M211,227.07,203.92,223c-.57-.33-.5-.91.16-1.29l6.72-3.88a2.48,2.48,0,0,1,2.25-.09l7,4.06c.61.33.51.91-.15,1.29L213.2,227A2.5,2.5,0,0,1,211,227.07Z" style="fill: #303341"/>
          <path id="Caminho_2695" data-name="Caminho 2695" d="M220.9,232.82l-7-4.07c-.57-.33-.5-.91.17-1.29l6.71-3.88a2.46,2.46,0,0,1,2.24-.09l7.05,4.06c.57.33.5.91-.17,1.3l-6.7,3.91A2.5,2.5,0,0,1,220.9,232.82Z" style="fill: #303341"/>
          <path id="Caminho_2696" data-name="Caminho 2696" d="M101.44,163.82l-14.57-8.4c-.6-.33-.5-.91.16-1.29l6.72-3.89a2.54,2.54,0,0,1,2.25-.09l14.56,8.41c.6.33.5.91-.16,1.29l-6.72,3.88A2.46,2.46,0,0,1,101.44,163.82Z" style="fill: #303341"/>
          <path id="Caminho_2697" data-name="Caminho 2697" d="M96.79,172.29l-7-4c-.57-.34-.51-.91.16-1.3l6.72-3.87a2.46,2.46,0,0,1,2.24-.1l7,4.07c.58.33.51.91-.16,1.3L99,172.21A2.49,2.49,0,0,1,96.79,172.29Z" style="fill: #303341"/>
          <path id="Caminho_2698" data-name="Caminho 2698" d="M106.75,178.05l-7-4.06c-.57-.34-.5-.92.17-1.3l6.71-3.88a2.51,2.51,0,0,1,2.25-.09l7,4.06c.6.34.5.92-.16,1.3L109,178a2.47,2.47,0,0,1-2.23.09Z" style="fill: #303341"/>
          <path id="Caminho_2699" data-name="Caminho 2699" d="M116.7,183.78l-7.06-4.05c-.6-.33-.5-.9.17-1.29l6.71-3.88a2.51,2.51,0,0,1,2.25-.09l7,4.07c.61.33.5.9-.16,1.29l-6.72,3.88A2.5,2.5,0,0,1,116.7,183.78Z" style="fill: #303341"/>
          <path id="Caminho_2700" data-name="Caminho 2700" d="M126.65,189.55l-7-4.07c-.6-.33-.5-.91.17-1.29l6.72-3.88a2.44,2.44,0,0,1,2.23-.09l7.05,4.06c.57.33.5.91-.17,1.29l-6.72,3.89A2.52,2.52,0,0,1,126.65,189.55Z" style="fill: #303341"/>
          <path id="Caminho_2701" data-name="Caminho 2701" d="M136.61,195.3l-7-4.07c-.58-.33-.5-.91.16-1.29l6.72-3.88a2.46,2.46,0,0,1,2.24-.09l7,4.06c.57.33.51.91-.16,1.29l-6.72,3.88A2.46,2.46,0,0,1,136.61,195.3Z" style="fill: #303341"/>
          <path id="Caminho_2702" data-name="Caminho 2702" d="M146.56,201l-7-4.06c-.57-.34-.5-.91.16-1.3l6.73-3.88a2.47,2.47,0,0,1,2.23-.09l7.05,4.06c.57.34.5.92-.17,1.3L148.81,201A2.51,2.51,0,0,1,146.56,201Z" style="fill: #303341"/>
          <path id="Caminho_2703" data-name="Caminho 2703" d="M156.52,206.79l-7-4.06c-.58-.33-.5-.91.16-1.3l6.72-3.88a2.49,2.49,0,0,1,2.24-.09l7,4.06c.58.34.5.92-.16,1.3l-6.71,3.88A2.51,2.51,0,0,1,156.52,206.79Z" style="fill: #303341"/>
          <path id="Caminho_2704" data-name="Caminho 2704" d="M166.48,212.54l-7-4.07c-.57-.33-.5-.9.16-1.29l6.72-3.88a2.46,2.46,0,0,1,2.24-.09l7,4.07c.58.32.51.9-.16,1.29l-6.72,3.88A2.49,2.49,0,0,1,166.48,212.54Z" style="fill: #303341"/>
          <path id="Caminho_2705" data-name="Caminho 2705" d="M176.43,218.29l-7-4.07c-.58-.33-.5-.91.16-1.29l6.72-3.88a2.46,2.46,0,0,1,2.24-.09l7,4.06c.58.33.5.91-.15,1.29l-6.73,3.88A2.49,2.49,0,0,1,176.43,218.29Z" style="fill: #303341"/>
          <path id="Caminho_2706" data-name="Caminho 2706" d="M186.39,224l-7-4.07c-.58-.33-.5-.91.16-1.3l6.72-3.87a2.49,2.49,0,0,1,2.24-.1l7,4.07c.58.33.51.91-.16,1.3l-6.72,3.87A2.47,2.47,0,0,1,186.39,224Z" style="fill: #303341"/>
          <path id="Caminho_2707" data-name="Caminho 2707" d="M196.35,229.78l-7-4.06c-.57-.33-.5-.91.16-1.3l6.72-3.88a2.51,2.51,0,0,1,2.25-.09l7,4.06c.58.34.51.92-.15,1.3l-6.73,3.88A2.47,2.47,0,0,1,196.35,229.78Z" style="fill: #303341"/>
          <path id="Caminho_2708" data-name="Caminho 2708" d="M218.62,242.65l-19.35-11.18c-.57-.33-.51-.91.16-1.3l6.72-3.88a2.52,2.52,0,0,1,2.24-.09l19.35,11.18c.57.33.5.91-.16,1.3l-6.72,3.87A2.49,2.49,0,0,1,218.62,242.65Z" style="fill: #303341"/>
          <path id="Caminho_2709" data-name="Caminho 2709" d="M86.83,166.56,77.23,161c-.6-.33-.5-.91.16-1.29l6.72-3.88a2.46,2.46,0,0,1,2.24-.09l9.6,5.54c.58.33.5.91-.16,1.3l-6.71,3.88A2.51,2.51,0,0,1,86.83,166.56Z" style="fill: #303341"/>
          <path id="Caminho_2710" data-name="Caminho 2710" d="M257.61,220.14,116.22,138.51c-.61-.33-.51-.91.16-1.3l3.36-1.93a2.49,2.49,0,0,1,2.24-.1l141.39,81.63c.58.33.5.91-.16,1.29l-3.36,2A2.49,2.49,0,0,1,257.61,220.14Z" style="fill: #303341"/>
          <path id="Caminho_2711" data-name="Caminho 2711" d="M170,229.42a2.14,2.14,0,0,1-1,1L130.13,252.9a4.78,4.78,0,0,1-4.31.17L59.31,214.68a1.48,1.48,0,0,1-.66-.67c-.24-.6.1-1.28,1-1.78l38.91-22.47a4.8,4.8,0,0,1,4.32-.18L169.37,228A1.18,1.18,0,0,1,170,229.42Z" style="fill: #adb0bf"/>
          <path id="Caminho_2712" data-name="Caminho 2712" d="M170,229.42a2.09,2.09,0,0,1-1,1L130.13,252.9a4.78,4.78,0,0,1-4.31.17L59.31,214.68a1.46,1.46,0,0,1-.65-.67,2.23,2.23,0,0,1,1-1l38.91-22.46a4.78,4.78,0,0,1,4.31-.18l66.52,38.39A1.48,1.48,0,0,1,170,229.42Z" style="fill: #bfc2cc"/>
          <path id="Caminho_2713" data-name="Caminho 2713" d="M268.37,214,127,132.32a2.5,2.5,0,0,1-1-2v-1.67c0-.77.46-1.12,1-.78L268.4,209.51a2.44,2.44,0,0,1,1,2v1.66C269.41,213.93,269,214.28,268.37,214Z" style="fill: #303341"/>
          <path id="Caminho_2714" data-name="Caminho 2714" d="M148.34,124.26l-14-8.05a7.61,7.61,0,0,1-3.16-6v-15c0-2.33,1.42-3.4,3.16-2.42l14,8.08a7.58,7.58,0,0,1,3.17,6v15C151.49,124.19,150.07,125.26,148.34,124.26Z" style="fill: #e6e6ee"/>
          <path id="Caminho_2715" data-name="Caminho 2715" d="M148.29,90l-13.95-8c-1.74-1-3.17-5.14-3.17-7.15V57.26c0-2.34,1.43-3.41,3.17-2.42l13.95,8a7.58,7.58,0,0,1,3.17,6V86.42C151.46,88.48,150,91,148.29,90Z" style="fill: #e6e6ee"/>
          <path id="Caminho_2716" data-name="Caminho 2716" d="M141.39,78.27a11.41,11.41,0,0,1-5.14-8.92c0-3.28,2.31-4.61,5.14-3a11.42,11.42,0,0,1,5.16,8.92C146.55,78.57,144.24,79.91,141.39,78.27Zm0-10.37c-2.11-1.21-3.83-.22-3.83,2.21a8.49,8.49,0,0,0,3.83,6.66c2.12,1.21,3.84.23,3.84-2.21a8.47,8.47,0,0,0-3.84-6.66Z" style="fill: #5f8ddf"/>
          <path id="Caminho_2717" data-name="Caminho 2717" d="M142.81,75.85l-2.34-3.72V69l1.32.77v2.4l1.89,3Z" style="fill: #5f8ddf"/>
          <path id="Caminho_2718" data-name="Caminho 2718" d="M148.27,53l-14-8.05c-1.74-1-3.16-5.56-3.16-7.58V21.23c0-2,1.42-2.84,3.16-1.81l14,8A7,7,0,0,1,151.44,33v16.1C151.44,51.06,150,54,148.27,53Z" style="fill: #e6e6ee"/>
          <path id="Caminho_2719" data-name="Caminho 2719" d="M141.3,33.67c-.84-.48-1.52-.09-1.52.88a3.35,3.35,0,0,0,1.52,2.63c.84.49,1.52.1,1.52-.87A3.41,3.41,0,0,0,141.3,33.67Zm4,.61-1.21-.71a1,1,0,0,1-.39-.56l-.32-1.28a1.12,1.12,0,0,0-.4-.56l-3.45-2c-.17-.09-.35-.05-.4.11l-.31.9a.26.26,0,0,1-.34.14l-.06,0-1.21-.71c-.56-.32-1-.06-1,.61v5.27a2.23,2.23,0,0,0,1,1.75l8.11,4.69c.56.32,1,.06,1-.6V36a2.25,2.25,0,0,0-1-1.76Zm-4,4.1A5.62,5.62,0,0,1,138.76,34c0-1.62,1.14-2.28,2.54-1.46a5.58,5.58,0,0,1,2.53,4.39c0,1.59-1.13,2.25-2.53,1.44Zm3.7-2.32a.75.75,0,0,1-.35-.6c0-.23.15-.33.35-.21a.75.75,0,0,1,.35.6c0,.22-.15.31-.35.19Z" style="fill: #5f8ddf"/>
          <path id="Caminho_2720" data-name="Caminho 2720" d="M145.7,109.62c0,2.72-4.28,6.27-4.28,6.27s-4.28-8.47-4.28-11.21,1.92-3.84,4.28-2.48A9.45,9.45,0,0,1,145.7,109.62Z" style="fill: #5f8ddf"/>
          <ellipse id="Elipse_671" data-name="Elipse 671" cx="141.42" cy="106.96" rx="2.29" ry="3.95" transform="translate(-34.53 85.04) rotate(-30)" style="fill: #e6e6ee"/>
          <path id="Caminho_2721" data-name="Caminho 2721" d="M247,146.29,162.56,97.55A6.16,6.16,0,0,1,160,92.63V35.9c0-1.9,1.15-2.77,2.57-1.95L247,82.69a6.18,6.18,0,0,1,2.57,4.93v56.73C249.55,146.24,248.4,147.11,247,146.29Z" style="fill: #e6e6ee"/>
          <path id="Caminho_2722" data-name="Caminho 2722" d="M237.23,105.05,171.8,67.28a6.94,6.94,0,0,1-2.88-5.49V57.52c0-2.12,1.29-3.09,2.88-2.17l65.43,37.77a6.85,6.85,0,0,1,2.86,5.48v4.27C240.09,105,238.81,106,237.23,105.05Z" style="fill: #fff"/>
          <path id="Caminho_2723" data-name="Caminho 2723" d="M201.64,103.72,171.79,86.49A6.88,6.88,0,0,1,168.92,81V76.76c0-2.12,1.29-3.09,2.87-2.18l29.85,17.24a6.86,6.86,0,0,1,2.87,5.48v4.24C204.51,103.66,203.23,104.63,201.64,103.72Z" style="fill: #5f8ddf"/>
          <path id="Caminho_2724" data-name="Caminho 2724" d="M264.35,158.77s-31.82,7-57.55-21.56-46.72-24.92-46.72-24.92v17.84l104.27,60.19Z" style="fill: url(#Gradiente_sem_nome_2)"/>
          <path id="Caminho_2725" data-name="Caminho 2725" d="M264.35,158.77s-31.82,7-57.55-21.56-46.72-24.92-46.72-24.92" style="fill: none;stroke: #c8cad8;stroke-miterlimit: 10;stroke-width: 1.05999994277954px"/>
        </g>
        <path id="Caminho_2798" data-name="Caminho 2798" d="M283.42,170.57l-50.5-29.16c-3.17-1.81-5.75-6.74-5.75-11V51c0-4.24,2.57-6.17,5.75-4.34l50.5,29.16c3.17,1.81,5.74,6.74,5.74,11v79.47C289.16,170.48,286.59,172.4,283.42,170.57Z" style="fill: #18212e"/>
        <path id="Caminho_2799" data-name="Caminho 2799" d="M285.44,171.73l1.74-.86L286,168.58Z" style="fill: #252149"/>
        <path id="Caminho_2800" data-name="Caminho 2800" d="M228.12,46.86a10.2,10.2,0,0,1,1.6-.76L231,48.63Z" style="fill: #252149"/>
        <path id="Caminho_2801" data-name="Caminho 2801" d="M282.1,171.23l-50.51-29.17c-3.17-1.82-5.74-6.75-5.74-11V51.65c0-4.24,2.57-6.18,5.74-4.34L282.1,76.47c3.17,1.81,5.74,6.73,5.74,11v79.46C287.84,171.12,285.27,173.06,282.1,171.23Z" style="fill: #2f4468"/>
        <path id="Caminho_2802" data-name="Caminho 2802" d="M240.78,63.87l-9.19-5.3V55.26l9.19,5.3Z" style="fill: #90b5ea"/>
        <path id="Caminho_2803" data-name="Caminho 2803" d="M281.53,87.4l-39-22.53V61.56l39,22.53Z" style="fill: #5f8ddf"/>
        <path id="Caminho_2804" data-name="Caminho 2804" d="M240.78,74.48l-9.19-5.3V65.86l9.19,5.31Z" style="fill: #90b5ea"/>
        <path id="Caminho_2805" data-name="Caminho 2805" d="M268.33,90.38,242.5,75.47V72.16l25.82,14.91Z" style="fill: #e6ca41"/>
        <path id="Caminho_2806" data-name="Caminho 2806" d="M240.78,79.78l-9.19-5.3V71.17l9.19,5.29Z" style="fill: #9b94dc"/>
        <path id="Caminho_2807" data-name="Caminho 2807" d="M274.64,99.33,242.5,80.77V77.46L274.64,96Z" style="fill: #e1825a"/>
        <path id="Caminho_2808" data-name="Caminho 2808" d="M240.78,85.08l-9.19-5.3V76.46l9.19,5.31Z" style="fill: #90b5ea"/>
        <path id="Caminho_2809" data-name="Caminho 2809" d="M264.88,99,242.5,86.08V82.76l22.38,12.92Z" style="fill: #90b5ea"/>
        <path id="Caminho_2810" data-name="Caminho 2810" d="M240.78,69.18l-9.19-5.31V60.56l9.19,5.3Z" style="fill: #90b5ea"/>
        <path id="Caminho_2811" data-name="Caminho 2811" d="M262,81.44,242.5,70.17V66.85L262,78.12Z" style="fill: #4a3df7"/>
        <path id="Caminho_2812" data-name="Caminho 2812" d="M240.78,90.38l-9.19-5.3V81.77l9.19,5.3Z" style="fill: #90b5ea"/>
        <path id="Caminho_2813" data-name="Caminho 2813" d="M254,98,242.5,91.38V88.06L254,94.69Z" style="fill: #5f8ddf"/>
        <path id="Caminho_2814" data-name="Caminho 2814" d="M240.78,101l-9.19-5.3V92.37l9.19,5.3Z" style="fill: #90b5ea"/>
        <path id="Caminho_2815" data-name="Caminho 2815" d="M278.66,122.85,242.5,102V98.67l36.16,20.87Z" style="fill: #e6ca41"/>
        <path id="Caminho_2816" data-name="Caminho 2816" d="M240.78,106.28l-9.19-5.3V97.67l9.19,5.3Z" style="fill: #90b5ea"/>
        <path id="Caminho_2817" data-name="Caminho 2817" d="M253.4,113.58l-10.9-6.3V104l10.9,6.29Z" style="fill: #e1825a"/>
        <path id="Caminho_2818" data-name="Caminho 2818" d="M240.78,111.58l-9.19-5.3V103l9.19,5.3Z" style="fill: #90b5ea"/>
        <path id="Caminho_2819" data-name="Caminho 2819" d="M274.64,131.14,242.5,112.58v-3.31l32.14,18.55Z" style="fill: #90b5ea"/>
        <path id="Caminho_2820" data-name="Caminho 2820" d="M240.78,95.68l-9.19-5.3V87.07l9.19,5.3Z" style="fill: #90b5ea"/>
        <path id="Caminho_2821" data-name="Caminho 2821" d="M272.91,114.24,242.5,96.67V93.36l30.41,17.57Z" style="fill: #4a3df7"/>
        <path id="Caminho_2822" data-name="Caminho 2822" d="M240.78,116.89l-9.19-5.3v-3.32l9.19,5.31Z" style="fill: #90b5ea"/>
        <path id="Caminho_2823" data-name="Caminho 2823" d="M246.52,120.2l-4-2.32v-3.31l4,2.32Z" style="fill: #5f8ddf"/>
        <path id="Caminho_2824" data-name="Caminho 2824" d="M240.78,127.49l-9.19-5.3v-3.31l9.19,5.3Z" style="fill: #90b5ea"/>
        <path id="Caminho_2825" data-name="Caminho 2825" d="M250,132.79l-7.46-4.3v-3.32l7.46,4.31Z" style="fill: #e6ca41"/>
        <path id="Caminho_2826" data-name="Caminho 2826" d="M240.78,132.79l-9.19-5.3v-3.31l9.19,5.3Z" style="fill: #90b5ea"/>
        <path id="Caminho_2827" data-name="Caminho 2827" d="M262,145.06,242.5,133.79v-3.31L262,141.74Z" style="fill: #e1825a"/>
        <path id="Caminho_2828" data-name="Caminho 2828" d="M240.78,138.1l-9.19-5.31v-3.31l9.19,5.3Z" style="fill: #90b5ea"/>
        <path id="Caminho_2829" data-name="Caminho 2829" d="M273.49,157l-31-17.9v-3.32l31,17.9Z" style="fill: #90b5ea"/>
        <path id="Caminho_2830" data-name="Caminho 2830" d="M240.78,122.19l-9.19-5.3v-3.31l9.19,5.3Z" style="fill: #90b5ea"/>
        <path id="Caminho_2831" data-name="Caminho 2831" d="M281.53,145.72l-39-22.53v-3.32l39,22.54Z" style="fill: #4a3df7"/>
      </g>
      <g>
        <g id="Grupo_280" data-name="Grupo 280">
          <path id="Caminho_3229" data-name="Caminho 3229" d="M36.38,60.24,13.92,73.34l-13.83-8,22.46-13.1Z" style="fill: #bdd3f0"/>
          <path id="Caminho_3230" data-name="Caminho 3230" d="M13.91,106.74,0,98.7V65.3l13.91,8Z" style="fill: #466aa2"/>
          <path id="Caminho_3231" data-name="Caminho 3231" d="M36.37,93.63,13.91,106.74V73.34l22.46-13.1Z" style="fill: #2f4468"/>
          <path id="Caminho_3232" data-name="Caminho 3232" d="M13.91,81.42,0,73.38V73l13.91,8Z" style="fill: #293e4e"/>
          <path id="Caminho_3233" data-name="Caminho 3233" d="M13.91,85.25,0,77.26v-.43l13.91,8Z" style="fill: #293e4e"/>
          <path id="Caminho_3234" data-name="Caminho 3234" d="M13.91,89.13,0,81.08v-.42l13.91,8Z" style="fill: #293e4e"/>
          <path id="Caminho_3235" data-name="Caminho 3235" d="M13.91,93,0,84.91v-.42l13.91,8Z" style="fill: #293e4e"/>
          <path id="Caminho_3288" data-name="Caminho 3288" d="M59,73.3,36.51,86.4l-13.83-8L45.14,65.34Z" style="fill: #bdd3f0"/>
          <path id="Caminho_3289" data-name="Caminho 3289" d="M36.51,119.8l-13.92-8V78.36l13.92,8Z" style="fill: #466aa2"/>
          <path id="Caminho_3290" data-name="Caminho 3290" d="M59,106.7,36.5,119.8V86.4L59,73.3Z" style="fill: #2f4468"/>
          <path id="Caminho_3291" data-name="Caminho 3291" d="M36.51,94.49l-13.92-8v-.38l13.92,8Z" style="fill: #293e4e"/>
          <path id="Caminho_3292" data-name="Caminho 3292" d="M36.51,98.32l-13.92-8v-.38l13.92,8Z" style="fill: #293e4e"/>
          <path id="Caminho_3293" data-name="Caminho 3293" d="M36.51,102.14l-13.92-8v-.43l13.92,8Z" style="fill: #293e4e"/>
          <path id="Caminho_3294" data-name="Caminho 3294" d="M36.51,106,22.59,98v-.43l13.92,8Z" style="fill: #293e4e"/>
          <path id="Caminho_3347" data-name="Caminho 3347" d="M81.6,86.36,59.1,99.46l-13.83-8,22.51-13.1Z" style="fill: #bdd3f0"/>
          <path id="Caminho_3348" data-name="Caminho 3348" d="M59.1,132.86l-13.92-8V91.42l13.92,8Z" style="fill: #466aa2"/>
          <path id="Caminho_3349" data-name="Caminho 3349" d="M81.56,119.76,59.1,132.86V99.46l22.46-13.1Z" style="fill: #2f4468"/>
          <path id="Caminho_3350" data-name="Caminho 3350" d="M59.1,107.55l-13.92-8v-.43l13.92,8Z" style="fill: #293e4e"/>
          <path id="Caminho_3351" data-name="Caminho 3351" d="M59.1,111.38l-13.92-8V103l13.92,8Z" style="fill: #293e4e"/>
          <path id="Caminho_3352" data-name="Caminho 3352" d="M59.1,115.21l-13.92-8v-.43l13.92,8Z" style="fill: #293e4e"/>
          <path id="Caminho_3353" data-name="Caminho 3353" d="M59.1,119l-13.92-8v-.43l13.92,8Z" style="fill: #293e4e"/>
          <path id="Caminho_3406" data-name="Caminho 3406" d="M12.64,78.06c0,.47-.34.64-.73.43a1.58,1.58,0,0,1-.72-1.24c0-.46.34-.63.72-.42a1.56,1.56,0,0,1,.73,1.23" style="fill: #d57358"/>
          <path id="Caminho_3407" data-name="Caminho 3407" d="M35.44,91.25c0,.47-.34.64-.72.43A1.57,1.57,0,0,1,34,90.44c0-.46.34-.64.73-.42a1.58,1.58,0,0,1,.72,1.23" style="fill: #abcf60"/>
          <path id="Caminho_3408" data-name="Caminho 3408" d="M58.25,104.27c0,.47-.34.64-.73.43a1.58,1.58,0,0,1-.72-1.24c0-.47.34-.64.72-.42a1.59,1.59,0,0,1,.73,1.23" style="fill: #d57358"/>
        </g>
        <g id="Grupo_281" data-name="Grupo 281">
          <path id="Caminho_3409" data-name="Caminho 3409" d="M29.48,23.9v-.38A21.28,21.28,0,0,1,39.14,6.88c2.55-1.44,4.85-1.66,6.55-.81l4.43,2.6a9.66,9.66,0,0,1,1.57-1.11C53.86,6.29,55.31,6,57,7l2,1.53a16.54,16.54,0,0,1,1.53-1.11A5.25,5.25,0,0,1,65.6,7L73.9,12a5,5,0,0,0-4.81.55,10.75,10.75,0,0,0-2.21,1.7,3.94,3.94,0,0,0-.34-.72.36.36,0,0,0,0-.09,2.82,2.82,0,0,0-.43-.55L66,12.84a3.6,3.6,0,0,0-.52-.43s0,0-.08,0a4.79,4.79,0,0,0-5.15.38,12.57,12.57,0,0,0-2,1.45l-.21.21a10.63,10.63,0,0,0-1,1,5.16,5.16,0,0,0-.21-.77.75.75,0,0,1-.09-.29,1.33,1.33,0,0,0-.17-.43c0-.13-.12-.21-.17-.34s-.08-.21-.12-.29a2.84,2.84,0,0,0-.22-.34c0-.09-.08-.13-.12-.22a1.38,1.38,0,0,0-.3-.34l-.13-.13L55.22,12l-.08-.08a1.55,1.55,0,0,0-.43-.29l0-.05c-1.74-1.1-4.26-1-7,.56A21.22,21.22,0,0,0,38,28.72v.39a17.39,17.39,0,0,0-5.78,12,5.51,5.51,0,0,0,2.08,4.84c-1.45-.89-7.23-4.38-8.3-5a.3.3,0,0,0-.17-.08h0a5.5,5.5,0,0,1-2.17-4.94,17.48,17.48,0,0,1,5.83-11.95" style="fill: #37517c"/>
          <path id="Caminho_3410" data-name="Caminho 3410" d="M38,29.09v-.38a21.28,21.28,0,0,1,9.66-16.64c4.64-2.68,8.52-1.15,9.45,3.28a12.85,12.85,0,0,1,3.1-2.64c3.07-1.79,5.66-1,6.64,1.57a12.15,12.15,0,0,1,2.21-1.7A4.94,4.94,0,0,1,73.86,12l.38.25h.05a5.08,5.08,0,0,1,1.78,4.3,15.49,15.49,0,0,1-7,12.12L40,45.47h0a5.56,5.56,0,0,1-5.36.6h0a1.11,1.11,0,0,0-.3-.17,5.55,5.55,0,0,1-2.08-4.85A17.22,17.22,0,0,1,38,29.1" style="fill: #5f8ddf"/>
          <path id="Caminho_3411" data-name="Caminho 3411" d="M55.74,21.82,58,23.09l-8,13.7-2.25-1.23Z" style="fill: #607337"/>
          <path id="Caminho_3412" data-name="Caminho 3412" d="M54.08,34.41v6.26l-2.22-1.24v-3.7Z" style="fill: #7f9647"/>
          <path id="Caminho_3413" data-name="Caminho 3413" d="M50,36.79,58,23l8,4.55-4.09,2.38v6.21l-7.78,4.51V34.41Z" style="fill: #abcf60"/>
          <path id="Caminho_3414" data-name="Caminho 3414" d="M59,40.88,62.24,39a1,1,0,0,1,.81-.09h0l2.68,1.53h0a.82.82,0,0,0-.81.09l-3.23,1.87a3.08,3.08,0,0,0-1.27,2.47v3.23a1.3,1.3,0,0,0,.38,1h0l-2.64-1.48h0a1.18,1.18,0,0,1-.47-1V43.39A3.27,3.27,0,0,1,59,40.88" style="fill: #c3b67b"/>
          <path id="Caminho_3415" data-name="Caminho 3415" d="M61.74,49.09,65,47.22a3.08,3.08,0,0,0,1.28-2.47V41.52c0-.93-.59-1.4-1.28-1l-3.23,1.87a3.1,3.1,0,0,0-1.27,2.47v3.23c0,1,.55,1.4,1.27,1" style="fill: #f3e294"/>
          <path id="Caminho_3416" data-name="Caminho 3416" d="M49.52,46.41l3.23-1.87a1,1,0,0,1,.81-.09h0L56.24,46h0a.82.82,0,0,0-.81.09l-3.22,1.87a3.07,3.07,0,0,0-1.28,2.47v3.23a1.3,1.3,0,0,0,.38,1h0l-2.64-1.48h0a1.18,1.18,0,0,1-.47-1V48.92a3.16,3.16,0,0,1,1.32-2.51" style="fill: #ad3a1a"/>
          <path id="Caminho_3417" data-name="Caminho 3417" d="M52.25,54.66l3.23-1.87a3.08,3.08,0,0,0,1.27-2.47V47.1c0-.94-.59-1.41-1.27-1L52.25,48A3.07,3.07,0,0,0,51,50.46v3.22c0,.94.55,1.37,1.28,1" style="fill: #d0441d"/>
          <path id="Caminho_3418" data-name="Caminho 3418" d="M40,52l3.23-1.87a.92.92,0,0,1,.81-.08h0l2.68,1.53h0a.81.81,0,0,0-.81.08l-3.23,1.87A3.11,3.11,0,0,0,41.44,56v3.23a1.39,1.39,0,0,0,.38,1h0l-2.64-1.49h0a1.18,1.18,0,0,1-.47-1V54.49A3,3,0,0,1,40,52" style="fill: #466aa2"/>
          <path id="Caminho_3419" data-name="Caminho 3419" d="M42.72,60.2l3.22-1.88a3.06,3.06,0,0,0,1.28-2.46V52.63c0-.94-.6-1.41-1.28-1l-3.22,1.87A3.07,3.07,0,0,0,41.44,56v3.23c0,.93.55,1.4,1.27,1" style="fill: #5f8ddf"/>
          <path id="Caminho_3420" data-name="Caminho 3420" d="M60.16,51.6l3.23-1.87a1,1,0,0,1,.81-.09h0l2.68,1.53h0a.82.82,0,0,0-.81.09l-3.23,1.87a3.08,3.08,0,0,0-1.27,2.47v3.23a1.3,1.3,0,0,0,.38,1h0l-2.64-1.48h0a1.18,1.18,0,0,1-.47-1V54.11a3.28,3.28,0,0,1,1.32-2.51" style="fill: #607337"/>
          <path id="Caminho_3421" data-name="Caminho 3421" d="M62.88,59.85,66.11,58a3.09,3.09,0,0,0,1.28-2.46V52.29c0-.94-.6-1.41-1.28-1l-3.23,1.87a3.08,3.08,0,0,0-1.27,2.47v3.23c0,.93.55,1.36,1.27,1" style="fill: #abcf60"/>
          <path id="Caminho_3422" data-name="Caminho 3422" d="M50.67,57.17,53.9,55.3a.93.93,0,0,1,.81-.08h0l2.68,1.53h0a.81.81,0,0,0-.81.08L53.35,58.7a3.1,3.1,0,0,0-1.27,2.47V64.4a1.32,1.32,0,0,0,.38,1h0l-2.64-1.49h0a1.18,1.18,0,0,1-.47-1V59.68a3.28,3.28,0,0,1,1.32-2.51" style="fill: #d08250"/>
          <path id="Caminho_3423" data-name="Caminho 3423" d="M53.4,65.39l3.23-1.88a3.08,3.08,0,0,0,1.27-2.46V57.82c0-.94-.6-1.41-1.27-1L53.4,58.71a3.07,3.07,0,0,0-1.28,2.47v3.23c0,.93.55,1.4,1.28,1" style="fill: #dca458"/>
          <path id="Caminho_3424" data-name="Caminho 3424" d="M41.19,62.7l3.23-1.87a.92.92,0,0,1,.81-.08h0l2.68,1.53h0a.81.81,0,0,0-.81.08l-3.23,1.87a3.11,3.11,0,0,0-1.28,2.47v3.23A1.39,1.39,0,0,0,43,71h0l-2.64-1.49h0a1.18,1.18,0,0,1-.47-1V65.21a3.16,3.16,0,0,1,1.33-2.51" style="fill: #ab9553"/>
          <path id="Caminho_3425" data-name="Caminho 3425" d="M43.86,70.92,47.09,69a3.06,3.06,0,0,0,1.28-2.46V63.35c0-.94-.59-1.41-1.28-1l-3.23,1.87a3.08,3.08,0,0,0-1.27,2.47v3.23c0,1,.59,1.4,1.27,1" style="fill: #d7bb66"/>
        </g>
      </g>
    </g>
  </g>
</svg>
