<svg xmlns="http://www.w3.org/2000/svg" viewBox="0 0 80 80">
  <g id="Camada_2" data-name="Camada 2">
    <g id="Camada_1-2" data-name="Camada 1">
      <g id="icons8-javascript">
        <path id="Caminho_4732" data-name="Caminho 4732" d="M0,80V0H80V80Z" style="fill: #f3d432"/>
        <path id="Caminho_4733" data-name="Caminho 4733" d="M52.31,59.88c1.54,2.5,3.21,4.89,6.75,4.89,3,0,4.53-1.48,4.53-3.52,0-2.44-1.61-3.31-4.88-4.74l-1.8-.76c-5.17-2.2-8.61-5-8.61-10.76,0-5.35,4.1-9.43,10.5-9.43A10.62,10.62,0,0,1,69,41.28l-5.59,3.57a4.87,4.87,0,0,0-4.62-3.06,3.1,3.1,0,0,0-3.41,2.78,2.64,2.64,0,0,0,0,.28c0,2.14,1.33,3,4.41,4.34l1.79.76c6.1,2.6,9.54,5.25,9.54,11.22,0,6.42-5.07,10-11.88,10a13.12,13.12,0,0,1-12.55-7.48Zm-25.74.18a6.06,6.06,0,0,0,5.29,3.57c2.35,0,3.7-.93,3.7-4.54V35.56H43V60.22c0,7.48-4.34,10.89-10.68,10.89a13,13,0,0,1-11.54-7.48Z" style="fill: #000006"/>
      </g>
    </g>
  </g>
</svg>
