<svg xmlns="http://www.w3.org/2000/svg" viewBox="0 0 96 49.57">
  <g id="Camada_2" data-name="Camada 2">
    <g id="Camada_1-2" data-name="Camada 1">
      <g id="Grupo_476" data-name="Grupo 476">
        <g id="Grupo_475" data-name="Grupo 475">
          <path id="Caminho_4740" data-name="Caminho 4740" d="M0,45.15H3.18V32.67l4.9,10.89A2.69,2.69,0,0,0,11,45.34a2.66,2.66,0,0,0,2.89-1.78l4.89-10.89V45.16h3.16V32.69a1.89,1.89,0,0,0-1.49-2.11c-2.4-.75-4-.1-4.74,1.52l-4.8,10.75L6.26,32.1c-.7-1.62-2.34-2.27-4.74-1.52A1.89,1.89,0,0,0,0,32.69ZM24.57,35h3.16v6.88c0,.37.12,1.25,1.85,1.28h6.88V35h3.17s0,11.17,0,11.21c0,2.76-3.42,3.36-5,3.4h-10V47.45h10c2-.22,1.79-1.23,1.79-1.57V45H29.71c-3.12,0-5.11-1.39-5.14-3,0-.14.07-7,0-7.09Z" style="fill: #376184"/>
          <path id="Caminho_4741" data-name="Caminho 4741" d="M42.06,45.15h9.09a7,7,0,0,0,2.92-.6,2.87,2.87,0,0,0,2-2.6V39.64c0-.91-.76-1.76-2.25-2.33a7.75,7.75,0,0,0-2.7-.47H47.33c-1.28,0-1.89-.38-2-1.23a.72.72,0,0,1,0-.29V33.88a.6.6,0,0,1,0-.26c.15-.65.48-.83,1.61-.94l.3,0h9V30.55H47.36a8.42,8.42,0,0,0-2.55.27c-1.89.59-2.71,1.52-2.71,3.15v1.84c0,1.42,1.61,2.64,4.32,2.92.3,0,.6,0,.91,0H50.6a1.94,1.94,0,0,1,.34,0c1,.08,1.43.26,1.73.63a.69.69,0,0,1,.24.56v1.84a1,1,0,0,1-.45.75,2.32,2.32,0,0,1-1.34.45l-.34,0H42.06v2.11Zm33.78-3.66c0,2.17,1.61,3.38,4.86,3.62.31,0,.61,0,.91,0h8.24v-2.1h-8.3c-1.85,0-2.55-.47-2.55-1.59V30.56H75.83V41.49Zm-17.71.11V34.08c0-1.91,1.34-3.06,4-3.43a6.07,6.07,0,0,1,.85-.06h6a6.51,6.51,0,0,1,.88.06c2.65.37,4,1.52,4,3.43V41.6A2.74,2.74,0,0,1,72,44.52l3.11,2.81H71.41l-2.52-2.28-2.53.17H63A7.27,7.27,0,0,1,61.12,45c-2-.55-3-1.6-3-3.35Zm3.41-.19a1.65,1.65,0,0,0,.06.32c.19.88,1,1.37,2.25,1.37h2.88l-2.64-2.39h3.67l2.3,2.08a1.47,1.47,0,0,0,.79-1,.77.77,0,0,0,0-.3V34.26a.67.67,0,0,0,0-.28c-.18-.81-1-1.28-2.22-1.28H63.86c-1.41,0-2.32.61-2.32,1.56v7.15Z" style="fill: #cc8a21"/>
          <path id="Caminho_4742" data-name="Caminho 4742" d="M92.64,27.06a11.06,11.06,0,0,0-4.7.67c-.36.15-.94.15-1,.6a3.79,3.79,0,0,1,.39.78A6.24,6.24,0,0,0,88.6,30.6a18.85,18.85,0,0,0,1.55,1.1c.95.58,2,.92,2.93,1.5.54.34,1.08.77,1.6,1.16.26.18.44.49.77.61v-.06c-.17-.22-.22-.54-.38-.77l-.72-.72A11.76,11.76,0,0,0,91.81,31c-.76-.54-2.46-1.27-2.76-2.15L89,28.77a13.73,13.73,0,0,0,1.66-.38c.83-.23,1.57-.17,2.44-.39l1.16-.34v-.22c-.44-.44-.75-1-1.22-1.43a35,35,0,0,0-4-3c-.78-.49-1.73-.8-2.55-1.22-.27-.13-.75-.21-.93-.44a12.09,12.09,0,0,1-1-1.88c-.69-1.34-1.37-2.79-2-4.2a22.62,22.62,0,0,0-1.21-2.76A24.42,24.42,0,0,0,72,3.46a11.59,11.59,0,0,0-3.1-1l-1.82-.11a8.91,8.91,0,0,1-1.11-.83C64.56.65,61-1.26,60,1.24c-.65,1.58,1,3.12,1.54,3.93A12.3,12.3,0,0,1,62.74,7c.19.41.22.83.39,1.27a29.32,29.32,0,0,0,1.27,3.26,11.38,11.38,0,0,0,.89,1.5c.2.27.55.4.6.83a7.1,7.1,0,0,0-.55,1.82,10.53,10.53,0,0,0,.72,8.12c.38.62,1.29,1.95,2.54,1.44,1.09-.45.84-1.83,1.16-3,.07-.28,0-.48.16-.66v0l1,2a13.37,13.37,0,0,0,3.15,3.26c.57.44,1,1.19,1.77,1.44v-.05h-.06c-.14-.23-.37-.32-.56-.5A13.35,13.35,0,0,1,74,26.28a34.41,34.41,0,0,1-2.71-4.42c-.38-.74-.72-1.56-1-2.32-.13-.29-.13-.73-.39-.88a10.44,10.44,0,0,0-1.16,1.65A14.68,14.68,0,0,0,68,24c-.09,0,0,0-.11.06-.77-.19-1-1-1.32-1.66a10.45,10.45,0,0,1-.23-6.47c.17-.51.91-2.12.61-2.6-.14-.47-.62-.75-.88-1.1a8.87,8.87,0,0,1-.89-1.55c-.59-1.34-.87-2.85-1.49-4.2a11.4,11.4,0,0,0-1.22-1.88,11.76,11.76,0,0,1-1.32-1.88c-.12-.27-.29-.71-.11-1a.45.45,0,0,1,.34-.34c.32-.24,1.22.09,1.54.23a13,13,0,0,1,2.38,1.21c.36.24.73.71,1.16.83h.5c.78.18,1.65.06,2.37.28A15.1,15.1,0,0,1,72.8,5.56a21.6,21.6,0,0,1,7.57,8.3c.28.55.41,1.07.66,1.65.51,1.18,1.15,2.39,1.66,3.54a16.6,16.6,0,0,0,1.71,3.26c.38.5,1.83.77,2.49,1.05a14,14,0,0,1,1.66.67c.84.5,1.65,1.1,2.44,1.65.39.28,1.59.89,1.65,1.39Z" style="fill: #376184"/>
        </g>
        <path id="Caminho_4743" data-name="Caminho 4743" d="M67.93,6a4.21,4.21,0,0,0-1,.12v0H67a8.31,8.31,0,0,0,.77,1l.56,1.16.05-.06a1.33,1.33,0,0,0,.5-1.22c-.14-.14-.16-.32-.28-.49s-.47-.36-.66-.56Z" style="fill: #376184;fill-rule: evenodd"/>
        <path id="Caminho_4744" data-name="Caminho 4744" d="M91.34,43a2.33,2.33,0,1,0,2.33-2.33,2.29,2.29,0,0,0-2.33,2.26Zm4.14,0a1.83,1.83,0,1,1,0-.05V43ZM94.3,44.32h.52l-.77-1.17c.41,0,.72-.24.72-.73s-.34-.76-1-.76h-1v2.66h.44V43.17h.42l.69,1.15Zm-1.12-1.53V42h.52c.26,0,.59,0,.59.36s-.3.4-.63.4Z" style="fill: #cc8a21;fill-rule: evenodd"/>
      </g>
    </g>
  </g>
</svg>
