<svg xmlns="http://www.w3.org/2000/svg" viewBox="0 0 96 71.96">
  <g id="Camada_2" data-name="Camada 2">
    <g id="Camada_1-2" data-name="Camada 1">
      <path d="M82.64,41.32a19.79,19.79,0,0,0-8.7,2,18.07,18.07,0,0,1-2-4.5,12.63,12.63,0,0,1-.17-3.79A31,31,0,0,1,73,31c0-.17-.21-1-2.14-1s-3.6.37-3.79.88a22.22,22.22,0,0,0-.81,2.87c-.33,1.76-3.86,8-5.87,11.29A12,12,0,0,1,59,41.7a12.63,12.63,0,0,1-.17-3.79A31,31,0,0,1,60,33.82c0-.17-.21-1-2.14-1s-3.6.37-3.79.88-.39,1.71-.8,2.87S48.19,48.15,47,50.87c-.62,1.38-1.17,2.49-1.56,3.24s0,.06-.06.13c-.33.64-.52,1-.52,1v0c-.26.47-.55.92-.68.92a6.3,6.3,0,0,1,0-3c.69-3.62,2.38-9.26,2.36-9.47s.32-1.09-1.08-1.59a1.7,1.7,0,0,0-2,.34c-.12,0-.21.3-.21.3s1.52-6.36-2.91-6.36c-2.77,0-6.6,3-8.49,5.77l-6.45,3.53-3.11,1.71-.21-.23C16.77,41.47,6.85,37.42,7.26,29.73c.15-2.79,1.12-10.16,19-19.09C41,3.33,52.75,5.34,54.8,9.8,57.7,16.18,48.51,28,33.25,29.73c-5.81.66-8.87-1.59-9.64-2.44s-.92-.91-1.22-.75c-.48.27-.18,1.05,0,1.52.45,1.18,2.33,3.29,5.52,4.34,2.79.91,9.62,1.42,17.87-1.77C55,27.05,62.24,17.11,60.12,8.81,58,.35,43.94-2.43,30.68,2.28c-7.89,2.81-16.44,7.2-22.6,13C.77,22.06-.39,28,.1,30.5,1.8,39.33,14,45.09,18.85,49.35l-.68.37c-2.43,1.2-11.72,6.06-14,11.2-2.63,5.81.41,10,2.44,10.55,6.26,1.75,12.67-1.38,16.14-6.54s3-11.85,1.45-14.91l-.06-.11L26,48.78c1.24-.73,2.46-1.4,3.53-2a23.48,23.48,0,0,0-1.26,6.37c-.26,3.3,1.09,7.58,2.87,9.27a3.18,3.18,0,0,0,2.31.75c2.06,0,3-1.71,4-3.76,1.27-2.49,2.4-5.38,2.4-5.38s-1.41,7.82,2.44,7.82c1.4,0,2.81-1.82,3.45-2.75h0l.11-.18c.08-.12.15-.24.22-.36v0c.57-1,1.82-3.2,3.7-6.9,2.42-4.76,4.74-10.72,4.74-10.72a35.6,35.6,0,0,0,.92,3.86,35.51,35.51,0,0,0,2,4.5l-.9,1.24,0,0c-.45.6-1,1.23-1.49,1.87-1.91,2.29-4.2,4.9-4.5,5.65A1.54,1.54,0,0,0,51,60.13a3.73,3.73,0,0,0,2.36.37,10.56,10.56,0,0,0,3.52-.8,12.28,12.28,0,0,0,3-1.6,6.74,6.74,0,0,0,2.91-6,12.17,12.17,0,0,0-1.11-4.22c.17-.24.34-.48.51-.75a79.58,79.58,0,0,0,5.25-9.09,32.81,32.81,0,0,0,.92,3.86,27,27,0,0,0,1.7,3.86A16.77,16.77,0,0,0,65,52.4c-1.1,3.19-.24,4.64,1.39,5A5,5,0,0,0,69,56.85a11.57,11.57,0,0,0,3.25-1.67c1.87-1.39,3.67-3.32,3.58-5.93a11.44,11.44,0,0,0-.81-3.5,18.2,18.2,0,0,1,9.3-1.07c8.35,1,10,6.19,9.68,8.36a5.59,5.59,0,0,1-2.65,3.75c-.58.36-.77.49-.71.75s.34.38.84.3A6.48,6.48,0,0,0,96,52.05c.23-5.16-4.67-10.79-13.35-10.73ZM18.29,63c-2.76,3-6.64,4.16-8.29,3.18s-1.09-5.47,2.3-8.68a44.13,44.13,0,0,1,6.51-4.85c.39-.25,1-.6,1.71-1l.18-.11c.14-.07.29-.17.44-.26A12,12,0,0,1,18.29,63ZM38.44,49.31c-.95,2.34-3,8.36-4.2,8-1.05-.28-1.68-4.83-.2-9.33a20.78,20.78,0,0,1,3.28-6c1.52-1.69,3.17-2.25,3.58-1.56C41.39,41.32,39,47.85,38.44,49.31Zm16.64,7.95c-.42.21-.79.36-1,.24s.17-.35.17-.35,2.08-2.23,2.91-3.27c.46-.6,1-1.29,1.63-2.08V52c0,2.7-2.59,4.5-3.75,5.23ZM67.9,54.33c-.3-.22-.26-.91.75-3.09a11.71,11.71,0,0,1,2.85-3.67,4.52,4.52,0,0,1,.28,1.61A5.25,5.25,0,0,1,67.9,54.33Z" style="fill: #b46494"/>
    </g>
  </g>
</svg>
