<svg xmlns="http://www.w3.org/2000/svg" xmlns:xlink="http://www.w3.org/1999/xlink" viewBox="0 0 96 93.6">
  <defs>
    <clipPath id="clip-path">
      <path d="M4,4H92V89.6H4Z" style="fill: none"/>
    </clipPath>
  </defs>
  <g id="Camada_2" data-name="Camada 2">
    <g id="Camada_1-2" data-name="Camada 1">
      <g>
        <g style="clip-path: url(#clip-path)">
          <rect x="4" y="4" width="88" height="85.6" style="fill: #1e1204"/>
          <path d="M92,23.18V4H4v77.5H3.81l.18.09c1,.45,2,.88,3,1.29a68.5,68.5,0,0,0,26,5.09A67.76,67.76,0,0,0,80.27,69a64.93,64.93,0,0,0,8.17-9.59q1.8-2.58,3.35-5.33c.13-.23.26-.46.38-.7H92Z" style="fill: #1e1204"/>
          <path d="M92,23.18V4H4V79.59h-.1l.18.09.71.33c1,.44,1.91.87,2.89,1.26a66.73,66.73,0,0,0,25.34,5A66,66,0,0,0,79,67.76a63.14,63.14,0,0,0,8-9.33q1.76-2.52,3.26-5.2c.5-.89,1-1.8,1.44-2.72.12-.23.23-.46.34-.69s.11-.23.17-.34H92Z" style="fill: #1f1305"/>
          <path d="M92,23.18V4H4V77.64H3.8a3.59,3.59,0,0,0,.34.17l1.37.67c.93.43,1.86.84,2.81,1.22A64.82,64.82,0,0,0,33,84.52a64.24,64.24,0,0,0,44.81-18,61.29,61.29,0,0,0,13.57-19.5c.2-.46.4-.92.59-1.39l.28-.69H92Z" style="fill: #201406"/>
          <path d="M92,23.18V6.85h.21c-.14-.47-.29-.94-.44-1.4s-.3-.94-.46-1.4c0-.11-.08-.23-.13-.34V4H4V75.79H4l.33.17.66.34,1.34.64c.89.42,1.8.82,2.73,1.19a63.1,63.1,0,0,0,24,4.69A62.42,62.42,0,0,0,76.54,65.35,59.57,59.57,0,0,0,89.74,46.4q1.17-2.68,2.07-5.48c.15-.47.3-.94.44-1.41H92Z" style="fill: #211507"/>
          <path d="M92,23.18V14.36h.09c-.15-1-.32-1.91-.52-2.86A55.29,55.29,0,0,0,90.13,6q-.21-.67-.45-1.35l-.24-.67V4H4V73.79H3.83l.63.33Q7,75.47,9.69,76.56A61.19,61.19,0,0,0,33,81.12a60.68,60.68,0,0,0,42.32-17A58.06,58.06,0,0,0,88.12,45.73a56.51,56.51,0,0,0,3.49-10.87c.2-1,.37-1.9.52-2.86H92Z" style="fill: #221608"/>
          <path d="M91.06,23.18a54.31,54.31,0,0,0-1.18-11.33,51.46,51.46,0,0,0-1.43-5.39c-.28-.88-.59-1.75-.91-2.61V4H4V71.79H3.77l.3.17,1.23.67c1.64.86,3.34,1.65,5.08,2.36A59.38,59.38,0,0,0,33,79.41C65.06,79.41,91.06,54.24,91.06,23.18Z" style="fill: #231709"/>
          <path d="M89.3,23.18A52.5,52.5,0,0,0,86.77,7c-.27-.86-.57-1.7-.88-2.54-.08-.21-.16-.41-.25-.62V4H4V69.81H3.78c.77.46,1.56.9,2.36,1.32,1.59.84,3.24,1.6,4.92,2.29A57.75,57.75,0,0,0,33,77.71C64.09,77.71,89.3,53.3,89.3,23.18Z" style="fill: #24180a"/>
          <path d="M87.54,23.18A51.49,51.49,0,0,0,85.09,7.47c-.27-.82-.55-1.64-.86-2.45-.15-.41-.31-.81-.47-1.21V4H4V67.85H3.85l.28.17.56.34c.75.44,1.51.86,2.29,1.27a51.82,51.82,0,0,0,4.77,2.22A55.75,55.75,0,0,0,33,76C63.12,76,87.54,52.35,87.54,23.18Z" style="fill: #24190b"/>
          <path d="M85.78,23.18A49.56,49.56,0,0,0,83.41,8c-.26-.8-.53-1.59-.83-2.38-.15-.39-.3-.78-.46-1.16l-.24-.58V4H4V65.74H3.73l.26.17.53.34,1.08.65q1.1.64,2.22,1.23a49.61,49.61,0,0,0,4.61,2.15A54.07,54.07,0,0,0,33,74.3C62.14,74.3,85.78,51.41,85.78,23.18Z" style="fill: #251a0c"/>
          <path d="M84,23.18A47.94,47.94,0,0,0,80,4H4V63.82h0l.51.34a51.4,51.4,0,0,0,8.67,4.55A52.31,52.31,0,0,0,33,72.6C61.17,72.6,84,50.47,84,23.18Z" style="fill: #261b0d"/>
          <path d="M82.26,23.18A46.31,46.31,0,0,0,78.39,4.61l-.24-.53L78,3.81V4H4V61.59H3.74l.23.16.49.34c.32.22.64.44,1,.65a48.67,48.67,0,0,0,8.37,4.4A50.44,50.44,0,0,0,33,70.89C60.2,70.89,82.26,49.53,82.26,23.18Z" style="fill: #271c0e"/>
          <path d="M80.5,23.18A44.72,44.72,0,0,0,76.77,5.27l-.46-1c-.08-.17-.16-.34-.25-.51V4H4V59.55H3.87l.23.16.45.34c.61.44,1.23.87,1.86,1.28a47.75,47.75,0,0,0,8.08,4.24A48.63,48.63,0,0,0,33,69.19C59.23,69.19,80.5,48.59,80.5,23.18Z" style="fill: #281d0f"/>
          <path d="M78.74,23.18A43,43,0,0,0,75.15,5.94c-.29-.67-.6-1.32-.92-2l-.12-.24V4H4V57.37H3.88q1.69,1.35,3.52,2.55A45.93,45.93,0,0,0,15.17,64,47,47,0,0,0,33,67.48C58.26,67.48,78.74,47.65,78.74,23.18Z" style="fill: #291e10"/>
          <path d="M77,23.18A41.42,41.42,0,0,0,73.53,6.6C73.25,6,73,5.33,72.64,4.71c-.15-.31-.31-.62-.47-.92V4H4v51.1H3.79l.4.33q.39.34.81.66c1.08.87,2.21,1.69,3.38,2.46a43.59,43.59,0,0,0,7.48,3.92A45,45,0,0,0,33,65.78C57.28,65.78,77,46.71,77,23.18Z" style="fill: #2a1f11"/>
          <path d="M75.22,23.18A39.59,39.59,0,0,0,71.9,7.26c-.26-.61-.55-1.21-.84-1.81l-.46-.89c-.08-.14-.15-.29-.23-.44l-.12-.22V4H4V52.78H3.84c.24.23.49.45.74.67q.75.66,1.53,1.29c1,.83,2.13,1.62,3.26,2.35a41.81,41.81,0,0,0,7.17,3.77A43.28,43.28,0,0,0,33,64.08C56.31,64.08,75.22,45.77,75.22,23.18Z" style="fill: #2b2012"/>
          <path d="M73.46,23.18A38.33,38.33,0,0,0,68.58,4.5l-.24-.42-.12-.2V4H4V50.39H3.85l.17.17.34.33A41,41,0,0,0,33,62.37C55.34,62.37,73.46,44.83,73.46,23.18Z" style="fill: #2c2113"/>
          <path d="M71.7,23.18a36.29,36.29,0,0,0-3-14.59A35.74,35.74,0,0,0,67,5.31c-.3-.53-.61-1-.93-1.57V4H4V47.71H3.71l.61.68c.42.44.85.87,1.28,1.3A39.27,39.27,0,0,0,33,60.67C54.37,60.67,71.7,43.88,71.7,23.18Z" style="fill: #2d2214"/>
          <path d="M69.94,23.18A34.7,34.7,0,0,0,67,9.25c-.47-1.07-1-2.11-1.56-3.13-.28-.5-.58-1-.89-1.49-.15-.25-.31-.49-.47-.74V4H4V45.27h0c.18.23.36.45.55.67.76.89,1.55,1.73,2.39,2.54A37.44,37.44,0,0,0,33,59C53.4,59,69.94,42.94,69.94,23.18Z" style="fill: #2e2315"/>
          <path d="M68.18,23.18a33.13,33.13,0,0,0-6-19l-.24-.34V4H4V3.79l-.24.34H4V42.24H3.79a35,35,0,0,0,4.3,5A35.66,35.66,0,0,0,33,57.26C52.42,57.26,68.18,42,68.18,23.18Z" style="fill: #2f2416"/>
          <path d="M66.42,23.18a31.4,31.4,0,0,0-2.62-12.6,32.21,32.21,0,0,0-3.09-5.5c-.3-.43-.61-.85-.93-1.27V4H6.19V3.81c-.32.42-.64.84-.94,1.27S4.66,6,4.38,6.39c-.14.22-.27.45-.41.68l-.2.34H4V39H3.77a3.79,3.79,0,0,1,.2.34l.41.67c.28.44.57.88.87,1.31a32.76,32.76,0,0,0,4.09,4.79A33.89,33.89,0,0,0,33,55.56C51.45,55.56,66.42,41.06,66.42,23.18Z" style="fill: #2f2418"/>
          <path d="M64.66,23.18a29.65,29.65,0,0,0-2.49-11.94A30.22,30.22,0,0,0,59.25,6c-.28-.41-.58-.81-.88-1.2l-.46-.59L57.67,4H8.3l-.24.28-.46.59c-.31.39-.6.79-.89,1.2a30.22,30.22,0,0,0-2.92,5.21H4V35.12H3.79a31,31,0,0,0,6.79,9.75,32.1,32.1,0,0,0,22.4,9C50.48,53.85,64.66,40.12,64.66,23.18Z" style="fill: #302519"/>
          <path d="M62.9,23.18A28,28,0,0,0,60.55,11.9,29,29,0,0,0,57.79,7c-.53-.77-1.11-1.51-1.72-2.23-.3-.35-.62-.7-.94-1V4H10.84V3.7c-.33.35-.64.7-.94,1C9.29,5.47,8.71,6.21,8.17,7A29.66,29.66,0,0,0,5.41,11.9c-.37.87-.71,1.76-1,2.67-.15.45-.28.91-.4,1.37-.07.23-.13.46-.18.7H4V29.72H3.83c0,.24.11.47.18.7.12.46.25.92.4,1.37.29.91.63,1.8,1,2.67a29.07,29.07,0,0,0,6.42,9.2A30.28,30.28,0,0,0,33,52.15C49.51,52.15,62.9,39.18,62.9,23.18Z" style="fill: #31261a"/>
          <path d="M61.14,23.18A26.78,26.78,0,0,0,52.9,3.9V4H13.07V3.9A26.79,26.79,0,0,0,4.82,23.18C4.82,38.24,17.43,50.44,33,50.44S61.14,38.24,61.14,23.18Z" style="fill: #32271b"/>
          <path d="M59.38,23.18A25,25,0,0,0,51.65,5.11c-.3-.29-.6-.57-.92-.85l-.47-.41V4H15.71V3.85l-.48.41c-.31.28-.62.56-.91.85A25.06,25.06,0,0,0,6.58,23.18C6.58,37.3,18.4,48.74,33,48.74S59.38,37.3,59.38,23.18Z" style="fill: #33281c"/>
          <path d="M57.62,23.18A23.4,23.4,0,0,0,50.41,6.31c-.56-.54-1.15-1-1.75-1.54l-.93-.71-.48-.33V4H18.72V3.73l-.48.33c-.32.23-.63.47-.93.71-.61.49-1.19,1-1.75,1.54A23.41,23.41,0,0,0,8.34,23.18C8.34,36.36,19.37,47,33,47S57.62,36.36,57.62,23.18Z" style="fill: #34291d"/>
          <path d="M55.86,23.18a21.72,21.72,0,0,0-6.7-15.66,22.68,22.68,0,0,0-3.38-2.71q-.91-.6-1.89-1.11V4H22.08V3.7q-1,.51-1.89,1.11A22.77,22.77,0,0,0,16.8,7.52a21.72,21.72,0,0,0-6.7,15.66C10.1,35.41,20.35,45.33,33,45.33S55.86,35.41,55.86,23.18Z" style="fill: #352a1e"/>
          <path d="M54.1,23.18A20.06,20.06,0,0,0,47.92,8.72,21.11,21.11,0,0,0,41.2,4.34c-.31-.13-.63-.25-1-.37l-.48-.16V4H26.21V3.81L25.72,4l-1,.37a21.17,21.17,0,0,0-6.71,4.38,20.07,20.07,0,0,0-6.19,14.46c0,11.29,9.46,20.45,21.12,20.45S54.1,34.47,54.1,23.18Z" style="fill: #362b1f"/>
          <ellipse cx="32.98" cy="23.18" rx="19.36" ry="18.74" style="fill: #372c20"/>
          <ellipse cx="32.98" cy="23.18" rx="17.6" ry="17.04" style="fill: #382d21"/>
          <ellipse cx="32.98" cy="23.18" rx="15.84" ry="15.34" style="fill: #392e22"/>
          <ellipse cx="32.98" cy="23.18" rx="14.08" ry="13.63" style="fill: #3a2f23"/>
          <ellipse cx="32.98" cy="23.18" rx="12.32" ry="11.93" style="fill: #3a3024"/>
          <ellipse cx="32.98" cy="23.18" rx="10.56" ry="10.22" style="fill: #3b3125"/>
          <ellipse cx="32.98" cy="23.18" rx="8.8" ry="8.52" style="fill: #3c3226"/>
          <ellipse cx="32.98" cy="23.18" rx="7.04" ry="6.82" style="fill: #3d3327"/>
          <ellipse cx="32.98" cy="23.18" rx="5.28" ry="5.11" style="fill: #3e3428"/>
          <ellipse cx="32.98" cy="23.18" rx="3.52" ry="3.41" style="fill: #3f3529"/>
          <ellipse cx="32.98" cy="23.18" rx="1.76" ry="1.7" style="fill: #40362a"/>
        </g>
        <path d="M4,4H92V89.6H4ZM0,93.6H96V0H0ZM62.88,33.36c0-.32.12-.48.48-.48h6.28c.32,0,.48.12.48.48V64.92c0,.32-.08.48-.48.48h-6.2c-.4,0-.52-.2-.52-.52V33.36Zm-.44-9.08a4.08,4.08,0,0,1,8.16,0,3.82,3.82,0,0,1-4.16,4.08A3.76,3.76,0,0,1,62.44,24.28Zm-18,22.24c-1.12-4.44-3.76-14.12-4.76-18.8H39.6c-.84,4.68-3,12.6-4.64,18.8ZM33.32,53,30.16,65c-.08.32-.2.4-.6.4H23.68c-.4,0-.48-.12-.4-.6L34.64,25a13,13,0,0,0,.4-3.32c0-.28.12-.4.32-.4h8.4c.28,0,.4.08.48.4L57,64.88c.08.32,0,.52-.32.52H50c-.32,0-.52-.08-.6-.36L46.12,53Z" style="fill: #e07e29"/>
      </g>
    </g>
  </g>
</svg>
