<svg xmlns="http://www.w3.org/2000/svg" viewBox="0 0 96 27.02">
  <g id="Camada_2" data-name="Camada 2">
    <g id="Camada_1-2" data-name="Camada 1">
      <g>
        <path d="M12.5,8.73a.71.71,0,0,1,.65-.36.82.82,0,0,1,.72.36c1.7,2.33,4.51,7,6.58,10.42,1.35,2.24,2.39,4,2.6,4.18.8.82,1.9.3,2.53-.63a3.69,3.69,0,0,0,.8-2.25c0-.46-9.08-17.35-10-18.76S15.22,0,13.72,0H12.59c-1.5,0-1.72.34-2.6,1.69S0,20,0,20.45A3.69,3.69,0,0,0,.8,22.7c.64.93,1.73,1.45,2.53.63.21-.22,1.25-1.94,2.6-4.18C8,15.72,10.8,11.06,12.5,8.73Z" style="fill: #0d1725"/>
        <path d="M32.7,1.49V22.22H45.33V18H37.05V13.64h7.37V9.43H37.05V5.7h8.28V1.49Z" style="fill: #0d1725"/>
        <path d="M62.18,22.22,56.94,14.7l4.89-7H56.88l-2.41,3.44L52.08,7.68h-5L52,14.73l-5.22,7.49h5l2.74-3.93,2.74,3.93Z" style="fill: #0d1725"/>
        <path d="M72.72,7.39a5.2,5.2,0,0,0-4.56,2.34V7.68H64V27h4.16V20.18a5.2,5.2,0,0,0,4.56,2.34c3.74,0,6.71-3.41,6.71-7.58S76.46,7.39,72.72,7.39Zm-.94,11.13a3.58,3.58,0,1,1,0-7.16,3.58,3.58,0,1,1,0,7.16Z" style="fill: #0d1725"/>
        <path d="M88.49,7.39A7.38,7.38,0,0,0,81,15a7.51,7.51,0,1,0,15,0A7.4,7.4,0,0,0,88.49,7.39Zm0,4A3.45,3.45,0,0,1,91.94,15a3.45,3.45,0,1,1-6.89,0A3.42,3.42,0,0,1,88.49,11.38Z" style="fill: #0d1725"/>
      </g>
    </g>
  </g>
</svg>
