<svg xmlns="http://www.w3.org/2000/svg" viewBox="0 0 96 93.63">
  <g id="Camada_2" data-name="Camada 2">
    <g id="Camada_1-2" data-name="Camada 1">
      <g>
        <path d="M48,0A48,48,0,0,0,32.83,93.55c2.39.44,3.28-1,3.28-2.31s0-4.93-.07-8.94c-13.35,2.91-16.17-5.66-16.17-5.66-2.19-5.55-5.33-7-5.33-7-4.36-3,.33-2.92.33-2.92,4.82.34,7.36,4.94,7.36,4.94,4.28,7.34,11.22,5.22,14,4a10.19,10.19,0,0,1,3.05-6.41C28.58,68,17.37,63.89,17.37,45.49a18.57,18.57,0,0,1,4.95-12.88c-.5-1.21-2.14-6.09.46-12.7,0,0,4-1.29,13.21,4.92a45.37,45.37,0,0,1,24,0c9.17-6.21,13.19-4.92,13.19-4.92,2.61,6.61,1,11.49.47,12.7a18.52,18.52,0,0,1,4.94,12.88c0,18.44-11.23,22.5-21.91,23.69C58.43,70.67,60,73.59,60,78.07c0,6.42-.06,11.59-.06,13.17,0,1.28.87,2.77,3.3,2.3A48,48,0,0,0,48,0" style="fill: #1c1c1b"/>
        <path d="M18,68.38a.6.6,0,0,1-.82.14c-.35-.15-.55-.48-.44-.72s.48-.31.83-.15.55.49.43.73m2.36,2.1c-.23.22-.68.12-1-.22a.73.73,0,0,1-.14-1c.23-.21.67-.11,1,.23s.38.78.14,1M22,73.18c-.3.2-.78,0-1.07-.41s-.3-.94,0-1.15.77,0,1.08.4.29,1,0,1.16M24.7,76.3a.91.91,0,0,1-1.24-.18.93.93,0,0,1-.27-1.23.91.91,0,0,1,1.24.18c.42.39.55.94.27,1.23m3.54,1.06c-.12.37-.66.54-1.2.38s-.9-.6-.79-1,.66-.56,1.2-.39.9.6.79,1m4,.44c0,.4-.45.73-1,.73s-1-.3-1-.69.45-.73,1-.74,1,.31,1,.7m4-.15c.06.39-.33.78-.9.89s-1.07-.14-1.14-.52.33-.79.89-.9,1.07.14,1.15.53" style="fill: #1c1c1b"/>
      </g>
    </g>
  </g>
</svg>
