<svg xmlns="http://www.w3.org/2000/svg" viewBox="0 0 96 95.99">
  <g id="Camada_2" data-name="Camada 2">
    <g id="Camada_1-2" data-name="Camada 1">
      <g>
        <path d="M45.62,0,44.07.16A47.82,47.82,0,0,0,20.19,8.87,46.23,46.23,0,0,0,14,14.09a48,48,0,0,0,22,80.41A45.18,45.18,0,0,0,48,96a45.06,45.06,0,0,0,11.56-1.38,47.21,47.21,0,0,0,16.22-7.44A48.63,48.63,0,0,0,88.65,73.58,48,48,0,0,0,95.94,51.1a65.12,65.12,0,0,0-.14-7.77c-.37-3.5-1.31-8.12-1.85-9.08a2.88,2.88,0,0,0-1.29-1,3.24,3.24,0,0,0-.79-.09,2.34,2.34,0,0,0-2.32,2.29,10.4,10.4,0,0,0,.33,1.76,44.2,44.2,0,0,1,.38,20,43.54,43.54,0,0,1-21.1,28.51,43.4,43.4,0,0,1-28.24,4.92,42.5,42.5,0,0,1-19.76-8.74A47.2,47.2,0,0,1,12.7,73,42.9,42.9,0,0,1,5.45,55.71,46.23,46.23,0,0,1,4.92,44.5,42.06,42.06,0,0,1,9,29.37a38.48,38.48,0,0,1,3-5.26,44.06,44.06,0,0,1,9.8-10.47,42.71,42.71,0,0,1,15-7.4A40.82,40.82,0,0,1,44.9,4.89a42.92,42.92,0,0,1,29.21,8.66c.62.47,1.28,1,1.45,1.14l.32.27-.13.36A5.9,5.9,0,0,0,77,21a6.34,6.34,0,0,0,3,1.82,7.37,7.37,0,0,0,2.73,0A6.06,6.06,0,0,0,86.87,19a5.83,5.83,0,0,0-1-5.55,5.93,5.93,0,0,0-6.08-2l-.48.12L78.61,11a47.94,47.94,0,0,0-9.74-6.22A46.85,46.85,0,0,0,50.7.07C49.43,0,46.43,0,45.62,0Z"/>
        <path d="M40.65,27.65C39.76,30,37.83,35,36.34,38.84L29.57,56.42c-2.23,5.82-4.08,10.6-4.1,10.63s2.33.07,5.23.07H36l.31-.86c.17-.47.79-2.13,1.37-3.7l1.06-2.82h7.92c6.31,0,7.92,0,7.9-.11l-2.07-5.89-.73-2.1-5.25,0-5.24-.05,3.41-9.39c2.05-5.64,3.43-9.33,3.46-9.25l3,8.6,6,17,3,8.56,5.26,0c2.88,0,5.25,0,5.25,0s-.68-1.81-1.52-4-2.64-6.83-4-10.36L61.76,44l-2-5.08c-.57-1.48-2.06-5.34-3.31-8.6S54.13,24.16,54,23.92l-.16-.44H42.25Z"/>
      </g>
    </g>
  </g>
</svg>
