<svg xmlns="http://www.w3.org/2000/svg" viewBox="0 0 96 27.8">
  <g id="Camada_2" data-name="Camada 2">
    <g id="Camada_1-2" data-name="Camada 1">
      <path d="M.62,21.68V11H14v-.63H.62V.62H14.81V0H0V22.31H14.93v-.63ZM27,6.25l-5.53,7.28L16,6.25h-.82L21.06,14l-6.41,8.31h.75l6-7.85,6.06,7.85h.78L21.84,14l5.87-7.75ZM30.15,27.8v-10h.06a6.35,6.35,0,0,0,2.22,3.51,6.49,6.49,0,0,0,4.21,1.33A6.19,6.19,0,0,0,39.58,22a6.3,6.3,0,0,0,2.14-1.83A8.53,8.53,0,0,0,43,17.46a11.32,11.32,0,0,0,.46-3.21A11.49,11.49,0,0,0,43,10.9a8.2,8.2,0,0,0-1.36-2.65A6.19,6.19,0,0,0,39.5,6.5a6.3,6.3,0,0,0-2.86-.63,6.91,6.91,0,0,0-2.26.36,6,6,0,0,0-1.86,1,7.12,7.12,0,0,0-1.41,1.54,7.44,7.44,0,0,0-.9,2h-.06V6.25h-.63V27.8Zm6.49-5.74a6,6,0,0,1-4.71-2,8.45,8.45,0,0,1-1.78-5.79,9.92,9.92,0,0,1,.43-3,7.91,7.91,0,0,1,1.27-2.47A5.91,5.91,0,0,1,36.64,6.5a5.8,5.8,0,0,1,2.74.62,5.57,5.57,0,0,1,1.93,1.71,7.87,7.87,0,0,1,1.16,2.46,10.91,10.91,0,0,1,.39,3A11.13,11.13,0,0,1,42.5,17a8,8,0,0,1-1.11,2.5,6,6,0,0,1-1.92,1.81,5.38,5.38,0,0,1-2.83.71Zm10.28.25v-9.1a8.92,8.92,0,0,1,.38-2.56,6.34,6.34,0,0,1,1.15-2.2,5.49,5.49,0,0,1,2-1.5A6.1,6.1,0,0,1,53.3,6.5V5.87a7.75,7.75,0,0,0-2.52.32,6,6,0,0,0-1.86.93,4.84,4.84,0,0,0-1.25,1.39A6.53,6.53,0,0,0,47,10.22h-.06v-4H46.3V22.31Zm7.16-7.91H67.51a11.17,11.17,0,0,0-.33-3.18A7.89,7.89,0,0,0,65.93,8.5a6.34,6.34,0,0,0-2.22-1.91,6.79,6.79,0,0,0-3.23-.72,6.62,6.62,0,0,0-4.87,2.21,8,8,0,0,0-1.56,2.64,9.84,9.84,0,0,0-.6,3.56,13.07,13.07,0,0,0,.41,3.32,7.67,7.67,0,0,0,1.25,2.69,5.63,5.63,0,0,0,2.17,1.77,7.26,7.26,0,0,0,3.2.59A7,7,0,0,0,65.1,21.1a6.39,6.39,0,0,0,2.22-4.36H66.7a6.05,6.05,0,0,1-2.08,4,6.58,6.58,0,0,1-4.2,1.33,6.39,6.39,0,0,1-2.91-.6,5.26,5.26,0,0,1-1.93-1.62,7.17,7.17,0,0,1-1.11-2.42,13.05,13.05,0,0,1-.39-3Zm12.8-.62H54.08a9.64,9.64,0,0,1,.62-3,7.71,7.71,0,0,1,1.39-2.3,5.81,5.81,0,0,1,2-1.45,5.93,5.93,0,0,1,2.45-.5,6.15,6.15,0,0,1,2.75.58,5.79,5.79,0,0,1,2,1.57A7.05,7.05,0,0,1,66.48,11a9.57,9.57,0,0,1,.4,2.8ZM80.47,11h.63a4.66,4.66,0,0,0-1.56-3.91,6.75,6.75,0,0,0-4.25-1.22,7.41,7.41,0,0,0-2.53.38,5,5,0,0,0-1.69,1,3.43,3.43,0,0,0-.94,1.31,3.94,3.94,0,0,0-.28,1.37,4.08,4.08,0,0,0,.47,2.1,3,3,0,0,0,1.47,1.21,11.67,11.67,0,0,0,1.56.57c.58.16,1.26.34,2,.53l2,.5a7.09,7.09,0,0,1,1.77.67,3.85,3.85,0,0,1,1.25,1.08,2.83,2.83,0,0,1,.48,1.72A3,3,0,0,1,80.43,20a3.89,3.89,0,0,1-1.24,1.18,5.34,5.34,0,0,1-1.67.65,8,8,0,0,1-1.79.21,6.65,6.65,0,0,1-4.36-1.27,4.89,4.89,0,0,1-1.52-4h-.62a5.49,5.49,0,0,0,1.64,4.43,7.27,7.27,0,0,0,4.86,1.41,9.2,9.2,0,0,0,2.07-.24,5.71,5.71,0,0,0,1.88-.76A4.31,4.31,0,0,0,81,20.27a3.89,3.89,0,0,0,.52-2.06,3.47,3.47,0,0,0-.46-1.87,3.72,3.72,0,0,0-1.18-1.19,6.24,6.24,0,0,0-1.66-.73l-1.86-.52-2.29-.59a14,14,0,0,1-1.83-.6,3,3,0,0,1-1.3-1,3,3,0,0,1-.48-1.83,4.61,4.61,0,0,1,.12-.78A2.87,2.87,0,0,1,71.2,8a4,4,0,0,1,1.43-1,6.44,6.44,0,0,1,2.66-.45,8.2,8.2,0,0,1,2.11.25A4.39,4.39,0,0,1,79,7.54,3.76,3.76,0,0,1,80.1,8.93,5.11,5.11,0,0,1,80.47,11Zm14.47,0h.62A4.66,4.66,0,0,0,94,7.09a6.75,6.75,0,0,0-4.25-1.22,7.45,7.45,0,0,0-2.53.38,5,5,0,0,0-1.69,1,3.41,3.41,0,0,0-.93,1.31,3.73,3.73,0,0,0-.28,1.37,4,4,0,0,0,.47,2.1,3.06,3.06,0,0,0,1.46,1.21,11.33,11.33,0,0,0,1.57.57c.58.16,1.26.34,2,.53l2,.5a7.16,7.16,0,0,1,1.76.67,3.75,3.75,0,0,1,1.25,1.08,2.83,2.83,0,0,1,.49,1.72A3,3,0,0,1,94.89,20a4,4,0,0,1-1.23,1.18,5.43,5.43,0,0,1-1.67.65,8.16,8.16,0,0,1-1.8.21,6.65,6.65,0,0,1-4.36-1.27,4.89,4.89,0,0,1-1.51-4h-.63a5.52,5.52,0,0,0,1.64,4.43,7.27,7.27,0,0,0,4.86,1.41,9.29,9.29,0,0,0,2.08-.24,5.75,5.75,0,0,0,1.87-.76,4.11,4.11,0,0,0,1.34-1.38A3.8,3.8,0,0,0,96,18.21a3.47,3.47,0,0,0-.45-1.87,3.76,3.76,0,0,0-1.19-1.19,6.1,6.1,0,0,0-1.66-.73l-1.85-.52-2.3-.59a14,14,0,0,1-1.83-.6,3,3,0,0,1-1.29-1,3,3,0,0,1-.49-1.83,4,4,0,0,1,.13-.78A2.84,2.84,0,0,1,85.66,8,4,4,0,0,1,87.1,7a6.39,6.39,0,0,1,2.65-.45,8.14,8.14,0,0,1,2.11.25,4.32,4.32,0,0,1,1.64.79,3.66,3.66,0,0,1,1.06,1.39A5.1,5.1,0,0,1,94.94,11Z" style="fill: #272727"/>
    </g>
  </g>
</svg>
