<svg xmlns="http://www.w3.org/2000/svg" viewBox="0 0 96 31.25">
  <g id="Camada_2" data-name="Camada 2">
    <g id="Camada_1-2" data-name="Camada 1">
      <g id="sequelizejs-ar21">
        <path id="Caminho_4745" data-name="Caminho 4745" d="M23.18,10V21.22l-9.57,5.62-.09.08v4.25l.09.08,13.47-7.78V7.78H27L23.15,9.9V10" style="fill: #374268"/>
        <path id="Caminho_4746" data-name="Caminho 4746" d="M4,21.31l9.61,5.57v4.37L0,23.44V7.81H.17L4,10l0,.12V21.36" style="fill: #4a78b8"/>
        <path id="Caminho_4747" data-name="Caminho 4747" d="M4,10.12,0,7.81,13.58,0l13.5,7.78L23.18,10,13.56,4.49,4,10.1" style="fill: #62aceb"/>
        <path id="Caminho_4748" data-name="Caminho 4748" d="M13.44,20l-.11-.1V15.69l.11,0v-.11l3.62-2.11h.11v4.36L13.42,20" style="fill: #374268"/>
        <path id="Caminho_4749" data-name="Caminho 4749" d="M9.62,17.94V13.41h.1l3.69,2.15V20L9.58,17.94" style="fill: #4a78b8"/>
        <path id="Caminho_4750" data-name="Caminho 4750" d="M13.38,11.19,9.62,13.42l3.82,2.2,3.76-2.19-3.82-2.26" style="fill: #62aceb"/>
        <path id="Caminho_4751" data-name="Caminho 4751" d="M8.76,22.79l-.1-.11V18.45l.1-.06v-.1l3.62-2.12h.11v4.36L8.74,22.76" style="fill: #374268"/>
        <path id="Caminho_4752" data-name="Caminho 4752" d="M4.94,20.7V16.17H5l3.69,2.15v4.47L4.94,20.7" style="fill: #4a78b8"/>
        <path id="Caminho_4753" data-name="Caminho 4753" d="M8.7,14,4.94,16.17,8.76,18.4l3.76-2.2L8.69,13.94" style="fill: #62aceb"/>
        <path id="Caminho_4754" data-name="Caminho 4754" d="M18.46,22.89l-.11-.11V18.55l.11-.06v-.1l3.62-2.11h.11v4.36l-3.76,2.23" style="fill: #374268"/>
        <path id="Caminho_4755" data-name="Caminho 4755" d="M14.63,20.8V16.27h.12l3.69,2.15v4.47L14.62,20.8" style="fill: #4a78b8"/>
        <path id="Caminho_4756" data-name="Caminho 4756" d="M18.39,14l-3.76,2.23,3.83,2.23,3.76-2.2L18.39,14" style="fill: #62aceb"/>
        <path id="Caminho_4757" data-name="Caminho 4757" d="M13.78,25.65l-.11-.11V21.31l.11-.06v-.1L17.4,19h.11v4.36l-3.76,2.23" style="fill: #374268"/>
        <path id="Caminho_4758" data-name="Caminho 4758" d="M10,23.57V19h.1l3.69,2.15v4.47L10,23.57" style="fill: #4a78b8"/>
        <path id="Caminho_4759" data-name="Caminho 4759" d="M13.7,16.81,9.94,19l3.83,2.19L17.53,19,13.7,16.81" style="fill: #62aceb"/>
        <path id="Caminho_4760" data-name="Caminho 4760" d="M13.44,14l-.1-.1V9.7l.1-.06v-.1l3.62-2.12h.12v4.36L13.44,14" style="fill: #374268"/>
        <path id="Caminho_4761" data-name="Caminho 4761" d="M9.62,11.94V7.42h.1l3.69,2.15V14L9.58,11.93" style="fill: #4a78b8"/>
        <path id="Caminho_4762" data-name="Caminho 4762" d="M13.38,5.2,9.62,7.43l3.82,2.23L17.2,7.47,13.38,5.2" style="fill: #62aceb"/>
        <path id="Caminho_4763" data-name="Caminho 4763" d="M8.76,16.78l-.1-.1V12.42l.1-.06v-.11l3.62-2.11h.11V14.5L8.74,16.73" style="fill: #374268"/>
        <path id="Caminho_4764" data-name="Caminho 4764" d="M4.94,14.7V10.17H5l3.69,2.15v4.47L4.94,14.7" style="fill: #4a78b8"/>
        <path id="Caminho_4765" data-name="Caminho 4765" d="M8.7,8,4.94,10.17l3.82,2.25,3.76-2.2L8.69,8" style="fill: #62aceb"/>
        <path id="Caminho_4766" data-name="Caminho 4766" d="M18.46,16.89l-.11-.11V12.56l.11-.06v-.1l3.62-2.12h.11v4.36l-3.76,2.23" style="fill: #374268"/>
        <path id="Caminho_4767" data-name="Caminho 4767" d="M14.63,14.82V10.28h.12l3.67,2.14v4.47l-3.79-2.07" style="fill: #4a78b8"/>
        <path id="Caminho_4768" data-name="Caminho 4768" d="M18.39,8.06l-3.76,2.23,3.83,2.22,3.76-2.19L18.39,8.06" style="fill: #62aceb"/>
        <path id="Caminho_4769" data-name="Caminho 4769" d="M13.78,19.63l-.11-.1V15.32l.11-.06v-.1L17.4,13h.11V17.4l-3.73,2.23" style="fill: #374268"/>
        <path id="Caminho_4770" data-name="Caminho 4770" d="M10,17.56V13h.1l3.69,2.15v4.45L10,17.56" style="fill: #4a78b8"/>
        <path id="Caminho_4771" data-name="Caminho 4771" d="M13.7,10.81,9.94,13l3.82,2.23,3.76-2.19L13.7,10.81" style="fill: #62aceb"/>
        <path id="Caminho_4772" data-name="Caminho 4772" d="M33.84,9.66c-1.68,0-2.52.64-2.52,1.9A1.57,1.57,0,0,0,31.9,13a7.78,7.78,0,0,0,2.35.8,6,6,0,0,1,2.52,1,2.63,2.63,0,0,1,.74,2.08q0,3.59-3.72,3.58a21.26,21.26,0,0,1-3.08-.29l-.61-.08L30.24,19a29.17,29.17,0,0,0,3.49.3c1.66,0,2.49-.78,2.49-2.33a1.65,1.65,0,0,0-.54-1.39,5.55,5.55,0,0,0-2-.7,7,7,0,0,1-2.8-1.08A2.69,2.69,0,0,1,30,11.61q0-3.13,3.75-3.14a19.58,19.58,0,0,1,2.95.25l.57.09-.07,1.12c-1.11-.15-2.22-.24-3.34-.28ZM45.25,19.3l.49-.05v1a25.6,25.6,0,0,1-3.28.27,2.94,2.94,0,0,1-2.57-1.05,5.6,5.6,0,0,1-.76-3.27q0-4.42,3.51-4.42a3.19,3.19,0,0,1,2.57.94,4.43,4.43,0,0,1,.84,3l0,.95H40.44a3.39,3.39,0,0,0,.5,2.06,2.06,2.06,0,0,0,1.76.68q1.26,0,2.55-.09Zm-.45-3.68a3.61,3.61,0,0,0-.5-2.18,1.92,1.92,0,0,0-1.6-.65,2.11,2.11,0,0,0-1.69.68,3.39,3.39,0,0,0-.61,2.16Zm6,4.89a2.83,2.83,0,0,1-2.41-1,5.92,5.92,0,0,1-.73-3.37,5.13,5.13,0,0,1,.88-3.38,3.9,3.9,0,0,1,3.09-1l2.81.16V24.08H53.22V20a5.56,5.56,0,0,1-2.41.55Zm.8-7.66a2.48,2.48,0,0,0-2.15.8,4.42,4.42,0,0,0-.56,2.52,5,5,0,0,0,.46,2.47,1.7,1.7,0,0,0,1.56.75A5.39,5.39,0,0,0,52.87,19l.31-.12V13c-.68,0-1.2-.08-1.56-.08Zm10.51-.92H63.4v8.41H62.13v-.58a4.81,4.81,0,0,1-2.5.75,2.51,2.51,0,0,1-2.28-.89,6.67,6.67,0,0,1-.56-3.3V11.93H58V16.3a6.21,6.21,0,0,0,.32,2.46c.21.42.7.63,1.45.63a4.34,4.34,0,0,0,1.13-.16,5.33,5.33,0,0,0,.87-.32l.31-.15Zm9.41,7.37.49-.05v1a24,24,0,0,1-3.28.27,3,3,0,0,1-2.58-1.05,5.66,5.66,0,0,1-.76-3.27c0-2.95,1.18-4.42,3.52-4.42a3.16,3.16,0,0,1,2.53,1,4.43,4.43,0,0,1,.84,3l-.06,1H66.72a3.5,3.5,0,0,0,.51,2.07,2.07,2.07,0,0,0,1.75.67c.84,0,1.7-.05,2.56-.12Zm-.46-3.68a3.61,3.61,0,0,0-.49-2.18A1.94,1.94,0,0,0,69,12.79a2.1,2.1,0,0,0-1.68.68,3.38,3.38,0,0,0-.59,2.16Zm3.34,4.72V8.26h1.24V20.34ZM78.2,10V8.55h1.26V10Zm0,10.32v-8.4h1.26v8.41Zm3.18-7.27V11.93h6.25v1.13l-4.72,6.16h4.72v1.13H81.38V19.21l4.7-6.15ZM95.22,19.3l.49-.05v1a22.56,22.56,0,0,1-3.28.27,2.94,2.94,0,0,1-2.57-1.05,5.57,5.57,0,0,1-.77-3.27c0-2.95,1.18-4.42,3.52-4.42a3.15,3.15,0,0,1,2.53,1,4.43,4.43,0,0,1,.84,3l-.06,1H90.4a3.49,3.49,0,0,0,.5,2.07,2.09,2.09,0,0,0,1.76.67c.84,0,1.69-.05,2.56-.12Zm-.45-3.68a3.7,3.7,0,0,0-.5-2.18,1.88,1.88,0,0,0-1.6-.64,2.07,2.07,0,0,0-1.69.67,3.36,3.36,0,0,0-.57,2.16Z" style="fill: #374268"/>
      </g>
    </g>
  </g>
</svg>
