<svg xmlns="http://www.w3.org/2000/svg" viewBox="0 0 96 69.03">
  <g id="Camada_2" data-name="Camada 2">
    <g id="Camada_1-2" data-name="Camada 1">
      <path id="SVGID" d="M19.27,55.62a5.2,5.2,0,0,1-5.22-5,5,5,0,0,1,5.22-5,5,5,0,0,1,5.21,5,5.19,5.19,0,0,1-5.21,5ZM83.34,28.56c-.5-4-3-7.2-6.21-9.69l-1.24-1-1,1.24c-2,2.24-2.73,6.21-2.48,9.19a13.43,13.43,0,0,0,2.23,6.21c-1,.49-2.23,1-3.22,1.49a21.08,21.08,0,0,1-6.71,1H.4L.15,38.49A28,28,0,0,0,2.38,52.64l1,1.74v.25C9.34,64.56,20,69,31.69,69,54,69,72.41,59.35,81.1,38.49c5.71.25,11.42-1.24,14.16-6.71L96,30.54l-1.24-.74c-3.23-2-7.7-2.24-11.42-1.24Zm-32-4H41.62v9.69H51.3Zm0-12.16H41.62V22.1H51.3ZM51.3,0H41.62V9.68H51.3ZM63.22,24.58H53.54v9.69h9.68Zm-36,0H17.53v9.69h9.69V24.58Zm12.16,0H29.7v9.69h9.68Zm-24.08,0H5.61v9.69H15.3V24.58ZM39.38,12.42H29.7V22.1h9.68Zm-12.16,0H17.53V22.1h9.69V12.42Z" style="fill: #009edb"/>
    </g>
  </g>
</svg>
