<svg xmlns="http://www.w3.org/2000/svg" viewBox="0 0 96 108.62">
  <g id="Camada_2" data-name="Camada 2">
    <g id="Camada_1-2" data-name="Camada 1">
      <g>
        <path d="M48,0,96,27.15V81.46L48,108.62,0,81.46V27.15Z" style="fill: #fff"/>
        <path d="M87.43,79.59,49.58,101V84.32l23.58-13ZM90,77.25V32.48l-13.85,8V69.24l13.85,8ZM8.42,79.59,46.26,101V84.32l-23.58-13L8.42,79.59ZM5.83,77.25V32.48l13.85,8V69.24l-13.85,8ZM7.45,29.58l38.81-22V23.74L21.4,37.42l-.19.11Zm81,0-38.82-22V23.74L74.45,37.42l.19.11Z" style="fill: #a2d2f6"/>
        <path d="M46.26,80.53,23,67.74V42.4L46.26,55.83v24.7m3.32,0L72.85,67.74V42.4L49.58,55.83v24.7m-25-41.07L47.93,26.62,71.28,39.46,47.93,53,24.57,39.46" style="fill: #4877b9"/>
      </g>
    </g>
  </g>
</svg>
