<svg xmlns="http://www.w3.org/2000/svg" viewBox="0 0 96 96">
  <g id="Camada_2" data-name="Camada 2">
    <g id="Camada_1-2" data-name="Camada 1">
      <g>
        <path d="M96,48A48,48,0,1,1,48,0,48,48,0,0,1,96,48Z" style="fill: #bd491f"/>
        <path d="M15.36,41.59A6.41,6.41,0,1,0,21.77,48a6.41,6.41,0,0,0-6.41-6.41ZM61.12,70.72a6.4,6.4,0,1,0,8.75,2.34A6.4,6.4,0,0,0,61.12,70.72ZM29.28,48a18.72,18.72,0,0,1,8-15.32l-4.68-7.84A27.89,27.89,0,0,0,21,41a9,9,0,0,1,0,14A27.84,27.84,0,0,0,32.56,71.16l4.68-7.85a18.68,18.68,0,0,1-8-15.31ZM48,29.28A18.72,18.72,0,0,1,66.64,46.34l9.14-.14A27.76,27.76,0,0,0,67.5,28.15a9,9,0,0,1-12.06-7A27.89,27.89,0,0,0,35.66,23l4.46,8A18.63,18.63,0,0,1,48,29.28Zm0,37.44A18.63,18.63,0,0,1,40.12,65l-4.46,8a27.89,27.89,0,0,0,19.78,1.87,9,9,0,0,1,12.06-7,27.77,27.77,0,0,0,8.28-18.06l-9.14-.13A18.72,18.72,0,0,1,48,66.72ZM61.12,25.28a6.41,6.41,0,1,0-2.35-8.75,6.41,6.41,0,0,0,2.35,8.75Z" style="fill: #fff"/>
      </g>
    </g>
  </g>
</svg>
