<svg xmlns="http://www.w3.org/2000/svg" xmlns:xlink="http://www.w3.org/1999/xlink" viewBox="0 0 96 93.6">
  <defs>
    <clipPath id="clip-path">
      <path d="M4,4H92V89.6H4Z" style="fill: none"/>
    </clipPath>
  </defs>
  <g id="Camada_2" data-name="Camada 2">
    <g id="Camada_1-2" data-name="Camada 1">
      <g>
        <g style="clip-path: url(#clip-path)">
          <rect x="4" y="4" width="88" height="85.6" style="fill: #131128"/>
          <path d="M92,23.18V4H4v77.5H3.81l.18.09c1,.45,2,.88,3,1.29a68.5,68.5,0,0,0,26,5.09A67.76,67.76,0,0,0,80.27,69a64.93,64.93,0,0,0,8.17-9.59q1.8-2.58,3.35-5.33c.13-.23.26-.46.38-.7H92Z" style="fill: #131128"/>
          <path d="M92,23.18V4H4V79.67H3.83l.17.08.71.34c1,.44,1.92.86,2.89,1.26a66.75,66.75,0,0,0,25.38,5A66.07,66.07,0,0,0,79.09,67.82a63.29,63.29,0,0,0,8-9.34,59.83,59.83,0,0,0,3.27-5.21c.5-.89,1-1.8,1.44-2.72.12-.23.23-.46.34-.69H92Z" style="fill: #141229"/>
          <path d="M92,23.18V4H4V77.79H3.72l.34.18,1.38.66c.92.43,1.86.84,2.81,1.23A65.19,65.19,0,0,0,33,84.7a64.41,64.41,0,0,0,44.93-18A61.68,61.68,0,0,0,91.53,47.12c.2-.46.39-.92.58-1.38H92Z" style="fill: #15132a"/>
          <path d="M92,23.18V5.37h0c-.15-.47-.31-.94-.47-1.4l-.06-.17V4H4V76H3.82l.33.17.67.33,1.34.65c.9.42,1.82.82,2.74,1.2A63.44,63.44,0,0,0,33,83.08,62.72,62.72,0,0,0,76.73,65.53,59.85,59.85,0,0,0,90,46.49q1.17-2.68,2.08-5.5h0Z" style="fill: #16142b"/>
          <path d="M92,23.18V12.86h.19c-.08-.47-.18-.95-.28-1.42a55.33,55.33,0,0,0-1.48-5.59c-.15-.46-.3-.91-.46-1.36l-.24-.68V4H4V74.17H3.81l.16.08.32.17q2.57,1.35,5.26,2.46A61.69,61.69,0,0,0,33,81.46,61.07,61.07,0,0,0,75.55,64.39,58.19,58.19,0,0,0,88.44,45.86,55.76,55.76,0,0,0,92,34.93c.1-.48.2-1,.28-1.43H92Z" style="fill: #17152c"/>
          <path d="M91.5,23.18a55.17,55.17,0,0,0-1.19-11.42,55.59,55.59,0,0,0-1.44-5.43c-.28-.88-.59-1.76-.92-2.63V4H4V72.33H3.85L5.09,73q2.49,1.31,5.11,2.39A60.17,60.17,0,0,0,33,79.84C65.3,79.84,91.5,54.47,91.5,23.18Z" style="fill: #18162d"/>
          <path d="M89.83,23.18a54,54,0,0,0-1.15-11.09q-.57-2.68-1.4-5.28-.42-1.29-.9-2.55l-.12-.32V4H4V70.42H3.8l.29.17.6.34c.39.22.79.44,1.2.65,1.61.84,3.26,1.62,5,2.31A58.14,58.14,0,0,0,33,78.22C64.38,78.22,89.83,53.58,89.83,23.18Z" style="fill: #19172e"/>
          <path d="M88.16,23.18A52.4,52.4,0,0,0,87,12.41,51.9,51.9,0,0,0,85.68,7.3Q85.28,6,84.81,4.81c-.08-.2-.15-.41-.23-.61s-.08-.2-.13-.3V4H4V68.53H3.81l.56.34c.76.44,1.53.87,2.31,1.28a53,53,0,0,0,4.83,2.25A56.39,56.39,0,0,0,33,76.6C63.46,76.6,88.16,52.68,88.16,23.18Z" style="fill: #1a182f"/>
          <path d="M86.49,23.18a50.14,50.14,0,0,0-2.41-15.4c-.26-.81-.54-1.62-.84-2.41-.15-.4-.3-.79-.46-1.18l-.12-.3V4H4V66.65H3.87l.27.17c.37.23.73.45,1.1.66.73.44,1.48.85,2.24,1.25q2.28,1.2,4.68,2.18A54.87,54.87,0,0,0,33,75C62.53,75,86.49,51.79,86.49,23.18Z" style="fill: #1b1930"/>
          <path d="M84.82,23.18a48.84,48.84,0,0,0-1.06-10.11,45.34,45.34,0,0,0-1.28-4.81c-.25-.79-.52-1.57-.81-2.33l-.45-1.15L81,4.21l-.12-.28V4H4V64.62H3.75l.25.17a52,52,0,0,0,8.81,4.63A53.12,53.12,0,0,0,33,73.36C61.61,73.36,84.82,50.9,84.82,23.18Z" style="fill: #1c1a31"/>
          <path d="M83.14,23.18A47.06,47.06,0,0,0,79.2,4.28L79,3.73V4H4V62.78H4c.32.23.65.45,1,.67a50.43,50.43,0,0,0,8.52,4.48A51.37,51.37,0,0,0,33,71.74C60.69,71.74,83.14,50,83.14,23.18Z" style="fill: #1c1b32"/>
          <path d="M81.47,23.18A45.55,45.55,0,0,0,77.66,4.91c-.15-.35-.31-.7-.47-1.05V4H4V60.63H3.74L4,60.8c.62.45,1.26.89,1.9,1.31a48.94,48.94,0,0,0,8.24,4.33A49.81,49.81,0,0,0,33,70.13C59.76,70.13,81.47,49.11,81.47,23.18Z" style="fill: #1d1c33"/>
          <path d="M79.8,23.18A43.9,43.9,0,0,0,76.12,5.54c-.15-.34-.3-.68-.46-1-.07-.17-.15-.34-.23-.5l-.12-.25V4H4V58.67h-.1l.22.17L5,59.5c.6.44,1.22.86,1.84,1.27a47.36,47.36,0,0,0,8,4.18A48.06,48.06,0,0,0,33,68.51C58.84,68.51,79.8,48.21,79.8,23.18Z" style="fill: #1e1d34"/>
          <path d="M78.13,23.18a42.46,42.46,0,0,0-3.55-17c-.29-.66-.59-1.3-.9-1.94-.08-.16-.16-.32-.25-.47V4H4V56.57H3.85l.42.34c1.11.89,2.27,1.73,3.47,2.51a45.14,45.14,0,0,0,7.67,4A46.12,46.12,0,0,0,33,66.89C57.92,66.89,78.13,47.32,78.13,23.18Z" style="fill: #1f1e35"/>
          <path d="M76.46,23.18A40.78,40.78,0,0,0,73,6.8c-.28-.63-.57-1.25-.87-1.87L71.7,4l-.12-.23V4H4V54.34H3.75c.52.45,1,.89,1.58,1.32,1.07.86,2.19,1.66,3.35,2.42A43.55,43.55,0,0,0,16.06,62,44.56,44.56,0,0,0,33,65.27C57,65.27,76.46,46.43,76.46,23.18Z" style="fill: #201f36"/>
          <path d="M74.78,23.18A39.3,39.3,0,0,0,71.5,7.43C71,6.22,70.38,5,69.74,3.89V4H4V52.14H3.78l.36.34.74.66c.49.43,1,.86,1.51,1.27,1,.82,2.11,1.6,3.22,2.33a42.45,42.45,0,0,0,7.1,3.73A42.81,42.81,0,0,0,33,63.65C56.07,63.65,74.78,45.53,74.78,23.18Z" style="fill: #212037"/>
          <path d="M73.11,23.18A37.69,37.69,0,0,0,70,8.06c-.51-1.16-1.07-2.3-1.69-3.4-.16-.27-.31-.55-.48-.82V4H4V50h0l.67.66A40.66,40.66,0,0,0,33,62C55.15,62,73.11,44.64,73.11,23.18Z" style="fill: #222138"/>
          <path d="M71.44,23.18a36.17,36.17,0,0,0-3-14.49c-.49-1.12-1-2.2-1.62-3.26q-.45-.78-.93-1.56V4H4V47.55H3.9l.62.66c.41.45.84.88,1.27,1.3A39,39,0,0,0,33,60.41C54.22,60.41,71.44,43.74,71.44,23.18Z" style="fill: #232239"/>
          <path d="M69.77,23.18A34.53,34.53,0,0,0,66.88,9.32c-.47-1.07-1-2.11-1.55-3.11-.29-.51-.58-1-.89-1.5-.15-.24-.31-.48-.47-.72l-.12-.19V4H4V44.83H3.77l.27.34.56.66c.75.88,1.54,1.73,2.37,2.53A37.28,37.28,0,0,0,33,58.79C53.3,58.79,69.77,42.85,69.77,23.18Z" style="fill: #24233a"/>
          <path d="M68.1,23.18A33.09,33.09,0,0,0,65.34,10,33.71,33.71,0,0,0,62.1,4.17l-.24-.33V4H4.11V3.84l-.24.33H4v38H3.87a34.25,34.25,0,0,0,4.29,5A35.58,35.58,0,0,0,33,57.18C52.37,57.18,68.1,42,68.1,23.18Z" style="fill: #25243b"/>
          <path d="M66.42,23.18a31.4,31.4,0,0,0-2.62-12.6,32.21,32.21,0,0,0-3.09-5.5c-.3-.43-.61-.85-.93-1.27V4H6.19V3.81c-.32.42-.64.84-.94,1.27S4.66,6,4.38,6.39c-.14.22-.27.45-.41.68l-.2.34H4V39H3.77a3.79,3.79,0,0,1,.2.34l.41.67c.28.44.57.88.87,1.31a32.76,32.76,0,0,0,4.09,4.79A33.89,33.89,0,0,0,33,55.56C51.45,55.56,66.42,41.06,66.42,23.18Z" style="fill: #26263b"/>
          <path d="M64.75,23.18a29.76,29.76,0,0,0-2.5-12A30.4,30.4,0,0,0,59.33,6c-.29-.41-.59-.81-.89-1.2L58,4.19l-.24-.29V4H8.23V3.9L8,4.19l-.46.59c-.31.39-.6.79-.89,1.2a31.13,31.13,0,0,0-2.93,5.23H4V35.15H3.71a30.87,30.87,0,0,0,6.81,9.78,32.18,32.18,0,0,0,22.46,9C50.53,53.94,64.75,40.17,64.75,23.18Z" style="fill: #27273c"/>
          <path d="M63.08,23.18a28.12,28.12,0,0,0-2.37-11.34,28.9,28.9,0,0,0-2.77-4.95c-.54-.78-1.12-1.52-1.73-2.24l-.47-.54-.24-.26V4h-45V3.85c-.08.09-.16.17-.23.26l-.47.54C9.15,5.37,8.57,6.11,8,6.89a29,29,0,0,0-2.78,5,26.86,26.86,0,0,0-1,2.68c-.15.45-.28.91-.41,1.38H4V30.46H3.83c.13.47.26.93.41,1.39a27.64,27.64,0,0,0,1,2.67,29.19,29.19,0,0,0,6.45,9.26A30.48,30.48,0,0,0,33,52.32C49.6,52.32,63.08,39.27,63.08,23.18Z" style="fill: #28283d"/>
          <path d="M61.41,23.18A27,27,0,0,0,53.08,3.72V4H12.88V3.72A27,27,0,0,0,4.56,23.18C4.56,38.38,17.28,50.7,33,50.7S61.41,38.38,61.41,23.18Z" style="fill: #29293e"/>
          <path d="M59.74,23.18A25.4,25.4,0,0,0,51.9,4.87c-.3-.3-.61-.58-.93-.86l-.24-.21V4H15.23V3.8L15,4c-.32.28-.63.56-.93.86A25.4,25.4,0,0,0,6.23,23.18c0,14.31,12,25.9,26.75,25.9S59.74,37.49,59.74,23.18Z" style="fill: #2a2a3f"/>
          <path d="M58.06,23.18A23.82,23.82,0,0,0,50.72,6c-.57-.55-1.16-1.07-1.78-1.57L48,3.72V4H18V3.72L17,4.44c-.62.5-1.21,1-1.78,1.57A23.83,23.83,0,0,0,7.9,23.18C7.9,36.59,19.13,47.46,33,47.46S58.06,36.59,58.06,23.18Z" style="fill: #2b2b40"/>
          <path d="M56.39,23.18a22.24,22.24,0,0,0-6.85-16,22.68,22.68,0,0,0-3.47-2.77c-.31-.21-.63-.4-1-.59V4H20.85V3.8c-.33.19-.64.38-1,.59a22.68,22.68,0,0,0-3.47,2.77,22.24,22.24,0,0,0-6.85,16C9.58,35.7,20.06,45.84,33,45.84S56.39,35.7,56.39,23.18Z" style="fill: #2c2c41"/>
          <path d="M54.72,23.18A20.63,20.63,0,0,0,48.35,8.3a21.75,21.75,0,0,0-6.91-4.51V4H24.52V3.79A21.86,21.86,0,0,0,17.61,8.3a20.66,20.66,0,0,0-6.36,14.88c0,11.62,9.73,21,21.73,21S54.72,34.8,54.72,23.18Z" style="fill: #2d2d42"/>
          <ellipse cx="32.98" cy="23.18" rx="20.06" ry="19.43" style="fill: #2e2e43"/>
          <ellipse cx="32.98" cy="23.18" rx="18.39" ry="17.81" style="fill: #2f2f44"/>
          <ellipse cx="32.98" cy="23.18" rx="16.72" ry="16.19" style="fill: #2f3045"/>
          <ellipse cx="32.98" cy="23.18" rx="15.05" ry="14.57" style="fill: #303146"/>
          <ellipse cx="32.98" cy="23.18" rx="13.38" ry="12.95" style="fill: #313247"/>
          <ellipse cx="32.98" cy="23.18" rx="11.7" ry="11.33" style="fill: #323348"/>
          <ellipse cx="32.98" cy="23.18" rx="10.03" ry="9.71" style="fill: #333449"/>
          <ellipse cx="32.98" cy="23.18" rx="8.36" ry="8.09" style="fill: #34354a"/>
          <ellipse cx="32.98" cy="23.18" rx="6.69" ry="6.48" style="fill: #35364b"/>
          <ellipse cx="32.98" cy="23.18" rx="5.02" ry="4.86" style="fill: #36374c"/>
          <ellipse cx="32.98" cy="23.18" rx="3.34" ry="3.24" style="fill: #37384d"/>
          <ellipse cx="32.98" cy="23.18" rx="1.67" ry="1.62" style="fill: #38394e"/>
        </g>
        <path d="M4,4H92V89.6H4ZM0,93.6H96V0H0ZM64.72,38.4c-3.16,0-4.24,1.6-4.24,2.92s.72,2.44,5,4.64c6.28,3,8.24,6,8.24,10.24C73.68,62.6,68.8,66,62.2,66A17.4,17.4,0,0,1,54,64.32c-.28-.12-.32-.32-.32-.64V57.8c0-.4.2-.52.48-.32a14.85,14.85,0,0,0,8,2.36c3.16,0,4.48-1.32,4.48-3.12,0-1.44-.92-2.72-5-4.8-5.68-2.72-8-5.48-8-10.08,0-5.16,4-9.44,11-9.44a18.39,18.39,0,0,1,7.16,1.12.89.89,0,0,1,.4.8V39.8c0,.32-.2.52-.6.4a13.51,13.51,0,0,0-7-1.8Zm-34.4,4.76c.92.08,1.64.08,3.24.08,4.68,0,9.08-1.64,9.08-8,0-5.08-3.16-7.64-8.48-7.64-1.6,0-3.12.08-3.84.12ZM23.2,21.92c0-.28.56-.48.88-.48,2.56-.12,6.36-.2,10.32-.2,11.08,0,15.4,6.08,15.4,13.84,0,10.16-7.36,14.52-16.4,14.52-1.52,0-2-.08-3.12-.08V64.88c0,.32-.12.48-.48.48H23.68c-.32,0-.48-.12-.48-.48v-43Z" style="fill: #75c1eb"/>
      </g>
    </g>
  </g>
</svg>
