<svg xmlns="http://www.w3.org/2000/svg" viewBox="0 0 96 35.61">
  <g id="Camada_2" data-name="Camada 2">
    <g id="Camada_1-2" data-name="Camada 1">
      <g>
        <g id="Grupo_488" data-name="Grupo 488">
          <path id="Caminho_4835" data-name="Caminho 4835" d="M36.14,21.66l2.1,5.53H34.17l2-5.53Zm-.79-1.85-4.61,12.1h1.71l1.19-3.29h5.12L40,31.91h1.71l-4.6-12.1H35.35ZM60.21,31.92h1.58V19.82H60.21v12.1ZM44,24.81a3.39,3.39,0,0,1,2.63-1.45c2.11,0,3.16,1.45,3.16,3.56v5.13H48.23V27.18c0-1.71-.92-2.38-2.11-2.38a2.45,2.45,0,0,0-2.23,2.5v4.61H42.3v-8.4h1.59L44,24.82Zm7.11,4.61c0-1.85,1.71-2.89,3.68-2.89a3.61,3.61,0,0,1,2.24.53v-.27a2,2,0,0,0-2-2H55A1.9,1.9,0,0,0,53,26l-1.45-.66a3.78,3.78,0,0,1,7.1,1.58v5H57.19V30.74h-.14a3.15,3.15,0,0,1-2.76,1.44,2.88,2.88,0,0,1-3.15-2.59c0-.06,0-.11,0-.17m5.92-1.05a3.33,3.33,0,0,0-2-.53c-1.59,0-2.24.92-2.24,1.59,0,.92.92,1.32,1.71,1.32a2.57,2.57,0,0,0,2.5-2.38" style="fill: #747474"/>
          <path id="Caminho_4836" data-name="Caminho 4836" d="M64,35.61l1.85-4.34-3.29-7.64h1.59l2.5,5.79,2.5-5.79h1.58l-5.12,12H64Zm23.16-9.22A2.52,2.52,0,0,0,85,24.69a2.7,2.7,0,0,0-2.5,2.87v0a2.68,2.68,0,0,0,2.47,2.89h0a2.54,2.54,0,0,0,2.24-1.58l1.31.79A3.86,3.86,0,0,1,85,32.06a4.27,4.27,0,0,1-4.07-4.47,4.21,4.21,0,0,1,3.93-4.47H85a3.82,3.82,0,0,1,3.55,2.37l-1.31.92Z" style="fill: #747474;fill-rule: evenodd"/>
          <path id="Caminho_4837" data-name="Caminho 4837" d="M92.84,32.18C95,32.18,96,31,96,29.55c0-3.15-4.61-2-4.61-3.81,0-.66.53-1,1.45-1a2.61,2.61,0,0,1,2.24,1l.92-.92a4.89,4.89,0,0,0-3.29-1.59,2.68,2.68,0,0,0-3,2.31,1.72,1.72,0,0,0,0,.32c0,3,4.73,2,4.73,3.56,0,.78-.52,1.31-1.58,1.31a2.58,2.58,0,0,1-2.11-1.32l-1.17.93a5.21,5.21,0,0,0,3.29,1.86Zm-15-.26h1.59V23.5H77.84Z" style="fill: #747474"/>
          <path id="Caminho_4838" data-name="Caminho 4838" d="M78.5,19.43a1.06,1.06,0,0,1,0,2.11,1.06,1.06,0,0,1,0-2.11ZM76.26,30.62l.27,1.18H74.94c-1.45,0-2.11-1.05-2.11-2.63v-4.1H71.24V23.49h1.59V21h1.59v2.5h1.85v1.59H74.43v4.34c0,1.19.92,1.19,1.85,1.19Z" style="fill: #747474;fill-rule: evenodd"/>
          <path id="Caminho_4839" data-name="Caminho 4839" d="M38.74,6.44v2h4.61a4,4,0,0,1-1.06,2.38,4.68,4.68,0,0,1-3.55,1.44,5,5,0,0,1-5-5.05V7.1a5.11,5.11,0,0,1,5-5.12,5,5,0,0,1,3.42,1.31L43.48,2a6.84,6.84,0,0,0-4.74-2,7.13,7.13,0,0,0-7.1,7,7.12,7.12,0,0,0,7.1,7,6.14,6.14,0,0,0,4.87-2,6.18,6.18,0,0,0,1.71-4.47,3.19,3.19,0,0,0-.13-1.19H38.74ZM50.45,4.85A4.36,4.36,0,0,0,46,9.1a.81.81,0,0,0,0,.22,4.37,4.37,0,0,0,4.25,4.48h.22a4.44,4.44,0,0,0,4.47-4.48,4.35,4.35,0,0,0-4.24-4.47Zm0,7.23A2.64,2.64,0,0,1,48,9.32a2.64,2.64,0,0,1,2.5-2.76A2.57,2.57,0,0,1,53,9.19v.13a2.58,2.58,0,0,1-2.38,2.76ZM72,5.77a3.41,3.41,0,0,0-2.5-1,4.38,4.38,0,0,0-4.21,4.47,4.4,4.4,0,0,0,4.21,4.47A3.1,3.1,0,0,0,71.9,12.6H72v.66c0,1.71-.92,2.63-2.38,2.63a2.49,2.49,0,0,1-2.23-1.58L65.71,15a4.34,4.34,0,0,0,3.94,2.63C72,17.6,74,16.28,74,12.86V4.71H72.14v1Zm-2.24,6.32a2.55,2.55,0,0,1-2.38-2.7V9.32a2.53,2.53,0,0,1,2.31-2.75h.06a2.54,2.54,0,0,1,2.38,2.7v.06a2.55,2.55,0,0,1-2.31,2.76Zm-9.6-7.23A4.37,4.37,0,0,0,55.7,9.11v.22A4.36,4.36,0,0,0,60,13.8h.23a4.42,4.42,0,0,0,3.17-1.29,4.47,4.47,0,0,0,1.3-3.18,4.27,4.27,0,0,0-4.08-4.47,2.54,2.54,0,0,0-.39,0Zm0,7.23a2.65,2.65,0,0,1-2.5-2.77,2.64,2.64,0,0,1,2.5-2.76,2.56,2.56,0,0,1,2.5,2.63v.13a2.58,2.58,0,0,1-2.37,2.76ZM75.45.12h2V13.81h-2Zm7.37,12a2.55,2.55,0,0,1-2.23-1.33l6-2.49-.26-.53a4.1,4.1,0,0,0-8,1.35v.23a4.44,4.44,0,0,0,4.48,4.47,4.79,4.79,0,0,0,3.81-2l-1.59-1.05a2.54,2.54,0,0,1-2.23,1.31Zm-.14-5.53a1.75,1.75,0,0,1,1.71,1L80.32,9.33a2.48,2.48,0,0,1,2.15-2.75h.21Z" style="fill: #747474"/>
        </g>
        <g id="Grupo_490" data-name="Grupo 490">
          <path id="Caminho_4840" data-name="Caminho 4840" d="M19.26,4.42V27.53a3.73,3.73,0,0,0,3.43,4h.25a3.68,3.68,0,0,0,3.69-3.67,2.17,2.17,0,0,0,0-.36V4.6A3.67,3.67,0,0,0,23.11.75h-.17A3.74,3.74,0,0,0,19.26,4.42Z" style="fill: #e3a628"/>
          <g id="Grupo_489" data-name="Grupo 489">
            <path id="Caminho_4841" data-name="Caminho 4841" d="M9.63,16.15V27.53a3.74,3.74,0,0,0,3.43,4h.25A3.68,3.68,0,0,0,17,27.89c0-.12,0-.24,0-.36V16.33a3.66,3.66,0,0,0-3.5-3.84h-.17A3.75,3.75,0,0,0,9.63,16.15Z" style="fill: #c7731b"/>
            <circle id="Elipse_1047" data-name="Elipse 1047" cx="3.68" cy="27.88" r="3.68" style="fill: #c7731b"/>
          </g>
        </g>
      </g>
    </g>
  </g>
</svg>
