<svg xmlns="http://www.w3.org/2000/svg" viewBox="0 0 96 91.14">
  <g id="Camada_2" data-name="Camada 2">
    <g id="Camada_1-2" data-name="Camada 1">
      <path d="M66.52,63.65A6.86,6.86,0,0,0,65.78,50h-.24a6.84,6.84,0,0,0-6.6,7.08,7,7,0,0,0,2,4.52c-4.16,8.19-10.51,14.17-20,19.18A33,33,0,0,1,21,84.54c-5.5-.73-9.77-3.18-12.46-7.21a17.93,17.93,0,0,1-1-18.93,28.71,28.71,0,0,1,8.31-9.78c-.49-1.59-1.22-4.27-1.59-6.23C-3.48,55.22-1.65,72.57,3.73,80.75c4,6.11,12.21,9.9,21.25,9.9a30,30,0,0,0,7.33-.86C48,86.74,59.8,77.45,66.52,63.65ZM88,48.5c-9.29-10.87-23-16.86-38.61-16.86H47.46a6.71,6.71,0,0,0-6-3.66h-.24a6.84,6.84,0,0,0,.24,13.68h.25a6.86,6.86,0,0,0,6-4.15h2.2a46.49,46.49,0,0,1,26,7.94,32.69,32.69,0,0,1,13,15.63c2.08,5.14,2,10.14-.24,14.42a17.94,17.94,0,0,1-16.74,10,31.23,31.23,0,0,1-12-2.57c-1.34,1.22-3.79,3.18-5.5,4.4a37.8,37.8,0,0,0,15.76,3.79c11.73,0,20.4-6.48,23.7-13,3.55-7.09,3.3-19.3-5.86-29.69ZM26,65.73a6.86,6.86,0,0,0,6.84,6.59H33a6.84,6.84,0,0,0-.24-13.68h-.24a2.14,2.14,0,0,0-.86.12,44.76,44.76,0,0,1-6.35-27.12A32.79,32.79,0,0,1,32.56,12.7C36.1,8.18,42.94,6,47.58,5.86,60.53,5.62,66,21.75,66.4,28.22c1.58.37,4.27,1.22,6.1,1.83C71,10.26,58.82,0,47.09,0,36.1,0,26,7.94,21.93,19.67c-5.62,15.64-2,30.66,4.88,42.51A5.52,5.52,0,0,0,26,65.73Z" style="fill: #6b4bb4"/>
    </g>
  </g>
</svg>
