<svg xmlns="http://www.w3.org/2000/svg" viewBox="0 0 96 96">
  <g id="Camada_2" data-name="Camada 2">
    <g id="Camada_1-2" data-name="Camada 1">
      <g>
        <path d="M0,48V0H96V96H0" style="fill: #4479c5"/>
        <path d="M21.05,48.17v3.91H33.53V87.6h8.85V52.08H54.86V48.24a31.92,31.92,0,0,0-.09-4c0-.07-7.61-.1-16.85-.1l-16.8.08v3.93l-.07,0Zm56.09-4a11.69,11.69,0,0,1,6,3.43,15.58,15.58,0,0,1,2.3,3.07c0,.15-4.15,3-6.67,4.52-.1.07-.48-.34-.87-1a5.46,5.46,0,0,0-4.51-2.69c-2.88-.19-4.8,1.32-4.8,3.84A3.85,3.85,0,0,0,69,57.19c.65,1.32,1.85,2.11,5.57,3.75,6.87,3,9.84,4.89,11.64,7.68A14,14,0,0,1,87.36,80.3c-1.54,4-5.28,6.72-10.63,7.61a29.94,29.94,0,0,1-7.32-.07,18.15,18.15,0,0,1-9.77-5.11,17.32,17.32,0,0,1-2.5-3.7l.92-.57,3.6-2.09,2.71-1.59.62.84a13.12,13.12,0,0,0,3.6,3.51c3.12,1.61,7.3,1.39,9.36-.48a3.59,3.59,0,0,0,1.27-2.88,3.66,3.66,0,0,0-.72-2.45c-.76-1.06-2.3-1.92-6.62-3.84-5-2.11-7.08-3.46-9-5.52a13.6,13.6,0,0,1-2.64-4.8A18.28,18.28,0,0,1,60.05,53c1-4.8,4.65-8.16,9.84-9.12a23.46,23.46,0,0,1,7.29.24l0,0Z" style="fill: #fff"/>
      </g>
    </g>
  </g>
</svg>
