<svg xmlns="http://www.w3.org/2000/svg" viewBox="0 0 96 107.87">
  <g id="Camada_2" data-name="Camada 2">
    <g id="Camada_1-2" data-name="Camada 1">
      <path d="M57.22,12.36,79.4,25.17A9.62,9.62,0,1,1,91.19,40.11a9.79,9.79,0,0,1-2.56,1V66.75a9.24,9.24,0,0,1,2.53,1,9.62,9.62,0,0,1-9.61,16.67,10.08,10.08,0,0,1-2.38-1.93l-22,12.72a9.75,9.75,0,0,1,.48,3,9.61,9.61,0,1,1-19.22,0,9.47,9.47,0,0,1,.39-2.72L16.6,82.73a9.83,9.83,0,0,1-2.15,1.7A9.62,9.62,0,0,1,4.84,67.76a9.24,9.24,0,0,1,2.53-1V41.13a9.79,9.79,0,0,1-2.56-1,9.62,9.62,0,0,1,9.61-16.67,9.51,9.51,0,0,1,2.17,1.72L38.78,12.35a9.76,9.76,0,0,1-.39-2.74,9.61,9.61,0,0,1,19.22,0,9.93,9.93,0,0,1-.39,2.75Zm-2.31,3.95L77.14,29.14a9.59,9.59,0,0,0,6.92,12V66.76l-.38.1-29-50.3.26-.25Zm-13.55.26-29,50.29-.38-.1V41.1a9.6,9.6,0,0,0,6.92-12L41.08,16.3l.28.27Zm9.33,2.28,29,50.28A9.37,9.37,0,0,0,78,71.29a9.91,9.91,0,0,0-1,2.53H19a9.91,9.91,0,0,0-1-2.53,9.55,9.55,0,0,0-1.69-2.15l29-50.29a9.7,9.7,0,0,0,2.68.38A10,10,0,0,0,50.69,18.85Zm4.42,72.93L77.2,79a5.79,5.79,0,0,1-.18-.63H19c0,.13-.07.25-.1.37L41.07,91.58a9.63,9.63,0,0,1,14,.2Z" style="fill: #c338a4;fill-rule: evenodd"/>
    </g>
  </g>
</svg>
