<svg xmlns="http://www.w3.org/2000/svg" viewBox="0 0 95.89 98.86">
  <g id="Camada_2" data-name="Camada 2">
    <g id="Camada_1-2" data-name="Camada 1">
      <g id="Layer_3">
        <g>
          <path d="M71.63,72c.63-5.24.44-6,4.35-5.16l1,.09a22.54,22.54,0,0,0,9.23-1.55c5-2.31,7.91-6.15,3-5.14-11.16,2.3-11.93-1.48-11.93-1.48C89.07,41.24,94,19,89.74,13.6,78.14-1.23,58.06,5.78,57.72,6l-.11,0a40,40,0,0,0-7.45-.77A18.39,18.39,0,0,0,38.37,8.74S2.54-6,4.21,27.3C4.56,34.39,14.37,81,26.07,66.88c4.27-5.14,8.4-9.48,8.4-9.48a10.86,10.86,0,0,0,7.09,1.8l.2-.17a7.66,7.66,0,0,0,.07,2c-3,3.36-2.12,3.95-8.15,5.19s-2.51,3.5-.17,4.08C36.34,71,42.9,72,47.33,65.82l-.18.71c1.18.94,1.1,6.8,1.27,11s.45,8.08,1.3,10.38,1.86,8.22,9.78,6.53C66.11,93,71.17,91,71.63,72"/>
          <path d="M56.92,98.86a10.43,10.43,0,0,1-7.38-2.74A14,14,0,0,1,46,90c-.08-.24-.15-.47-.21-.62-1-2.73-1.35-6.63-1.56-11.66,0-.74-.05-1.53-.07-2.34,0-.5,0-1.08-.05-1.69a17.87,17.87,0,0,1-11.65.7,9.8,9.8,0,0,1-5.11-2.92A8.45,8.45,0,0,1,19,73.23c-3.17-1-6-4-8.63-9A78.93,78.93,0,0,1,5,50.59C2.09,41,.23,30.84.06,27.51-.46,17,2.37,9.5,8.5,5.18,13.55,1.61,20.47.51,29,1.92a55.94,55.94,0,0,1,8.77,2.2A23.16,23.16,0,0,1,50.23,1.06a45.62,45.62,0,0,1,7.13.65A41.78,41.78,0,0,1,69.56,0C79.34.12,87.45,3.94,93,11c3.81,4.86,2.39,14.45.54,21.64A96,96,0,0,1,83.41,56.8a29.58,29.58,0,0,0,5-.66c5.43-1.12,6.93,2.07,7.26,3.08,1.69,5.09-5.46,8.86-7.68,9.89a26.72,26.72,0,0,1-11.17,1.94H76.6L75.93,71l-.06.51q0,.38-.09.78c-.25,9.68-1.65,15.82-4.51,19.9-3,4.31-7.22,5.51-10.9,6.31A16.44,16.44,0,0,1,56.92,98.86ZM49.74,63.29c2.37,1.89,2.58,5.35,2.76,11.81,0,.77,0,1.53.07,2.24.08,2.11.28,7,1,9.11.12.3.22.61.32.93.86,2.63,1.22,3.72,4.7,3,3.07-.66,4.64-1.24,5.85-3,1.81-2.58,2.82-7.8,3-15.53l4.15.1-4.12-.49c0-.34.08-.65.11-1,.37-3.1.65-5.54,2.86-7.12a6.29,6.29,0,0,1,4.32-1,5.86,5.86,0,0,1-1.59-2.85l-.34-1.71,1-1.44A87,87,0,0,0,85.49,30.67c2.31-8.91,1.66-13.63,1-14.51-9.22-11.79-25.27-7-27-6.4l-.31.17-1.55.28-.8-.16a35.87,35.87,0,0,0-6.67-.69,14.28,14.28,0,0,0-9.22,2.69L39,13.48l-2.2-.9c-4.3-1.76-16.91-5.3-23.51-.61C9.64,14.54,8,19.63,8.35,27.1c.13,2.58,1.89,12.27,4.78,21.6,4,12.81,7.48,16.37,8.48,16.66a4.11,4.11,0,0,0,1.26-1.13c4.32-5.19,8.42-9.51,8.59-9.69L33.87,52l2.9,1.93A6.84,6.84,0,0,0,40,55.08l6.9-5.87-1,10.23a3.47,3.47,0,0,0,0,1l.3,1.94L44.93,63.8l0,0,3.22,1.49Z"/>
        </g>
        <path d="M89.21,60.21c-11.16,2.3-11.93-1.48-11.93-1.48C89.07,41.24,94,19,89.74,13.6,78.14-1.23,58.06,5.78,57.72,6l-.11,0a40,40,0,0,0-7.45-.77A18.39,18.39,0,0,0,38.37,8.74S2.54-6,4.21,27.3C4.56,34.39,14.37,81,26.06,66.88c4.28-5.14,8.41-9.48,8.41-9.48a10.85,10.85,0,0,0,7.08,1.8l.2-.17a8.15,8.15,0,0,0,.08,2c-3,3.36-2.12,3.95-8.15,5.19s-2.51,3.5-.17,4.08C36.34,71,42.9,72,47.33,65.82l-.18.71c1.18.94,2,6.15,1.87,10.87s-.23,8,.7,10.49,1.86,8.22,9.78,6.53c6.61-1.42,10-5.1,10.52-11.23.34-4.35,1.1-3.71,1.15-7.61l.62-1.84c.71-5.91.11-7.81,4.19-6.93l1,.09a22.54,22.54,0,0,0,9.23-1.55c5-2.31,7.91-6.15,3-5.14Z" style="fill: #48678d"/>
        <path d="M57.31,96.29c-6.66,0-8.77-5.27-9.63-7.43-1.27-3.16-1.54-15-1.26-25.3a1.4,1.4,0,0,1,1.43-1.35,1.38,1.38,0,0,1,1.34,1.42c-.32,11.49.13,21.89,1.05,24.2,1.43,3.57,3.6,6.7,9.73,5.39,5.91-1.27,8-3.4,9-9.11.76-4.36,2.25-16.79,2.43-19.24a1.38,1.38,0,1,1,2.76.21c-.19,2.55-1.68,15-2.46,19.5-1.17,6.78-4.19,9.85-11.14,11.34A15.12,15.12,0,0,1,57.31,96.29Z" style="fill: #fff"/>
        <path d="M21.53,70.76a5.4,5.4,0,0,1-1.73-.29C15.48,69,11.37,62,7.59,49.65,4.72,40.24,2.9,30.42,2.74,27.23c-.47-9.48,2-16.2,7.28-20C20.5-.15,38.09,6.91,38.84,7.21a1.38,1.38,0,1,1-1.05,2.56c-.2-.08-16.95-6.78-26.17-.24-4.48,3.18-6.54,9.09-6.11,17.56.13,2.68,1.83,12.24,4.73,21.75,3.35,11,7.16,17.91,10.43,19,.51.16,2,.67,4.25-2,4.26-5.12,8.17-9.21,8.21-9.25a1.38,1.38,0,1,1,2,1.92s-3.88,4.06-8.07,9.1C25,70.05,23.11,70.76,21.53,70.76Z" style="fill: #fff"/>
        <path d="M77.2,60a1.37,1.37,0,0,1-.77-.24,1.39,1.39,0,0,1-.38-1.92C88,40.17,92.14,18.87,88.58,14.31,84.09,8.58,77.75,5.58,69.74,5.4A35.3,35.3,0,0,0,58.3,7.06l-.2.08a1.38,1.38,0,0,1-1.18-2.49,34.93,34.93,0,0,1,12.48-2c8.94.1,16.32,3.55,21.36,10,3.39,4.33,1.15,14.9,0,19.24A93.07,93.07,0,0,1,78.35,59.37,1.41,1.41,0,0,1,77.2,60Z" style="fill: #fff"/>
        <path d="M77.81,68.16a10.51,10.51,0,0,1-5-1,2.67,2.67,0,0,1-1.41-2.16c-.3-5.3,2.54-6.35,4.11-6.81-.2-.29-.46-.62-.73-1a19,19,0,0,1-3-4.89c-.15-.35-.6-1.17-1.13-2.12-2.88-5.16-8.87-15.91-5-21.45,1.78-2.54,5.29-3.56,10.46-3a31,31,0,0,0-5.59-9.57A26.7,26.7,0,0,0,50.06,6.45C44.88,6.36,40.64,8,37.45,11.18c-7.15,7.22-6.9,20.31-6.89,20.44A1.39,1.39,0,0,1,29.21,33h0a1.39,1.39,0,0,1-1.38-1.35c0-.58-.28-14.4,7.69-22.46,3.74-3.78,8.66-5.65,14.63-5.54A29.38,29.38,0,0,1,72.42,14.23C76.83,19.36,79,25,79.17,26.92A1.53,1.53,0,0,1,78,28.75l-.5,0c-3.48-.56-8-.73-9.64,1.64C65,34.53,70.61,44.62,73,48.93c.61,1.1,1.06,1.9,1.27,2.4a16.38,16.38,0,0,0,2.64,4.23,7.22,7.22,0,0,1,1.6,2.66c.12.19,1.66,2.28,10.33.5,2.27-.47,3.64-.06,4.07,1.23.82,2.48-3.71,5.35-6.23,6.51A23.24,23.24,0,0,1,77.81,68.16Zm-3.66-3.38c.33.28,1.76.73,4.57.59A20,20,0,0,0,85.54,64a15.19,15.19,0,0,0,3.94-2.54h-.06c-5.69,1.18-9.71,1-12-.47-.14-.1-.27-.19-.39-.29a5.08,5.08,0,0,1-.59.18C75.2,61.2,74,61.54,74.15,64.78Z" style="fill: #fff"/>
        <path d="M37.5,72.09a17.83,17.83,0,0,1-4.41-.58c-.44-.11-4.29-1.14-4.24-3.6,0-2.26,3.26-2.92,4.47-3.17,4.26-.88,4.54-1.23,5.86-2.9.39-.5.88-1.12,1.54-1.87,2.22-2.47,4.31-1.61,5.2-1.24a5.61,5.61,0,0,1,3,3.65,4.72,4.72,0,0,1-.59,4.11A12.89,12.89,0,0,1,37.5,72.09Zm-5.58-4a6.16,6.16,0,0,0,1.84.79c3.69.92,8.83,1,12.36-4a2.08,2.08,0,0,0,.18-1.74,2.91,2.91,0,0,0-1.44-1.85c-.75-.31-1.17-.48-2.07.53h0c-.61.68-1,1.24-1.44,1.73-1.69,2.14-2.46,2.87-7.47,3.9A8.54,8.54,0,0,0,31.92,68Zm9.84-7.14Z" style="fill: #fff"/>
        <path d="M41.56,62.22a1.39,1.39,0,0,1-1.37-1.17,5.32,5.32,0,0,1-.06-.56,12.6,12.6,0,0,1-8.77-4,14.38,14.38,0,0,1-3.79-12,56.4,56.4,0,0,0,.28-11.39c0-.64-.06-1.1-.06-1.43s0-1.54,3.66-3.39a20,20,0,0,1,6.67-2.07c4.69-.49,7.78,1.6,8.71,5.89,2.47,11.44.19,16.51-1.47,20.2-.31.69-.6,1.34-.83,2l-.21.55c-.87,2.34-1.62,4.36-1.39,5.85a1.4,1.4,0,0,1-1.16,1.58Zm-11-30.17c0,.23,0,.52.05.86a59.28,59.28,0,0,1-.31,11.93,11.65,11.65,0,0,0,3.05,9.76,9.86,9.86,0,0,0,7.07,3.13,35.73,35.73,0,0,1,1.3-3.91l.2-.55c.27-.72.58-1.4.91-2.13,1.59-3.54,3.57-7.93,1.28-18.48A4.2,4.2,0,0,0,40.88,29C37.07,28.16,31.72,31,30.57,32.05Z" style="fill: #fff"/>
        <g>
          <path d="M38.18,31.46c-.06.45.83,1.66,2,1.82A2.15,2.15,0,0,0,42.4,32c.06-.45-.83-.95-2-1.11s-2.15.07-2.22.53Z" style="fill: #fff"/>
          <path d="M40.43,33.76a1.73,1.73,0,0,1-.32,0,3.08,3.08,0,0,1-2-1.23,1.65,1.65,0,0,1-.41-1.11.88.88,0,0,1,.36-.58,3.46,3.46,0,0,1,2.38-.34,5.06,5.06,0,0,1,1.62.5c.74.42.8.89.76,1.14A2.54,2.54,0,0,1,40.43,33.76Zm-1.78-2.22a2.22,2.22,0,0,0,1.59,1.28A1.85,1.85,0,0,0,41.93,32a2.65,2.65,0,0,0-1.59-.62A2.72,2.72,0,0,0,38.65,31.54Z" style="fill: #fff"/>
        </g>
        <g>
          <path d="M73.57,30.53c.07.45-.82,1.66-2,1.82a2.14,2.14,0,0,1-2.22-1.23c-.06-.45.83-.95,2-1.11s2.16.07,2.22.52Z" style="fill: #fff"/>
          <path d="M71.32,32.6a2.35,2.35,0,0,1-2.19-1.45c-.09-.69,1-1.21,2.19-1.37s2.39,0,2.48.72h0a1.72,1.72,0,0,1-.6,1.21,2.74,2.74,0,0,1-1.59.87A1.42,1.42,0,0,1,71.32,32.6Zm.75-2.41a4.27,4.27,0,0,0-.68,0c-1.22.16-1.83.65-1.8.85a2,2,0,0,0,2,1,2.36,2.36,0,0,0,1.32-.74,1.53,1.53,0,0,0,.48-.83C73.32,30.41,72.87,30.19,72.07,30.19Z" style="fill: #fff"/>
        </g>
        <path d="M75.25,56.61a1.39,1.39,0,0,1-1.15-2.15c2.7-4,2.21-8.17,1.73-12.17a34.85,34.85,0,0,1-.37-5.19,36,36,0,0,1,.5-4.59,23.43,23.43,0,0,0,.39-5,1.38,1.38,0,1,1,2.76-.14,25.07,25.07,0,0,1-.42,5.6,34.54,34.54,0,0,0-.46,4.26A31,31,0,0,0,78.58,42c.51,4.29,1.09,9.15-2.18,14A1.4,1.4,0,0,1,75.25,56.61Z" style="fill: #fff"/>
      </g>
    </g>
  </g>
</svg>
