<svg xmlns="http://www.w3.org/2000/svg" viewBox="0 0 96 96">
  <g id="Camada_2" data-name="Camada 2">
    <g id="Camada_1-2" data-name="Camada 1">
      <g id="Grupo_621" data-name="Grupo 621">
        <path id="Caminho_4847" data-name="Caminho 4847" d="M85.71,48h-24v6.85H78.17A31.08,31.08,0,0,1,58.28,77.14L18.85,37.71A30.88,30.88,0,0,1,48,17.14a31.65,31.65,0,0,1,25.37,13l5.15-4.45a37.68,37.68,0,0,0-67.2,14.05L56.57,85A38.58,38.58,0,0,0,85.71,48Zm-75.42.34a36.61,36.61,0,0,0,11,26.06,37.21,37.21,0,0,0,26.05,11Z" style="fill: #fff"/>
        <path id="Caminho_4848" data-name="Caminho 4848" d="M48,0A48,48,0,1,0,96,48,48,48,0,0,0,48,0ZM21.26,74.75a37.22,37.22,0,0,1-11-26.06l37.38,37a38.85,38.85,0,0,1-26.4-11Zm35,9.94L11.31,39.77a37.69,37.69,0,0,1,67.2-14.06l-5.14,4.46A31.63,31.63,0,0,0,48,17.15,31.19,31.19,0,0,0,18.85,37.72L58.29,77.15A31.11,31.11,0,0,0,78.17,54.86H61.72V48h24A37.83,37.83,0,0,1,56.23,84.69Z" style="fill: #5b3692"/>
      </g>
    </g>
  </g>
</svg>
