<svg xmlns="http://www.w3.org/2000/svg" viewBox="0 0 96 104.06">
  <g id="Camada_2" data-name="Camada 2">
    <g id="Camada_1-2" data-name="Camada 1">
      <g>
        <path d="M33.87,22.37c-13.6-2.48-24.35.11-28.64,7.53C2,35.44,3,42.79,7.45,50.64a1.38,1.38,0,0,0,1.9.51h0a1.39,1.39,0,0,0,.52-1.9C5.81,42.18,5,35.84,7.65,31.3c3.56-6.17,13.15-8.48,25.72-6.19A1.4,1.4,0,0,0,35,24a1.37,1.37,0,0,0,0-.57,1.39,1.39,0,0,0-1.13-1.07ZM14.52,60.18A87.21,87.21,0,0,0,35.31,76.59C55,88,76,91,86.39,84a1.4,1.4,0,0,0-1.58-2.31C75.55,88,55.6,85.09,36.7,74.18A84.61,84.61,0,0,1,16.58,58.3a1.4,1.4,0,0,0-2.36,1.39,1.54,1.54,0,0,0,.3.49Z" style="fill: #7acce8"/>
        <path d="M83.09,58.48C92,48,95.1,37.38,90.82,30c-3.14-5.45-9.8-8.33-18.64-8.45a1.4,1.4,0,1,0,0,2.79c7.95.1,13.68,2.58,16.26,7.05C92,37.52,89.19,47,81,56.68a1.39,1.39,0,0,0,.12,2l0,0a1.41,1.41,0,0,0,2-.17l0,0ZM60.2,22.83a87.29,87.29,0,0,0-24.85,9.85C15,44.44,1.7,61.77,3.55,74.35A1.39,1.39,0,0,0,5.1,75.56,1.41,1.41,0,0,0,6.32,74a.13.13,0,0,1,0-.06c-1.64-11.16,11-27.6,30.44-38.84a84.18,84.18,0,0,1,24-9.54,1.4,1.4,0,0,0-.59-2.73Z" style="fill: #7acce8"/>
        <path d="M27.21,83.06c4.66,13,12.27,21,20.84,21,6.24,0,12-4.25,16.53-11.75a1.4,1.4,0,0,0-2-1.86,1.44,1.44,0,0,0-.36.42c-4,6.74-9,10.41-14.14,10.41-7.12,0-13.91-7.14-18.21-19.16a1.37,1.37,0,0,0-.72-.81,1.39,1.39,0,0,0-2,1.18v0a1.43,1.43,0,0,0,.09.54Zm42.53-2.54a87.59,87.59,0,0,0,3.7-25.85c0-23.1-8.08-43-19.6-48.13a1.39,1.39,0,0,0-1.13,2.55C63,13.65,70.65,32.55,70.65,54.67a84.88,84.88,0,0,1-3.57,25,1.35,1.35,0,0,0,.07,1.08,1.41,1.41,0,0,0,1.88.62A1.45,1.45,0,0,0,69.74,80.52ZM96,79.15a6.68,6.68,0,1,0-13.35-.08v.08a6.68,6.68,0,0,0,13.35,0Zm-2.79,0a3.89,3.89,0,1,1-3.88-3.88A3.89,3.89,0,0,1,93.21,79.15ZM6.67,85.83a6.68,6.68,0,0,0,6.68-6.68h0a6.67,6.67,0,0,0-6.67-6.67h0A6.67,6.67,0,0,0,0,79.15H0a6.68,6.68,0,0,0,6.67,6.68Zm0-2.79a3.89,3.89,0,0,1,0-7.78h0a3.89,3.89,0,1,1,0,7.78Z" style="fill: #7acce8"/>
        <path d="M48.05,13.35A6.67,6.67,0,0,0,50.6.51,6.6,6.6,0,0,0,48.05,0a6.68,6.68,0,0,0,0,13.35Zm0-2.79a3.89,3.89,0,0,1-3.59-2.4,3.83,3.83,0,0,1,0-3,3.88,3.88,0,1,1,5.07,5.07,3.77,3.77,0,0,1-1.48.3Zm1,48.83a4.83,4.83,0,1,1,3.63-5.72,4.82,4.82,0,0,1-3.63,5.72Z" style="fill: #7acce8"/>
      </g>
    </g>
  </g>
</svg>
