<svg xmlns="http://www.w3.org/2000/svg" viewBox="0 0 96 20.18">
  <g id="Camada_2" data-name="Camada 2">
    <g id="Camada_1-2" data-name="Camada 1">
      <path id="nginx-ar21" d="M18,20.13a2.12,2.12,0,0,1-1.48-.61L4.17,7.17V18a2.08,2.08,0,0,1-2.08,2.09,2.06,2.06,0,0,1-2.09-2V2.14A2.09,2.09,0,0,1,2.08.05,2.13,2.13,0,0,1,3.57.66L15.91,13V2.14a2.09,2.09,0,0,1,4.18,0V18A2.1,2.1,0,0,1,18,20.08M27.66,0l-.57,1.07L22.65,9.16l-.58,1,.58,1L27.09,19l.59,1.07H39.29l.57-1.17,3.32-6.68,1.48-3H41.3l-8.48,0a2.18,2.18,0,0,0-2.12,2.09,2.17,2.17,0,0,0,2.12,2.08l5.11,0-1.25,2.53H30.11l-3.26-5.74L30.14,4.2h7l1.63,3.34H43L40.31,1.2,39.74,0H27.66M48.79,0a2.15,2.15,0,0,0-2,2.11V7.55h4.17V2.11A2.14,2.14,0,0,0,48.8,0m6.69,20.13A2.1,2.1,0,0,1,53.4,18V2.17a2.09,2.09,0,0,1,4.18,0V13.05L69.93.7a2.08,2.08,0,0,1,3.56,1.47V18.09a2.09,2.09,0,1,1-4.17,0V7.21L57,19.56a2.09,2.09,0,0,1-1.48.61M88.94,10.12l6.49-6.47a2.09,2.09,0,0,0-2.94-3L86,7.17,79.5.69a2.09,2.09,0,0,0-3,3l6.5,6.47-6.5,6.44a2.09,2.09,0,0,0,0,3,2,2,0,0,0,1.43.62,2.08,2.08,0,0,0,1.47-.61l6.48-6.46,6.48,6.46a2.08,2.08,0,0,0,1.47.61,1.84,1.84,0,0,0,1.43-.62,2.09,2.09,0,0,0,0-3l-6.47-6.45m-40.14,10A2.16,2.16,0,0,1,46.65,18V9.27h4.17V18a2.15,2.15,0,0,1-2.11,2.11" style="fill: #569724"/>
    </g>
  </g>
</svg>
