<svg xmlns="http://www.w3.org/2000/svg" viewBox="0 0 96 96">
  <g id="Camada_2" data-name="Camada 2">
    <g id="Camada_1-2" data-name="Camada 1">
      <g>
        <circle cx="48" cy="48" r="48" style="fill: #333"/>
        <g>
          <path d="M90,48c0-5.57-7-10.84-17.65-14.11C74.81,23,73.72,14.35,68.89,11.57a7.53,7.53,0,0,0-3.84-1v3.82a4,4,0,0,1,2,.45c2.32,1.33,3.33,6.42,2.55,13-.19,1.61-.5,3.3-.88,5A83,83,0,0,0,57.81,31a82.84,82.84,0,0,0-7.12-8.56c5.58-5.19,10.82-8,14.38-8V10.6h0C60.36,10.6,54.2,14,48,19.77c-6.24-5.78-12.4-9.1-17.11-9.1v3.81c3.55,0,8.8,2.83,14.38,8A82.25,82.25,0,0,0,38.17,31a79.77,79.77,0,0,0-10.89,1.88c-.39-1.71-.68-3.37-.89-5-.8-6.54.19-11.62,2.5-13a3.81,3.81,0,0,1,2-.45V10.68h0a7.64,7.64,0,0,0-3.87,1c-4.81,2.78-5.89,11.42-3.41,22.28C12.93,37.2,6,42.46,6,48s7,10.84,17.65,14.11C21.19,73,22.28,81.67,27.11,84.44a7.54,7.54,0,0,0,3.85,1c4.71,0,10.88-3.35,17.11-9.17,6.23,5.78,12.39,9.1,17.1,9.1a7.63,7.63,0,0,0,3.87-1C73.85,81.6,74.93,73,72.45,62.1,83.07,58.83,90,53.56,90,48ZM67.71,36.59c-.64,2.21-1.42,4.48-2.31,6.76C64.69,42,64,40.61,63.15,39.24s-1.62-2.7-2.46-4C63.12,35.6,65.46,36,67.71,36.59ZM59.87,54.82c-1.34,2.31-2.71,4.51-4.13,6.54-2.55.23-5.14.35-7.74.35s-5.17-.12-7.7-.33q-2.14-3.06-4.15-6.51c-1.3-2.24-2.48-4.52-3.56-6.81,1.06-2.29,2.26-4.59,3.54-6.83s2.71-4.5,4.13-6.54c2.55-.22,5.14-.34,7.74-.34s5.17.12,7.7.32q2.14,3.06,4.15,6.51c1.3,2.24,2.48,4.52,3.56,6.81C62.33,50.29,61.15,52.58,59.87,54.82ZM65.4,52.6c.92,2.29,1.71,4.59,2.36,6.81-2.24.55-4.61,1-7.06,1.37.84-1.32,1.68-2.67,2.47-4.06S64.69,54,65.4,52.6ZM48,70.87q-2.39-2.48-4.76-5.48c1.55.07,3.12.12,4.71.12s3.2,0,4.76-.12A67.34,67.34,0,0,1,48,70.87ZM35.3,60.78c-2.44-.36-4.78-.8-7-1.35.63-2.21,1.42-4.49,2.31-6.76.7,1.37,1.44,2.74,2.24,4.1S34.46,59.48,35.3,60.78ZM48,25.15a72.08,72.08,0,0,1,4.76,5.48c-1.54-.07-3.12-.12-4.71-.12s-3.2,0-4.76.12A65.69,65.69,0,0,1,48,25.15ZM35.28,35.24c-.84,1.31-1.68,2.67-2.47,4S31.29,42,30.59,43.4a71.81,71.81,0,0,1-2.37-6.81C30.47,36.06,32.83,35.6,35.28,35.24ZM19.78,56.67c-6.06-2.58-10-6-10-8.66s3.92-6.1,10-8.67c1.48-.63,3.09-1.19,4.75-1.72A82,82,0,0,0,28.38,48a80.43,80.43,0,0,0-3.8,10.38A49.65,49.65,0,0,1,19.78,56.67ZM29,81.14c-2.32-1.34-3.33-6.42-2.55-13,.19-1.61.5-3.31.88-5A81.34,81.34,0,0,0,38.19,65a83.92,83.92,0,0,0,7.12,8.56c-5.58,5.19-10.82,8-14.38,8A4.18,4.18,0,0,1,29,81.14Zm40.62-13c.8,6.54-.19,11.63-2.5,13a3.81,3.81,0,0,1-2,.45c-3.55,0-8.8-2.83-14.38-8A82.25,82.25,0,0,0,57.83,65a79.77,79.77,0,0,0,10.89-1.88A49.53,49.53,0,0,1,69.61,68.09ZM76.2,56.67a50.38,50.38,0,0,1-4.74,1.73A82.21,82.21,0,0,0,67.6,48,80.42,80.42,0,0,0,71.41,37.6c1.69.53,3.3,1.11,4.81,1.74,6.06,2.59,10,6,10,8.67S82.26,54.1,76.2,56.67Z" style="fill: #8dd6f7"/>
          <circle cx="47.98" cy="48.01" r="7.82" style="fill: #8dd6f7"/>
        </g>
      </g>
    </g>
  </g>
</svg>
