<svg xmlns="http://www.w3.org/2000/svg" xmlns:xlink="http://www.w3.org/1999/xlink" viewBox="0 0 96 58.8">
  <defs>
    <clipPath id="clip-path">
      <path d="M34.88,13.58l-9.14,5.28a1.1,1.1,0,0,0-.56,1V30.38a1.08,1.08,0,0,0,.56.95l9.14,5.28a1.08,1.08,0,0,0,1.1,0l9.15-5.28a1.09,1.09,0,0,0,.55-.95V19.82a1.1,1.1,0,0,0-.56-1L36,13.58a1.15,1.15,0,0,0-1.1,0" style="fill: none"/>
    </clipPath>
    <linearGradient id="Gradiente_sem_nome_7" data-name="Gradiente sem nome 7" x1="-290.7" y1="-2789.81" x2="-290.44" y2="-2789.81" gradientTransform="matrix(-50.75, 103.54, 103.54, 50.75, 274134.46, 171701.03)" gradientUnits="userSpaceOnUse">
      <stop offset="0.3" stop-color="#5a8244"/>
      <stop offset="0.5" stop-color="#6b8f54"/>
      <stop offset="0.8" stop-color="#78a84e"/>
    </linearGradient>
    <clipPath id="clip-path-2">
      <path d="M25.41,31.05a1.12,1.12,0,0,0,.33.28l7.84,4.53,1.31.75a1,1,0,0,0,.63.15l.22,0,9.64-17.66a1.06,1.06,0,0,0-.26-.2l-6-3.46L36,13.58a1,1,0,0,0-.28-.11Z" style="fill: none"/>
    </clipPath>
    <linearGradient id="Gradiente_sem_nome_5" data-name="Gradiente sem nome 5" x1="-328.54" y1="-2820.3" x2="-328.37" y2="-2820.3" gradientTransform="matrix(142.41, -105.22, -105.22, -142.41, -249947.57, -436167.11)" gradientUnits="userSpaceOnUse">
      <stop offset="0.57" stop-color="#5a8244"/>
      <stop offset="0.72" stop-color="#73945b"/>
      <stop offset="1" stop-color="#84a768"/>
    </linearGradient>
    <clipPath id="clip-path-3">
      <path d="M35.32,13.44a1.19,1.19,0,0,0-.44.14l-9.12,5.26,9.83,17.91a1,1,0,0,0,.4-.14l9.14-5.28a1.11,1.11,0,0,0,.53-.75l-10-17.12a.82.82,0,0,0-.22,0h-.09" style="fill: none"/>
    </clipPath>
    <linearGradient id="Gradiente_sem_nome_3" data-name="Gradiente sem nome 3" x1="-316.03" y1="-2830.79" x2="-315.88" y2="-2830.79" gradientTransform="matrix(129.89, 0, 0, -129.89, 41075.03, -367664.27)" gradientUnits="userSpaceOnUse">
      <stop offset="0.16" stop-color="#86bb52"/>
      <stop offset="0.38" stop-color="#89b066"/>
      <stop offset="0.47" stop-color="#83a768"/>
      <stop offset="0.7" stop-color="#789a5e"/>
      <stop offset="0.9" stop-color="#5a8244"/>
    </linearGradient>
  </defs>
  <g id="Camada_2" data-name="Camada 2">
    <g id="Camada_1-2" data-name="Camada 1">
      <g>
        <g>
          <g>
            <path d="M47.45,58.8a1.83,1.83,0,0,1-.91-.25l-2.89-1.71c-.44-.24-.23-.33-.08-.38a6.43,6.43,0,0,0,1.31-.59.2.2,0,0,1,.21,0l2.22,1.32a.32.32,0,0,0,.27,0l8.67-5a.29.29,0,0,0,.14-.24V42a.29.29,0,0,0-.14-.24l-8.67-5a.24.24,0,0,0-.26,0l-8.67,5a.28.28,0,0,0-.13.23V52a.26.26,0,0,0,.13.23L41,53.56c1.29.65,2.08-.11,2.08-.88V42.81a.25.25,0,0,1,.25-.25h1.1a.25.25,0,0,1,.25.25v9.88a2.4,2.4,0,0,1-2.57,2.7,3.7,3.7,0,0,1-2-.54l-2.28-1.31A1.83,1.83,0,0,1,37,52V42a1.84,1.84,0,0,1,.91-1.58l8.68-5a1.9,1.9,0,0,1,1.82,0l8.67,5A1.83,1.83,0,0,1,57.94,42V52A1.83,1.83,0,0,1,57,53.54l-8.67,5a1.82,1.82,0,0,1-.91.24" style="fill: #7a9b66"/>
            <path d="M50.13,51.9c-3.8,0-4.59-1.74-4.59-3.2a.25.25,0,0,1,.25-.25h1.12a.26.26,0,0,1,.25.21c.17,1.14.67,1.72,3,1.72,1.83,0,2.61-.41,2.61-1.38,0-.56-.22-1-3.06-1.25-2.38-.24-3.84-.76-3.84-2.66s1.47-2.79,3.94-2.79c2.78,0,4.16,1,4.33,3a.24.24,0,0,1-.07.2.25.25,0,0,1-.18.08H52.72a.24.24,0,0,1-.24-.2c-.27-1.2-.93-1.58-2.71-1.58-2,0-2.23.69-2.23,1.21s.28.82,3,1.18,3.93.85,3.93,2.72-1.58,3-4.33,3M60.67,41.3H61a.25.25,0,0,0,.28-.26c0-.26-.18-.26-.27-.26h-.3Zm-.35-.82H61c.22,0,.65,0,.65.5a.44.44,0,0,1-.35.46c.26,0,.27.18.31.42a1.72,1.72,0,0,0,.09.5h-.39c0-.09-.07-.57-.07-.59s-.07-.16-.2-.16h-.33v.75h-.36Zm-.77.93a1.4,1.4,0,0,0,1.39,1.41,1.4,1.4,0,1,0,0-2.8,1.4,1.4,0,0,0-1.4,1.39m3.08,0A1.68,1.68,0,1,1,61,39.75a1.68,1.68,0,0,1,1.67,1.67" style="fill: #7a9b66"/>
          </g>
          <path d="M20.6,19.65a1.1,1.1,0,0,0-.55-1L10.86,13.4a1.16,1.16,0,0,0-.51-.15h-.09a1.16,1.16,0,0,0-.51.15L.56,18.69a1.1,1.1,0,0,0-.56,1L0,33.9a.55.55,0,0,0,.28.48.54.54,0,0,0,.55,0l5.46-3.13a1.12,1.12,0,0,0,.56-1V23.63a1.1,1.1,0,0,1,.55-1l2.33-1.34a1.08,1.08,0,0,1,.55-.15,1.12,1.12,0,0,1,.56.15l2.32,1.34a1.11,1.11,0,0,1,.56,1v6.65a1.14,1.14,0,0,0,.55,1l5.46,3.12a.56.56,0,0,0,.56,0,.55.55,0,0,0,.27-.48ZM64,27.07a.29.29,0,0,1-.14.24l-3.16,1.82a.28.28,0,0,1-.28,0l-3.15-1.82a.27.27,0,0,1-.14-.24V23.42a.28.28,0,0,1,.13-.24l3.16-1.82a.28.28,0,0,1,.28,0l3.16,1.82a.29.29,0,0,1,.14.24Zm.85-27a.54.54,0,0,0-.55,0A.56.56,0,0,0,64,.56v14.1a.39.39,0,0,1-.58.34l-2.3-1.33a1.1,1.1,0,0,0-1.11,0L50.81,19a1.11,1.11,0,0,0-.55,1V30.55a1.12,1.12,0,0,0,.55,1L60,36.83a1.15,1.15,0,0,0,1.11,0l9.19-5.32a1.1,1.1,0,0,0,.56-1V4.09a1.12,1.12,0,0,0-.57-1ZM95.45,23.33a1.12,1.12,0,0,0,.55-1V19.79a1.12,1.12,0,0,0-.55-1l-9.14-5.3a1.1,1.1,0,0,0-1.11,0L76,18.84a1.1,1.1,0,0,0-.56,1V30.41a1.09,1.09,0,0,0,.56,1l9.13,5.21a1.11,1.11,0,0,0,1.09,0l5.53-3.07A.58.58,0,0,0,92,33a.55.55,0,0,0-.28-.48l-9.25-5.31a.55.55,0,0,1-.28-.48V23.43a.57.57,0,0,1,.28-.48l2.88-1.66a.54.54,0,0,1,.55,0L88.82,23a.57.57,0,0,1,.28.48v2.62a.56.56,0,0,0,.28.48.54.54,0,0,0,.55,0Z" style="fill: #363636;fill-rule: evenodd"/>
        </g>
        <path d="M85.62,22.83a.2.2,0,0,1,.21,0l1.77,1a.22.22,0,0,1,.1.18v2a.2.2,0,0,1-.1.18l-1.77,1a.2.2,0,0,1-.21,0l-1.76-1a.19.19,0,0,1-.11-.18V24a.22.22,0,0,1,.1-.18Z" style="fill: #7a9b66;fill-rule: evenodd"/>
        <g style="clip-path: url(#clip-path)">
          <path d="M54.92,18,29.15,5.34,15.94,32.28,41.71,44.91Z" style="fill: url(#Gradiente_sem_nome_7)"/>
        </g>
        <g style="clip-path: url(#clip-path-2)">
          <path d="M14.27,21.7,32.46,46.32,56.52,28.54,38.33,3.92Z" style="fill: url(#Gradiente_sem_nome_5)"/>
        </g>
        <g style="clip-path: url(#clip-path-3)">
          <path d="M25.76,13.44V36.75h19.9V13.44Z" style="fill: url(#Gradiente_sem_nome_3)"/>
        </g>
      </g>
    </g>
  </g>
</svg>
