<svg xmlns="http://www.w3.org/2000/svg" viewBox="0 0 96 37.11">
  <g id="Camada_2" data-name="Camada 2">
    <g id="Camada_1-2" data-name="Camada 1">
      <g id="mongodb">
        <g id="Grupo_474" data-name="Grupo 474">
          <path id="Caminho_4734" data-name="Caminho 4734" d="M8.2.1,9.2,2A6.19,6.19,0,0,0,10,2.9a26.18,26.18,0,0,1,2.32,2.62,22.78,22.78,0,0,1,3.62,7.3,18,18,0,0,1,.77,4.95,17.44,17.44,0,0,1-5.11,12.89,15.79,15.79,0,0,1-1.82,1.56c-.35,0-.51-.28-.65-.51a4,4,0,0,1-.5-1.45,7.09,7.09,0,0,1-.17-1.84v-.28c0-.07-.32-27.89-.2-28Z" style="fill: #6e9240"/>
          <path id="Caminho_4735" data-name="Caminho 4735" d="M8.2,0c0-.09-.09,0-.12,0a1.82,1.82,0,0,1-.34,1.11,5,5,0,0,1-.89.89A19.27,19.27,0,0,0,2.51,7.6a22.41,22.41,0,0,0-2.51,9A30.54,30.54,0,0,0,.73,23a19.26,19.26,0,0,0,5.08,8,22,22,0,0,0,1.8,1.53c.18,0,.2-.16.24-.28A5.32,5.32,0,0,0,8,31.48c.18-1,.28-2,.41-3L8.21.05Z" style="fill: #80a750"/>
          <path id="Caminho_4736" data-name="Caminho 4736" d="M9.2,33.44a2.94,2.94,0,0,1,.5-1.23,1.18,1.18,0,0,1-.56-.52A4.49,4.49,0,0,1,8.83,31a11.56,11.56,0,0,1-.42-2.61v-.52a2.54,2.54,0,0,0-.12.87,19.32,19.32,0,0,1-.37,2.72,2.3,2.3,0,0,1-.32,1.05.32.32,0,0,0,0,.14A12.56,12.56,0,0,1,8.15,36v.41c0,.48,0,.38.38.54a2,2,0,0,1,.5.21c.13,0,.15-.09.15-.18l-.06-.68V34.38a3.87,3.87,0,0,1,.09-1Z" style="fill: #bdbbbb"/>
          <path id="Caminho_4737" data-name="Caminho 4737" d="M24.54,25v1.93a1.62,1.62,0,0,0,0,.22.49.49,0,0,0,.37.43c.19.05.39.09.58.12s.16.06.17.18c0,.43,0,.48-.44.46a23.87,23.87,0,0,0-2.93,0h-.09c-.3,0-.33,0-.33-.32,0-.05,0-.11,0-.16a.13.13,0,0,1,.13-.14h0c.2,0,.39-.08.58-.12a.52.52,0,0,0,.44-.49,8.83,8.83,0,0,0,0-.89V22.82a.51.51,0,0,0-.28-.48,3.82,3.82,0,0,0-.72-.31A.81.81,0,0,1,21.9,22a.19.19,0,0,1,0-.36.6.6,0,0,1,.21-.08A11.69,11.69,0,0,0,24.36,21c.15-.05.18,0,.2.11a.93.93,0,0,1,0,.29,2.57,2.57,0,0,0,0,.48.18.18,0,0,0,.07.17c.07,0,.13,0,.19,0a6.52,6.52,0,0,1,.82-.55,3.82,3.82,0,0,1,1.34-.5,1.89,1.89,0,0,1,1.53.46,2.34,2.34,0,0,1,.48.56c.13.18.14.18.31.06a7.7,7.7,0,0,1,1.54-.91A2.38,2.38,0,0,1,32.55,21a2.07,2.07,0,0,1,1.24,1.2,3.29,3.29,0,0,1,.29,1.42V27a.49.49,0,0,0,.32.48,3.83,3.83,0,0,0,.76.18c.16,0,.16,0,.16.21,0,.41-.06.44-.47.41-1-.05-2-.05-3.05,0-.21,0-.21,0-.21-.18v-.06c0-.35,0-.35.31-.42l.33-.09a.5.5,0,0,0,.4-.49l0-.95,0-2.48A2.1,2.1,0,0,0,32.5,23a1.55,1.55,0,0,0-1.68-1,2.93,2.93,0,0,0-1.37.54.28.28,0,0,0-.14.27,19.71,19.71,0,0,1,.05,2.43V27a.5.5,0,0,0,.42.55h0l.58.12c.09,0,.14.06.14.16v.08c0,.36,0,.37-.39.37-1-.06-2,0-3,0-.34,0-.37,0-.36-.37s0-.22.23-.26l.41-.07a.56.56,0,0,0,.54-.57.06.06,0,0,0,0,0l0-.85,0-2.55a2.09,2.09,0,0,0-.27-.91A1.3,1.3,0,0,0,26.46,22a2.67,2.67,0,0,0-1.48.41.75.75,0,0,0-.43.77V25Zm23.86.08v1.79a2.53,2.53,0,0,0,0,.38.38.38,0,0,0,.3.35,3,3,0,0,0,.67.11c.13,0,.15.07.17.17V28c0,.44-.07.49-.5.47a23.06,23.06,0,0,0-2.88,0h-.37a.11.11,0,0,1-.12-.09,1.19,1.19,0,0,1,0-.53c0-.08.06-.09.14-.12l.52-.09a.46.46,0,0,0,.44-.5v0l0-1.06V22.91a.46.46,0,0,0-.29-.47,4.21,4.21,0,0,0-.73-.31.78.78,0,0,1-.21-.09.22.22,0,0,1-.12-.3.22.22,0,0,1,.09-.1.47.47,0,0,1,.25-.11,10.62,10.62,0,0,0,2.36-.6c.09,0,.13,0,.17.06a.43.43,0,0,1,0,.25l0,.6c0,.08,0,.18,0,.21s.13-.06.18-.09a5.68,5.68,0,0,1,1.23-.78A2.49,2.49,0,0,1,51,20.9a2.11,2.11,0,0,1,1.85,1.23,3.06,3.06,0,0,1,.33,1.26l0,.93v2.8a.41.41,0,0,0,.3.43,4.3,4.3,0,0,0,.69.16c.21,0,.21.07.23.26V28c0,.43-.06.45-.49.42a26.72,26.72,0,0,0-2.83,0H50.8c-.08,0-.13,0-.14-.09a1.25,1.25,0,0,1,0-.51.13.13,0,0,1,.14-.12l.58-.1a.41.41,0,0,0,.34-.37l0-.36,0-2.65a4,4,0,0,0-.07-.91,1.49,1.49,0,0,0-1.32-1.18,2.42,2.42,0,0,0-1.59.41.7.7,0,0,0-.35.63v1.92s0,0,0,0Z" style="fill: #49494b"/>
          <path id="Caminho_4738" data-name="Caminho 4738" d="M85.48,21.49a5,5,0,0,0-3-3.92,7.14,7.14,0,0,0-2.51-.45c-.36,0-5.18.06-5.54,0a.2.2,0,0,0-.21.09,1.38,1.38,0,0,0-.17.29c-.15.34-.15.32.22.36a7,7,0,0,1,.89.17.7.7,0,0,1,.52.53c0,.14,0,4.6,0,6.67l0,1.49a1.14,1.14,0,0,1-.07.32.54.54,0,0,1-.29.35,1.67,1.67,0,0,1-.53.14c-.34,0-.39,0-.51.43l0,.14c0,.16,0,.18.16.18l3.78,0,1.49,0,1-.13a6.35,6.35,0,0,0,3.08-1.46A5.28,5.28,0,0,0,85,25.1a5.41,5.41,0,0,0,.54-2.27,4.37,4.37,0,0,0,0-1.35Zm-1.84,1.79A5.06,5.06,0,0,1,83,25.59a3.51,3.51,0,0,1-2.34,1.79,4.08,4.08,0,0,1-1.39.08,5.51,5.51,0,0,1-1-.18,1.06,1.06,0,0,1-.79-1.11V18.53c0-.45.21-.56.53-.57a8.36,8.36,0,0,1,1.5,0,5.43,5.43,0,0,1,1.53.37A3.56,3.56,0,0,1,82,19a4.37,4.37,0,0,1,1.39,2.18,6.27,6.27,0,0,1,.21,2.11ZM96,24.53a1.55,1.55,0,0,0,0-.22,2.42,2.42,0,0,0-1-1.63,3.89,3.89,0,0,0-1.22-.57.83.83,0,0,0-.21-.06A.09.09,0,0,1,93.6,22a3.26,3.26,0,0,0,.7-.46,2.35,2.35,0,0,0,.79-1.23,2.38,2.38,0,0,0-.88-2.45,3.37,3.37,0,0,0-2-.63c-1.36,0-2.74,0-4.11,0a7.85,7.85,0,0,1-1.19,0c-.08,0-.19,0-.24.05a1.64,1.64,0,0,0-.24.52c0,.09,0,.14.11.15l.88.13a.61.61,0,0,1,.6.54,4.44,4.44,0,0,1,0,.63l0,2.36,0,4.68A3.75,3.75,0,0,1,88,27a.46.46,0,0,1-.33.39,3.22,3.22,0,0,1-.75.15.3.3,0,0,0-.33.21,2.17,2.17,0,0,0-.12.36c0,.15,0,.2.17.18s4.29.09,5.07,0a7.34,7.34,0,0,0,1.4-.25,4.65,4.65,0,0,0,2.11-1.25A2.73,2.73,0,0,0,96,25a2.19,2.19,0,0,0,0-.51Zm-6.14-5.2,0-1a.28.28,0,0,1,.25-.32h0a4,4,0,0,1,.91,0,5.59,5.59,0,0,1,.91.16,1.83,1.83,0,0,1,1.24,1,1.71,1.71,0,0,1,.18.77,2.31,2.31,0,0,1-.15,1,1.38,1.38,0,0,1-1,.86,16.52,16.52,0,0,1-2.11.05c-.19,0-.21,0-.21-.21V20.46a6.86,6.86,0,0,1,0-1.11ZM94,26.14a1.94,1.94,0,0,1-1.16,1.18,2.28,2.28,0,0,1-.93.16,7.58,7.58,0,0,1-1.17-.07,1.1,1.1,0,0,1-.81-1c-.07-.65,0-1.31,0-1.79V23c0-.21,0-.27.24-.27h1.19l.81.1a2.73,2.73,0,0,1,1.5.78,2.05,2.05,0,0,1,.54,1.26A2.85,2.85,0,0,1,94,26.12Z" style="fill: #bdbbbb"/>
          <path id="Caminho_4739" data-name="Caminho 4739" d="M61.8,22.33l.33.05a.82.82,0,0,0,.91-.6,1.3,1.3,0,0,0,0-.73c-.08,0-.11.06-.15.09a1.23,1.23,0,0,1-.64.27,3,3,0,0,1-1.35-.14l-.62-.22a3.64,3.64,0,0,0-1.35-.17,4.66,4.66,0,0,0-1.81.56,2.47,2.47,0,0,0-1.24,1.5,3,3,0,0,0-.08,1.2,2.27,2.27,0,0,0,1.48,1.92l.14.05c.11.06.12.13,0,.21l-.32.22-.76.47a.28.28,0,0,0-.16.37s0,0,0,0a1.35,1.35,0,0,0,.41.61,1.91,1.91,0,0,0,.58.35c.14.07.14.1,0,.21l-.72.52a4.43,4.43,0,0,0-.69.61,1.25,1.25,0,0,0-.3,1.14A2.07,2.07,0,0,0,56.16,32a2.64,2.64,0,0,0,1.16.63,4.94,4.94,0,0,0,4.82-1.35A2.71,2.71,0,0,0,63,29.42a1.78,1.78,0,0,0-1.36-1.85l-.69-.13-2.09-.18a1.46,1.46,0,0,1-.64-.17.42.42,0,0,1-.18-.58.05.05,0,0,1,0-.05.56.56,0,0,1,.43-.24l.4,0a3.8,3.8,0,0,0,2.14-1,2.31,2.31,0,0,0,.65-1.08,3.49,3.49,0,0,0,0-1.67c0-.14,0-.15.15-.12Zm-3.1,6.31h.23a7.15,7.15,0,0,1,1.59.21A5,5,0,0,1,61,29a1.2,1.2,0,0,1,.63,1.27,1.59,1.59,0,0,1-.89,1.24,2.69,2.69,0,0,1-1.08.31h-.4A3,3,0,0,1,58,31.63a2,2,0,0,1-.75-.5,1.31,1.31,0,0,1-.05-1.85l.06-.07a1.9,1.9,0,0,1,1.46-.58Zm1.45-3.95a1.23,1.23,0,0,1-1.43.78,1.51,1.51,0,0,1-1.18-.85,2.7,2.7,0,0,1-.22-2,1.23,1.23,0,0,1,1-1,1.57,1.57,0,0,1,1.75.83,2.74,2.74,0,0,1,.26,1.35,2.94,2.94,0,0,1-.18.89ZM44.2,23.83A3.43,3.43,0,0,0,43.37,22a3.34,3.34,0,0,0-2.58-1.11,4.36,4.36,0,0,0-2.43.7,3.27,3.27,0,0,0-1.49,1.93,4.43,4.43,0,0,0,0,2.23,3.38,3.38,0,0,0,3.84,2.73A4,4,0,0,0,42.23,28a3.44,3.44,0,0,0,1.63-1.61,4.13,4.13,0,0,0,.41-1.95l-.06-.65Zm-1.8,2.81a1.53,1.53,0,0,1-1.3,1.06,2.1,2.1,0,0,1-1.55-.39,2.71,2.71,0,0,1-.8-.95A4.88,4.88,0,0,1,38.41,23a1.89,1.89,0,0,1,.53-.93,1.75,1.75,0,0,1,1.62-.4,2.26,2.26,0,0,1,1.39.92,3.72,3.72,0,0,1,.64,1.63q0,.39.06.78a4.38,4.38,0,0,1-.24,1.6Zm29.46-2.71A3.44,3.44,0,0,0,71,22a3.37,3.37,0,0,0-2.55-1.08,4.47,4.47,0,0,0-2.36.65,3.22,3.22,0,0,0-1.58,2.09,4.38,4.38,0,0,0,.3,3,3,3,0,0,0,2.07,1.71,4.16,4.16,0,0,0,3-.31,3.52,3.52,0,0,0,1.78-1.9,4.85,4.85,0,0,0,.29-1.69,3.12,3.12,0,0,0,0-.52Zm-1.75,2.54a1.56,1.56,0,0,1-1.35,1.23,2.06,2.06,0,0,1-1.5-.36,2.59,2.59,0,0,1-.87-1,3.71,3.71,0,0,1-.4-1.39,4.79,4.79,0,0,1,.06-1.77,2,2,0,0,1,.12-.34,1.7,1.7,0,0,1,2.06-1.09,2.31,2.31,0,0,1,1.45,1,3.69,3.69,0,0,1,.59,1.67,3.35,3.35,0,0,1,0,.71,4.09,4.09,0,0,1-.18,1.39Z" style="fill: #49494b"/>
        </g>
      </g>
    </g>
  </g>
</svg>
