<svg xmlns="http://www.w3.org/2000/svg" viewBox="0 0 96 96.01">
  <g id="Camada_2" data-name="Camada 2">
    <g id="Camada_1-2" data-name="Camada 1">
      <g>
        <path d="M48,0a48,48,0,1,1-48,50.23A48,48,0,0,1,48,0Z" style="fill: #5f94bc"/>
        <path d="M30.34,33.62a16.48,16.48,0,0,1,1.34-3.52,4.44,4.44,0,0,1,2.55-2.28,5.29,5.29,0,0,0,2.17-1.39,13.16,13.16,0,0,1,8.06-3.88,1,1,0,0,0,1-.73,13.33,13.33,0,0,1,1.83-3.22,4.71,4.71,0,0,1,4-2.15A3.52,3.52,0,0,1,54,17.89a19.17,19.17,0,0,1,1.88,3.26c.18.37.32.51.77.41a3.13,3.13,0,0,1,3.72,1.9,17.39,17.39,0,0,1,1.42,5.66,27.13,27.13,0,0,1-1.22,12,27.45,27.45,0,0,1-3.33,6.4c-.16.24-.21.4,0,.65a20,20,0,0,1,5.31,14.58v.4a1.36,1.36,0,0,0,.66-.25C64.91,62,66.4,61,68.05,60.12a16,16,0,0,1,7.37-2,5.05,5.05,0,0,1,4.76,7.19A4.49,4.49,0,0,1,77.06,68a21.65,21.65,0,0,0-7.18,3.23A48.94,48.94,0,0,1,58,76.8a2.62,2.62,0,0,0-.78.4,8,8,0,0,1-3.8,1.38c-4.15.58-8.31.83-12.49,1A8.58,8.58,0,0,1,36,78.51c-.41-.25-.77-.72-1.19-.79s-.87.31-1.32.42A9.89,9.89,0,0,1,26,76.83a3.94,3.94,0,0,1-2-3.76A1.59,1.59,0,0,0,23.67,72a11.86,11.86,0,0,1-2-5.2c-.6-3.68.71-6.72,3.14-9.39a1.14,1.14,0,0,0,.32-.84,20,20,0,0,1,2.59-10.39,20.64,20.64,0,0,1,3.94-4.74.5.5,0,0,0,.13-.77,14.58,14.58,0,0,1-1.39-3.45c-.29-.21-.1-.53-.22-.79a3.05,3.05,0,0,0-.06-.6V34.5a2.32,2.32,0,0,0,.05-.59c.05-.09,0-.22.13-.29Z" style="fill: #fbfbfb"/>
        <path d="M30.31,36.4c.08.26,0,.55.13.81,0,0,0,.24-.1.09a2.56,2.56,0,0,1-.2-.9,10.22,10.22,0,0,1,.17-3,2,2,0,0,0,0,.24l0,.27c-.09.18,0,.39-.08.57v1.37c.07.18,0,.39.07.57Z" style="fill: #5e94bd"/>
        <path d="M59.79,63.26a22.62,22.62,0,0,1-.34,2.85c-.1.83,0,.92.82.78a16.3,16.3,0,0,0,5.25-2.06,42.3,42.3,0,0,1,5.33-2.9,11.92,11.92,0,0,1,4.53-1,2.29,2.29,0,0,1,2.49,1.92,2,2,0,0,1-1.53,2.37,25.07,25.07,0,0,0-8.45,3.91,46.54,46.54,0,0,1-11.37,5.18,1.21,1.21,0,0,0-.43.17,5.29,5.29,0,0,1-3.45,1.33c-3.54.46-7.1.67-10.66.88a12.21,12.21,0,0,1-3.08-.1c-1.64-.33-2.33-.94-2.58-2.28a3,3,0,0,1,1.55-3.14l.46-.29a5.19,5.19,0,0,1-1.59-1.46c-.2-.27-.31-.1-.37.13l-.6,2.27a9.58,9.58,0,0,1-.51,1.48,3.58,3.58,0,0,1-3.19,2.21,8,8,0,0,1-4.26-.86,1.58,1.58,0,0,1-.89-2.14A6.55,6.55,0,0,1,27.74,71c-1.26.25-1.82-.48-2.26-1.38a9.46,9.46,0,0,1-.93-6.15,8.36,8.36,0,0,1,2.53-4.28A2.89,2.89,0,0,0,28,56.8a16.64,16.64,0,0,1,6.42-14c.39-.33.78-.66,1.18-1s.29-.29.08-.55a11.75,11.75,0,0,1-2.44-4.81A7.18,7.18,0,0,1,34.47,31a1.11,1.11,0,0,1,.63-.44,8.9,8.9,0,0,0,3.36-2.16,10.43,10.43,0,0,1,8.12-3.1.58.58,0,0,0,.7-.47,18.33,18.33,0,0,1,1.85-3.93,4.93,4.93,0,0,1,1-1.23,1.15,1.15,0,0,1,2,.3,39.53,39.53,0,0,1,2.46,4.86c.2.42.34.57.78.28A9,9,0,0,1,57,24.31a.64.64,0,0,1,.93.44,16.29,16.29,0,0,1,1.09,4.41,5.27,5.27,0,0,1,.09,1.25c0,.91,0,1.83,0,2.75a4,4,0,0,0,0,1.24,20.2,20.2,0,0,1-1.72,7.14,33.54,33.54,0,0,1-3.52,5.94c-.52.74-.51.75.16,1.35a17.55,17.55,0,0,1,5.69,11,4.64,4.64,0,0,1,0,.53,3.28,3.28,0,0,0,0,1.17,17.22,17.22,0,0,0,0,1.76Z" style="fill: #5f94bc"/>
        <path d="M59.16,34.41c-.12-.11-.09-.26-.09-.39v-3.2c0-.14,0-.28.09-.39a18.26,18.26,0,0,1,0,4Z" style="fill: #5b91bb"/>
        <path d="M59.79,63.26a12.46,12.46,0,0,1-.09-2.44c0-.16-.06-.35.09-.49A11.06,11.06,0,0,1,59.79,63.26Z" style="fill: #588fb9"/>
        <path d="M30.23,34.46c0-.19-.09-.4.08-.57A1.24,1.24,0,0,1,30.23,34.46Zm.08,1.94c-.16-.17-.08-.38-.08-.57A1.12,1.12,0,0,1,30.31,36.4Z" style="fill: #5f94bc"/>
      </g>
    </g>
  </g>
</svg>
