<svg xmlns="http://www.w3.org/2000/svg" viewBox="0 0 96 40.1">
  <g id="Camada_2" data-name="Camada 2">
    <g id="Camada_1-2" data-name="Camada 1">
      <g>
        <path d="M57.53,13.65c-2.1,0-3.67,1-3.67,3.52,0,1.87,1,3.17,3.56,3.17,2.14,0,3.6-1.26,3.6-3.25a3.14,3.14,0,0,0-3.49-3.44Zm-4.2,17.56a3.38,3.38,0,0,0-1,2c0,1.53,2,2,4.63,2,2.22,0,5.24-.16,5.24-2.22,0-1.23-1.45-1.3-3.29-1.42l-5.58-.38ZM64.65,13.76a6.07,6.07,0,0,1,1.42,3.87c0,4.24-3.33,6.73-8.15,6.73a12.29,12.29,0,0,1-3-.34l-1.26,2,3.75.23C64,26.7,67.9,26.89,67.9,32c0,4.41-3.86,6.89-10.52,6.89-6.92,0-9.56-1.76-9.56-4.78,0-1.72.76-2.64,2.1-3.9a2.56,2.56,0,0,1-1.68-2.53,3.43,3.43,0,0,1,1.11-2.33c.69-.73,1.45-1.46,2.37-2.3a6.11,6.11,0,0,1-3.29-5.74c0-4.4,2.91-7.42,8.76-7.42a13.21,13.21,0,0,1,3.52.38h7.46V13.5l-3.52.26ZM74.9,6.81a3.14,3.14,0,0,1-3.44-3.44A3.09,3.09,0,0,1,74.9,0c2.22,0,3.48,1.19,3.48,3.37A3.15,3.15,0,0,1,74.9,6.81ZM70,29.8v-3l2-.26c.53-.08.61-.2.61-.77V14.5c0-.42-.12-.69-.5-.8L70,13l.42-3.1h7.92V25.75c0,.61,0,.69.61.77l2,.26v3Zm26-1.48a15.38,15.38,0,0,1-6.24,1.53c-4.55,0-6.27-1.83-6.27-6.16v-10c0-.23,0-.39-.31-.39H80.5V9.88c3.37-.39,4.71-2.07,5.13-6.24h3.64V9.08c0,.26,0,.38.3.38H95v3.82h-5.7v9.15c0,2.25.53,3.13,2.6,3.13A9,9,0,0,0,95,25l1,3.37" style="fill: #312b12"/>
        <path d="M39.31,18.28,21.82.79a2.58,2.58,0,0,0-3.65,0h0L14.54,4.42,19.14,9A3.06,3.06,0,0,1,23,12.93l4.44,4.45a3.06,3.06,0,0,1,3.18,5.06h0a3.07,3.07,0,0,1-5-3.34L21.48,15V25.86a3.38,3.38,0,0,1,.82.58,3.08,3.08,0,0,1,0,4.35h0A3.07,3.07,0,0,1,18,26.45a3.16,3.16,0,0,1,1-.68v-11a3,3,0,0,1-1-.67,3.08,3.08,0,0,1-.66-3.35L12.75,6.2l-12,12a2.58,2.58,0,0,0,0,3.65h0L18.25,39.34a2.58,2.58,0,0,0,3.65,0L39.31,21.93a2.58,2.58,0,0,0,0-3.65" style="fill: #be4d3a"/>
      </g>
    </g>
  </g>
</svg>
