<svg xmlns="http://www.w3.org/2000/svg" viewBox="0 0 96 85.49">
  <g id="Camada_2" data-name="Camada 2">
    <g id="Camada_1-2" data-name="Camada 1">
      <g>
        <path d="M96,42.76c0-6.36-8-12.39-20.17-16.13,2.81-12.44,1.56-22.34-4-25.51A8.51,8.51,0,0,0,67.49,0V4.38a4.57,4.57,0,0,1,2.23.51c2.66,1.53,3.82,7.34,2.92,14.81-.22,1.84-.57,3.78-1,5.76a94.74,94.74,0,0,0-12.43-2.14,95.44,95.44,0,0,0-8.14-9.78c6.38-5.93,12.37-9.18,16.44-9.18V0h0C62.13,0,55.08,3.84,48,10.49,40.84,3.87,33.79.08,28.41.08V4.44c4.05,0,10.06,3.23,16.44,9.12a92.34,92.34,0,0,0-8.08,9.76,91.49,91.49,0,0,0-12.45,2.16c-.45-2-.78-3.86-1-5.68-.92-7.47.21-13.28,2.85-14.83a4.38,4.38,0,0,1,2.25-.51V.1h0A8.76,8.76,0,0,0,24,1.19c-5.5,3.17-6.73,13.06-3.89,25.46C7.92,30.41,0,36.42,0,42.76S8,55.14,20.17,58.88c-2.81,12.44-1.56,22.35,4,25.52a8.63,8.63,0,0,0,4.4,1.09C33.91,85.49,41,81.66,48.08,75c7.12,6.62,14.17,10.41,19.55,10.41a8.76,8.76,0,0,0,4.42-1.09c5.5-3.17,6.73-13,3.89-25.46C88.08,55.12,96,49.1,96,42.76ZM70.52,29.7c-.72,2.53-1.62,5.13-2.64,7.73-.8-1.56-1.64-3.13-2.56-4.69s-1.86-3.09-2.82-4.58C65.28,28.57,68,29.08,70.52,29.7Zm-9,20.84C60,53.19,58.47,55.69,56.84,58c-2.91.25-5.87.39-8.84.39s-5.91-.14-8.81-.37c-1.62-2.33-3.2-4.82-4.73-7.44s-2.84-5.16-4.07-7.79c1.21-2.62,2.58-5.24,4-7.8s3.09-5.15,4.72-7.48c2.91-.25,5.87-.39,8.84-.39s5.91.14,8.81.37c1.62,2.33,3.2,4.82,4.73,7.44s2.84,5.16,4.07,7.79C64.38,45.36,63,48,61.56,50.54ZM67.88,48a81.12,81.12,0,0,1,2.7,7.79c-2.56.62-5.26,1.15-8.06,1.56,1-1.5,1.92-3.05,2.82-4.63S67.08,49.57,67.88,48ZM48,68.88a80.72,80.72,0,0,1-5.44-6.26c1.76.08,3.56.13,5.38.13s3.66,0,5.44-.13A76.33,76.33,0,0,1,48,68.88ZM33.48,57.35c-2.78-.41-5.46-.92-8-1.54.72-2.53,1.62-5.13,2.64-7.73.8,1.56,1.64,3.13,2.56,4.69S32.52,55.87,33.48,57.35ZM47.94,16.63a80.72,80.72,0,0,1,5.44,6.26c-1.76-.07-3.56-.13-5.38-.13s-3.66,0-5.44.13A76.33,76.33,0,0,1,47.94,16.63ZM33.46,28.16c-1,1.5-1.92,3.05-2.82,4.64s-1.74,3.13-2.54,4.69a81.12,81.12,0,0,1-2.7-7.79C28,29.1,30.66,28.57,33.46,28.16ZM15.75,52.66c-6.92-3-11.41-6.83-11.41-9.9s4.49-7,11.41-9.91c1.68-.72,3.52-1.37,5.42-2a94.42,94.42,0,0,0,4.41,11.91,92.76,92.76,0,0,0-4.35,11.86A58.19,58.19,0,0,1,15.75,52.66Zm10.53,28c-2.66-1.53-3.82-7.34-2.92-14.81.22-1.84.57-3.78,1-5.76a94.74,94.74,0,0,0,12.43,2.14A95.44,95.44,0,0,0,44.93,72c-6.38,5.93-12.37,9.18-16.44,9.18A4.71,4.71,0,0,1,26.28,80.62ZM72.69,65.71c.92,7.47-.21,13.29-2.85,14.83a4.38,4.38,0,0,1-2.25.51c-4.05,0-10.06-3.23-16.44-9.12a91.34,91.34,0,0,0,8.08-9.76A91.49,91.49,0,0,0,71.68,60,53.6,53.6,0,0,1,72.69,65.71Zm7.54-13c-1.68.72-3.52,1.37-5.42,2a94.88,94.88,0,0,0-4.4-11.91,93.63,93.63,0,0,0,4.34-11.86c1.94.61,3.78,1.27,5.5,2,6.92,3,11.41,6.83,11.41,9.91S87.16,49.72,80.23,52.66Z" style="fill: #8dd6f7"/>
        <circle cx="47.98" cy="42.76" r="8.94" style="fill: #8dd6f7"/>
      </g>
    </g>
  </g>
</svg>
