<svg xmlns="http://www.w3.org/2000/svg" viewBox="0 0 96 93.6">
  <g id="Camada_2" data-name="Camada 2">
    <g id="Camada_1-2" data-name="Camada 1">
      <g>
        <path d="M79,93.6H17a17,17,0,0,1-17-17V17A17,17,0,0,1,17,0H79A17,17,0,0,1,96,17V76.6A17,17,0,0,1,79,93.6Z" style="fill: #db2ab8"/>
        <path d="M77.48,89.6h-59A14.54,14.54,0,0,1,4,75.08V18.52A14.54,14.54,0,0,1,18.52,4H77.44A14.52,14.52,0,0,1,92,18.52V75A14.49,14.49,0,0,1,77.48,89.6Z" style="fill: #2b0024"/>
        <path d="M38,43.8l11.2,21.52c.2.32.08.64-.24.64H42a.79.79,0,0,1-.85-.52C38.55,60.16,36,54.88,33.27,49.2h-.08c-2.4,5.36-5,11-7.6,16.28a.78.78,0,0,1-.72.45H18.28c-.4,0-.44-.32-.24-.57L29,44.48,18.4,23.36a.32.32,0,0,1,.24-.56h6.88a.63.63,0,0,1,.72.44c2.52,5.28,5.08,10.72,7.48,16h.08c2.32-5.28,4.88-10.76,7.36-16,.2-.32.32-.52.72-.52h6.44c.32,0,.44.25.24.56Zm13.16,6.52c0-9.32,6.2-16.6,16-16.6a17.74,17.74,0,0,1,2.08.08V23.2a.4.4,0,0,1,.4-.4H76c.32,0,.4.12.4.32V59.84a28.49,28.49,0,0,0,.2,3.92c0,.25-.08.32-.32.44A23.68,23.68,0,0,1,66,66.52c-8.68,0-14.88-5.32-14.88-16.2ZM69.24,40.08a6,6,0,0,0-2.32-.4c-5,0-8.56,3.88-8.56,10.32,0,7.37,3.6,10.33,8.12,10.33a7.34,7.34,0,0,0,2.76-.45V40.08Z" style="fill: #f4d7f0"/>
      </g>
    </g>
  </g>
</svg>
