<svg xmlns="http://www.w3.org/2000/svg" viewBox="0 0 96 31.21">
  <g id="Camada_2" data-name="Camada 2">
    <g id="Camada_1-2" data-name="Camada 1">
      <g id="firebase-ar21">
        <g id="Grupo_487" data-name="Grupo 487">
          <path id="Caminho_4824" data-name="Caminho 4824" d="M0,25.19l.19-.26L9.13,8l0-.18L5.21.39a.73.73,0,0,0-1-.3.68.68,0,0,0-.38.53Z" style="fill: #ecbe54"/>
          <path id="Caminho_4825" data-name="Caminho 4825" d="M.11,25l.14-.28L9.1,7.93,5.17.5A.67.67,0,0,0,4.28.19a.65.65,0,0,0-.37.54Z" style="fill: #e7a22d"/>
          <g id="Grupo_485" data-name="Grupo 485">
            <path id="Caminho_4826" data-name="Caminho 4826" d="M.11,25l.14-.28L9.1,7.93,5.17.5A.66.66,0,0,0,3.91.73Z"/>
          </g>
          <path id="Caminho_4827" data-name="Caminho 4827" d="M12,13.39l2.93-3L12,4.78a.76.76,0,0,0-1-.31.75.75,0,0,0-.3.31l-1.57,3V8Z" style="fill: #e2b968"/>
          <path id="Caminho_4828" data-name="Caminho 4828" d="M12,13.26l2.85-2.92L12,4.91a.67.67,0,0,0-.86-.37.65.65,0,0,0-.34.31l-1.58,3,0,.16Z" style="fill: #e6a02b"/>
          <g id="Grupo_486" data-name="Grupo 486">
            <path id="Caminho_4829" data-name="Caminho 4829" d="M12,13.26l2.85-2.92L12,4.91a.67.67,0,0,0-.86-.37.65.65,0,0,0-.34.31l-1.58,3,0,.16Z"/>
          </g>
          <path id="Caminho_4830" data-name="Caminho 4830" d="M9.13,7.75,0,25.19l.09-.08L.4,25l11.43-11.4.15-.39Z" style="fill: #d98023"/>
          <path id="Caminho_4831" data-name="Caminho 4831" d="M12.38,30.94l10.36-5.78L19.78,7A.7.7,0,0,0,19,6.37a.67.67,0,0,0-.39.2L0,25.19l10.29,5.75a2.16,2.16,0,0,0,2.09,0" style="fill: #f2dc70"/>
          <path id="Caminho_4832" data-name="Caminho 4832" d="M22.64,25.12,19.71,7.05a.62.62,0,0,0-1.07-.39L.12,25.16l10.17,5.68a2.14,2.14,0,0,0,2.08,0Z" style="fill: #ecc64d"/>
          <path id="Caminho_4833" data-name="Caminho 4833" d="M12.38,30.77a2.16,2.16,0,0,1-2.09,0L.08,25.1,0,25.19l10.29,5.75a2.16,2.16,0,0,0,2.09,0l10.36-5.78,0-.15Z" style="fill: #daa643"/>
        </g>
        <path id="Caminho_4834" data-name="Caminho 4834" d="M30.57,22.52H28.82V8.81h8v1.68H30.57V15h5.64v1.65H30.57ZM39.9,10.78a1.24,1.24,0,1,1,.37-.88A1.22,1.22,0,0,1,39.9,10.78Zm0,11.74H38.15V13.14H39.9Zm3.81,0H42V13.14h1.68v1.53h.08a2.35,2.35,0,0,1,1.1-1.26,3,3,0,0,1,1.62-.5,3.15,3.15,0,0,1,1.32.23l-.67,1.65a2.5,2.5,0,0,0-.94-.14,2.32,2.32,0,0,0-1.69.76,2.74,2.74,0,0,0-.74,2v5.13Zm8.67.29a4.52,4.52,0,0,1-3.45-1.41,5,5,0,0,1-1.34-3.58,5.2,5.2,0,0,1,1.29-3.53,4.2,4.2,0,0,1,3.3-1.47,4.33,4.33,0,0,1,3.34,1.36,5.14,5.14,0,0,1,1.25,3.64l0,.32h-7.4a3.18,3.18,0,0,0,.95,2.24,2.88,2.88,0,0,0,2,.83A2.53,2.53,0,0,0,54.9,19.6l1.58.65A4.15,4.15,0,0,1,55,22.08a4.4,4.4,0,0,1-2.59.74Zm2.53-6.12a2.49,2.49,0,0,0-.74-1.53,2.61,2.61,0,0,0-2-.72,2.45,2.45,0,0,0-1.69.61,3.1,3.1,0,0,0-1,1.65h5.44Zm8.25,6.12a4,4,0,0,1-1.92-.46A3.32,3.32,0,0,1,60,21.2h-.06v1.3H58.21V8.81H60v4.33l-.08,1.3H60a3.09,3.09,0,0,1,1.28-1.15,4,4,0,0,1,1.92-.46,4.1,4.1,0,0,1,3.14,1.43,5.16,5.16,0,0,1,1.33,3.56,5.06,5.06,0,0,1-1.32,3.55,4.17,4.17,0,0,1-3.14,1.44Zm-.29-1.61a2.76,2.76,0,0,0,2.1-.93,3.86,3.86,0,0,0,0-4.92,2.83,2.83,0,0,0-2.1-.93,2.79,2.79,0,0,0-2.12.92,3.5,3.5,0,0,0-.87,2.47,3.43,3.43,0,0,0,.87,2.48,2.79,2.79,0,0,0,2.11.92Zm9.39,1.61a3.78,3.78,0,0,1-2.5-.86,3,3,0,0,1-.23-4.3,2.86,2.86,0,0,1,.41-.37,4.78,4.78,0,0,1,2.93-.88,5.1,5.1,0,0,1,2.54.58v-.27a2.1,2.1,0,0,0-.7-1.66A2.56,2.56,0,0,0,73,14.43a2.69,2.69,0,0,0-1.38.36,1.91,1.91,0,0,0-.86,1l-1.61-.68a3.68,3.68,0,0,1,1.28-1.56,4.15,4.15,0,0,1,2.53-.72,4.37,4.37,0,0,1,3,1.05,3.79,3.79,0,0,1,1.19,3v5.67H75.42v-1.3h-.08a3.47,3.47,0,0,1-3.08,1.61Zm.29-1.61a2.87,2.87,0,0,0,2-.81,2.52,2.52,0,0,0,.89-1.93,3.48,3.48,0,0,0-2.24-.61,2.89,2.89,0,0,0-1.93.56,1.67,1.67,0,0,0-.66,1.3,1.27,1.27,0,0,0,.6,1.09,2.33,2.33,0,0,0,1.36.4Zm9.67,1.61A4.14,4.14,0,0,1,79.63,22a4.49,4.49,0,0,1-1.51-1.91l1.58-.65a2.6,2.6,0,0,0,2.55,1.76,2.3,2.3,0,0,0,1.35-.37,1.12,1.12,0,0,0,.53-1c0-.61-.43-1-1.29-1.24L81,18.21a4.55,4.55,0,0,1-1.71-.87,2.06,2.06,0,0,1-.8-1.72,2.37,2.37,0,0,1,1.1-2,4.73,4.73,0,0,1,4.84-.22A3.28,3.28,0,0,1,85.78,15l-1.53.64A2.09,2.09,0,0,0,82.1,14.4a2.42,2.42,0,0,0-1.32.32,1,1,0,0,0-.54.88c0,.54.42.9,1.24,1.09l1.86.44a3.46,3.46,0,0,1,2,1.06,2.53,2.53,0,0,1,.64,1.68,2.64,2.64,0,0,1-1,2.11,4.1,4.1,0,0,1-2.66.84Zm9.38,0a4.53,4.53,0,0,1-3.46-1.42,5.08,5.08,0,0,1-1.33-3.58,5.22,5.22,0,0,1,1.28-3.52,4.22,4.22,0,0,1,3.31-1.48,4.36,4.36,0,0,1,3.34,1.36A5.16,5.16,0,0,1,96,17.81v.33h-7.4a3.2,3.2,0,0,0,1,2.24,2.83,2.83,0,0,0,2,.82,2.53,2.53,0,0,0,2.57-1.6l1.57.65a4.15,4.15,0,0,1-1.51,1.83,4.39,4.39,0,0,1-2.59.73Zm2.53-6.12a2.49,2.49,0,0,0-.74-1.53,2.65,2.65,0,0,0-2-.73,2.51,2.51,0,0,0-1.69.62,3.07,3.07,0,0,0-1,1.64h5.44Z" style="fill: #64666a"/>
      </g>
    </g>
  </g>
</svg>
