<svg xmlns="http://www.w3.org/2000/svg" viewBox="0 0 96 58.04">
  <g id="Camada_2" data-name="Camada 2">
    <g id="Camada_1-2" data-name="Camada 1">
      <path d="M22.65,15.14H40.76v1.44H24.31V27.44H39.78v1.44H24.31V40.8H41v1.44H22.65Zm19.73,0H44.3l8.53,11.92,8.71-11.92L73.4,0,53.92,28.31,64,42.24H62L52.83,29.56,43.66,42.24h-2L51.81,28.31,42.38,15.14Zm22.29,1.44V15.14H85.31v1.44H75.8V42.24H74.14V16.58ZM0,15.14H2.07L30.68,58,18.86,42.24l-17.13-25L1.66,42.24H0ZM85.14,40.36a.58.58,0,0,1-.59-.6.59.59,0,1,1,1.18,0,.58.58,0,0,1-.59.6Zm1.63-1.59h.89a.81.81,0,0,0,.88.81c.58,0,.9-.35.9-1V34.45h.91v4.13a1.67,1.67,0,0,1-1.8,1.85,1.62,1.62,0,0,1-1.78-1.66Zm4.76-.05h.9c.07.55.61.91,1.39.91s1.26-.38,1.26-.9S94.74,38,94,37.84l-.75-.19c-1-.24-1.53-.75-1.53-1.61,0-1,.85-1.74,2.12-1.74A1.91,1.91,0,0,1,95.91,36H95a1.12,1.12,0,0,0-1.23-.87c-.72,0-1.2.34-1.2.87s.31.65,1.07.83l.64.16c1.2.28,1.69.77,1.69,1.64,0,1.12-.86,1.82-2.24,1.82s-2.16-.67-2.23-1.71Z"/>
    </g>
  </g>
</svg>
